<svg width="20" height="20" viewBox="0 0 20 20" fill="none" xmlns="http://www.w3.org/2000/svg">
<path d="M16.6751 2.41406H5.10946C4.9437 2.41406 4.78473 2.47991 4.66752 2.59712C4.5503 2.71433 4.48446 2.8733 4.48446 3.03906C4.48446 3.20482 4.5503 3.36379 4.66752 3.481C4.78473 3.59821 4.9437 3.66406 5.10946 3.66406H15.4495L2.62508 16.4891C2.56309 16.5461 2.51327 16.6151 2.47862 16.6919C2.44398 16.7687 2.42522 16.8517 2.42347 16.936C2.42173 17.0202 2.43703 17.1039 2.46847 17.1821C2.4999 17.2603 2.54682 17.3313 2.6064 17.3909C2.66598 17.4504 2.73698 17.4974 2.81516 17.5288C2.89333 17.5602 2.97705 17.5755 3.06129 17.5738C3.14552 17.572 3.22854 17.5533 3.30534 17.5186C3.38214 17.484 3.45115 17.4342 3.50821 17.3722L16.3332 4.54719V14.8878C16.3332 15.0536 16.3991 15.2125 16.5163 15.3298C16.6335 15.447 16.7924 15.5128 16.9582 15.5128C17.124 15.5128 17.2829 15.447 17.4001 15.3298C17.5174 15.2125 17.5832 15.0536 17.5832 14.8878V3.32281C17.5829 3.08201 17.4871 2.85115 17.3169 2.68081C17.1467 2.51048 16.9159 2.41456 16.6751 2.41406Z" fill="#CEA85B"/>
</svg>
