<svg xmlns="http://www.w3.org/2000/svg" viewBox="0 0 4680 3120"><defs><clipPath id="a"><path fill="none" d="M3883.23 2206.28q2.4-5.78 4.51-11.71c.05-.16.12-.32.18-.48a235.5 235.5 0 0 0 3.72-11.55c.1-.32.21-.63.31-1 1.08-3.71 2-7.47 2.94-11.26.12-.51.28-1 .4-1.54.83-3.59 1.53-7.24 2.2-10.89.13-.73.31-1.45.43-2.18.62-3.57 1.1-7.19 1.55-10.82.11-.84.26-1.66.36-2.49.43-3.78.72-7.59 1-11.41 0-.72.14-1.42.18-2.13q.38-6.83.38-13.75 0-5.66-.28-11.23c-.06-1.19-.18-2.35-.26-3.53-.16-2.53-.3-5.07-.54-7.57-.12-1.25-.31-2.48-.45-3.72-.27-2.42-.52-4.84-.86-7.23-.19-1.32-.45-2.62-.66-3.94-.37-2.29-.71-4.58-1.14-6.85-.25-1.28-.56-2.53-.82-3.8-.48-2.28-.93-4.57-1.47-6.83-.29-1.18-.63-2.35-.93-3.52-.59-2.32-1.17-4.63-1.83-6.92-.33-1.16-.72-2.29-1.07-3.44-.7-2.28-1.38-4.56-2.14-6.8-.37-1.12-.8-2.2-1.2-3.3-.77-2.2-1.53-4.4-2.37-6.56a165.18 165.18 0 0 0-23.55-45.43c-.54-.76-1-1.55-1.58-2.3l-.14-.19-.12-.17c-.5-.73-1.06-1.42-1.57-2.14-2.18-3.11-4.39-6.2-6.72-9.19-.49-.64-1-1.23-1.53-1.86-2.43-3.06-4.88-6.08-7.45-9-.5-.57-1-1.11-1.56-1.68-2.62-2.93-5.27-5.83-8-8.62-.54-.55-1.13-1.06-1.67-1.61-2.79-2.76-5.6-5.49-8.52-8.11-.57-.52-1.17-1-1.75-1.49-2.95-2.6-5.93-5.17-9-7.62-.63-.5-1.3-1-1.93-1.44-3.07-2.4-6.17-4.77-9.36-7-.73-.52-1.51-1-2.25-1.49-3.14-2.16-6.3-4.29-9.55-6.3-.81-.51-1.67-1-2.49-1.44-3.22-1.94-6.45-3.86-9.77-5.64-1-.56-2.1-1-3.13-1.57-3.17-1.64-6.34-3.29-9.59-4.79-1.23-.57-2.5-1-3.73-1.59-3.12-1.38-6.23-2.77-9.42-4-1.48-.58-3-1.06-4.51-1.61-3-1.1-6-2.22-9-3.2-1.76-.57-3.57-1-5.34-1.54-2.85-.84-5.68-1.73-8.57-2.47-2-.5-4-.87-6-1.32-2.76-.63-5.49-1.31-8.28-1.83-2.42-.46-4.89-.77-7.34-1.16s-4.78-.83-7.2-1.13c-3.25-.41-6.55-.65-9.84-.92-1.67-.14-3.32-.36-5-.47a243.124 243.124 0 0 0-30.18.04c-1.68.11-3.33.34-5 .48-3.29.28-6.59.53-9.84.94-2.42.31-4.8.77-7.2 1.15s-4.92.71-7.34 1.17c-2.78.53-5.52 1.22-8.27 1.85-2 .46-4 .84-6 1.34-2.89.75-5.72 1.64-8.56 2.49-1.77.53-3.58 1-5.33 1.55-3 1-6 2.12-9 3.23-1.5.55-3 1-4.51 1.61-3.18 1.25-6.29 2.65-9.41 4-1.23.55-2.5 1-3.72 1.6-3.25 1.51-6.42 3.16-9.58 4.82-1 .54-2.1 1-3.13 1.57-3.31 1.79-6.54 3.72-9.76 5.66-.82.5-1.67.94-2.49 1.45-3.24 2-6.39 4.16-9.53 6.32-.74.51-1.51 1-2.25 1.5-3.18 2.25-6.27 4.62-9.34 7-.63.49-1.29 1-1.92 1.45-3.11 2.49-6.11 5.09-9.09 7.73-.54.47-1.11.91-1.64 1.39-2.92 2.64-5.73 5.39-8.52 8.16-.54.54-1.12 1.05-1.65 1.59-2.76 2.8-5.41 5.71-8 8.65-.51.57-1 1.1-1.56 1.68-2.56 2.93-5 6-7.42 9-.5.63-1 1.23-1.53 1.87-2.32 3-4.52 6.09-6.7 9.2-.51.73-1.06 1.42-1.57 2.15l-.11.17a1.33 1.33 0 0 0-.14.19c-.56.75-1 1.54-1.58 2.3a165.47 165.47 0 0 0-23.44 45.49c-.83 2.16-1.59 4.36-2.36 6.56-.39 1.1-.82 2.19-1.19 3.3-.75 2.25-1.43 4.53-2.12 6.81-.35 1.15-.74 2.29-1.07 3.45-.65 2.28-1.22 4.6-1.81 6.91-.3 1.18-.64 2.35-.92 3.53-.55 2.34-1 4.71-1.51 7.08-.24 1.19-.52 2.36-.75 3.55-.44 2.33-.79 4.68-1.16 7-.2 1.26-.44 2.5-.62 3.77-.33 2.39-.58 4.81-.85 7.23-.13 1.24-.31 2.47-.43 3.72-.23 2.51-.37 5-.53 7.57-.07 1.18-.19 2.35-.24 3.53-.18 3.72-.26 7.47-.26 11.24q0 6.91.41 13.74c.05.72.14 1.42.19 2.13.26 3.82.56 7.64 1 11.41.09.84.25 1.65.36 2.49.46 3.63.95 7.25 1.57 10.82.12.69.29 1.36.42 2 .68 3.7 1.4 7.38 2.25 11 .07.32.17.64.25 1 1 4 2 7.93 3.12 11.83.09.32.21.63.31 1 1.16 3.89 2.39 7.75 3.75 11.55 0 .16.12.31.18.47q2.11 5.92 4.54 11.71c.08.19.17.37.25.56 1.59 3.76 3.26 7.48 5 11.14 8.51 21.43 19.67 41.48 33.05 61.5 41.17 61.6 51.49 97.55 51.54 143.78v1.38c.52 30.72 26.09 55.1 56.82 55.07l143.35-.17c30.72 0 56.24-24.48 56.68-55.2v-1.38c0-46.24 10.18-82.21 51.21-143.91 13.33-20.05 24.44-40.12 32.91-61.57 1.76-3.66 3.42-7.39 5-11.15.11-.09.21-.27.29-.47Z"/></clipPath></defs><g class="color000000 svgShape" data-name="7"><path fill="#d5f6ff" d="M3683.77 2598.69c-344.27 77.24-784.9 54.63-784.9 54.63-510.68.77-565.19-223.17-969.36-97.41q-3.55 1.1-7.14 2.24c-130.08 41.38-264.75 64.07-400.43 66-304.76 4.37-805.08-80-819.34-471.18-3.23-88.41 18.38-192.51 72.7-314.79 51.65-116.26 183.24-179.25 100.85-402.72-9.53-25.82-12.58-52.82-17-78.55q-3.08-17.39-5.36-34.49c-.41-3-.82-6.07-1.2-9.07-.24-1.86-.46-3.72-.68-5.63-7.42-62.14-7.89-121.51-2.24-178C865 976.92 925.33 845.45 1014.54 738c177.21-213.38 468.2-331.92 746.33-334.82q16.71-.18 33.37.2c3.62.08 7.24.19 10.86.31q8.54.29 17 .72 44.79 2.32 88.6 8.8 16 2.34 31.91 5.31 13 2.4 25.79 5.19 18.69 4.07 37.08 8.93 7.9 2.12 15.75 4.36a740.64 740.64 0 0 1 153 62.56q27 14.88 52.46 32.08a625.83 625.83 0 0 1 75.31 59.89 600.14 600.14 0 0 1 100 121.15A768.22 768.22 0 0 0 2576.87 908c5.14 4.09 10.33 8.06 15.52 12q14.25 10.69 28.72 20.55c189.65 129.31 337.16 149.31 431.46 118 457.82-152 724.49 96.57 856.41 433.46 2.1 5.39 4.46 10.64 6.17 16.11 83.55 266.59 143.3 1006.5-231.38 1090.57Z" class="colorfff0d5 svgShape"/><path fill="#d5f6ff" d="M2531.32 658s61.57 280.61 567.76 294.35c430.28 11.67 872.24-257.55 348.81-482.25s-982.72-76.95-916.57 187.9Z" class="colorfff0d5 svgShape"/><path fill="#4dd2f6" d="M1493.3 857.59c-31.41-28-48-75.52-41.81-115.83 3.89-25.21 74.76-69.08 74.76-69.08l-105.73-114.9s-49.59 67.25-75 69c-38.82 2.84-82.68-17.1-106.28-49.5-15-20.62 4.38-101.68 4.38-101.68l-156.18-6.74s12.27 82.54-4.36 101.67c-23 26.5-64.12 40-97.64 33.24-25-5-65.4-77.85-65.4-77.85L800.42 626.37s64.77 52.51 65.46 77.88c1 42.69-21.67 89.72-57.44 115.2-20.75 14.84-101.78-5.65-101.78-5.65l-8.73 156.07s82.55-11.33 101.46 5.56c31.42 28.09 48.11 75.63 41.85 115.9-3.88 25.16-74.85 69-74.85 69l105.75 114.88s49.56-67.13 75-68.92c38.71-2.76 82.74 17.2 106.35 49.49 15 20.63-4.3 101.65-4.3 101.65l156.07 6.74s-12.33-82.51 4.28-101.66c23.09-26.43 64.25-40 97.82-33.23 24.86 5.06 65.38 77.9 65.38 77.9l119.59-100.51s-64.71-52.51-65.49-77.9c-1-42.63 21.65-89.65 57.44-115.21 20.77-14.69 101.84 5.78 101.84 5.78l8.64-156.05s-82.47 11.19-101.46-5.7Zm-358 314c-142.77-6.15-253.55-126.91-247.36-269.72s126.9-253.51 269.71-247.39S1411.28 781.36 1405 924.17c-6.09 142.76-126.82 253.54-269.72 247.38Z" class="colorf64d6b svgShape"/><path fill="#4dd2f6" d="M1344.05 925.08c-4.65 109.12-97 193.81-206.15 189s-193.73-97-189-206c4.65-109.25 97-193.82 206.08-189.18s193.82 97.04 189.07 206.18Z" class="colorf64d6b svgShape"/><path fill="#fff" d="M2400.36 997.81c36.57 0 51.19-47.69 20.63-67.77a89.09 89.09 0 0 0-84.54-7.08 89 89 0 0 0-167.38 22.8 80.44 80.44 0 0 0-55.33-22c-1.33 0-2.64 0-3.95.09-47.55 2.29-44.94 73.93 2.67 73.93ZM3862.6 1709.27c35.78 0 50.09-46.68 20.18-66.33a87.17 87.17 0 0 0-82.73-6.93 87.15 87.15 0 0 0-163.82 22.31 78.73 78.73 0 0 0-54.15-21.5c-1.3 0-2.58 0-3.86.09-46.54 2.24-44 72.36 2.6 72.36ZM3405.65 676.6c60.54 0 84.75-79 34.15-112.19a147.47 147.47 0 0 0-140-11.73 147.42 147.42 0 0 0-277.11 37.75 133.18 133.18 0 0 0-91.61-36.38q-3.28 0-6.54.16C2845.88 558 2850.2 676.6 2929 676.6Z" class="colorffffff svgShape"/><path fill="#38d4fd" d="M3781.29 2576.23a7.16 7.16 0 0 1-2.43-.48l-.19-.07a4 4 0 0 1-.38-.18l-.17-.08c-.52-.25-1-.43-1.3-.56h-.11l-270.21-168.4L3236.09 2575a8 8 0 0 1-4.34 1.26 8.24 8.24 0 0 1-5.74-2.31 11.45 11.45 0 0 1-3-11.19l138.1-520.46-.63-2.1c0-.25-.1-.49-.16-.74a10.47 10.47 0 0 0-.19-1.12V2037l-.07-.61-.06-.45v-242.5c0-.41.06-.81.06-1.22v-238.74L3085.9 1312.2a11.11 11.11 0 0 1-3-11.64v-.19a9 9 0 0 1 8.41-6.74H3364l134.71-246.22a9 9 0 0 1 7.74-4.87h.14a8.54 8.54 0 0 1 7.58 4.77l131.89 246.32h274.14c3.89 0 7.24 2.73 8.52 7a11.09 11.09 0 0 1-3 11.56L3650 1554.77v237.55a9.66 9.66 0 0 0 .07 1.2v234.81l.91 2.06a10.29 10.29 0 0 0 .83 1.52 11.55 11.55 0 0 1 .81 7.89l-.68 2.74L3790 2562.78a13.09 13.09 0 0 1 .24 3.71c0 .13-.05.3-.08.48l-.08.5a14 14 0 0 1-.65 2.55c-.1.24-.2.47-.29.7l-.18.43a10.25 10.25 0 0 1-1.78 2.49l-.22.21-.32.38a8.9 8.9 0 0 1-2.55 1.42 5.88 5.88 0 0 0-.78.33 7.52 7.52 0 0 1-2.02.25Zm-255.76-181.63 240.6 150-68.25-257.36Zm-278.62 150 240.6-150-172.34-107.41Zm80.94-273.14 178.65 111.34 178.68-111.34-178.68-125.66Zm196.06-137.83 163.74 115.14-51.49-194.09Zm-198.52 115.14 163.74-115.14-112.25-78.95Zm181.11-127.36 105.29-74H3401.3Zm-92.14-111.8-15.25 17h211.4l-14.64-16.91-.46-.43-90.41-81.15Zm-36.13 6 112-100.83-112-100.8Zm141.5-100.83 112.17 100.78V1814Zm-14.73-13.13 109.86-98.6h-219.51Zm-109.44-119.48h219.09l-109.13-98.25Zm-17.38-10.8 112.43-100.55-112.43-101.28Zm142-100.61 111.82 100.5V1571Zm-14.7-13.1 110.59-99H3395.3Zm-110-119.86h220.43l-110.12-98.4Zm-35.39-10.61v-212.88h-241.94Zm291.39 0 242-212.88h-242Zm-273.35-.18L3491 1426l-112.81-100.75Zm142.35-101L3632 1525.7v-199.09Zm-14.69-13.11 110.26-98.6h-220.51Zm-120.24-119.28h239.18l-118.38-221Z" class="colorfdb138 svgShape"/><path fill="#8f8f8f" d="M3717.24 1307.09c-4 0-7.32-3.75-7.32-8.38v-108.53h14.64v108.53c0 4.63-3.28 8.38-7.32 8.38Z" class="color8f8f8f svgShape"/><path fill="#b8b8b8" d="M3743 1259.71c0 3.61-11.51 6.54-25.71 6.54s-25.71-2.93-25.71-6.54 11.51-6.55 25.71-6.55 25.71 2.93 25.71 6.55ZM3743 1242.12c0 3.61-11.51 6.54-25.71 6.54s-25.71-2.93-25.71-6.54 11.51-6.54 25.71-6.54 25.71 2.93 25.71 6.54ZM3743 1224.54c0 3.61-11.51 6.54-25.71 6.54s-25.71-2.93-25.71-6.54 11.51-6.55 25.71-6.55 25.71 2.93 25.71 6.55ZM3743 1207c0 3.61-11.51 6.54-25.71 6.54s-25.71-2.93-25.71-6.54 11.51-6.54 25.71-6.54 25.71 2.88 25.71 6.54ZM3735 1189.37c0 3.61-7.93 6.54-17.71 6.54s-17.71-2.93-17.71-6.54 7.93-6.55 17.71-6.55 17.71 2.93 17.71 6.55Z" class="colorb8b8b8 svgShape"/><path fill="#8f8f8f" d="M3829.76 1307.09c-4 0-7.32-3.75-7.32-8.38v-108.53h14.64v108.53c0 4.63-3.28 8.38-7.32 8.38Z" class="color8f8f8f svgShape"/><path fill="#b8b8b8" d="M3855.47 1259.71c0 3.61-11.51 6.54-25.71 6.54s-25.71-2.93-25.71-6.54 11.51-6.55 25.71-6.55 25.71 2.93 25.71 6.55ZM3855.47 1242.12c0 3.61-11.51 6.54-25.71 6.54s-25.71-2.93-25.71-6.54 11.51-6.54 25.71-6.54 25.71 2.93 25.71 6.54ZM3855.47 1224.54c0 3.61-11.51 6.54-25.71 6.54s-25.71-2.93-25.71-6.54 11.51-6.55 25.71-6.55 25.71 2.93 25.71 6.55ZM3855.47 1207c0 3.61-11.51 6.54-25.71 6.54s-25.71-2.93-25.71-6.54 11.51-6.54 25.71-6.54 25.71 2.88 25.71 6.54ZM3847.47 1189.37c0 3.61-7.93 6.54-17.71 6.54s-17.71-2.93-17.71-6.54 7.93-6.55 17.71-6.55 17.71 2.93 17.71 6.55Z" class="colorb8b8b8 svgShape"/><path fill="#8f8f8f" d="M3175.12 1307.09c-4 0-7.32-3.75-7.32-8.38v-108.53h14.64v108.53c0 4.63-3.27 8.38-7.32 8.38Z" class="color8f8f8f svgShape"/><path fill="#b8b8b8" d="M3200.84 1259.71c0 3.61-11.52 6.54-25.72 6.54s-25.71-2.93-25.71-6.54 11.51-6.55 25.71-6.55 25.72 2.93 25.72 6.55ZM3200.84 1242.12c0 3.61-11.52 6.54-25.72 6.54s-25.71-2.93-25.71-6.54 11.51-6.54 25.71-6.54 25.72 2.93 25.72 6.54ZM3200.84 1224.54c0 3.61-11.52 6.54-25.72 6.54s-25.71-2.93-25.71-6.54 11.51-6.55 25.71-6.55 25.72 2.93 25.72 6.55ZM3200.84 1207c0 3.61-11.52 6.54-25.72 6.54s-25.71-2.93-25.71-6.54 11.51-6.54 25.71-6.54 25.72 2.88 25.72 6.54ZM3192.84 1189.37c0 3.61-7.93 6.54-17.72 6.54s-17.71-2.93-17.71-6.54 7.93-6.55 17.71-6.55 17.72 2.93 17.72 6.55Z" class="colorb8b8b8 svgShape"/><path fill="#8f8f8f" d="M3287.64 1307.09c-4 0-7.32-3.75-7.32-8.38v-108.53H3295v108.53c0 4.63-3.31 8.38-7.36 8.38Z" class="color8f8f8f svgShape"/><path fill="#b8b8b8" d="M3313.36 1259.71c0 3.61-11.52 6.54-25.72 6.54s-25.71-2.93-25.71-6.54 11.51-6.55 25.71-6.55 25.72 2.93 25.72 6.55ZM3313.36 1242.12c0 3.61-11.52 6.54-25.72 6.54s-25.71-2.93-25.71-6.54 11.51-6.54 25.71-6.54 25.72 2.93 25.72 6.54ZM3313.36 1224.54c0 3.61-11.52 6.54-25.72 6.54s-25.71-2.93-25.71-6.54 11.51-6.55 25.71-6.55 25.72 2.93 25.72 6.55ZM3313.36 1207c0 3.61-11.52 6.54-25.72 6.54s-25.71-2.93-25.71-6.54 11.51-6.54 25.71-6.54 25.72 2.88 25.72 6.54ZM3305.36 1189.37c0 3.61-7.93 6.54-17.72 6.54s-17.71-2.93-17.71-6.54 7.93-6.55 17.71-6.55 17.72 2.93 17.72 6.55Z" class="colorb8b8b8 svgShape"/><path fill="#4f9db2" d="M1080.55 2181.3c55.49-21.05 169-6.26 185.94 48.16 12.64-77.64 58.17-171.59 133-176.06 44.41-2.65 81.14 30.67 97.59 71.36s16.65 87.8 16.63 133.64c25-45.67 65.94-87.53 114.33-95.86s99 30.35 90.6 80.52c9-44.36 42.75-81.36 78-110.84 48.07-40.24 106.14-73.56 164.12-70.94 82.53 3.73 140.39 81.21 153.3 164.78s-9.18 172.22-31.07 257.83c-3.26 12.75-693.71-31.16-758.11-34-62.6-2.81-99.45 81.45-162.05 78.65-34.06-1.52-146.64-31-160.74-141.71-10.97-86.14 9.97-179.56 78.46-205.53Z" class="color4fb29f svgShape"/><path fill="#4f9db2" d="M2020.66 2080.82c32.26-5.36 65.31 11.69 66 42.68 12.19-43.82 37-90.77 78.81-114s99.15-6.35 96.53 37.13c23.08-62.47 47.44-127.12 93.48-179.56s120.24-89.16 175.95-69.37c44.19 15.69 66.11 62.94 67.28 111.87s-15 100-31 149.86c25.76-66.09 102.87-118.3 167.83-111.15s105.51 75.38 81.66 141.81c28.06-51.18 57.59-104.18 103.2-142.84s112.25-58.49 152.91-30.93c38.08 25.82 40.94 82.76 28.31 133.42s-37.71 100.48-46.46 151.17c16.81-49.8 79.84-86.88 125.33-73.73s62.32 73.34 33.46 119.66c17.52-29.46 48.62-52.6 80.72-60 70-16.25 151.84 94.14 154.17 161.27s-19.5 164.12-102.91 190c-562.72 58.09-1100.72-17.29-1644.11-60.06 8.27.65 120.7-196.47 136-222.07 38.83-65.09 102.09-161.75 182.84-175.16Z" class="color4fb29f svgShape"/><path fill="#88b5c1" d="M2084.39 2336.05c-55.49-21.05-122.77.25-139.74 54.68-12.64-77.64-58.17-171.59-133-176.06-44.41-2.65-81.14 30.66-97.59 71.36s-16.65 87.8-16.63 133.64c-25-45.67-65.94-87.54-114.33-95.86s-99 30.35-90.6 80.52c-9-44.36-42.75-81.36-78-110.84-48.07-40.25-106.14-73.56-164.12-70.94-82.53 3.73-140.39 81.21-153.3 164.78s11.59 129.69 33.48 215.3c3.27 12.75 691.3 11.37 755.7 8.48q93.9-4.21 187.79-8.44c34.06-1.52 115.37 10.59 140.57-17.13 59.86-65.87-61.74-223.54-130.23-249.49Z" class="color88c1ba svgShape"/><path fill="#88b5c1" d="M3180.14 2300.62c-55.49-21-122.77.26-139.74 54.68-12.63-77.64-58.16-171.59-133-176.06-44.4-2.65-81.14 30.67-97.58 71.36s-16.66 87.8-16.64 133.64c-25-45.67-65.94-87.53-114.33-95.86s-99 30.35-90.59 80.52c-9-44.36-42.76-81.36-78-110.84-48.07-40.24-106.14-73.56-164.13-70.94-82.52 3.73-140.39 81.21-153.29 164.78s9.17 172.22 31.07 257.83c3.26 12.75 693.71-31.16 758.1-34.05q93.9-4.21 187.79-8.44c34.06-1.52 115.37 10.6 140.57-17.13 59.86-65.87-61.73-223.51-130.23-249.49Z" class="color88c1ba svgShape"/><ellipse cx="2346.92" cy="2601.38" fill="#29778c" class="color8c293d svgShape" rx="1564.83" ry="91.51"/><ellipse cx="2377.43" cy="2695.94" fill="#29778c" class="color8c293d svgShape" rx="979.97" ry="64.06"/><rect width="552.16" height="1679.98" x="1168.73" y="875.51" fill="#74b2c2" class="color7496c2 svgShape" rx="47.78"/><rect width="991.41" height="1123.18" x="949.1" y="1057.08" fill="#74b2c2" class="color7496c2 svgShape" rx="75.8"/><rect width="552.16" height="1679.98" x="1224.4" y="875.51" fill="#ccf4ff" class="colorcce8ff svgShape" rx="47.78"/><path fill="#88cbdd" d="M1224.4 1287.63h552.16v987.5H1224.4z" class="color88b7dd svgShape"/><path fill="#c5f1fd" d="M1996.17 1132.88v971.58a75.8 75.8 0 0 1-75.8 75.8h-839.8a75.81 75.81 0 0 1-75.81-75.8v-971.58a75.8 75.8 0 0 1 75.81-75.8h839.8a75.79 75.79 0 0 1 75.8 75.8Z" class="colorc5e6fd svgShape"/><path fill="#aae2f1" d="M1996.17 2035.57v68.89a75.8 75.8 0 0 1-75.8 75.8h-839.8a75.81 75.81 0 0 1-75.81-75.8v-971.58a75.8 75.8 0 0 1 75.81-75.8h76.34c-9.47 114-52.81 659.41 35.16 816.5 79.93 142.81 556.75 222.42 804.1 161.99Z" class="coloraad6f1 svgShape"/><rect width="495.88" height="328.87" x="1252.54" y="1221.34" fill="#74b2c2" class="color7496c2 svgShape" rx="53.13"/><path fill="#fff" d="M1657.37 1497.93h-313.78c-23.65 0-42.8-16.24-42.8-36.24v-151.83c0-20 19.15-36.24 42.8-36.24h313.78c23.62 0 42.78 16.22 42.78 36.24v151.83c0 20-19.15 36.24-42.78 36.24Z" class="colorffffff svgShape"/><path fill="#204751" d="M1644.91 1447.35h-296.4a148.21 148.21 0 0 1 296.4 0Z" class="color204051 svgShape"/><path fill="#fff" d="M1632.28 1447.35h-271.13c1-74 61.46-133.74 135.56-133.74a135.64 135.64 0 0 1 135.57 133.74Z" class="colorffffff svgShape"/><path fill="#14add6" d="m1550.89 1333.9-19.62 48.15a75.8 75.8 0 0 1 41.25 65.57h51.94c-.66-50.36-30.7-93.46-73.57-113.72Z" class="colord61450 svgShape"/><path fill="#00c9ff" d="M1496.73 1321.38a126.69 126.69 0 0 0-52.56 11.46l21.66 47.15a73.17 73.17 0 0 1 56.17-2l19.58-48a126.41 126.41 0 0 0-44.85-8.61Z" class="colorffcb00 svgShape"/><path fill="#066d89" d="M1435.3 1337.22a128 128 0 0 0-66.29 110.4H1421a76 76 0 0 1 36.13-63Z" class="color068980 svgShape"/><path fill="#204751" d="M1514.07 1340.61c-6.31-.9-29 121-29 121a11.52 11.52 0 0 0 9.77 13.05 11.52 11.52 0 0 0 13.05-9.77s12.48-123.37 6.18-124.28Z" class="color204051 svgShape"/><path fill="#14add6" d="M1711.24 2048h-421.52c-21.59 0-34.63-23.91-22.9-42l210.76-326.76a27.25 27.25 0 0 1 45.81 0L1734.15 2006a27.26 27.26 0 0 1-22.91 42Z" class="colord61450 svgShape"/><path fill="#fff" d="M1654.66 2019.43H1346.3a29.48 29.48 0 0 1-24.79-45.48l154.18-239a29.48 29.48 0 0 1 49.56 0l154.21 239a29.51 29.51 0 0 1-24.8 45.5Zm-154.18-278.93a10.24 10.24 0 0 0-8.74 4.77l-154.18 239a10.39 10.39 0 0 0 8.74 16h308.36a10.39 10.39 0 0 0 8.74-16l-154.21-239a10.17 10.17 0 0 0-8.71-4.77Z" class="colorffffff svgShape"/><path fill="#fff" d="m1469.49 1896.65 58.75-83.62h-51.87l-37.46 111.82 72.15-20.07-33.35 86.96 76.42-119.47-84.64 24.38z" class="colorffffff svgShape"/><path fill="#dbdbdb" d="M1930.94 1684.89a47.56 47.56 0 1 1-47.57-47.56 47.57 47.57 0 0 1 47.57 47.56Z" class="colordbdbdb svgShape"/><path fill="#8f8f8f" d="M1906.6 1684.89a23.22 23.22 0 1 1-23.23-23.22 23.23 23.23 0 0 1 23.23 23.22Z" class="color8f8f8f svgShape"/><path fill="#74b2c2" d="M1607 950.23h-225a12.46 12.46 0 0 1-12.45-12.46 12.45 12.45 0 0 1 12.45-12.45h225a12.44 12.44 0 0 1 12.45 12.45 12.45 12.45 0 0 1-12.45 12.46Z" class="color7496c2 svgShape"/><rect width="249.96" height="24.91" x="1369.54" y="960.36" fill="#74b2c2" class="color7496c2 svgShape" rx="12.46"/><rect width="249.96" height="24.91" x="1369.54" y="995.41" fill="#74b2c2" class="color7496c2 svgShape" rx="12.46"/><path fill="#00c9ff" d="M2150.54 1137.21c1.74 4 5.07 7.77 10.65 10.52s13.4 4.46 24.15 4.47c16.71 11.49 50.42 15.79 69.63 9.66l48.7 10.33s9.6 8.57 20.48-36.57 2.44-66.81 2.44-66.81l-52-7.86c-4.33-1.35-8.43-2.7-12.36-4.06-4.28-9.1-15.5-30.11-29.94-35.61-18.48-7-34.37 2.3-38.77 16.76h-.32c-.53-.08-1.61-.17-3.16-.32-12-1-52-3.71-64.45 6.19-14.63 11.7 12.21 21 27.67 24 0 0-9.34 2.38-12 11.94s10.58 13.67 10.58 13.67-9.26 4-9.63 12.74 11.42 16.13 11.42 16.13-7.38 4.88-3.09 14.82Z" class="colorffcb00 svgShape"/><path fill="#d5d6d6" d="M2268.42 1119.48s-3.29 30.42-10.7 35.4 3.05-24.45 10.7-35.4Z" class="colord6d5d5 svgShape"/><path fill="#d5d6d6" d="M2188.43 1130c12.38-1.85 19.55-11.34 20.38-16.54a22.21 22.21 0 0 0-.23-7.75c-4.73 1.51-9.49 1-13.42-2.62a47.57 47.57 0 0 1-18.09.28c-15.21-2.66-20.77-11.32-20.77-11.32a194.73 194.73 0 0 0 36.17 8c-3.27-4.85-4.29-13.17-4.17-22.17l-35-9.95s9.88.39 21.21-8.29c7-5.33 12.42-15.13 15.57-21.91 1.55.15 2.63.24 3.16.32h.33s2 63.27 14.55 58.08 11.06-32.42 15.8-32.83 10.42 18.16 16.58 26.62 26.19 9.17 24.31 12.22-10.75 7.59-22.55 2.56-14.27-19-14.27-19a37.62 37.62 0 0 1-13.82 17.33c1.41 3.71 4.52 14.89-4.91 24-11.48 11.15-34.3 13.86-49.12-4.79-.03.08 15.91 9.62 28.29 7.76Z" class="colord6d5d5 svgShape"/><path fill="#8f8f8f" d="M2263 1970.82a195 195 0 0 1-102.47-110.64c-.07-.18-.13-.37-.2-.55-.34-.92-.66-1.84-1-2.76-.47-1.32-.92-2.65-1.35-4-.38-1.18-.76-2.37-1.11-3.58-.11-.35-.21-.69-.31-1-.36-1.18-.7-2.36-1-3.56a195.37 195.37 0 0 1 70.55-207.43 62.89 62.89 0 0 1-4.19-11l-191.51-684.5-19.8-70.8c-.27-1-.43-2-.65-2.89a195.42 195.42 0 0 1-163.57-142.2 197.9 197.9 0 0 1-5.35-26.53c-.35-2.65-.65-5.3-.88-7.94s-.41-5.28-.54-7.92q-.31-6.59-.19-13.12c0-1.75.09-3.48.17-5.21.05-.87.1-1.73.14-2.6a194 194 0 0 1 2.73-22.78c.14-.74.27-1.47.41-2.2q1-5.49 2.42-10.89c.15-.59.3-1.18.46-1.77.22-.85.45-1.69.68-2.54.79-2.86 1.64-5.69 2.57-8.51q2-6.33 4.55-12.49 2.06-5.13 4.43-10.15c.32-.66.63-1.34 1-2s.65-1.32 1-2c1-1.95 2-3.87 3-5.77.11-.18.21-.37.31-.55.63-1.15 1.27-2.3 1.92-3.43.36-.65.73-1.28 1.11-1.93s.74-1.27 1.12-1.9l1.15-1.89 1.17-1.87q1.18-1.87 2.41-3.72c.79-1.21 1.61-2.4 2.44-3.59a.13.13 0 0 1 0-.06l.22-.32a28.88 28.88 0 0 1 51.2 9.43l22.65 82.61a42 42 0 0 0 51.66 29.45l69-18.9a42 42 0 0 0 29.46-51.66l-22.64-82.64c-6.44-23.55 17.47-44.15 39.68-34a195.29 195.29 0 0 1 55.76 317.25l-.06.05c-.86.85-1.74 1.69-2.62 2.53l-.2.19c-.92.87-1.85 1.73-2.8 2.59l-1.65 1.48-1.67 1.46-1.7 1.45c-.55.47-1.13 1-1.7 1.42q-3.43 2.84-7 5.53c.05.19.12.38.18.56.13.35.25.69.37 1.07l189.16 676.11 22.08 79.09a67.25 67.25 0 0 1 2 11.64c77 8.76 144.66 63.13 166.4 142.48q2.17 7.95 3.67 15.92.73 4 1.32 8c.5 3.54.92 7.06 1.23 10.59q.24 2.64.39 5.28c.12 1.75.2 3.51.26 5.27.13 3.51.15 7 .08 10.49 0 1.75-.1 3.49-.17 5.22 0 .87-.09 1.74-.14 2.6a194.93 194.93 0 0 1-2.51 21.55c-.41 2.36-.87 4.71-1.36 7.06-.37 1.77-.78 3.54-1.2 5.29q-1 4-2.07 7.87c-.51 1.73-1 3.46-1.56 5.18-.28.86-.55 1.72-.83 2.57l-.87 2.56c-.88 2.55-1.83 5.09-2.82 7.6-.31.81-.64 1.63-1 2.43 0 .06-.05.13-.08.18-.33.8-.66 1.6-1 2.38-.66 1.57-1.35 3.12-2.05 4.67-.31.66-.62 1.34-.94 2s-.63 1.34-.95 2c-.23.49-.47 1-.71 1.45-.34.7-.7 1.4-1.05 2.09-.73 1.46-1.5 2.9-2.27 4.33-.29.54-.58 1.08-.88 1.61l-.84 1.5c-.37.66-.74 1.31-1.12 2q-2.5 4.31-5.21 8.49l-1.07 1.62c-.8 1.2-1.61 2.39-2.44 3.59 0 0-.05.06-.07.1-14 19.92-45 14.36-51.4-9.15l-4.14-15.08-18.5-67.52a42.06 42.06 0 0 0-51.68-29.46l-69 18.91a42 42 0 0 0-29.45 51.67l22.63 82.61c6.5 23.46-17.42 44.11-39.6 33.93Z" class="color8f8f8f svgShape"/><path fill="#b8b8b8" d="M2010.61 871c-.27-1-.43-2-.65-2.89a195.42 195.42 0 0 1-163.57-142.2 197.9 197.9 0 0 1-5.35-26.53c-.34-2.65-.64-5.3-.88-7.94s-.41-5.28-.54-7.92q-.3-6.59-.19-13.12c0-1.74.1-3.47.17-5.21.05-.87.1-1.73.14-2.6a196.18 196.18 0 0 1 2.73-22.78c.14-.74.27-1.47.41-2.2q1.06-5.49 2.42-10.89c.15-.59.3-1.18.46-1.77.22-.85.45-1.69.68-2.54.8-2.85 1.64-5.69 2.57-8.51 1.37-4.21 2.89-8.39 4.55-12.49q2.07-5.14 4.43-10.15c.32-.66.63-1.34 1-2s.65-1.32 1-2q1.45-2.91 3-5.77c.11-.18.21-.37.31-.55.63-1.15 1.27-2.3 1.92-3.43.36-.65.73-1.28 1.11-1.93s.74-1.27 1.12-1.9l1.15-1.89 1.17-1.87q1.18-1.87 2.41-3.72c.81-1.22 1.65-2.45 2.49-3.65l.22-.32a28.5 28.5 0 0 1 32.75-10.23 339 339 0 0 0-1.8 131.14c5.06 27.24 15.66 53.48 33.37 74.94 17.11 20.71 43.6 29.37 69.14 34.16 53.15 10 113 6.3 160.94-20.25 25-13.89 43.52-34.44 56.82-58.29a196.2 196.2 0 0 1-60.23 105.43l-1.65 1.48-1.67 1.46-1.7 1.45c-.55.47-1.13 1-1.7 1.42q-3.43 2.84-7 5.53c.05.19.12.38.18.56s.12.36.17.54c-55 11.47-107.22 34.21-119.88 95.42-1 4.91-1.69 9.85-2.22 14.79l-.12 1.13ZM2183.72 1904.68a195.71 195.71 0 0 1-25.74-51.81c-.38-1.18-.76-2.37-1.11-3.58-.11-.35-.21-.69-.31-1-.36-1.18-.7-2.36-1-3.56a195.37 195.37 0 0 1 70.55-207.43c-.31-.66-.58-1.37-.9-2 27.74 2 55.52-2.33 78-20.5 23.26-18.71 33.35-50.1 36.76-78.68 1.09-9.15 1.68-18.45 1.88-27.79v-1.53l22.08 80.6a67.25 67.25 0 0 1 2 11.64c77 8.76 144.66 63.13 166.4 142.48q2.17 7.95 3.67 15.92c.49 2.65.92 5.3 1.32 8 .5 3.54.92 7.06 1.23 10.59q.23 2.64.39 5.28c.12 1.76.2 3.52.26 5.27q.18 5.27.08 10.49c0 1.75-.1 3.49-.17 5.22 0 .87-.09 1.74-.14 2.6a196.25 196.25 0 0 1-3.87 28.61c-.38 1.76-.78 3.53-1.2 5.29q-1 4-2.07 7.87c-.51 1.73-1 3.46-1.56 5.18-.28.86-.55 1.72-.83 2.57l-.87 2.56q-1.33 3.84-2.82 7.6c-.31.81-.64 1.63-1 2.43 0 .06-.05.13-.08.18-.33.8-.66 1.6-1 2.38-.66 1.57-1.35 3.12-2.05 4.67-.31.66-.62 1.34-.94 2s-.63 1.34-.95 2c-.23.49-.47 1-.71 1.45-.34.7-.7 1.4-1.05 2.09-.73 1.46-1.5 2.9-2.27 4.33-.29.54-.58 1.08-.88 1.61l-.84 1.5c-.37.66-.74 1.31-1.12 2q-2.5 4.31-5.21 8.49l-1.07 1.62c-.8 1.2-1.61 2.39-2.44 3.59 0 0-.05.06-.07.1-14 19.92-45 14.36-51.4-9.15l-4.14-15.08c28.26-25.73 41.72-62.53 34.52-103.13-8.67-49-46.9-90.13-94.09-104.26-28.81-8.66-60.14-4.21-88.88 2.27-26.5 6-51.69 17.19-72.74 34.44-38 31.15-50.42 80.79-50.36 127.94a363.7 363.7 0 0 0 6.74 66.64Z" class="colorb8b8b8 svgShape"/><path fill="#b8b8b8" d="M2072.06 902.45c-2.8-10.23 5.07-21.34 17.6-24.76 12.55-3.44 24.92 2.1 27.76 12.34l189.26 674.89c2.81 10.23-5.06 21.32-17.55 24.74-12.54 3.44-25-2.1-27.78-12.34Z" class="colorb8b8b8 svgShape"/><path fill="#00c9ff" d="m2143.14 1300.67 5.38 1.42.37 3.59c-.92.16-1.87.33-2.76.56-12.84 3.24-32.09 12.19-30.8 21.62 1.17 8.77 32.59-.93 37-2.34 6.72 5 37.2 25.18 81.6 17.11l55.08 9.51 4.21.73 11.32 1.94s23.48-26.9 22.82-71.28-10.72-49.61-10.72-49.61l-12.44 1.57-4.17.52-63.19 7.9c-17.1-8-50.45-23-63.51-25.05a39.1 39.1 0 0 0-7.06-.46v-.34s-22.56-.87-36 6.7-32.17 23.42-27.44 33.49c1.27 2.69 4.83 2.89 9.35 1.78-9.06 4.83-16.17 11-15.31 17.36 1.49 11 43.88-3 43.88-3l4.91 1.28.14 1.46a44.72 44.72 0 0 0-10.55 1.15c-15 3.79-37.53 14.27-36 25.29s43.89-2.9 43.89-2.9Zm-10.23-48.58c-1.47.37-3 .81-4.55 1.29 5.89-3 11.18-6.3 14-8.08l.61 5.66a41.79 41.79 0 0 0-10.06 1.13Z" class="colorffcb00 svgShape"/><path fill="#d5d6d6" d="M2182.39 1307.41c17.29 17.51 52.73 14.81 52.73 14.81l1.74-78.33-63.55-25.05s-8.21 71.06 9.08 88.57Z" class="colord6d5d5 svgShape"/><path fill="#b9f0ff" d="m2746.59 811.82-7.07 9.75-38.52 53.16.52 4.84 18 62.84a23 23 0 0 0 2.66 3.38c6.27 6.79 13 19.08 50.22 10.26 48.16-11.4 52.56-44.11 52.56-44.11l-44.46-146.87Z" class="colorffb9b9 svgShape"/><path fill="#8ce0f6" d="M2772 799a216.88 216.88 0 0 0-25.37 12.82l-1.11.65-6 9.1-38 58 18 62.84a23 23 0 0 0 2.66 3.38c11.19-20.15 28.18-41.59 38.55-52 12.1-12.17 25.25-32.93 23.69-54.43Z" class="colorf68c9a svgShape"/><path fill="#b9f0ff" d="M2664.45 722.81c-10.78 13.47-20.35 40.71-23.42 69.41a163.06 163.06 0 0 0-.24 34.13c2.11 20.09 8.68 38.42 21.67 50.4 38.23 35.27 113.1.59 124.48-65.6 11.95-69.55-62.52-163.34-122.49-88.34Z" class="colorffb9b9 svgShape"/><path fill="#62c4de" d="M2688.65 764.91a1.86 1.86 0 0 0-1.75 2c0 .21 1 20.48-3.25 32.75-6-.16-17.17.21-18.46 5.19-1.33 5.17 9.27 15.85 12.54 19a1.88 1.88 0 0 0 1.29.51 1.85 1.85 0 0 0 1.29-3.19c-6.62-6.36-12-13.55-11.53-15.4.36-1.38 7.6-2.75 16.06-2.37a1.85 1.85 0 0 0 1.81-1.16c5.11-12.85 4-34.62 3.95-35.54a1.86 1.86 0 0 0-1.95-1.79Z" class="colorde6277 svgShape"/><path fill="#0f2a31" d="M2715.57 782.09c-2.77-.65-5.63 1.47-6.38 4.72s.89 6.4 3.66 7 5.63-1.47 6.38-4.72-.89-6.36-3.66-7ZM2664 778c-2.77-.64-5.62 1.47-6.37 4.72s.88 6.4 3.65 7 5.63-1.47 6.38-4.72-.88-6.41-3.66-7Z" class="color0f1231 svgShape"/><path fill="#8ce0f6" d="M2729.68 796.12c-11.76-1-22 5.92-22.79 15.49s8.05 18.13 19.82 19.14 22-5.92 22.79-15.48-8.05-18.14-19.82-19.15ZM2641 792.22a163.06 163.06 0 0 0-.24 34.13c9.29-1.17 16.6-7.35 17.29-15.38.78-8.79-6.66-16.75-17.05-18.75Z" class="colorf68c9a svgShape"/><path fill="#1b4c59" d="M2705.72 759.69a1.85 1.85 0 0 0 1.67 3.31c.71-.36 17.42-8.49 26.13 7.88a1.87 1.87 0 0 0 1.64 1 1.84 1.84 0 0 0 .87-.22 1.86 1.86 0 0 0 .77-2.51c-10.43-19.62-30.88-9.57-31.08-9.46ZM2680 758.69c-.19-.13-19-12.93-32.09 5a1.85 1.85 0 0 0 3 2.18c10.91-15 26.32-4.61 27-4.16a1.86 1.86 0 0 0 2.12-3Z" class="color59261b svgShape"/><path fill="#213237" d="M2758.33 663.87a85.54 85.54 0 0 0-29.17-7c-8.49-.41-18.32 3-26.74 2.34-13.39 1.41-25.3 3.85-34.45 6.92-20.83 7-46.69 28.48-44.26 52.88 1.22 12.18 9.8 23.13 21.55 25.93 22.84 5.46 48.08-2.79 66.92-15.55a29.94 29.94 0 0 0-6.19 11.89 4.19 4.19 0 0 0 .12 3.23c.89 1.4 2.9 1.35 4.53 1.11a101.37 101.37 0 0 0 38-13.94c-8.26 9.93-2.38 27.91 3.2 37.65 6.91 12.07 7.22 23.67 13.73 33.07L2801 799c23.9-25.45 18.27-69.33 1.16-97.36a95.89 95.89 0 0 0-43.83-37.77ZM2649.88 740.71Z" class="color212237 svgShape"/><path fill="#213237" d="M2643.87 740.7c-.17 0 .38.06 0 0Z" class="color212237 svgShape"/><path fill="#213237" d="M2671.38 667a81.2 81.2 0 0 0-26.1 7.86c-8.28 4.12-15.89 9.94-21.23 17.57s-8.13 17.22-6.4 26.49a32.52 32.52 0 0 0 15.09 21.52c7.83 4.68 18.12 5.6 26.13.8a20.21 20.21 0 0 0 3.05-2.23 1.07 1.07 0 0 0 .09-1.41 1.11 1.11 0 0 0-1.38-.28 47 47 0 0 1-6.46 2.53 25.17 25.17 0 0 1-3.18.72l-.79.13h-.4c-.55.06-1.1.12-1.65.14a22.91 22.91 0 0 1-3.1 0l-.77-.07h-.38c.38.06-.17 0 0 0-.5-.08-1-.16-1.51-.27a24.51 24.51 0 0 1-3-.82c-.46-.15-.92-.32-1.37-.49l-.51-.21h.08-.08l-.76-.34a30 30 0 0 1-5.27-3.18c.09.08-.25-.19 0 0l-.3-.24-.6-.5c-.39-.33-.78-.68-1.16-1q-1.14-1.08-2.16-2.25a29.65 29.65 0 0 1-5.89-10.72 27.62 27.62 0 0 1-.73-12.74 36 36 0 0 1 4.48-12c4.47-7.57 11.37-13.38 18.88-17.8a78.76 78.76 0 0 1 24.68-9.27c1-.19 2-.37 3.05-.53.51-.31.35-1.52-.35-1.41Z" class="color212237 svgShape"/><path fill="#213237" d="M2631.34 735.35c-.25-.19.09.08 0 0ZM2637.5 739h-.08ZM2812 715.24c0 .06 0 .09 0 0ZM2801.55 697.14c0 .06-.06-.09 0 0ZM2805.93 789.12ZM2818.27 738.08v-.15ZM2800.06 799.78l.18-.13.11-.09-.6.36Z" class="color212237 svgShape"/><path fill="#213237" d="M2820.8 730.69a91.26 91.26 0 0 0-4.56-14.55 89.74 89.74 0 0 0-6.93-13.65 79.75 79.75 0 0 0-9-11.84 63.8 63.8 0 0 0-11-9.36 55.16 55.16 0 0 0-12.49-6.27 46.56 46.56 0 0 0-3.24-1 1.11 1.11 0 0 0-.59 2.14 49.71 49.71 0 0 1 12.13 5.64c1 .62 1.91 1.26 2.84 1.93s1.58 1.16 2.55 2a62 62 0 0 1 5.14 4.71 76.72 76.72 0 0 1 4.75 5.28c.38.46.75.93 1.11 1.4l.05.06c-.06-.09 0 .06 0 0l.08.1.25.33.54.72c.71 1 1.41 2 2.08 3a84.87 84.87 0 0 1 7.06 12.89c.13.29.25.57.37.86 0 0 .07.16.11.24 0 .09 0 .06 0 0l.13.32c.24.57.47 1.15.7 1.73.45 1.16.88 2.33 1.29 3.5.82 2.39 1.54 4.8 2.16 7.25s1.12 4.87 1.54 7.34c.1.61.2 1.23.29 1.85l.12.85v-.15s.06.37 0 .15v.06c0 .19 0 .38.08.57.15 1.24.28 2.47.38 3.71a81.19 81.19 0 0 1-.15 14.79c-.07.61-.14 1.22-.22 1.82v.18-.14l-.06.38c0 .32-.09.65-.14 1-.19 1.2-.41 2.4-.66 3.59a66.79 66.79 0 0 1-1.87 7c-.38 1.15-.79 2.28-1.23 3.4l-.3.78c-.07.15-.13.3-.19.45.12-.26-.09.23 0 0v.06c-.23.55-.48 1.1-.73 1.65a58.79 58.79 0 0 1-3.44 6.34c-.64 1-1.32 2-2 3l-1.09 1.47-.5.67-.17.22.1-.13-.3.39c-1.54 1.94-3.22 3.78-4.92 5.59-.41.44-.84.87-1.26 1.31-.2.21-.4.42-.59.65l-.33.39a2.09 2.09 0 0 0-.14.17s-.37.37-.19.22a1.37 1.37 0 0 0 0 1.94 1.35 1.35 0 0 0 1.76.13l-.31.14.6-.36-.11.09-.18.13c.25-.11.49-.24.72-.37s.26-.14.38-.22l.32-.24.07-.05-.07.05.09-.06c.62-.42 1.2-.91 1.79-1.38a32.53 32.53 0 0 0 2.84-2.55 51.13 51.13 0 0 0 5.06-6 60.11 60.11 0 0 0 7-13.27 66.45 66.45 0 0 0 3.71-14.22 80.66 80.66 0 0 0 .82-15.37 89.51 89.51 0 0 0-2.05-15.45Z" class="color212237 svgShape"/><path fill="#213237" d="M2818.37 759.1v.14c0 .05.05-.41 0-.18ZM2801.48 799l.07-.05ZM2813.91 775.69c-.09.23.12-.26 0 0Z" class="color212237 svgShape"/><path fill="#383939" d="M2702.93 834.74a6.73 6.73 0 0 0-2.09-.39 24.29 24.29 0 0 0-3.93.55 55.82 55.82 0 0 1-21.4.07 19.91 19.91 0 0 0-7-.46 5.88 5.88 0 0 0-4.63 2.79c-1.91 3.39-.83 7.53 1.36 10.79a19.35 19.35 0 0 0 2.07 2.47 25 25 0 0 0 20.83 6.65 23.2 23.2 0 0 0 9.21-3.52c4.31-2.9 7.48-7.11 8.41-11.76.55-2.67.01-6.02-2.83-7.19Z" class="color383939 svgShape"/><path fill="#fff" d="M2696.91 834.9a55.82 55.82 0 0 1-21.4.07 19.91 19.91 0 0 0-7-.46 7.41 7.41 0 0 0 1.69 4.86 8.8 8.8 0 0 0 5.1 2.31 46.77 46.77 0 0 0 20.49-.42 7.46 7.46 0 0 0 4.27-2.26 6 6 0 0 0 .77-4.65 24.29 24.29 0 0 0-3.92.55Z" class="colorffffff svgShape"/><path fill="#8ce0f6" d="M2685.69 847.62a27.78 27.78 0 0 0-18.37 2.94 25 25 0 0 0 20.83 6.65 23.2 23.2 0 0 0 9.21-3.52c-2.67-3.41-7.23-5.36-11.67-6.07Z" class="colorf68c9a svgShape"/><path fill="#b9f0ff" d="M2797.5 771.06c-5-3.81-23.59-7.19-27.88 11l-5.8 23.62c0 9.47 7.07 17.9 18 14.89a23 23 0 0 0 10.09-6.48 39.81 39.81 0 0 0 11-31c-.41-4.53-1.83-9.28-5.41-12.03Z" class="colorffb9b9 svgShape"/><path fill="#62c4de" d="M2784.74 777.64a1.85 1.85 0 0 0-2 1.62 1.87 1.87 0 0 0 1.61 2.07 6.72 6.72 0 0 1 4.2 2.53c1.26 1.74 1.58 4.24 1 7.43-1.4 7.19-5.83 16.26-11.29 18.91a6.49 6.49 0 0 1-6.17-.08 1.86 1.86 0 0 0-1.7 3.3 10.5 10.5 0 0 0 4.85 1.22 10.66 10.66 0 0 0 4.64-1.1c6.92-3.36 11.75-13.52 13.31-21.54.83-4.27.28-7.76-1.63-10.37a10.48 10.48 0 0 0-6.82-3.99Z" class="colorde6277 svgShape"/><path fill="#369fbb" d="M2464.64 2593.41a23.42 23.42 0 0 1-20.62-10.47l-1.47-.19 1 21a3.1 3.1 0 0 0 .93 2.06l.52.51a18.07 18.07 0 0 0 13.41 5.08l219.95-5.7a4.61 4.61 0 0 0 4.38-4.81l-.6-13Z" class="colorbb6136 svgShape"/><path fill="#a2e8fb" d="m2544.65 2514.43-89.9 55.82a9.85 9.85 0 0 0 4.41 18.85l211-5.29 8.65-68.31 21.56-168.57-151.24-6Z" class="colorfba4a2 svgShape"/><path fill="#040a0b" d="m2544.85 2505.14-95.9 65.11c-4.11 2-6.66 6.73-6.43 11.83.32 6.81 7.58 12 13.58 11.73l226-6-3.19-74.52s-87.1 15.48-134.06-8.15Z" class="color040b0a svgShape"/><path fill="#369fbb" d="M2524.53 2517.19a117.89 117.89 0 0 1 15.25 22.85l4.42-2.25a122.3 122.3 0 0 0-15.89-23.81ZM2512.08 2525.45a103.45 103.45 0 0 1 12.58 19.46l4.38-2.32a107.51 107.51 0 0 0-13.09-20.25ZM2505.4 2528.46l-3.83 3.16c3.42 4.13 6.71 9.79 9.61 14.79.63 1.07 1.23 2.12 1.82 3.12l4.27-2.53-1.8-3.08c-3-5.16-6.4-11.02-10.07-15.46ZM2483.79 2546.84c.17.21 17 21.36 19.74 52.67l4.94-.43c-2.86-32.81-20.09-54.45-20.82-55.36ZM2680.31 2542.91l-.23-2.47-.24-2.47c-.43 0-10.79 1.1-22.21 8.82-10.46 7.09-23.82 21.38-28 49.19l4.9.74c7.51-49.47 44.26-53.66 45.82-53.81l-.23-2.47ZM3307.61 1933.19a4.6 4.6 0 0 0-5.85-2.82l-12.31 4.32 67.68 206.74a23.44 23.44 0 0 1-4.12 22.75l.23 1.46 19.8-6.93a3.08 3.08 0 0 0 1.71-1.48l.34-.65a18.08 18.08 0 0 0 1-14.3Z" class="colorbb6136 svgShape"/><path fill="#a2e8fb" d="m3289 1947.29-67.92 11.29-167.68 27.65 37.6 146.62 167.52-45.44 79.25 70.13a9.84 9.84 0 0 0 16.79-9.63Z" class="colorfba4a2 svgShape"/><path fill="#040a0b" d="M3289.45 1934.69 3219 1959.1s39.79 79 30.61 130.78l89.86 73.22c3.12 3.35 8.35 4.45 13.17 2.77 6.44-2.26 9.34-10.71 7.35-16.38Z" class="color040b0a svgShape"/><path fill="#369fbb" d="m3262.78 2103.19 4.16 2.7a117.63 117.63 0 0 1 17.52-21.16l-3.43-3.58a122.37 122.37 0 0 0-18.25 22.04ZM3274.33 2112.64l4.09 2.81a103.14 103.14 0 0 1 15-17.62l-3.48-3.54a107.71 107.71 0 0 0-15.61 18.35ZM3295.14 2106.9c-4.08 4.36-8.72 9.3-11.93 14.1l4.13 2.75c3-4.46 7.46-9.24 11.42-13.45l2.46-2.63-3.64-3.37ZM3302.93 2133.62l4.09 2.8c.15-.22 15.66-22.44 44.8-34l-1.83-4.61c-30.61 12.19-46.41 34.85-47.06 35.81ZM3246.93 1949.27l-2.3.94 2.3-.93-2.3.93-2.3.93c.17.4 4.15 10 14.82 18.75 8.12 6.63 21.54 13.74 41.77 13.74a96 96 0 0 0 13.39-1l-.69-4.91c-49.55 7.02-64.1-26.99-64.69-28.45Z" class="colorbb6136 svgShape"/><path fill="#097895" fill-rule="evenodd" d="m2491.06 2470.34 219.54 1.17s46.24-463.9 154.28-676.69 160.33-390 160.33-390l-252.08 55.65c-275.06 386.72-282.07 1009.87-282.07 1009.87Z" class="color092195 svgShape"/><path fill="#07404f" d="M2664.74 2033.35a2.68 2.68 0 0 0-3.22 2c-47.08 197.84-47.92 411.62-47.92 413.76a2.67 2.67 0 0 0 2.66 2.67 2.66 2.66 0 0 0 2.66-2.66c0-2.14.85-215.31 47.78-412.53a2.66 2.66 0 0 0-1.96-3.24Z" class="color1e074f svgShape"/><path fill="#29d2ff" fill-rule="evenodd" d="m2491.06 2470.34 219.54 1.17s1.77-17.72 5.4-47.73l-223.06-3c-1.68 31.61-1.88 49.56-1.88 49.56Z" class="color299aff svgShape"/><path fill="#0993b8" fill-rule="evenodd" d="M2910.07 1894.92c1.61-47 40.65-112.12 77-193 15-33.24 29.46-69.15 40.73-107.55 17-58 26.66-121.6 19.37-190.36l-261.75 56.55s-160.81 354.77-121.3 575.44 521.77 130.12 521.77 130.12l-9.89-217.37s-269.23 41.66-265.93-53.83Z" class="color0947b8 svgShape"/><path fill="#07404f" d="M2760 2145.38c-9.18-2.6-32-13.27-52.65-35-15.15-16-27.09-35.43-35.48-57.85-10.53-28.09-15.49-60.95-14.76-97.64 3.09-154.07 99.18-409.8 100.15-412.37a2.67 2.67 0 1 0-5-1.88c-.24.64-24.62 65.28-49 148.19-40.9 138.76-50.55 221.22-51.45 266-.75 37.47 4.36 71.06 15.18 99.85 8.69 23.1 21 43.18 36.75 59.66 26.82 28.15 53.72 35.95 54.85 36.27a3.06 3.06 0 0 0 .73.1 2.67 2.67 0 0 0 .72-5.24Z" class="color1e074f svgShape"/><path fill="#03b3e2" fill-rule="evenodd" d="M2531.58 1085s-160-17.72-220.65-21.72a27.88 27.88 0 0 0-28 18.2l-18.37 50a27.87 27.87 0 0 0 16.43 35.74c65.94 24.55 328.74 107.59 428.71 73.39 124.68-42.66 175-233.5 175-233.5l-136.27-43.3Z" class="colore26203 svgShape"/><path fill="#00c3f7" fill-rule="evenodd" d="M3024.59 1285.92c-27.17-108.64-68.14-229.48-88.1-291.55-20.25-62.92-86-104.67-152.86-89.3l-22.72 14-34.62 21.31s-14.84 5.59-57.24 86.55c-26.37 50.32 35.52 226.38 57.24 364.13 13.23 83.83-12.43 163.23-12.43 163.23 235.44-11.56 333.6-58.73 333.6-58.73s7.25-68.34-8.69-147.38c-4.02-19.93-8.84-40.85-14.18-62.26Z" class="colorf79600 svgShape"/><path fill="#03b3e2" fill-rule="evenodd" d="M2849.41 1120.65c17.2-61.28 0-124.9 0-124.9-9.91 74.74-52.21 124.9-52.21 124.9l-7.79 85.29s45.8 111.12 137.4 120.61 97.78-40.63 97.78-40.63-66.25-7.15-95.53-10.15-96.85-93.85-79.65-155.12Z" class="colore26203 svgShape"/><path fill="#8bdcf2" d="M2576.32 1162.14c-10.74 10.95-17.07 15.39-17.13 15.44l2.82 4.07c1-.72 26.16-18.44 63.15-72.49l-4.09-2.8c-19.02 27.78-34.83 45.64-44.75 55.78Z" class="colorf28b8b svgShape"/><path fill="#1d8eac" d="m2386.71 2569.19-2.19-.39v31.61a4.61 4.61 0 0 0 1.25 3.16l.76.81a27.14 27.14 0 0 0 19.82 8.58h278.12a6.92 6.92 0 0 0 6.92-6.92v-19.66H2417a35.31 35.31 0 0 1-30.29-17.19Z" class="colorac1d6b svgShape"/><path fill="#1dc8f6" d="M2543.76 2483.57 2395 2550.43c-6.33 2.76-10.5 9.66-10.5 17.36 0 10.27 10.57 18.59 19.62 18.59h287.25l-9-95.76s-69.58 31.78-138.61-7.05Z" class="colorf61d6b svgShape"/><path fill="#fff" d="M2518.93 2487.63a4.45 4.45 0 1 0-7 5.45 176.86 176.86 0 0 1 21.27 35.3 4.45 4.45 0 1 0 8.11-3.67 185.57 185.57 0 0 0-22.38-37.08ZM2499.76 2499.38a4.45 4.45 0 0 0-7.19 5.24c8.95 12.25 12.49 19.4 17.51 30.05a4.45 4.45 0 0 0 4 2.55 4.4 4.4 0 0 0 1.89-.42 4.45 4.45 0 0 0 2.12-5.92c-5.22-11.13-8.91-18.6-18.33-31.5ZM2497.6 2531.92c-4.17-8-8.9-17.09-14.16-24.08a4.45 4.45 0 1 0-7.1 5.35c4.82 6.4 9.36 15.13 13.37 22.84.87 1.65 1.71 3.26 2.52 4.81a4.46 4.46 0 0 0 3.94 2.36 4.36 4.36 0 0 0 2.08-.52 4.44 4.44 0 0 0 1.84-6c-.81-1.54-1.64-3.13-2.49-4.76Z" class="colorffffff svgShape"/><path fill="#1d8eac" d="M3324.93 1916.49a6.91 6.91 0 0 0-8.74-4.41l-18.67 6.15 85.84 260.6a35.28 35.28 0 0 1-6.85 34.16l.31 2.2 30-9.89a4.59 4.59 0 0 0 2.61-2.17l.53-1a27.22 27.22 0 0 0 2-21.52Z" class="colorac1d6b svgShape"/><path fill="#1dc8f6" d="m3297.52 1918.23-88.14 38.5s19.44 25.07 30.31 64.74c5.43 19.84 11.46 43.24 6.36 69.14l110 120.36c4.61 5.14 12.46 7 19.77 4.54 9.76-3.21 14.36-15.86 11.53-24.46Z" class="colorf61d6b svgShape"/><path fill="#fff" d="M3285.91 2080.1a185.35 185.35 0 0 0-28.23 32.83 4.44 4.44 0 0 0 1.2 6.17 4.38 4.38 0 0 0 2.48.76 4.44 4.44 0 0 0 3.69-2 176.53 176.53 0 0 1 26.88-31.25 4.45 4.45 0 0 0-6-6.55ZM3299 2100.16c-8.93 8.47-14.87 14.32-24.18 27.3a4.45 4.45 0 1 0 7.23 5.18c8.84-12.33 14.52-17.92 23.07-26a4.45 4.45 0 0 0-6.12-6.45ZM3310.15 2115.47c-1.19 1.25-2.45 2.53-3.73 3.85-6.3 6.47-13.45 13.8-18.45 21a4.45 4.45 0 0 0 1.12 6.19 4.4 4.4 0 0 0 2.53.79 4.45 4.45 0 0 0 3.66-1.9c4.58-6.59 11.45-13.64 17.51-19.86l3.77-3.9a4.45 4.45 0 0 0-6.41-6.16Z" class="colorffffff svgShape"/><path fill="#0993b8" fill-rule="evenodd" d="M3024.59 1285.92c-47.7 7.31-122.24 13.75-162-8.23-52.31-28.92-91.24-283.43-101.69-358.64l-34.62 21.31s-14.84 5.59-57.24 86.55c-18.05 34.45 5.27 127.84 28.73 227.52 10.82 45.92 21.66 93.18 28.51 136.61a328 328 0 0 1 3.75 55.88 411.52 411.52 0 0 1-5.16 58.14c-4.74 29.79-11 49.21-11 49.21q19.08-.94 37-2.18c208.8-14.33 296.64-56.55 296.64-56.55s7.25-68.34-8.69-147.38c-4.07-19.91-8.89-40.83-14.23-62.24Z" class="color0947b8 svgShape"/><path fill="#00c3f7" fill-rule="evenodd" d="M2836.1 924.75c-34.12-26.34-62.84-20.75-87.46-12.24-54.76 18.93-138.92 186.16-138.92 186.16l146.12 102.4 69.39-134.93c47.11-109.83 10.87-141.39 10.87-141.39Z" class="colorf79600 svgShape"/><path fill="#0993b8" fill-rule="evenodd" d="M2789.36 903.9s-49.76 6.78-69.07 27.54c0 0 136.1-54.19 177.52 66s80 293.92 80 293.92l31.17-3.25s-79.51-272.2-92.56-302.38-48.76-89.93-127.06-81.83Z" class="color0947b8 svgShape"/><path fill="#29d2ff" fill-rule="evenodd" d="M2697.78 1254.43c10.82 45.92 21.66 93.18 28.51 136.61a328 328 0 0 1 3.75 55.88c35.33 5.38 73.42-28.16 75-63 2-46.19-25.56-155.43-25.56-155.43s-80.59 22.29-81.7 25.94Z" class="color299aff svgShape"/><path fill="#6ecce5" d="M2775.88 1312.84a986.9 986.9 0 0 1 2.22 12.18l4.38-.77c-.69-3.93-1.44-8-2.23-12.23ZM2771.7 1291.57c.8 3.91 1.62 8 2.43 12.15l4.37-.86c-.82-4.18-1.64-8.26-2.44-12.18ZM2779.66 1334.18c.7 4.24 1.34 8.35 1.91 12.21l4.4-.64c-.57-3.89-1.22-8-1.92-12.3ZM2766.46 1247l-3.22.76.51 2.17-1.1.26s1 4.22 2.54 11l4.34-1a930.19 930.19 0 0 0-2.55-11.11ZM2782.84 1355.57c.57 4.36 1 8.49 1.41 12.25l4.42-.43c-.36-3.81-.84-8-1.41-12.39ZM2767.21 1270.36c.8 3.68 1.68 7.75 2.6 12.11l4.35-.91c-.92-4.38-1.8-8.46-2.61-12.15ZM2761.35 1419.7l2 3.94a78.83 78.83 0 0 0 10.85-6.69l-2.66-3.57a75.55 75.55 0 0 1-10.19 6.32ZM2741.61 1427.73l1.39 4.27c4.12-1.31 8.1-2.77 11.83-4.33l-1.71-4.1c-3.65 1.43-7.51 2.89-11.51 4.16ZM2783.74 1398.64a27.6 27.6 0 0 1-5.56 8.85l3.29 3a31.88 31.88 0 0 0 6.45-10.29c.12-.35.24-.71.36-1.09l-4.27-1.27c-.08.27-.17.54-.27.8ZM2720.91 1257.68l1 4.33 12.1-2.8-1-4.34ZM2700 1262.38l.2 2.21v2.23c.39 0 .76 0 12.66-2.72l-1-4.33c-9.86 2.23-11.59 2.57-11.86 2.61ZM2729.55 1431l.44 2.18-1.37 1.75a1.71 1.71 0 0 0 1.18.48 22.36 22.36 0 0 0 4.08-.87l-1.09-4.31c-2.04.55-3.23.77-3.24.77Z" class="color6ebbe5 svgShape"/><path fill="#6ecce5" d="M2742.41 1251.29h12.42v4.45h-12.42z" class="color6ebbe5 svgShape" transform="rotate(-13.14 2748.462 1253.464)"/><path fill="#6ecce5" d="M2785 1377c.18 3.09.27 5.94.27 8.47 0 1.3 0 2.54-.07 3.7l4.44.18c.05-1.21.08-2.52.08-3.88 0-2.62-.09-5.56-.28-8.74Z" class="color6ebbe5 svgShape"/><path fill="#07404f" d="M3175.63 2037.24c-.82.14-82.94 13.8-169.69 13.23-50.84-.33-93.26-5.42-126.09-15.11-40.51-12-66.28-31-76.6-56.5-26.18-64.78 8.81-154.08 49.34-257.48 30-76.55 64-163.31 75.69-250.78a2.67 2.67 0 0 0-5.29-.71c-11.6 86.83-45.48 173.27-75.37 249.54-40.94 104.46-76.3 194.68-49.32 261.43 11 27.11 37.89 47.17 80 59.62 33.31 9.83 76.22 15 127.56 15.33h5.35c85.21 0 164.46-13.19 165.27-13.33a2.67 2.67 0 1 0-.89-5.26Z" class="color1e074f svgShape"/><path fill="#07404f" d="M2897.42 1584.64c-.31 0-31.07 4.31-50.72-13.07-11.49-10.16-17.07-25.78-16.61-46.43a2.67 2.67 0 0 0-5.34-.12c-.5 22.31 5.71 39.33 18.44 50.57 14.42 12.74 33.59 14.93 45.08 14.93a74.56 74.56 0 0 0 9.93-.6 2.67 2.67 0 1 0-.78-5.28Z" class="color1e074f svgShape"/><path fill="#29d2ff" fill-rule="evenodd" d="M2960.71 1668.34c0 3.49 26.38 33.62 26.38 33.62 15-33.24 29.46-69.15 40.73-107.55l-47.95-8.85s-19.16 79.3-19.16 82.78Z" class="color299aff svgShape"/><path fill="#6ecce5" d="M3017.56 1611.58h4.45v4.01h-4.45z" class="color6ebbe5 svgShape" transform="rotate(-76.83 3019.547 1613.621)"/><path fill="#6ecce5" d="M2979.43 1598.46h4.45v12.38h-4.45z" class="color6ebbe5 svgShape" transform="matrix(.23 -.97 .97 .23 739.72 4142.15)"/><path fill="#6ecce5" d="M3000.53 1603.4h4.45v12.38h-4.45z" class="color6ebbe5 svgShape" transform="matrix(.23 -.97 .97 .23 751.2 4166.51)"/><path fill="#29d2ff" fill-rule="evenodd" d="m3132 1954 11.87 218.65c26.16-3.55 42-6.53 42-6.53l-9.87-217.37s-17.76 2.74-44 5.25Z" class="color299aff svgShape"/><path fill="#097895" fill-rule="evenodd" d="M2713.86 1554.27q19.08-.94 37-2.18l-25.94-47c-4.78 29.76-11.06 49.18-11.06 49.18Z" class="color092195 svgShape"/><path fill="#8f8f8f" d="m2732.4 1437.69-2.59 49.62c195 73.42 357.62-12.89 357.62-12.89l-5.07-49.31c-183.36 91.2-349.96 12.58-349.96 12.58Z" class="color8f8f8f svgShape"/><path fill="#475a5f" d="m2732.4 1437.69-.89 17c25.33 10.76 181.41 70.39 352.54-13.21l-1.69-16.36c-183.36 91.19-349.96 12.57-349.96 12.57Z" class="color49475f svgShape"/><path fill="#0993b8" d="m2746.55 1501.53 27.94 4.83 6.46-64.43-27.39-5.44-7.01 65.04zM2956.84 1456.59l8.63 63.69 31.68-4.9-9.22-63.56-31.09 4.77z" class="color0947b8 svgShape"/><path fill="#59cae8" d="M3097.53 1419.89c-1.88-8.44-12.56-21.38-17.78-17.85s8.31 21.15-5.34 21.86-5.32-21.24-10.72-21.21-15.47 14.1-11.38 24.4 17.65 17.28 17.65 17.28l11.37 51.16 16.78-5.54-11.57-49.34s12.86-12.33 10.99-20.76Z" class="color7059e8 svgShape"/><path fill="#14add6" d="M3042.35 1465.83a9.29 9.29 0 0 0-11.06-7.13 9.35 9.35 0 0 0-7.35 11l7 34.19a9.4 9.4 0 0 0 18.4-3.83ZM3068.55 1436.14c-1.35-6.56-8.14-10.68-15.18-9.21s-11.65 8-10.31 14.51l9.21 44.82c1.35 6.55 8.15 10.67 15.18 9.2s11.65-8 10.31-14.51Z" class="colord61450 svgShape"/><path fill="#b6cbd0" d="M2997.25 1448.66c-17.47 3.46-6.79 42.11-6.79 42.11l27.91-5s-4.63-40.38-21.12-37.11Z" class="colorb6c1d0 svgShape"/><path fill="#8f8f8f" d="M2970.05 1486.31s30.12 175.89 45.67 192.09c12.92 13.46 115.63-8.2 123.59-23.27s-38.29-193-38.29-193Z" class="color8f8f8f svgShape"/><path fill="#475a5f" d="M3079.32 1466.14c7 27.46 47.06 185.27 39.39 199.8a9.74 9.74 0 0 1-1.24 1.4c11.43-4 19.79-8.33 21.84-12.21 8-15.06-38.29-193-38.29-193ZM3091.16 1652.84a158.75 158.75 0 0 1-56.2 8.44 3.3 3.3 0 0 0-3.29 3.1 3.21 3.21 0 0 0 3.1 3.31c1.73 0 3.47.08 5.2.08a164 164 0 0 0 53.26-8.88 3.2 3.2 0 1 0-2.07-6.05Z" class="color49475f svgShape"/><path fill="#00c3f7" fill-rule="evenodd" d="M2609.72 1098.67s-56.72 106.06-109.14 110.83-195.93 18.48-209 24.45-24.09 23-24.09 23-6 71.55 0 83.48 11.32 24.15 36.36 31.3 253.86 29.78 321.83-16.72 130.2-153.89 130.2-153.89l-40.62-102.47Z" class="colorf79600 svgShape"/><path fill="#1bc3f0" d="M2775.73 624.62a159.77 159.77 0 0 0-30.66-8.92 86.74 86.74 0 0 0-26.26-1.23c-29.29 3.32-48.73 22.77-61 42.18a145.15 145.15 0 0 0-9.73 18.16 133.7 133.7 0 0 0-8.48 24.08L2713 718l32.5 8.46 12.58 3.27 67 17.42.28.07a6.19 6.19 0 0 0 7.42-5.23q.93-6.86 1.37-13.34a143.44 143.44 0 0 0-1.56-35c-5.9-33.06-25.07-55.92-56.86-69.03Z" class="colorf07f1b svgShape"/><path fill="#1bc3f0" d="M2733.78 715.65c-18.26-13.77-48.52-35.11-66.41-39.77a42.53 42.53 0 0 0-16.34-.44 83.3 83.3 0 0 0-13.05 3c-1 .3-1.95.62-2.92.95s-2.19.78-3.26 1.2c-12.83 4.9-27.55 3.71-30.64 8.8-1.77 2.9 10.44 10.94 32.57 16.92a711.37 711.37 0 0 0 71.95 15c24.33 3.73 43.44 6.29 43.44 6.29s-.22-.19-.65-.53c-1.81-1.46-7.25-5.81-14.69-11.42Z" class="colorf07f1b svgShape"/><path fill="#21cefc" d="M2775.06 617a158.35 158.35 0 0 0-30.66-8.92 86.4 86.4 0 0 0-26.26-1.23c-29.28 3.32-48.73 22.77-61 42.18a147.1 147.1 0 0 0-9.73 18.16 133.52 133.52 0 0 0-8.47 24.07l73.41 19.1 32.51 8.45 12.58 3.28 67 17.42.27.06a6.19 6.19 0 0 0 7.43-5.22q.93-6.86 1.37-13.34a144 144 0 0 0-1.56-35c-5.95-33.01-25.1-55.91-56.89-69.01Z" class="colorfcbe21 svgShape"/><path fill="#6addfc" d="M2775.06 617c.17 14 7.19 43.36 56.87 69-5.93-33-25.08-55.9-56.87-69Z" class="colorfcd86a svgShape"/><path fill="#14cbfc" d="M2706.48 658.84c-4.13-16.57 4.24-37.67 11.66-52-29.28 3.32-48.73 22.77-61 42.18a147.1 147.1 0 0 0-9.73 18.16 133.52 133.52 0 0 0-8.47 24.07l73.41 19.1 32.51 8.45 12.58 3.28 67 17.42.27.06a6.19 6.19 0 0 0 7.43-5.22q.93-6.86 1.37-13.34c-53.25-1.7-120.77-37-127.03-62.16Z" class="colorfca214 svgShape"/><path fill="#1bc3f0" d="M2822.82 657.44c-12.07-8.17-25.93-10.49-42-7.13-18.18 3.84-57.82 18.86-74.61 57.36 8.27-7.49 35.07-32.5 75.17-41.5 16.3-3.67 36.51.73 49 12.57 2.83-5.87 1.98-14.81-7.56-21.3ZM2737.7 598.59c-15.33-.94-39.83 7.21-49.73 16.9-19 18.64-30.43 47.49-28.71 72.27 6.36-22 16.7-43.49 35.27-58.47s54.56-19.48 80.41-12.52c-1.94-9.63-17.68-16.96-37.24-18.18Z" class="colorf07f1b svgShape"/><path fill="#1bc3f0" d="M2642.08 657.11c-4.29 12.58-5.55 26.59 4.7 35.73-5.66-22.06 10-44.54 22.79-60.14-15.05 1.61-24.36 15.19-27.49 24.41Z" class="colorf07f1b svgShape"/><path fill="#6addfc" d="M2730.15 707.4c-18.26-13.77-48.52-35.11-66.41-39.78a42.39 42.39 0 0 0-16.35-.43 82.28 82.28 0 0 0-13 3c-1 .3-2 .63-2.92 1s-2.19.78-3.27 1.19c-12.83 4.91-23.91 12-27 17.06-1.77 2.9 10 6.68 27.51 10.59 20.76 4.62 49.56 9.4 73.38 13 24.32 3.73 43.44 6.28 43.44 6.28l-.65-.53c-1.88-1.42-7.3-5.78-14.73-11.38Z" class="colorfcd86a svgShape"/><path fill="#8ee6fd" d="M2654.23 672.62s-23.72 1.56-41.93 13.56c0 0 16.24 7.56 22.08 5.8 14-4.22 34.47-8.31 34.41-10.09s-8.04-9.89-14.56-9.27ZM2673.78 686.47c-1.08 0-31.55 4.85-26.73 8.08s42.91 12.89 42.12 8.31-11.83-16.52-15.39-16.39Z" class="colorfde18e svgShape"/><g class="color000000 svgShape" clip-path="url(#a)"><path fill="#01caff" d="M3900.82 2100.35c-.16-2.53-.3-5.07-.54-7.57-.12-1.25-.31-2.48-.45-3.72-.27-2.42-.52-4.84-.86-7.23-.19-1.32-.45-2.62-.66-3.94-.37-2.29-.71-4.58-1.14-6.85-.25-1.28-.56-2.53-.82-3.8-.48-2.28-.93-4.57-1.47-6.83-.29-1.18-.63-2.35-.93-3.52-.59-2.32-1.17-4.63-1.83-6.92-.33-1.16-.72-2.29-1.07-3.44-.7-2.28-1.38-4.56-2.14-6.8-.37-1.12-.8-2.2-1.2-3.3-.77-2.2-1.53-4.4-2.37-6.56a165.18 165.18 0 0 0-23.55-45.43c-.54-.76-1-1.55-1.58-2.3l-.14-.19-.12-.17c-.5-.73-1.06-1.42-1.57-2.14-2.18-3.11-4.39-6.2-6.72-9.19-.49-.64-1-1.23-1.53-1.86-2.43-3.06-4.88-6.08-7.45-9-.5-.57-1-1.11-1.56-1.68-2.62-2.93-5.27-5.83-8-8.62-.54-.55-1.13-1.06-1.67-1.61-2.79-2.76-5.6-5.49-8.52-8.11-.57-.52-1.17-1-1.75-1.49-2.95-2.6-5.93-5.17-9-7.62-.63-.5-1.3-1-1.93-1.44-3.07-2.4-6.17-4.77-9.36-7-.73-.52-1.51-1-2.25-1.49-3.14-2.16-6.3-4.29-9.55-6.3-.81-.51-1.67-1-2.49-1.44-3.22-1.94-6.45-3.86-9.77-5.64-1-.56-2.1-1-3.13-1.57-3.17-1.64-6.34-3.29-9.59-4.79-1.23-.57-2.5-1-3.73-1.59-3.12-1.38-6.23-2.77-9.42-4-1.48-.58-3-1.06-4.51-1.61-3-1.1-6-2.22-9-3.2-1.76-.57-3.57-1-5.34-1.54-2.85-.84-5.68-1.73-8.57-2.47-2-.5-4-.87-6-1.32-2.76-.63-5.49-1.31-8.28-1.83-2.42-.46-4.89-.77-7.34-1.16s-4.78-.83-7.2-1.13c-3.25-.41-6.55-.65-9.84-.92-1.67-.14-3.32-.36-5-.47a243.124 243.124 0 0 0-30.18.04c-1.68.11-3.33.34-5 .48-3.29.28-6.59.53-9.84.94-2.42.31-4.8.77-7.2 1.15s-4.92.71-7.34 1.17c-2.78.53-5.52 1.22-8.27 1.85-2 .46-4 .84-6 1.34-2.89.75-5.72 1.64-8.56 2.49-1.77.53-3.58 1-5.33 1.55-3 1-6 2.12-9 3.22-1.5.56-3 1-4.51 1.62-3.18 1.25-6.29 2.65-9.41 4-1.23.55-2.5 1-3.72 1.6-3.25 1.51-6.42 3.16-9.58 4.82-1 .54-2.1 1-3.13 1.57-3.31 1.79-6.54 3.72-9.76 5.66-.82.5-1.67.94-2.49 1.45-3.24 2-6.39 4.16-9.53 6.32-.74.51-1.51 1-2.25 1.5-3.18 2.25-6.27 4.62-9.34 7-.63.49-1.29 1-1.92 1.45-3.11 2.49-6.11 5.09-9.09 7.73-.54.47-1.11.91-1.64 1.39-2.92 2.64-5.73 5.39-8.52 8.16-.54.54-1.12 1.05-1.65 1.59-2.76 2.8-5.41 5.71-8 8.65-.51.57-1 1.1-1.56 1.68-2.56 2.93-5 6-7.42 9-.5.63-1 1.23-1.53 1.87-2.32 3-4.52 6.09-6.7 9.2-.51.73-1.06 1.42-1.57 2.15l-.11.17a1.33 1.33 0 0 0-.14.19c-.56.75-1 1.54-1.58 2.3a165.47 165.47 0 0 0-23.44 45.49c-.83 2.16-1.59 4.36-2.36 6.56-.39 1.1-.82 2.19-1.19 3.3-.75 2.25-1.43 4.53-2.12 6.81-.35 1.15-.74 2.29-1.07 3.45-.65 2.28-1.22 4.6-1.81 6.91-.3 1.18-.64 2.35-.92 3.53-.55 2.34-1 4.71-1.51 7.08-.24 1.19-.52 2.36-.75 3.55-.44 2.33-.79 4.68-1.16 7-.2 1.26-.44 2.5-.62 3.77-.33 2.39-.58 4.81-.85 7.23-.13 1.24-.31 2.47-.43 3.72-.23 2.51-.37 5-.53 7.57-.07 1.18-.19 2.35-.24 3.53-.18 3.72-.26 7.47-.26 11.24q0 6.91.41 13.74c.05.72.14 1.42.19 2.13.26 3.82.56 7.64 1 11.41.09.84.25 1.65.36 2.49.46 3.63.95 7.25 1.57 10.82.12.69.29 1.36.42 2 .68 3.7 1.4 7.38 2.25 11 .07.32.17.63.25 1 1 4 2 7.93 3.12 11.83.09.32.21.63.31 1 1.16 3.89 2.39 7.75 3.75 11.55 0 .16.12.31.18.47q2.11 5.92 4.54 11.71c.08.19.17.37.25.56 1.59 3.76 3.26 7.48 5 11.14 8.51 21.43 19.67 41.48 33.05 61.5 41.17 61.6 51.49 97.55 51.54 143.78v1.38c.52 30.72 26.09 55.1 56.82 55.07l143.35-.17c30.72 0 56.24-24.48 56.68-55.2v-1.38c0-46.24 10.18-82.21 51.21-143.91 13.33-20.05 24.44-40.12 32.91-61.57 1.76-3.66 3.42-7.39 5-11.15.08-.19.18-.37.26-.57q2.4-5.78 4.51-11.71c.05-.16.12-.32.18-.48a235.5 235.5 0 0 0 3.72-11.55c.1-.32.21-.63.31-1 1.08-3.71 2-7.47 2.94-11.26.12-.51.28-1 .4-1.54.83-3.59 1.53-7.24 2.2-10.89.13-.73.31-1.45.43-2.18.62-3.57 1.1-7.19 1.55-10.82.11-.84.26-1.66.36-2.49.43-3.77.72-7.59 1-11.41 0-.72.14-1.42.18-2.13q.38-6.83.38-13.75 0-5.66-.28-11.23c-.05-1.09-.15-2.25-.23-3.43Z" class="colorffdb01 svgShape"/><path fill="#fff" d="M3646.63 1875.1c-9.39 1.09-18.3 2.63-26.89 4.43v-.33c-5.75 1.32-143.27 23.93-180.51 162.28-1.15 3.88-1.77 6.44-1.93 7.14a265.87 265.87 0 0 0-5.43 31.26 55 55 0 1 0 109.21 12.47 175.77 175.77 0 0 1 3.36-19.51l-.16.69c2-8 22.58-78.49 115-89.27a55 55 0 1 0-12.73-109.18Z" class="colorffffff svgShape" opacity=".33"/><path fill="#00bbed" d="M3854.73 2116.31a56.9 56.9 0 0 0-6.36-.36 55 55 0 0 0-54.48 48.73 177.76 177.76 0 0 1-3.35 19.51h-.06l.16-.69c-2 8-22.58 78.49-115 89.27a55 55 0 0 0 12.73 109.18c9.39-1.09 18.3-2.62 26.89-4.43v.33c5.76-1.32 143.27-23.93 180.51-162.28 1.16-3.88 1.77-6.44 1.93-7.14a268.11 268.11 0 0 0 5.44-31.25 55 55 0 0 0-48.41-60.87Z" class="coloredc500 svgShape" opacity=".4"/></g><path fill="#777" d="m3767.22 2464.61-203.55.24a19 19 0 0 0-18.93 19v3.2a19 19 0 0 0 19 18.93l203.56-.24a19 19 0 0 0 18.93-19v-3.2a19 19 0 0 0-19.01-18.93Z" class="color777777 svgShape"/><path fill="#777" d="m3754.43 2505.73-177.87.2a19 19 0 0 0-18.93 19v3.2a19 19 0 0 0 19 18.92l177.87-.2a19 19 0 0 0 18.92-19v-3.2a18.94 18.94 0 0 0-18.99-18.92Z" class="color777777 svgShape"/><rect width="182.38" height="41.1" x="3574.38" y="2546.93" fill="#777" class="color777777 svgShape" rx="18.95" transform="rotate(-.07 3518.092 2465.868)"/><path fill="#4f5151" d="M3779.93 2470.4s-3.77-5.8-14-5.79c0 0 10.32 41.09-113 41.24l103.77-.13s19 4.57 26.93-10.58-3.7-24.74-3.7-24.74Z" class="color4f4f51 svgShape"/><path fill="#4f5151" d="M3769.71 2511.51s-3.78-5.8-14.06-5.79c0 0 10.33 41.09-113 41.24l103.78-.13s18.95 4.57 26.92-10.58-3.64-24.74-3.64-24.74Z" class="color4f4f51 svgShape"/><path fill="#4f5151" d="M3754.34 2552.63s-3.77-5.8-14.05-5.79c0 0 10.32 41.09-113 41.23l103.77-.12s19 4.57 26.93-10.58-3.65-24.74-3.65-24.74Z" class="color4f4f51 svgShape"/><path fill="#8d8d8d" d="m3648.53 2469.89-78.66.09a9.48 9.48 0 0 0-9.47 9.49v1.6a9.48 9.48 0 0 0 9.49 9.46l78.66-.09a9.48 9.48 0 0 0 9.45-9.44v-1.6a9.46 9.46 0 0 0-9.47-9.51Z" class="color8d8d8d svgShape"/><rect width="35.96" height="20.55" x="3570.73" y="2511.06" fill="#8d8d8d" class="color8d8d8d svgShape" rx="9.48" transform="rotate(-.07 3370.82 2367.557)"/><path fill="#8d8d8d" d="M3595.66 2552.15h1.6a9.48 9.48 0 0 1 9.48 9.48v1.6a9.47 9.47 0 0 1-9.47 9.47h-1.6a9.48 9.48 0 0 1-9.48-9.48v-1.6a9.47 9.47 0 0 1 9.47-9.47Z" class="color8d8d8d svgShape" transform="rotate(-.07 3591.698 2564.135)"/><path d="M3631.45 2362.95h2.91v100.15h-2.91z" class="color000000 svgShape" transform="rotate(-3.59 3630.017 2411.245)"/><path d="M3654.58 2411.48h100.15v2.91h-100.15z" class="color000000 svgShape" transform="rotate(-86.54 3704.646 2412.942)"/><path d="M3612.77 2339.25a9.46 9.46 0 0 0-9.45 9.48 1.45 1.45 0 0 0 1.45 1.45 1.46 1.46 0 0 0 1.46-1.46 6.54 6.54 0 0 1 6.54-6.55 6.54 6.54 0 0 1 6.55 6.54 1.45 1.45 0 0 0 1.46 1.45 1.45 1.45 0 0 0 1.45-1.45 9.47 9.47 0 0 0-9.46-9.46Z" class="color000000 svgShape"/><path d="M3636.79 2347.23a1.46 1.46 0 0 0-1.46 1.46 6.56 6.56 0 0 1-6.54 6.56 6.56 6.56 0 0 1-6.55-6.54 1.45 1.45 0 0 0-1.45-1.46 1.45 1.45 0 0 0-1.45 1.46 9.46 9.46 0 0 0 9.46 9.45 9.46 9.46 0 0 0 9.45-9.47 1.45 1.45 0 0 0-1.46-1.46Z" class="color000000 svgShape"/><path d="M3644.8 2339.22a9.47 9.47 0 0 0-9.45 9.47 1.46 1.46 0 0 0 1.46 1.45 1.44 1.44 0 0 0 1.45-1.45 6.57 6.57 0 0 1 6.55-6.56 6.56 6.56 0 0 1 6.55 6.54 1.45 1.45 0 0 0 1.45 1.46 1.46 1.46 0 0 0 1.46-1.46 9.46 9.46 0 0 0-9.46-9.45Z" class="color000000 svgShape"/><path d="M3668.82 2347.19a1.47 1.47 0 0 0-1.45 1.46 6.54 6.54 0 0 1-6.54 6.56 6.55 6.55 0 0 1-6.55-6.54 1.46 1.46 0 0 0-1.46-1.46 1.46 1.46 0 0 0-1.45 1.46 9.46 9.46 0 0 0 9.46 9.45 9.46 9.46 0 0 0 9.45-9.47 1.45 1.45 0 0 0-1.46-1.46Z" class="color000000 svgShape"/><path d="M3676.82 2339.18a9.46 9.46 0 0 0-9.45 9.47 1.46 1.46 0 0 0 1.46 1.46 1.46 1.46 0 0 0 1.45-1.46 6.56 6.56 0 0 1 6.55-6.56 6.54 6.54 0 0 1 6.55 6.54 1.46 1.46 0 0 0 1.46 1.46 1.46 1.46 0 0 0 1.46-1.46 9.46 9.46 0 0 0-9.47-9.45Z" class="color000000 svgShape"/><path d="M3700.84 2347.16a1.45 1.45 0 0 0-1.45 1.46 6.55 6.55 0 0 1-6.55 6.55 6.54 6.54 0 0 1-6.55-6.54 1.47 1.47 0 0 0-1.46-1.45 1.45 1.45 0 0 0-1.46 1.45 9.47 9.47 0 0 0 9.46 9.46 9.46 9.46 0 0 0 9.45-9.48 1.45 1.45 0 0 0-1.44-1.45Z" class="color000000 svgShape"/><path d="M3708.85 2339.14a9.47 9.47 0 0 0-9.45 9.48 1.45 1.45 0 0 0 1.45 1.45 1.45 1.45 0 0 0 1.45-1.46 6.57 6.57 0 0 1 6.54-6.56 6.56 6.56 0 0 1 6.55 6.55 1.45 1.45 0 0 0 1.46 1.45 1.45 1.45 0 0 0 1.45-1.46 9.46 9.46 0 0 0-9.46-9.45Z" class="color000000 svgShape"/><path d="M3732.87 2347.12a1.46 1.46 0 0 0-1.46 1.46 6.45 6.45 0 0 1-1.91 4.63 6.53 6.53 0 0 1-4.63 1.93 6.57 6.57 0 0 1-6.55-6.55 1.45 1.45 0 0 0-1.45-1.45 1.45 1.45 0 0 0-1.45 1.46 9.48 9.48 0 0 0 9.46 9.45 9.47 9.47 0 0 0 9.46-9.48 1.46 1.46 0 0 0-1.47-1.45Z" class="color000000 svgShape"/><path fill="#fff" d="m3705.75 2002.42-134.88 109.57 102.46 69.62-76.03 98.63 172-105.14-113.97-69.61 50.42-103.07z" class="colorffffff svgShape"/><path fill="#066d89" d="M3100.69 2488.8c-31.09 19.31 37 144.37 37 144.37h69.6c-14.48-98.17-66.53-169.25-106.6-144.37Z" class="color068980 svgShape"/><path fill="#064252" d="M3124.59 2505.36c-1 .16-1.48.69-1.2 1.2l52.28 126.61h3.78l-52.6-127.17a2.36 2.36 0 0 0-2.26-.64Z" class="color004f4c svgShape"/><path fill="#066d89" d="M3327.42 2488.8c-40.07-24.88-92.12 46.18-106.55 144.37h77.06s60.58-125.06 29.49-144.37Z" class="color068980 svgShape"/><path fill="#064252" d="M3303.52 2505.36a2.36 2.36 0 0 0-2.26.64l-49.77 127.17h3.78l49.45-126.61c.28-.51-.25-1.04-1.2-1.2Z" class="color004f4c svgShape"/><path fill="#066d89" d="M3225.9 2440c-45.8-18.07-63.87 78.24-18.65 193.22h20.45s43.99-175.22-1.8-193.22Z" class="color068980 svgShape"/><path fill="#064252" d="M3213.92 2462.39c-1 0-1.81.42-1.82 1l-2.44 169.83h3.61l2.44-169.82c.01-.58-.79-1.01-1.79-1.01Z" class="color004f4c svgShape"/><path fill="#066d89" d="M867.47 2370c-45 28 53.55 209.17 53.55 209.17h100.84c-20.92-142.28-96.33-245.23-154.39-209.17Z" class="color068980 svgShape"/><path fill="#064252" d="M902.1 2394c-1.37.23-2.15 1-1.73 1.74l75.74 183.44h5.48l-76.22-184.25c-.37-.76-1.88-1.17-3.27-.93Z" class="color004f4c svgShape"/><path fill="#066d89" d="M1196 2370c-58.06-36-133.46 66.9-154.38 209.17h111.65S1241 2398 1196 2370Z" class="color068980 svgShape"/><path fill="#064252" d="M1161.34 2394c-1.39-.22-2.85.19-3.27.93L1086 2579.16h5.48l71.64-183.44c.37-.72-.4-1.51-1.78-1.72Z" class="color004f4c svgShape"/><path fill="#066d89" d="M1048.88 2299.21c-66.35-26.17-92.53 113.36-27 279.95h29.63s63.71-253.77-2.63-279.95Z" class="color068980 svgShape"/><path fill="#064252" d="M1031.53 2331.72c-1.44 0-2.62.61-2.64 1.38l-3.54 246.06h5.23l3.54-246c.02-.81-1.12-1.44-2.59-1.44Z" class="color004f4c svgShape"/><path fill="#38d4fd" d="M3271.56 804.59c-66.07 2.4-117.8 54.9-115.53 117.26s57.66 111 123.73 108.56 117.8-54.9 115.53-117.25-57.66-110.97-123.73-108.57ZM3408.88 912.66l.79 21.75 48.83-23.55-50.41-19.95.79 21.75zM3141.66 900.59l-48.83 23.56 50.41 19.94-.79-21.74-.79-21.76zM3397.36 863.11l8.89 19.87 36.45-40.13-54.22.39 8.88 19.87zM3145.08 952.02l-36.44 40.13 54.2-.38-8.88-19.88-8.88-19.87zM3368.13 821.48l15.67 15.1 18.76-50.86-50.11 20.66 15.68 15.1zM3167.53 998.43l-18.77 50.86 50.12-20.67-15.68-15.1-15.67-15.09zM3305.24 785.71l20.19 8.12 20.18 8.13-1.65-54.19-38.72 37.94zM3205.71 1033.04l1.66 54.19 38.72-37.94-20.18-8.12-20.2-8.13zM3253.71 784.23l21.76-.03 21.77-.03-21.83-49.62-21.7 49.68zM3254.09 1050.83l21.83 49.63 21.69-49.69-21.76.03-21.76.03zM3205.38 802.16l20.17-8.18 20.17-8.18-38.84-37.83-1.5 54.19zM3305.61 1049.21l38.83 37.83 1.5-54.19-20.17 8.18-20.16 8.18zM3167.3 836.88l15.63-15.14 15.63-15.14-50.17-20.53 18.91 50.81zM3368.4 1013.26l-15.64 15.14 50.18 20.53-18.91-50.81-15.63 15.14zM3144.99 883.35l8.82-19.89 8.83-19.9-54.22-.24 36.57 40.03zM3397.52 971.55l-8.82 19.89 54.2.24-36.56-40.03-8.82 19.9z" class="colorfdc238 svgShape"/><path fill="#47666e" d="m1794.45 2490.47-317.7 15.22v.92c2.4 50.22 159.9 83.49 210.12 81.09l21-1a91.05 91.05 0 0 0 86.59-95.31Z" class="color49476e svgShape"/><path fill="#47666e" d="M1828.32 2412.3 1801 2375c-9.5 5.34-19.11 10.46-28.41 16.18l-56.82 35a46 46 0 0 0-15 63.27 46.63 46.63 0 0 0 63.27 15l56.81-35c13-8 26.34-15.5 39.79-22.68l-5 2.58Z" class="color49476e svgShape"/><path fill="#182d33" d="M1872 2441c-3.81 1.95-7.64 3.83-11.42 5.84Z" class="color182933 svgShape"/><path fill="#59cae8" d="M2200.12 2268.22a828 828 0 0 0-366.53 89.27l-.18-.27-55.61-13.74L1801 2375l27.34 37.26c10.59-5.87 21.33-11.42 32.17-16.77a781.82 781.82 0 0 1 324.8-81.05c3-.08 34.81-1.53 61.11-2.69a46 46 0 0 0-46.3-43.53Z" class="color7059e8 svgShape"/><path fill="#2d94b0" d="M2246.4 2311.79c-26.3 1.16-58.1 2.61-61.11 2.69a781.82 781.82 0 0 0-324.8 81.05c-10.84 5.35-21.58 10.9-32.17 16.77l27.25 37.12 5-2.58c3.78-2 7.61-3.89 11.42-5.84a736.05 736.05 0 0 1 328.87-80.81 46 46 0 0 0 45.59-46.37c0-.62 0-1.23-.06-1.85.03-.06.01-.12.01-.18Z" class="color4d2db0 svgShape"/><path fill="#91bbc6" d="M1761.45 2451.2a45.93 45.93 0 0 0-57.3 14.19 45.42 45.42 0 0 0-4.25 6.82 46 46 0 0 0 21 61.54l59.91 29.4c9.81 4.82 19.86 9 29.83 13.4l23.65-39.71 23.57-39.55 5.26 2.08c-14.08-5.85-28-12-41.78-18.77Z" class="color91afc6 svgShape"/><path fill="#182d33" d="m1875.05 2504.1-11.93-4.73c3.96 1.63 7.95 3.15 11.93 4.73Z" class="color182933 svgShape"/><path fill="#59cae8" d="M2199 2600.08a781.6 781.6 0 0 1-331.06-49.62c-11.31-4.29-22.53-8.79-33.63-13.62l-23.65 39.71-20.06 33.63 54-19 .16-.28a828.08 828.08 0 0 0 373.38 53.81 46 46 0 0 0 41.9-47.79c-26.27 1.35-58.04 2.95-61.04 3.16Z" class="color7059e8 svgShape"/><path fill="#2d94b0" d="M2210.13 2553.09a736.06 736.06 0 0 1-335.08-49c-4-1.58-8-3.08-11.93-4.73l-5.26-2.08-23.57 39.55c11.1 4.83 22.32 9.33 33.63 13.62a781.6 781.6 0 0 0 331.08 49.63c3-.21 34.79-1.81 61.08-3.16v-.19c0-.61-.06-1.23-.12-1.85a46 46 0 0 0-49.83-41.79Z" class="color4d2db0 svgShape"/><path fill="#91bbc6" d="M1793.82 2477.25v-.91a91 91 0 0 0-95.31-86.59l-21 1c-50.22 2.41-203.81 50.58-201.41 100.81v.92l218.2-10.48.71 14.86a49.82 49.82 0 0 0 99.52-4.77Z" class="color91afc6 svgShape"/><path fill="#47666e" d="M1743.76 2473.44a21.08 21.08 0 1 0 22.06 20 21.08 21.08 0 0 0-22.06-20Z" class="color49476e svgShape"/><path fill="#aed7e2" d="M1651.14 2415.15c-48.49 6.93-131.15 44.79-140.39 54.49s143.16-12.93 163.94-7.39 67-2.31 47.11-33.71c0 0-22.17-20.32-70.66-13.39Z" class="coloraec7e2 svgShape"/></g></svg>