<svg xmlns="http://www.w3.org/2000/svg" data-name="Layer 1" viewBox="0 0 19.54 37.4"><path d="M16.61 21.37c0 3.56-1.34 6.77-3.5 9.1-2.17 2.33-5.15 3.77-8.46 3.77h-.03c-.93 0-1.7-.83-1.7-1.82V15.95c0-2.04.4-3.82 1.11-5.37.87-1.89 2.23-3.45 3.99-4.66.63-.43.86-1.3.53-2.02-.38-.84-1.36-1.14-2.09-.64-.4.27-.78.56-1.15.86a14.336 14.336 0 0 0-3.9 5.06C.5 11.18 0 13.46 0 15.95v16.47c0 2.75 2.07 4.96 4.62 4.97h.04c8.22 0 14.89-7.18 14.89-16.03v-8.04c0-.87-.66-1.58-1.46-1.58-.81 0-1.46.71-1.46 1.58v8.05Z" style="fill:#064252"/><path d="M18.09 0h-.12c-2.38 0-4.65.33-6.73.98-.88.27-1.31 1.34-.9 2.22.31.68 1.02 1.02 1.7.82.78-.24 1.6-.43 2.46-.57l-2.44 3.03c-.53.66-.46 1.65.15 2.22.61.57 1.54.5 2.07-.16l2.35-2.92v2.53c0 .87.66 1.58 1.46 1.58.81 0 1.46-.71 1.46-1.58V1.58C19.54.71 18.89 0 18.09 0Z" style="fill:#71c0e4"/></svg>