<svg xmlns="http://www.w3.org/2000/svg" xml:space="preserve" width="512" height="512" style="enable-background:new 0 0 512 512"><path fill="#064252" d="M246 450.052V504a8 8 0 0 0 8 8h250a8 8 0 0 0 8-8v-53.948a124 124 0 0 0-97.263-120.918 75.763 75.763 0 1 0-71.474 0A124 124 0 0 0 246 450.052Zm124.425-107.789h17.15l12.089 87.137L379 454.049 358.336 429.4Zm-51.188-79.912A59.763 59.763 0 1 1 379 322.114a59.831 59.831 0 0 1-59.763-59.763Zm34.876 81.056L342 430.724a8 8 0 0 0 1.793 6.239l29.077 34.678a8 8 0 0 0 12.26 0l29.076-34.678a8 8 0 0 0 1.794-6.239l-12.113-87.317A107.953 107.953 0 0 1 496 450.052V496h-35.974v-58.447a8 8 0 0 0-16 0V496H313.974v-58.447a8 8 0 0 0-16 0V496H262v-45.948a107.953 107.953 0 0 1 92.113-106.645ZM8 325.413h250a8 8 0 0 0 8-8v-53.948a124 124 0 0 0-97.264-120.918 75.763 75.763 0 1 0-71.472 0A124 124 0 0 0 0 263.465v53.948a8 8 0 0 0 8 8Zm116.425-169.737h17.15l12.089 87.141L133 267.462l-20.664-24.645ZM73.237 75.763A59.763 59.763 0 1 1 133 135.526a59.831 59.831 0 0 1-59.763-59.763ZM16 263.465a107.952 107.952 0 0 1 92.113-106.645L96 244.136a8 8 0 0 0 1.793 6.239l29.076 34.678a8 8 0 0 0 12.261 0l29.076-34.678a8 8 0 0 0 1.794-6.239l-12.113-87.316A107.953 107.953 0 0 1 250 263.465v45.948h-35.974v-58.447a8 8 0 0 0-16 0v58.447H67.974v-58.447a8 8 0 0 0-16 0v58.447H16Zm154.634 165.892a8 8 0 0 0-.53-8.276l-58.016-83.2a8 8 0 0 0-13.124 0l-58.014 83.2a8 8 0 0 0 6.562 12.575h31.352a126.4 126.4 0 0 0 86.592 78.081 8 8 0 0 0 5.883-14.749 87.021 87.021 0 0 1-44.4-63.332h36.6a8 8 0 0 0 7.095-4.299Zm-52.566-11.7a8 8 0 0 0-7.987 8.455 103.548 103.548 0 0 0 13.253 45.27 110.754 110.754 0 0 1-31.185-48.194 8 8 0 0 0-7.609-5.531h-21.7l42.684-61.217 42.685 61.217ZM340.661 15.012a87.022 87.022 0 0 1 44.4 63.332h-36.6a8 8 0 0 0-6.561 12.575l58.016 83.2a8 8 0 0 0 13.124 0l58.014-83.2a8 8 0 0 0-6.562-12.575h-31.356A126.4 126.4 0 0 0 346.544.263a8 8 0 0 0-5.883 14.749Zm79.19 73.8a8 8 0 0 0 7.609 5.531h21.7l-42.684 61.217-42.687-61.216h30.143a8 8 0 0 0 7.987-8.454 103.551 103.551 0 0 0-13.252-45.271 110.761 110.761 0 0 1 31.184 48.194Z" data-original="#000000"/></svg>