<?xml version="1.0" encoding="UTF-8"?>
<svg id="Layer_1" data-name="Layer 1" xmlns="http://www.w3.org/2000/svg" viewBox="0 0 116.92 38.23">
  <defs>
    <style>
      .cls-1 {
        fill: #71c0e4;
      }

      .cls-2 {
        fill: #163a49;
      }
    </style>
  </defs>
  <path class="cls-2" d="M28.81,21.85l-.27-.58c-.53-.95-.59-1.03-1.32-2.05l-.47-.55c-.6-.62-.84-.81-1.6-1.43-.75-.6-1.92-1.18-3-1.56-1.82-.64-3.78-.89-7.23-.89,0,0-2.93-.08-3.87-.11-.2,0-4.61,.06-4.61-3.92,0-4.29,4.5-4.29,4.85-4.32,.74-.05,1.86,.03,2.55,0,.38-.02,12.98,0,14.4,0,.09,0,.31-.01,.4-.02,.23-.03,.41-.08,.41-.08,.44-.15,.83-.31,1.27-.67,.19-.15,.34-.34,.48-.54,.38-.56,.75-1,1.19-1.49,.66-.76,1.38-1.41,2.18-1.96l.76-.51c.51-.34,.27-1.13-.34-1.13L15.11,.02h-.56c-1.54,.04-3.54-.1-5.08,.07-.58,.06-1.87,.34-2.36,.54-1.31,.55-1.98,.92-3.11,1.73-.38,.27-.55,.49-.88,.79l-.36,.38c-1.1,1.13-1.82,2.45-2.17,3.67-.39,1.35-.42,1.62-.54,2.6l-.03,.49v.52s.03,.88,.03,.88l.08,.67c.31,1.72,.54,2.16,1.15,3.4,.17,.36,.86,1.34,.86,1.34,.42,.58,1.22,1.37,1.22,1.37q.59,.53,1.22,.99c.68,.5,1.22,.8,2.1,1.14l.95,.33c.89,.25,.96,.31,2.1,.4,1.16,.09,6.51,.15,7.61,.22,.87,.06,2.07,.18,2.75,.31,.27,.05,.62,.16,1.04,.36,.52,.25,.77,.48,1,.69,.24,.21,.31,.31,.5,.54l.26,.37c.16,.27,.29,.51,.41,.89,.33,.97,.2,1.8,.2,1.8-.06,.47-.1,.69-.23,1.02-.34,.89-.75,1.31-.75,1.31-.5,.49-.57,.62-1.57,1.13-.72,.37-1.41,.62-2.06,.79-.71,.19-1.37,.34-2.05,.48-.69,.14-1.84,.21-2.53,.21-.84,0-1.67-.04-2.46-.18-.79-.14-1.44-.3-2.1-.48-.65-.18-.8-.27-1.54-.49-.73-.22-1.63-.27-2.25-.19-1.34,.17-1.88,.39-2.78,.95-.93,.57-1.35,1.15-1.73,1.62l-.46,.58c-.43,.54-.27,1.35,.34,1.68,2.22,1.22,2.09,1.1,4.15,1.92,0,0,2.32,.75,3.83,1,1.82,.3,2.66,.34,4.39,.37,3.03,.06,5.74-.41,8.3-1.37,1.1-.42,2.52-1.03,3.41-1.8,1.33-1.15,2.07-1.83,2.89-3.35l.37-.71c.54-1.2,1.01-2.52,1.06-4.51v-.49s-.01-.35-.01-.35c-.13-1.55-.35-2.39-.88-3.8Z"/>
  <path class="cls-2" d="M116.91,21.96V10.69c-1.01,1.74-2.88,2.9-5.03,2.9-.65,0-1.19,.53-1.19,1.19v7.79c0,1.49-.37,2.73-.78,3.82l-.46,.89s-.13,.25-.6,.88l-.29,.35c-.39,.48-.84,.91-1.35,1.27-.45,.32-.87,.63-1.42,.89-.21,.1-.45,.2-.63,.29-.19,.09-.43,.16-.62,.23-.39,.13-.66,.2-1.18,.29-.34,.05-1.16,.13-1.16,.13,0,0-1.13-.02-1.6-.09-.47-.07-.86-.15-1.26-.28-.27-.08-.52-.19-.8-.28,0,0-1.57-.75-2.21-1.31-.5-.44-1.2-1.06-1.63-1.72l-.12-.17c-.41-.64-.74-1.18-1.04-2.06-.3-.88-.49-1.7-.49-2.85V6.31c0-.39,0-.47,0-.99s0-1.46-.07-1.92c-.04-.31-.17-.67-.24-.86-.13-.4-.59-1.07-.88-1.33-.49-.44-.82-.65-1.37-.89-.49-.21-1.04-.25-1.63-.25h0c-1.77,0-3.42,.88-4.39,2.36-.38,.58-.68,1.03-.69,1.05l-5.31,8.09c-.41,.62-1.32,.63-1.74,.02-1.77-2.6-5.6-8.22-5.84-8.45-.03-.03-.11-.13-.21-.26-.18-.24-.49-.69-.82-1.17-.72-1.05-1.92-1.67-3.19-1.66h-1.43c-2.12,.02-3.83,1.75-3.82,3.87h0c.02,2.11,.02,7.66,.01,12.35-.01,7.25-4.91,11.23-6.81,12.63-1.38,1.02-2.47,1.39-3.13,1.66-.57,.24-.41,1.09,.21,1.09,1.27,0,2.55,0,2.82-.02,4.59-.34,13.33-3.83,13.07-14.91-.02-.7,.06-1.37,.05-1.99,0-.32,0-1.55,0-2.74,0-.78,1-1.09,1.44-.45l4.35,6.28c2.06,2.97,6.47,2.92,8.46-.1l3.47-5.3c.43-.66,1.45-.35,1.45,.43v9.12c-.1,2.53,.25,4.88,1.05,6.83h0c.62,1.51,1.44,2.82,2.39,3.98,.98,1.2,1.68,1.73,2.79,2.61l.76,.51c1.3,.81,2.2,1.26,3.6,1.66,1.41,.4,2.91,.66,4.75,.66,.92,0,1.6-.1,2.2-.2,.6-.1,1.14-.19,1.75-.39,.4-.14,.86-.29,1.37-.49,1.48-.57,2.76-1.36,3.9-2.31,1.14-.96,1.71-1.64,2.66-2.82l.3-.43c1.98-2.92,2.67-5.87,2.56-9.61v-.02Z"/>
  <path class="cls-2" d="M55.2,25.71c1.36-1.42,2.35-2.75,3.14-4.57,.78-1.82,1.28-3.82,1.28-5.96h0s0,0,0,0h0c0-.34-.03-.66-.05-.99-.22-3.87-1.73-7.12-4.25-9.66l-.19-.19c-1.36-1.38-2.99-2.43-4.79-3.19C48.55,.39,46.96,.08,44.89,0h-.36c-.15,0-.27-.01-.42,0-3.83,.27-6.54,1.26-9.46,3.72l-.48,.44c-.7,.67-1.27,1.3-1.83,2.1-.55,.78-1.1,1.68-1.48,2.56-.79,1.8-1.34,3.63-1.34,5.76v.17c0,4.35,1.69,8.14,4.39,10.92l.3,.29c1.37,1.2,2.5,2.06,4.21,2.82,1.79,.8,3.77,1.31,5.88,1.31,0,0,.57,0,.57,0,.1,0,.19-.02,.28-.02,3.87-.23,7.11-1.59,9.89-4.22l.16-.16Zm-1.93-10.37c-.06,1.23-.21,1.97-.65,3.02-.45,1.05-.96,1.91-1.76,2.69l-.13,.13c-1.59,1.57-3.7,2.55-6.11,2.55h0c-1.17,0-2.31-.23-3.36-.65-1.05-.42-1.84-.98-2.65-1.74-.09-.09-.26-.25-.26-.25-.7-.82-1.24-1.5-1.7-2.53l-.13-.3c-.34-1.06-.55-1.61-.61-2.86v-.26c0-1.29,.19-2.41,.68-3.45,.49-1.05,.86-1.7,1.61-2.51l.47-.47c.83-.74,1.4-1.13,2.46-1.62,1.03-.47,2.19-.71,3.42-.72h0s.01,0,.04,0c2.37,.05,4.21,.8,5.92,2.33l.26,.25c.8,.76,1.32,1.57,1.77,2.6,.45,1.04,.73,2.11,.73,3.36v.41Z"/>
  <path class="cls-1" d="M111.9,11.95c2.77-.01,5.02-2.26,5.02-5.04V1.23c0-.68-.59-1.22-1.26-1.13-2.88,.38-4.97,2.15-4.97,4.93v5.74c0,.66,.55,1.19,1.21,1.18Z"/>
</svg>