<svg xmlns="http://www.w3.org/2000/svg" viewBox="0 0 4680 3120"><defs><clipPath id="a"><path fill="none" d="M2998.16 1424.87q7.76-18.54 14.52-37.59c.18-.51.4-1 .59-1.51 4.32-12.2 8.27-24.58 12-37.07.31-1 .69-2 1-3.06 3.49-11.91 6.57-24 9.48-36.12.4-1.66.91-3.28 1.3-5 2.68-11.53 4.93-23.23 7.08-35 .43-2.34 1-4.62 1.41-7 2-11.47 3.55-23.09 5-34.73.34-2.68.84-5.31 1.15-8 1.39-12.11 2.34-24.34 3.16-36.62.15-2.29.45-4.53.58-6.83q1.26-21.9 1.27-44.11 0-18.13-.85-36c-.18-3.8-.57-7.55-.81-11.34-.5-8.11-1-16.24-1.72-24.28-.38-4-1-8-1.41-11.94-.85-7.75-1.66-15.52-2.75-23.2-.6-4.25-1.41-8.42-2.09-12.64-1.17-7.35-2.27-14.72-3.65-22-.78-4.1-1.76-8.13-2.6-12.21-1.52-7.32-3-14.66-4.7-21.9-.91-3.81-2-7.55-3-11.33-1.89-7.42-3.72-14.85-5.83-22.18-1.07-3.73-2.32-7.37-3.45-11.08-2.21-7.3-4.39-14.62-6.82-21.82-1.2-3.57-2.57-7.06-3.83-10.6-2.49-7-4.92-14.11-7.61-21-17-52.32-43-101-75.37-145.87-1.75-2.43-3.3-5-5.09-7.39-.14-.21-.3-.4-.45-.61l-.37-.54c-1.61-2.35-3.39-4.56-5-6.89-7-10-14.08-19.9-21.54-29.51-1.58-2-3.31-4-4.92-6-7.76-9.8-15.63-19.52-23.86-28.92-1.61-1.84-3.36-3.56-5-5.39-8.41-9.41-16.91-18.73-25.77-27.72-1.74-1.76-3.61-3.39-5.37-5.14-8.93-8.88-18-17.66-27.3-26.09-1.82-1.64-3.77-3.14-5.61-4.76-9.45-8.36-19-16.61-28.86-24.49-2-1.6-4.15-3.06-6.18-4.64-9.85-7.71-19.78-15.32-30-22.54-2.36-1.66-4.84-3.15-7.22-4.79-10.07-6.93-20.19-13.79-30.6-20.24-2.62-1.62-5.37-3.05-8-4.64-10.32-6.23-20.69-12.4-31.33-18.14-3.29-1.77-6.72-3.31-10-5-10.16-5.29-20.34-10.57-30.77-15.41-3.92-1.82-8-3.36-11.95-5.11-10-4.43-20-8.9-30.2-12.9-4.76-1.87-9.67-3.41-14.47-5.18-9.61-3.54-19.17-7.17-29-10.32-5.63-1.82-11.42-3.27-17.11-5-9.14-2.71-18.22-5.56-27.49-7.94-6.32-1.61-12.8-2.82-19.17-4.27-8.83-2-17.6-4.21-26.54-5.92-7.78-1.48-15.71-2.49-23.56-3.73s-15.33-2.67-23.11-3.66c-10.43-1.31-21-2.09-31.57-3-5.36-.46-10.65-1.18-16.05-1.52q-24-1.51-48.42-1.52t-48.43 1.52c-5.39.34-10.68 1.06-16.05 1.52-10.55.89-21.13 1.67-31.56 3-7.78 1-15.4 2.44-23.11 3.66s-15.78 2.25-23.56 3.73c-8.94 1.71-17.71 3.9-26.54 5.92-6.38 1.45-12.85 2.66-19.17 4.27-9.28 2.38-18.35 5.23-27.49 7.94-5.69 1.69-11.49 3.14-17.12 5-9.78 3.15-19.34 6.78-29 10.32-4.8 1.77-9.72 3.31-14.47 5.18-10.23 4-20.21 8.47-30.21 12.9-4 1.75-8 3.29-12 5.11-10.42 4.84-20.6 10.12-30.76 15.41-3.32 1.73-6.75 3.27-10 5-10.64 5.74-21 11.91-31.34 18.14-2.64 1.59-5.38 3-8 4.64-10.41 6.45-20.53 13.31-30.6 20.24-2.38 1.64-4.87 3.13-7.22 4.79-10.24 7.22-20.16 14.83-30 22.54-2 1.58-4.17 3-6.18 4.64-10 8-19.63 16.31-29.19 24.76-1.73 1.53-3.56 2.94-5.27 4.49-9.38 8.44-18.42 17.24-27.37 26.14-1.74 1.73-3.59 3.35-5.31 5.09-8.86 9-17.37 18.31-25.78 27.72-1.63 1.83-3.37 3.55-5 5.39-8.24 9.4-16.1 19.12-23.86 28.92-1.61 2-3.34 3.95-4.92 6-7.46 9.61-14.54 19.53-21.54 29.51-1.63 2.33-3.42 4.54-5 6.89l-.37.54c-.14.21-.3.4-.44.61-1.79 2.41-3.34 5-5.09 7.39-32.37 44.86-58.34 93.55-75.38 145.87-2.68 6.94-5.12 14-7.6 21-1.26 3.54-2.64 7-3.83 10.6-2.44 7.2-4.61 14.52-6.83 21.82-1.12 3.71-2.38 7.35-3.44 11.08-2.11 7.33-4 14.76-5.83 22.18-1 3.78-2.07 7.52-3 11.33-1.79 7.5-3.31 15.11-4.87 22.7-.78 3.8-1.7 7.56-2.43 11.39-1.41 7.46-2.55 15-3.75 22.57-.64 4-1.42 8-2 12.08-1.09 7.68-1.89 15.45-2.75 23.2-.43 4-1 7.93-1.4 11.94-.76 8-1.22 16.17-1.73 24.28-.23 3.79-.62 7.54-.8 11.34q-.86 17.93-.85 36 0 22.2 1.26 44.11c.14 2.3.44 4.54.59 6.83.82 12.28 1.76 24.51 3.16 36.62.31 2.68.81 5.31 1.15 8 1.46 11.64 3 23.26 5 34.73.39 2.21.93 4.37 1.33 6.57 2.17 11.88 4.46 23.71 7.18 35.38.24 1 .56 2 .8 3.08 3 12.77 6.3 25.45 10 38 .3 1 .68 2 1 3.06 3.71 12.49 7.66 24.87 12 37.07.18.51.41 1 .59 1.51q6.78 19 14.52 37.59c.26.61.56 1.2.82 1.81 5.08 12.08 10.42 24 16.11 35.76 27.23 68.82 63 133.19 105.83 197.48 131.89 197.83 164.87 313.24 164.87 461.61v4.42c1.54 98.58 83.52 176.93 182.11 176.93h460.15c98.6 0 180.57-78.35 182.12-176.93v-4.42c0-148.37 33-263.78 164.86-461.61 42.87-64.29 78.61-128.66 105.84-197.48 5.69-11.74 11-23.68 16.11-35.76.31-.51.61-1.1.87-1.71Z"/></clipPath></defs><g class="color000000 svgShape" data-name="2"><path fill="#d5f6ff" d="M3898.75 1751.8c-53.22 122.47-190.82 230.81-140.18 362.37 30.09 78.13 18.56 290.51-145.55 446.95-147.52 140.6-418.32 236-893 148.06-299.8-55.55-605.44-70.38-908.89-42.46l-371.51 34.17c-172.07 15.83-334.85-38.42-460.92-139.77-136.35-109.59-229.7-274.25-245.5-464.91q-1.46-17.53-1.93-34.68c-6.58-244.39 260.55-565.7 297.14-670.6 36.08-103.43-78.23-295.68-67-404.82 24.83-240.85 232.88-422.37 486.63-470.43 223.81-42.38 465.12 10 675.64 107.45 154.68 71.55 304.32 169.17 474.15 183.41 116.47 9.76 229.27-21.26 343-38.77 271.55-41.81 581.38 3.77 786.21 184.62 131.45 116.06 207.35 278.47 223.12 440.6 11.57 118.75-4.03 249.83-51.41 358.81Z" class="colorfff0d5 svgShape"/><path fill="#9bc2cd" d="M1020.23 2417.14c1.52 37 2.45 73.57 10.54 109.66 1.4 1.49 3 8 1.49 6.53 1.36 5.8-7.44 7.2-9 1.55-.92-3.72-1.85-7.44-2.65-11.07-26.83-19.63-60.13-27.38-89.51-42.7-23.76-12.4-43.08-29.76-57.19-53.19-38.1-62.93-39.76-140.72-81.74-202.34-36.18-53.14-86.22-94-131.3-138.59-47.6-47.2-87.57-99.68-108-165.1-15.72-50.08-28.27-119.22-1-167.94 28.85-51.7 86.48-35.74 126.82-8.62 116.91 78.7 193.79 198.52 247.1 328.3 29.47 71.85 59.41 144 77.76 219.83 9.77 40.75 14.9 81.88 16.68 123.68Z" class="color9bcda8 svgShape"/><path fill="#5297a9" d="M1072.48 2760h-11c-5.67-36.86-10.94-73.8-17-110.62-4.54-27.88-9.51-55.69-15.39-83.36q-4.58-21.57-9.67-43-7.34-30.84-15.83-61.37c-46.65-36.79-87-88.61-119.9-138-.84-1.26.86-2.78 1.8-1.54 35.56 46.44 75.44 86.23 114.92 128.45-14-48.59-30.36-96.42-50.13-143-14.4-33.9-30.38-67.1-47.69-99.57-68.38-72.23-157.76-120.09-224.21-194.25-.34-.38.23-1 .6-.66 68.89 64 151.31 112 215.93 180.58-60-109.13-136.12-209-225.6-294.19-1.65-1.58 1-4.48 2.67-3 122.48 111.74 221.84 247.38 288.1 401.42a.25.25 0 0 1 0 .09c-2.2-10.76-4.14-21.59-6.46-32.21q-10.71-49-25.66-96.87a1259.58 1259.58 0 0 0-68.33-173.71.57.57 0 0 1 1-.49c29.79 56.7 55.25 114.94 74.58 176.28 17.78 56.46 28.87 114.53 43.34 171.87.09.35-.09.57-.13.87a1302.19 1302.19 0 0 1 46.72 150.94q7.26 29.49 13.35 59.32c6.43 31.44 12.44 63.29 17.86 95.34 6.34 36.76 11.77 73.74 16.13 110.68Z" class="color52a9a0 svgShape"/><path fill="#5297a9" d="M749.2 1871.18c-.46-.59-1.29.14-.87.74 29.11 41.81 51.25 86.27 76.14 130.55a1.79 1.79 0 0 0 3.23-1.54c-18.04-46.99-48.07-90.4-78.5-129.75ZM1095.16 1851.63c1.71 30.49.63 61.3-1.42 91.72-4.21 65-11.6 126.21 10.63 189.13 9.92 28.09 21.42 55.6 25.24 85.37 3.32 25.76 1.53 51.82-2.56 77.32-9.62 59.32-29.62 115.93-36.26 175.91a621.14 621.14 0 0 0 8.07 187.61c.69 3.36-4.34 4.74-5 1.38a3 3 0 0 0-.14-.78 1.11 1.11 0 0 1-.56-.5c-63.34-127.53-112.66-262.9-130.64-405.16A1498.46 1498.46 0 0 1 950.91 2065c.13-54.71 6.13-110.08 27-160.73 13.59-32.77 45.76-97.9 89.08-91.82 20.81 2.92 27.13 20.03 28.17 39.18Z" class="color52a9a0 svgShape"/><path fill="#9bc2cd" d="M1103.37 2205.09c-2.11 42.21-8.26 83.79-16.8 125-4.59 22.17-9.64 44.22-14.68 66.27-4.59 20.1-12.59 42.84-12.39 64.13q10 52.83 20.45 105.57 5.44 27.43 11.07 54.83 3.84 18.72 7.78 37.42 1.7 8.11 3.42 16.2l-6.47 1-4.47-20.56-2.61-11.67q-8.54-37.93-16.76-76-1.79-8.19-3.53-16.39c-27.87-48.42-46.18-102.83-56.89-157.68-.23-1.18 1.49-1.68 1.78-.49 12.86 52.1 31.57 101.18 53.35 149.86-17.25-81.14-33.12-162.61-46.21-244.47-3.09-19.33-5.8-38.69-8-58.09a.6.6 0 0 1-.22-.25c-23.19-63.33-35.34-134.77-37.8-202.2 0-.63.86-.59.92 0 7.16 66.58 20.09 129.88 36.26 194.54a813.52 813.52 0 0 1-4.8-96.78c.81-58 7.41-115.72 13.58-173.3.19-1.86 3-1.88 2.88 0-6.41 72.3-11.64 144.91-7.35 217.6 4.39 74.38 18.78 147.79 32.28 220.94 2.81 15.2 5.76 30.38 8.62 45.58 1.51-10.82 4.45-21.57 6.69-32 4.73-22.14 9.72-44.21 14.48-66.34 10.15-47.14 19.71-94.57 24.06-142.74.08-.87 1.4-.89 1.36.02Z" class="color9bcda8 svgShape"/><path fill="#9bc2cd" d="M1082.19 2147.12c-10.94 48.94-17.61 100.56-18.46 150.85 0 .65 1 .83 1.12.16 6.46-50.23 12.38-100.57 18.78-150.81.11-.85-1.26-1.02-1.44-.2Z" class="color9bcda8 svgShape"/><path fill="#417b8a" d="M555.61 2277.52c25.73 25.67 55.6 56.78 58.2 95.73 1.64 24.66-9.82 48.35-6.32 73 7.61 54.39 68 74.41 111.72 88.59 108.86 35.45 250 54.38 301.29 175.93 1.86 4.29 9.1 1 7.35-3.22a2.54 2.54 0 0 0-.41-.78c.11-.34.35-.51.25-.88-5.58-67.44-23.68-132.59-54.45-192.49-31.52-61.19-75.22-111.75-123.57-159.57-81.79-80.91-167.48-163.22-271.44-213.35-28.77-13.84-86.28-37.11-92.07 14.5-5.61 50.13 37.98 91.28 69.45 122.54Z" class="color418a83 svgShape"/><path fill="#5297a9" d="M1026.13 2690q14.53 34.53 27 70h-12.85q-9-24.23-19-48.07-13.22-31.68-28.2-62.55-11.42-23.46-24-46.37c-1.5-2.7-3-5.35-4.56-8-79.4-65.22-186.24-75.32-269.48-135-.8-.58-.1-1.94.76-1.38 79.46 50.17 186.76 60.25 260 121-62.8-107.29-142.8-197-246.8-265.02-2.67-1.76-.41-6 2.42-4.42 73.53 40.44 134.66 94.87 185.74 158.28-28.2-47.66-61.25-90.9-97.66-132.88-1.38-1.58.73-3.89 2.25-2.39a520.74 520.74 0 0 1 59.77 71.28c10.59 15.07 20.5 30.65 29.74 46.58q9.26 15.92 17.65 32.26c38.82 50.8 71.54 106.92 99.19 166.06q9.42 20.07 18.03 40.62Z" class="color52a9a0 svgShape"/><path fill="#5297a9" d="M665.84 2404.54c40.24 20.91 80.16 42.66 120.44 63.54.41.21.14.91-.3.76-41.51-14.18-85.69-36-121.51-61.8-1.47-1.04-.26-3.35 1.37-2.5ZM625.14 2275.52C667.26 2315 710 2351 757.8 2383.09c.63.42.1 1.42-.57 1-49.36-27.22-96.57-63.74-133.52-107.1-.87-.99.44-2.4 1.43-1.47Z" class="color52a9a0 svgShape"/><path fill="#9bc2cd" d="M3425.89 2462c-2.71 33.8-4.78 67.21-14.57 100-1.55 1.32-3.46 7.23-1.79 5.93-1.65 5.26 7.82 6.77 9.66 1.64 1.11-3.37 2.21-6.75 3.19-10.05 29.56-17.26 65.76-23.48 98-36.72 26-10.73 47.42-26.1 63.35-47.16 43-56.55 47-127.64 94.2-182.89 40.64-47.65 95.9-83.71 145.91-123.33 52.81-41.91 97.52-88.87 121.51-148.16 18.45-45.37 34-108.27 6-153.52-29.67-48-92.41-34.91-136.79-11.16-128.62 68.93-215.18 176.5-276.56 293.78-33.93 64.93-68.38 130.16-90.41 199-11.82 37-18.59 74.46-21.7 112.64Z" class="color9bcda8 svgShape"/><path fill="#5297a9" d="M3567.73 2260.92c71.83-61.05 162.28-102.82 238.58-159.52.41-.31 1 .28.63.62C3733 2168.1 3635 2209.55 3559 2273.83c-19.65 29.24-37.88 59.18-54.43 89.8a1033.81 1033.81 0 0 0-58.32 129.42c43.89-37.58 88.14-72.93 127.9-114.47 1.07-1.11 2.85.33 1.91 1.46-37 44.29-82.09 90.64-133.57 123.06q-10.1 27.69-18.9 55.71-6.14 19.49-11.7 39.08c-4.86 17.1-9.27 34.27-13.39 51.49-8.81 36.75-16.31 73.71-24.11 110.62H3362c6.71-37 14.77-74 23.74-110.62q7.76-31.58 16.33-62.69 7.44-27.11 16.14-53.88a1073.19 1073.19 0 0 1 54.85-136.81c0-.26-.22-.48-.12-.8 17.3-52 31-104.86 51.83-156 22.66-55.6 51.87-108.19 85.71-159.26.39-.59 1.48-.14 1.1.47a1063.11 1063.11 0 0 0-78.88 157.07q-17.49 43.35-30.54 87.9c-2.81 9.66-5.23 19.51-7.92 29.28v-.08c76.09-139.12 187.38-260.58 323-359.58 1.84-1.34 4.63 1.38 2.8 2.78-99.15 75.53-184.3 164.92-252.31 263.14Z" class="color52a9a0 svgShape"/><path fill="#5297a9" d="M3734.63 1969.82c.51-.53 1.39.16.92.7-32.67 37.47-57.89 77.56-86.06 117.4-1.29 1.82-4.43.51-3.45-1.49 20.86-42.5 54.56-81.43 88.59-116.61ZM3412.83 2467.26c-18.72 32-39 63.24-60.43 93.77-.75 1.07-1.49 2.14-2.24 3.19a1.2 1.2 0 0 1-.65.39 2.44 2.44 0 0 0-.2.7 2.7 2.7 0 0 1-.26.54c-1.17 1.83-4.54.81-5.07-1.2a2.1 2.1 0 0 1 0-1.26 486.73 486.73 0 0 0 20.81-107.47 481.53 481.53 0 0 0 .79-63.24c-3-55.76-20.45-110.18-26.66-165.73-2.62-23.88-2.72-48 2.61-71.12 6.15-26.75 20.35-50.44 32.91-74.87 28.13-54.72 24.46-111.71 24.44-171.76-.09-28.11.88-56.46 4.82-84.15 2.43-17.4 10.38-32.24 32.86-32.23 46.77 0 76.71 63.85 89 95.6 18.86 49.08 21.46 100.54 17.82 150.65a1164.72 1164.72 0 0 1-25.38 171.19c-20.66 90.74-57.92 176.22-105.17 257Z" class="color52a9a0 svgShape"/><path fill="#9bc2cd" d="M3455.86 2331.79c-14.38 46.07-36 90.89-66.24 130q-2.72 3.53-5.54 7-13.77 41.07-28.1 81.93-1.8 5.16-3.58 10.34c-.6 1.73-1.19 3.45-1.77 5.19l-1.58-.37c-1.17 1.83-4.54.81-5.07-1.2l-.35-.08c.13-.4.27-.79.39-1.18q5.55-16.76 11-33.54 11.51-35.4 22.61-70.91 11.23-35.88 22.21-71.85c1.68-19.46-5.3-41.31-8.84-60.31-3.87-20.83-7.75-41.69-11.13-62.56-6.29-38.89-10-77.75-9.34-116.66 0-.84 1.43-.65 1.47.17 1.32 44.66 8.27 89.32 15.87 133.79 3.57 20.87 7.39 41.72 10.92 62.61 1.68 9.86 4.08 20.09 4.94 30.18 4.12-13.54 8.34-27.06 12.39-40.61 19.5-65.2 40-130.55 49.81-198.06 9.62-66 9.05-133.15 7.18-200.16-.06-1.76 3-1.38 3.07.35 2.63 53.51 5.7 107.19 2.57 160.41a635.9 635.9 0 0 1-11.83 88c21.77-57.09 40-113.37 52.24-173.4.12-.53 1.06-.45 1 .11-7.29 61.43-25.25 125.24-54.45 180.31-.06.12-.16.15-.25.21-3.68 17.48-7.92 34.84-12.56 52.14-19.65 73.13-42.23 145.56-66.25 217.49l-.11.31c.07-.09.12-.19.19-.29 26.61-41.64 49.94-84.05 67.26-130 .4-1.09 2.21-.41 1.87.64Z" class="color9bcda8 svgShape"/><path fill="#9bc2cd" d="M3397.21 2097.23c8.33 46.23 11.9 94.35 9.34 140.5 0 .59-1.17.62-1.22 0-3.44-46.83-6.3-93.67-9.68-140.5-.05-.79 1.42-.77 1.56 0Z" class="color9bcda8 svgShape"/><path fill="#417b8a" d="M3932 2346.35c-28.55 22.81-61.73 50.49-65.68 86-2.49 22.5 9.21 44.46 4.72 66.89-9.81 49.54-75.71 66.27-123.3 78.12-118.64 29.64-271.74 43.28-330.67 153.09-2.13 3.88-9.85.69-7.85-3.13a2.44 2.44 0 0 1 .47-.71c-.11-.31-.37-.47-.25-.81a418.48 418.48 0 0 1 64.44-174.59c35.84-55.14 84.53-100.23 138.16-142.7 90.73-71.87 185.73-144.91 299.51-188.05 31.49-11.92 94.32-31.71 99.08 15.64 4.59 46-43.7 82.49-78.63 110.25Z" class="color418a83 svgShape"/><path fill="#5297a9" d="M3776 2509.59c-91.68 52.41-207.43 58.88-295.11 116.44-1.71 2.43-3.47 4.8-5.16 7.24q-5.55 8-10.9 16.11c-17.69 26.75-33.82 54.17-48.67 82.13q-7.53 14.16-14.62 28.49h-14.41q11.61-24.63 24.49-48.74 16.89-31.55 36.13-61.88c28-44 60-85.8 96.5-124q9.53-14.67 20-29c10.46-14.33 21.62-28.32 33.5-41.82a512.92 512.92 0 0 1 66.67-63.64c1.69-1.34 3.9.83 2.38 2.24-40.58 37.43-77.55 76.12-109.4 119 57-56.66 124.69-104.84 205.31-139.92 3.1-1.35 5.42 2.57 2.48 4.1-114.26 59.51-203.34 139.46-274.38 235.92 80.87-53.64 197.11-60.09 284.43-103.91a.75.75 0 1 1 .76 1.24Z" class="color52a9a0 svgShape"/><path fill="#5297a9" d="M3809.21 2459.64c-44.09 18.09-87.86 36.94-132 55-.45.18-.18.83.3.7 45.27-11.89 93.64-30.7 133.1-53.36 1.61-.93.39-3.07-1.4-2.34ZM3856.94 2342.73c-46.66 35-93.88 66.82-146.48 94.92-.69.37-.15 1.3.59 1 54.13-23.61 106.2-55.78 147.4-94.47.96-.92-.45-2.27-1.51-1.45Z" class="color52a9a0 svgShape"/><g class="color000000 svgShape" clip-path="url(#a)"><path fill="#38d4fd" d="M2998.16 1424.87q7.76-18.54 14.52-37.59c.18-.51.4-1 .59-1.51 4.32-12.2 8.27-24.58 12-37.07.31-1 .69-2 1-3.06 3.49-11.91 6.57-24 9.48-36.12.4-1.66.91-3.28 1.3-5 2.68-11.53 4.93-23.23 7.08-35 .43-2.34 1-4.62 1.41-7 2-11.47 3.55-23.09 5-34.73.34-2.68.84-5.31 1.15-8 1.39-12.11 2.34-24.34 3.16-36.62.15-2.29.45-4.53.58-6.83q1.26-21.9 1.27-44.11 0-18.13-.85-36c-.18-3.8-.57-7.55-.81-11.34-.5-8.11-1-16.24-1.72-24.28-.38-4-1-8-1.41-11.94-.85-7.75-1.66-15.52-2.75-23.2-.6-4.25-1.41-8.42-2.09-12.64-1.17-7.35-2.27-14.72-3.65-22-.78-4.1-1.76-8.13-2.6-12.21-1.52-7.32-3-14.66-4.7-21.9-.91-3.81-2-7.55-3-11.33-1.89-7.42-3.72-14.85-5.83-22.18-1.07-3.73-2.32-7.37-3.45-11.08-2.21-7.3-4.39-14.62-6.82-21.82-1.2-3.57-2.57-7.06-3.83-10.6-2.49-7-4.92-14.11-7.61-21-17-52.32-43-101-75.37-145.87-1.75-2.43-3.3-5-5.09-7.39-.14-.21-.3-.4-.45-.61l-.37-.54c-1.61-2.35-3.39-4.56-5-6.89-7-10-14.08-19.9-21.54-29.51-1.58-2-3.31-4-4.92-6-7.76-9.8-15.63-19.52-23.86-28.92-1.61-1.84-3.36-3.56-5-5.39-8.41-9.41-16.91-18.73-25.77-27.72-1.74-1.76-3.61-3.39-5.37-5.14-8.93-8.88-18-17.66-27.3-26.09-1.82-1.64-3.77-3.14-5.61-4.76-9.45-8.36-19-16.61-28.86-24.49-2-1.6-4.15-3.06-6.18-4.64-9.85-7.71-19.78-15.32-30-22.54-2.36-1.66-4.84-3.15-7.22-4.79-10.07-6.93-20.19-13.79-30.6-20.24-2.62-1.62-5.37-3.05-8-4.64-10.32-6.23-20.69-12.4-31.33-18.14-3.29-1.77-6.72-3.31-10-5-10.16-5.29-20.34-10.57-30.77-15.41-3.92-1.82-8-3.36-11.95-5.11-10-4.43-20-8.9-30.2-12.9-4.76-1.87-9.67-3.41-14.47-5.18-9.61-3.54-19.17-7.17-29-10.32-5.63-1.82-11.42-3.27-17.11-5-9.14-2.71-18.22-5.56-27.49-7.94-6.32-1.61-12.8-2.82-19.17-4.27-8.83-2-17.6-4.21-26.54-5.92-7.78-1.48-15.71-2.49-23.56-3.73s-15.33-2.67-23.11-3.66c-10.43-1.31-21-2.09-31.57-3-5.36-.46-10.65-1.18-16.05-1.52q-24-1.51-48.42-1.52t-48.43 1.52c-5.39.34-10.68 1.06-16.05 1.52-10.55.89-21.13 1.67-31.56 3-7.78 1-15.4 2.44-23.11 3.66s-15.78 2.25-23.56 3.73c-8.94 1.71-17.71 3.9-26.54 5.92-6.38 1.45-12.85 2.66-19.17 4.27-9.28 2.38-18.35 5.23-27.49 7.94-5.69 1.69-11.49 3.14-17.12 5-9.78 3.15-19.34 6.78-29 10.32-4.8 1.77-9.72 3.31-14.47 5.18-10.23 4-20.21 8.47-30.21 12.9-4 1.75-8 3.29-12 5.11-10.42 4.84-20.6 10.12-30.76 15.41-3.32 1.73-6.75 3.27-10 5-10.64 5.74-21 11.91-31.34 18.14-2.64 1.59-5.38 3-8 4.64-10.41 6.45-20.53 13.31-30.6 20.24-2.38 1.64-4.87 3.13-7.22 4.79-10.24 7.22-20.16 14.83-30 22.54-2 1.58-4.17 3-6.18 4.64-10 8-19.63 16.31-29.19 24.76-1.73 1.53-3.56 2.94-5.27 4.49-9.38 8.44-18.42 17.24-27.37 26.14-1.74 1.73-3.59 3.35-5.31 5.09-8.86 9-17.37 18.31-25.78 27.72-1.63 1.83-3.37 3.55-5 5.39-8.24 9.4-16.1 19.12-23.86 28.92-1.61 2-3.34 3.95-4.92 6-7.46 9.61-14.54 19.53-21.54 29.51-1.63 2.33-3.42 4.54-5 6.89l-.37.54c-.14.21-.3.4-.44.61-1.79 2.41-3.34 5-5.09 7.39-32.37 44.86-58.34 93.55-75.38 145.87-2.68 6.94-5.12 14-7.6 21-1.26 3.54-2.64 7-3.83 10.6-2.44 7.2-4.61 14.52-6.83 21.82-1.12 3.71-2.38 7.35-3.44 11.08-2.11 7.33-4 14.76-5.83 22.18-1 3.78-2.07 7.52-3 11.33-1.79 7.5-3.31 15.11-4.87 22.7-.78 3.8-1.7 7.56-2.43 11.39-1.41 7.46-2.55 15-3.75 22.57-.64 4-1.42 8-2 12.08-1.09 7.68-1.89 15.45-2.75 23.2-.43 4-1 7.93-1.4 11.94-.76 8-1.22 16.17-1.73 24.28-.23 3.79-.62 7.54-.8 11.34q-.86 17.93-.85 36 0 22.2 1.26 44.11c.14 2.3.44 4.54.59 6.83.82 12.28 1.76 24.51 3.16 36.62.31 2.68.81 5.31 1.15 8 1.46 11.64 3 23.26 5 34.73.39 2.21.93 4.37 1.33 6.57 2.17 11.88 4.46 23.71 7.18 35.38.24 1 .56 2 .8 3.08 3 12.77 6.3 25.45 10 38 .3 1 .68 2 1 3.06 3.71 12.49 7.66 24.87 12 37.07.18.51.41 1 .59 1.51q6.78 19 14.52 37.59c.26.61.56 1.2.82 1.81 5.08 12.08 10.42 24 16.11 35.76 27.23 68.82 63 133.19 105.83 197.48 131.89 197.83 164.87 313.24 164.87 461.61v4.42c1.54 98.58 83.52 176.93 182.11 176.93h460.15c98.6 0 180.57-78.35 182.12-176.93v-4.42c0-148.37 33-263.78 164.86-461.61 42.87-64.29 78.61-128.66 105.84-197.48 5.69-11.74 11-23.68 16.11-35.76.31-.51.61-1.1.87-1.71Z" class="colorfdc238 svgShape"/></g><rect width="774.86" height="131.89" x="1910.88" y="2253.42" fill="#1da5c9" class="colorc95d1d svgShape" rx="60.81"/><rect width="692.42" height="131.89" x="1952.1" y="2385.31" fill="#1da5c9" class="colorc95d1d svgShape" rx="60.81"/><rect width="585.26" height="131.89" x="2005.68" y="2517.21" fill="#1da5c9" class="colorc95d1d svgShape" rx="60.81"/><path fill="#1d93b3" d="M2620.62 2253.42s33 131.89-362.7 131.89h333s60.81 14.73 86.46-33.85-11.71-79.42-11.71-79.42-12.08-18.62-45.05-18.62Z" class="colorb3481d svgShape"/><path fill="#1d93b3" d="M2587.64 2385.31s33 131.9-362.7 131.9h333s60.81 14.72 86.46-33.86-11.71-79.42-11.71-79.42-12.07-18.62-45.05-18.62Z" class="colorb3481d svgShape"/><path fill="#1d93b3" d="M2538.18 2517.21s33 131.89-362.69 131.89h333s60.81 14.72 86.46-33.86-11.71-79.41-11.71-79.41-12.08-18.62-45.06-18.62Z" class="colorb3481d svgShape"/><rect width="313.24" height="65.94" x="1961.16" y="2269.91" fill="#21ccf9" class="colorf99b21 svgShape" rx="30.41"/><rect width="115.4" height="65.95" x="1994.14" y="2401.8" fill="#21ccf9" class="colorf99b21 svgShape" rx="30.41"/><rect width="65.95" height="65.95" x="2043.6" y="2533.69" fill="#21ccf9" class="colorf99b21 svgShape" rx="30.41"/><path fill="#21ccf9" d="M2176.67 1832.84a176.37 176.37 0 0 0 195.43 155c30.13-3.48 58.72-8.36 86.3-14.11l.1 1c18.47-4.2 459.86-76.26 579.87-520.09 3.73-12.45 5.73-20.66 6.24-22.91h-.1a858.31 858.31 0 0 0 17.56-100.28 176.38 176.38 0 1 0-350.43-40.45 566 566 0 0 1-10.84 62.6h-.17l.51-2.2c-6.57 25.67-72.77 251.79-369.48 286a176.22 176.22 0 0 0-155 195.43Z" class="colorf99b21 svgShape"/><path d="M2189.42 1926.67h9.35v321.39h-9.35z" class="color000000 svgShape" transform="rotate(-3.52 2194.115 2087.39)"/><path d="M2263.62 2082.69h321.39v9.35h-321.39z" class="color000000 svgShape" transform="rotate(-86.48 2424.335 2087.366)"/><path d="M2155.4 1885.6a4.67 4.67 0 0 1-4.67-4.67 21 21 0 0 0-42.05 0 4.67 4.67 0 1 1-9.34 0 30.37 30.37 0 1 1 60.73 0 4.67 4.67 0 0 1-4.67 4.67Z" class="color000000 svgShape"/><path d="M2181.09 1911.29a30.4 30.4 0 0 1-30.36-30.36 4.67 4.67 0 1 1 9.34 0 21 21 0 0 0 42 0 4.68 4.68 0 1 1 9.35 0 30.4 30.4 0 0 1-30.33 30.36Z" class="color000000 svgShape"/><path d="M2258.18 1885.6a4.68 4.68 0 0 1-4.68-4.67 21 21 0 1 0-42 0 4.68 4.68 0 0 1-9.35 0 30.37 30.37 0 1 1 60.74 0 4.67 4.67 0 0 1-4.71 4.67Z" class="color000000 svgShape"/><path d="M2283.87 1911.29a30.4 30.4 0 0 1-30.37-30.36 4.68 4.68 0 1 1 9.35 0 21 21 0 0 0 42 0 4.68 4.68 0 1 1 9.35 0 30.4 30.4 0 0 1-30.33 30.36Z" class="color000000 svgShape"/><path d="M2361 1885.6a4.67 4.67 0 0 1-4.67-4.67 21 21 0 1 0-42 0 4.68 4.68 0 0 1-9.35 0 30.37 30.37 0 1 1 60.74 0 4.68 4.68 0 0 1-4.72 4.67Z" class="color000000 svgShape"/><path d="M2386.65 1911.29a30.4 30.4 0 0 1-30.37-30.36 4.68 4.68 0 1 1 9.35 0 21 21 0 0 0 42 0 4.68 4.68 0 1 1 9.35 0 30.4 30.4 0 0 1-30.33 30.36Z" class="color000000 svgShape"/><path d="M2463.73 1885.6a4.67 4.67 0 0 1-4.67-4.67 21 21 0 0 0-42 0 4.68 4.68 0 0 1-9.35 0 30.37 30.37 0 1 1 60.73 0 4.67 4.67 0 0 1-4.71 4.67Z" class="color000000 svgShape"/><path d="M2489.43 1911.29a30.4 30.4 0 0 1-30.37-30.36 4.67 4.67 0 1 1 9.34 0 21 21 0 0 0 42 0 4.67 4.67 0 1 1 9.34 0 30.4 30.4 0 0 1-30.31 30.36Z" class="color000000 svgShape"/><path fill="#97e7fc" d="M2435.59 516.18a176.39 176.39 0 0 0-195.44-155c-30.13 3.48-58.72 8.36-86.3 14.11l-.1-1c-18.47 4.2-459.86 76.26-579.87 520.1-3.73 12.44-5.72 20.65-6.23 22.9h.1a855.68 855.68 0 0 0-17.56 100.27 176.61 176.61 0 0 0 175.42 196.62c88.37 0 164.64-66.29 175-156.18a565.34 565.34 0 0 1 10.85-62.59h.17l-.52 2.2c6.57-25.67 72.77-251.79 369.48-286a176.41 176.41 0 0 0 156.18-175 178.57 178.57 0 0 0-1.18-20.43Z" class="colorfce097 svgShape"/><path fill="#2e8ea7" d="M2311.09 734.74a73.31 73.31 0 1 0 93 45.75 73.31 73.31 0 0 0-93-45.75Zm32 93.88a25.87 25.87 0 1 1 16.15-32.83 25.86 25.86 0 0 1-16.17 32.83Z" class="color2e44a7 svgShape"/><path fill="#40a7c3" d="m2555.34 875.77 10.66-53.91-32.66-11.25a197.11 197.11 0 0 0-2.63-39.25l30.89-15.49-17.72-52-33.93 6.6a196.73 196.73 0 0 0-21.87-32.71l19-28.84-41.37-36.19-26.09 22.68a199.21 199.21 0 0 0-35.29-17.41l2-34.52-53.92-10.66-11.23 32.66a197.26 197.26 0 0 0-39.27 2.63l-15.48-30.9-52 17.73 6.6 33.93a196.58 196.58 0 0 0-32.71 21.88l-28.83-19-36.2 41.36 22.69 26.1a199.56 199.56 0 0 0-17.35 35.29l-34.52-2-10.67 53.91 32.66 11.24a196.43 196.43 0 0 0 2.64 39.26l-30.9 15.49 17.72 52 33.93-6.6a196.78 196.78 0 0 0 21.88 32.71l-19 28.84 41.36 36.19 26.09-22.68a200.59 200.59 0 0 0 35.29 17.35l-2 34.51 53.89 10.68 11.24-32.65a196.49 196.49 0 0 0 39.26-2.65l15.5 30.9 52-17.73-6.59-33.93a197.06 197.06 0 0 0 32.7-21.87l28.84 19 36.19-41.36-22.68-26.11a197.86 197.86 0 0 0 17.35-35.29Zm-162.77 98.15c-93.57 31.89-195.74-18.33-227.63-111.92s18.32-195.73 111.94-227.63 195.74 18.33 227.63 111.95-18.32 195.68-111.94 227.6ZM2279.33 641.5c-89.68 30.55-137.78 128.36-107.23 218s128.36 137.78 218 107.23 137.77-128.36 107.22-218S2369 611 2279.33 641.5Zm196 100.74-102.68 35a46.53 46.53 0 0 0-39.76-19.56l-35-102.68a153.64 153.64 0 0 1 177.44 87.24Zm-133.42 83a22.25 22.25 0 1 1 13.88-28.24 22.26 22.26 0 0 1-13.88 28.19Zm-69.08-161.66 35 102.67a46.58 46.58 0 0 0-19.57 39.75l-102.67 35a153.63 153.63 0 0 1 87.24-177.47ZM2194.13 866l102.67-35a46.57 46.57 0 0 0 39.76 19.55l35 102.67A153.62 153.62 0 0 1 2194.13 866Zm202.49 78.7-35-102.67a46.61 46.61 0 0 0 19.56-39.77l102.67-35a153.64 153.64 0 0 1-87.23 177.47Z" class="color4060c3 svgShape"/><path fill="#29778c" d="m2852 1292.09 26.7-16.34a329.4 329.4 0 0 0-19.25-61l-31.15 1.83c-35.39 2.08-59.29-35.55-42.36-66.7l14.91-27.41a329.79 329.79 0 0 0-47-43.37l-26.15 17.22c-29.61 19.5-69.12-1.14-70-36.58l-.8-31.16q-15.15-4.92-30.91-8.46t-31.58-5.48l-14 27.86c-15.89 31.69-60.42 33.57-78.93 3.33l-16.35-26.7a329.64 329.64 0 0 0-61 19.25l1.83 31.15c2.09 35.4-35.54 59.29-66.69 42.36l-27.53-14.89a329.14 329.14 0 0 0-43.36 47l17.22 26.15c19.5 29.61-1.14 69.12-36.58 70l-31.16.8q-4.93 15.15-8.46 30.91t-5.49 31.58l27.86 14c31.7 15.89 33.58 60.43 3.34 78.94l-26.7 16.34a328.62 328.62 0 0 0 19.24 61l31.16-1.83c35.39-2.08 59.29 35.54 42.35 66.69l-14.9 27.42a329.79 329.79 0 0 0 47 43.37l26.14-17.22c29.61-19.5 69.12 1.13 70 36.58l.8 31.16q15.15 4.92 30.92 8.46t31.57 5.48l14-27.86c15.9-31.69 60.43-33.58 78.94-3.34l16.35 26.71a329.88 329.88 0 0 0 61-19.25l-1.84-31.16c-2.08-35.39 35.55-59.29 66.7-42.35l27.41 14.9a329.09 329.09 0 0 0 43.37-47l-17.22-26.15c-19.5-29.61 1.14-69.12 36.58-70l31.16-.8q4.92-15.15 8.46-30.91t5.49-31.58l-27.87-14c-31.62-15.91-33.5-60.44-3.22-78.95ZM2603.71 1203a18.81 18.81 0 0 1 26.72-12.75 172.42 172.42 0 0 1 88.43 106.17l-131.77 19.84a43.82 43.82 0 0 0-4-4.2 40.48 40.48 0 0 0-3.15-2.62Zm-164.27 12.42a172.23 172.23 0 0 1 109.92-43.25 18.81 18.81 0 0 1 18.8 22.9l-23.75 106.44a43.57 43.57 0 0 0-11.79 4.36l-91.08-60.79a18.78 18.78 0 0 1-2.1-29.65Zm140.29 126.84a26.27 26.27 0 1 1-28.16-24.23 26.27 26.27 0 0 1 28.16 24.24ZM2424.48 1419a18.83 18.83 0 0 1-29.26-7.3 171.27 171.27 0 0 1-9.63-104.92 175.11 175.11 0 0 1 6.87-23.13 18.76 18.76 0 0 1 28-8.85l90.38 60.32a43.68 43.68 0 0 0-.71 13.77Zm169.31 92.59a172.42 172.42 0 0 1-148.38-33.42 18.81 18.81 0 0 1-.08-29.17l83.71-68.56a43.61 43.61 0 0 0 29 7.27l48.14 97.27a18.79 18.79 0 0 1-12.39 26.59Zm131.48-156.27a172.31 172.31 0 0 1-58 118.07 18.75 18.75 0 0 1-29.12-5.91l-48.69-98.37a43.31 43.31 0 0 0 7.12-17.43l107.12-16.12a18.79 18.79 0 0 1 21.57 19.74Z" class="color8c293d svgShape"/><path fill="#42aecb" d="M2569.58 1557.8c-117.76 8.85-220.76-79.76-229.61-197.52s79.76-220.76 197.52-229.6 220.76 79.76 229.61 197.52-79.77 220.8-197.52 229.6Zm-28.92-385c-94.52 7.1-165.64 89.77-158.54 184.28s89.77 165.64 184.29 158.54 165.64-89.77 158.54-184.29-89.78-165.6-184.29-158.5Z" class="colorcb4251 svgShape"/><path fill="#36798b" d="M2220.55 1199.17a309.52 309.52 0 0 0-3.88-70.84l-60.91-8.5-22-56.75 39.28-47.25a333.13 333.13 0 0 0-19.72-27.53 307.61 307.61 0 0 0-25-27.26l-54.24 28.85-51.15-33 3.92-61.25a304.41 304.41 0 0 0-68.38-18l-26.87 55.22-60.83 3.49-32.86-52a304 304 0 0 0-66 25.66l10.85 60.56-47.09 38.62-57.17-22.7a303.19 303.19 0 0 0-37.29 57.66l44.06 42.88-15.83 58.78-59.61 14.91a305 305 0 0 0 3.7 70.65l60.77 8.75 21.8 56.82-39.38 47.11a288.28 288.28 0 0 0 20.27 28.42 313.59 313.59 0 0 0 24.18 26.66l54.34-28.81 51.1 33.23-4.22 61.28a304.65 304.65 0 0 0 68.37 18.24l27-55.15 60.83-3.23 32.71 52a308 308 0 0 0 66.11-25.41l-10.71-60.58 47.25-38.42 57.13 22.91a307.4 307.4 0 0 0 38.41-59.45l-44.26-42.73 15.67-58.82Zm-307.44 182c-110.83-1.12-199.77-92-198.58-202.78s92-199.9 202.81-198.78a200.74 200.74 0 0 1 198.52 203c-1.14 110.73-92 199.69-202.75 198.52Zm4-381.88c-100-1-181.92 79.36-182.94 179.3s79.16 181.89 179.12 182.9 181.86-79.19 182.89-179.11a181.06 181.06 0 0 0-179.05-183.13Zm-3.36 318.25a137.06 137.06 0 1 1 2.85-274.11c75.71.64 136.34 62.63 135.74 138.38a137.09 137.09 0 0 1-138.57 135.69Z" class="color368b78 svgShape"/><path fill="#29a6c7" d="m3034.92 2051.7-167.28 10.88L2827 2260l-63.51 308.49-12.35 60q-6.12 25.23-11 50.6h298.36l18.36-110.62 17.13-103.26 16.26-98 32.62-75.71.37-.84 82.34-191.09-11.62-3.26Z" class="color2943c7 svgShape"/><path fill="#0681a2" d="m3085 2245.44-135.74 418.69s2.57 5.72 6.75 14.95h82.46l18.36-110.62 17.13-103.26 16.26-98 33-76.55c-31.78-41.26-38.22-45.21-38.22-45.21Z" class="color0637a2 svgShape"/><path fill="#29a6c7" d="m3395.04 2242.11-7.72-146.42-193.41.63-141.16.46.94 193.46.33 65.44 19.92 109.52 18.78 103.26 20.13 110.62h305.22l-5.83-110.62-17.2-326.35z" class="color2943c7 svgShape"/><path fill="#0681a2" d="m3193.91 2096.32-159-44.62-167.28 10.88L2827 2260c45.06 9.73 128.9 25.56 226.69 30.27 22.42 1.08 45.56 1.58 69.13 1.27 90-1.11 186.23-13.75 272.22-49.4l-7.72-146.42Z" class="color0637a2 svgShape"/><path fill="#21b4db" d="M3001.64 2001.42 2844.38 2108s-29.77 94.39-2.3 102.89c210.87 65.24 517.18 29.2 545.24 7s4.65-201.6 4.65-201.6ZM3062.63 1311.07s-93 131.48-103.85 254.59 5 220.26 5 220.26l191.78-10.05s-19.26-175 3.35-259.62 85.28-211.49 85.28-211.49S3210 1291 3164 1291s-101.37 20.07-101.37 20.07ZM2878.39 1415.19c-35.74 62-54.16 197.65-54.16 197.65l63.65 33.5L3004.57 1327s-90.74 26.72-126.18 88.19Z" class="colordb2321 svgShape"/><path fill="#00c9ff" d="M2945.59 1355.79c-50.25 58.07-78.73 255.71-87.66 368.49s-20.1 406.46-20.1 406.46 14.24 13.4 68.67 27.64c19.23 5 82.08 8.37 82.08 8.37s-6.14-312.38-5-449.72 9.49-263 31.83-321 53-86.7 53-86.7c-51.95 8.33-99.29 19.27-122.82 46.46ZM3334.53 1454.27c10-35.73 46.9-78.16 46.9-78.16s-31.37-30.79-72.58-50.25c-40.2-19-84.29-27.37-84.29-27.37s-74.27 124.52-89.91 227.25 15.64 658.82 15.64 658.82 75.93 14.51 153-1.12 97.14-34.62 97.14-34.62l-26.8-421s-49.15-237.82-39.1-273.55Z" class="colorff7a00 svgShape"/><path fill="#fff" d="M3361.74 1667.44c-27.25 11.26-58 12-87.11 13-38.28 1.3-76.62 2.94-114.76-1.7-9.8-1.2-19.63-2.51-29.33-4.37.34 29.89 1 62.23 1.94 95.65 3.43.33 6.86.69 10.3 1 21 1.66 42.17 2.21 63.27 1.8 42.69-.83 85.2-5.65 127.28-12.76 14-2.37 27.93-5 41.83-7.83l-1.55-24.35s-5.2-25.23-11.87-60.44Z" class="colorffffff svgShape"/><path fill="#21b4db" d="M3373.61 1372.76s-32.38 22.33-53.59 87.1c-17.05 52-23.45 108.31-5.59 168.61 10 33.86 42.43 80.4 42.43 80.4s20.1-16.75 70.35-42.43 110.55-30.15 110.55-30.15-21.22-73.7-67-156.33-97.15-107.2-97.15-107.2Z" class="colordb2321 svgShape"/><path fill="#fff" d="M3299.78 1972.07c-43.59 6.18-87.78 5.81-131.69 4.36q-14.06-.47-28.1-1c1.21 27.8 2.43 54.17 3.59 78.3 5.65.38 11.31.65 17 .78 19.57.46 39.17-.36 58.68-1.73 38.79-2.71 77.47-8.36 115.15-18.08 10.62-2.74 21.14-5.86 31.57-9.23 8.73-2.82 17.49-5.78 26-9.21l-4.43-69.6c-27.42 13.4-57.55 21.14-87.77 25.41Z" class="colorffffff svgShape"/><path fill="#edfbff" d="m3247.82 1970.67-19.82-96.35-59.83-291.07s-173.69 12.59-341.72-13.4c-101.24-15.68-181.24-38.43-239.48-59.21-76.65-27.36-115.59-51.34-115.59-51.34l75.85 330.76 14.9 64.92L2597 2007s97.15 41.33 307.63 69.22c181 24 366.25 6.72 366.25 6.72l-8.43-41Z" class="coloredffff svgShape"/><path fill="#caf4ff" d="M2736.44 1939.84c-155.47-85.35-153.4-353-149.48-429.2-76.65-27.36-115.59-51.34-115.59-51.34l75.85 330.76 14.9 64.92L2597 2007s97.15 41.33 307.63 69.22c181 24 366.25 6.72 366.25 6.72l-8.43-41c-142.36 14.06-378.63-21.19-526.01-102.1Z" class="colorffe2ca svgShape"/><path fill="#54bbd6" d="M3048.38 1869.67s-13.39 20.93 31.82 59.46 123.13 44.37 147.42 42.71c8-.57 14.78-.93 20.2-1.18l-19.82-96.33Z" class="colord68e54 svgShape" opacity=".34"/><path fill="#54bbd6" d="m2637.21 1729.82-90 60.23 14.9 64.93c18-10.77 56.55-36.64 71.73-68.21 20.08-41.89 3.37-56.95 3.37-56.95Z" class="colord68e54 svgShape" opacity=".34"/><path fill="#b9f0ff" d="M3360.23 1704.4s14.49 39.1 14.49 44.69-107.19 80.39-107.19 80.39a160 160 0 0 0-22.34-25.71c-13.4-12.26-39.14-31-39.14-31l6.76 42.13s-61.41 6.72-111.64 16.76c-28.38 5.67-43.92 16.68-49.87 29.43a26.32 26.32 0 0 0-1.5 3.68 32 32 0 0 0-.73 16 32.8 32.8 0 0 0 1.3 4.7 39.7 39.7 0 0 0 2.75 6.48 55.82 55.82 0 0 0 12.06 14.89 90 90 0 0 0 9.07 7.25c21 14.89 54.12 27.6 95 33.67 60.31 9 107.23-17.89 107.23-17.89s75.73 3.16 129.53-8.9c54.68-12.31 108.32-29 130.62-90.47s-16.72-189.8-16.72-189.8c-25.7-14.46-159.68 63.7-159.68 63.7Z" class="colorffb9b9 svgShape"/><path fill="#8ce0f6" d="m3065.18 1906.91-.06-.05ZM3197.91 1917.35c-23.55 4.54-94.78 4.42-132.71-10.43l9.05 7.24c24.73 7.12 58 9.79 84.88 9.79 16.8 0 31.13-1 39.51-2.63a2.08 2.08 0 0 0 1.62-2.39 2 2 0 0 0-2.35-1.58ZM3049.07 1880.84ZM3186.94 1885.09c-17.81 7.29-101.62 8.79-137.86-4.24l1.29 4.69c20.2 6.52 51.61 9.19 79.78 9.19 26.19 0 49.5-2.27 58.33-5.87a2 2 0 0 0-1.54-3.77ZM3177 1856c-16.71 5.71-96.5 10-125.68 5.1a26.32 26.32 0 0 0-1.5 3.68c9.35 1.78 23.07 2.47 38.17 2.47 36.35 0 80.55-4.09 90.35-7.45a2 2 0 0 0 1.25-2.55 2 2 0 0 0-2.59-1.25Z" class="colorf68c9a svgShape"/><path fill="#a9edff" d="M3437.82 1644.38c-34.22 13.34-97.15 53.6-97.15 53.6l18.43 31.83a808 808 0 0 1 83.75-45.23c46.89-21.77 107.19-37.69 107.19-37.69l-10.88-33.49s-51.93 11.72-101.34 30.98Z" class="colorffa9ae svgShape"/><path fill="#b9f0ff" d="M2642 1738.48a37.78 37.78 0 0 0-11.09-15.38 42.63 42.63 0 0 0-4.9-3.68 61.08 61.08 0 0 0-32.82-10.12c-29.31 0-66.71 12.63-66.71 12.63s-14.29 1.33-19.35 20.88c-4.45 17 5.71 69.67 24.85 85.41 6.76 5.55 36.31 14.29 88.73-36.23 9.68-9.31 15.95-18 19.47-26.1a43.25 43.25 0 0 0 1.78-4.5 35.38 35.38 0 0 0 1.14-19.14Z" class="colorffb9b9 svgShape"/><path fill="#8ce0f6" d="M2525.69 1744.47a2 2 0 0 0 1 3.85 1.8 1.8 0 0 0 .93-.25c18.22-9.67 72.58-22.62 103.34-25a42.63 42.63 0 0 0-4.9-3.68c-32.77 3.26-83.81 16.3-100.37 25.08ZM2534.55 1768.8a2 2 0 0 0-.72 2.79 2 2 0 0 0 1.74 1 2.15 2.15 0 0 0 1-.28c17-9.88 74.44-25.54 106.54-30.07l-1.1-3.77c-32.81 4.87-90.37 20.41-107.46 30.33ZM2550.18 1799.44a1.92 1.92 0 0 0 1.58.77 2 2 0 0 0 1.25-.4c19.35-15.06 61.81-29.07 87.19-33.92a43.25 43.25 0 0 0 1.78-4.5c-26.43 4.58-71.64 19.8-91.44 35.22a2 2 0 0 0-.36 2.83Z" class="colorf68c9a svgShape"/><path fill="#b9f0ff" d="m3222.33 1113.22-56.49 49.78-11.76 10.36-71.28 55.55-.71 6.29-10.13 62.6-1.15 7-1.1 6.84s-.54 27 60.43 24.59c48.88-1.9 94.42-37.75 94.42-37.75s1.08-92.59-.48-104.92c-3.85-30.32-1.75-80.34-1.75-80.34Z" class="colorffb9b9 svgShape"/><path fill="#8ce0f6" d="m3164.25 1163.46-10.17 9.86-71.28 55.55-.71 6.29-9.74 62.3s-.16.11-.39.3l-1.15 7c13-1.39 76.35-25.25 89.54-33.66 18.85-12 35.93-40.51 40.1-68.29l1.31-48.94a281.75 281.75 0 0 0-35.92 9c-.52.24-1.06.41-1.59.59Z" class="colorf68c9a svgShape"/><path fill="#b9f0ff" d="M3070.58 1033.88c-16.36 15.42-33.68 48.82-42.87 85.28a213.21 213.21 0 0 0-6.54 44c-.93 26.3 4.2 51.15 18.78 69 42.89 52.47 145.81 21.38 172.55-61.94 28.11-87.58-50.88-222.17-141.92-136.34Z" class="colorffb9b9 svgShape"/><path fill="#62c4de" d="M3094.13 1092.61a2.43 2.43 0 0 0-2.62 2.2c0 .27-2.39 26.62-10.16 41.66-7.73-1.31-22.19-2.86-24.76 3.34-2.66 6.42 9.06 22.14 12.72 26.8a2.4 2.4 0 0 0 3.39.41 2.42 2.42 0 0 0 .41-3.39c-7.37-9.41-13-19.67-12.06-22 .71-1.72 10.31-2.16 21.15-.13a2.41 2.41 0 0 0 2.54-1.17c9-15.65 11.48-43.94 11.59-45.13a2.43 2.43 0 0 0-2.2-2.59Z" class="colorde6277 svgShape"/><path fill="#0f2a31" d="M3125.72 1119.68c-3.46-1.33-7.53.88-9.09 4.93s0 8.43 3.44 9.76 7.53-.88 9.09-4.93.02-8.44-3.44-9.76ZM3060 1104.94c-3.46-1.33-7.53.88-9.09 4.94s0 8.42 3.44 9.75 7.53-.88 9.09-4.93-.03-8.42-3.44-9.76Z" class="color0f1231 svgShape"/><path fill="#62c4de" d="M3099.84 1179.43a27 27 0 0 1-10.19 3.85c-8.2 1.38-16-1-23-7.21a2.42 2.42 0 0 0-3.18 3.64c7.67 6.68 15.3 8.72 21.75 8.72a33.27 33.27 0 0 0 17.43-5 2.42 2.42 0 0 0-2.79-4Z" class="colorde6277 svgShape"/><path fill="#8ce0f6" d="M3141.37 1140.36c-15-3.45-29.42 3.64-32.22 15.83s7.08 24.86 22.07 28.31 29.43-3.63 32.23-15.82-7.08-24.87-22.08-28.32ZM3027.71 1119.16a213.21 213.21 0 0 0-6.54 44c12.21.19 22.77-6.45 25.12-16.69 2.56-11.2-5.58-22.83-18.58-27.31Z" class="colorf68c9a svgShape"/><path fill="#1b4c59" d="M3117.1 1089a2.41 2.41 0 1 0 1.56 4.57 33.17 33.17 0 0 1 13.14-1.17c9.22 1.13 15.65 6.54 19.13 16.1a2.4 2.4 0 0 0 2.27 1.6 2.37 2.37 0 0 0 .82-.15 2.41 2.41 0 0 0 1.45-3.1c-9.88-27.2-38.09-17.96-38.37-17.85ZM3041.73 1083.64a2.42 2.42 0 0 0 .06 3.42 2.42 2.42 0 0 0 3.41 0c16.8-17.36 34.79-1.17 35.56-.46a2.42 2.42 0 1 0 3.29-3.54c-.22-.26-22.2-20.2-42.32.58Z" class="color59261b svgShape"/><path d="M3202.44 975a111.19 111.19 0 0 0-36.34-14.4c-10.89-2.08-24.18.48-34.93-1.86-17.54-.62-33.35.36-45.72 2.65-28.13 5.21-65.42 28.24-66.73 60.16-.66 15.94 8.42 31.62 23.07 37.38 28.47 11.21 62.55 5.17 89.17-7.87a39.14 39.14 0 0 0-10.14 14.22c-.56 1.34-1 2.87-.44 4.19.89 2 3.49 2.27 5.64 2.25a131.84 131.84 0 0 0 51.58-11.06c-12.46 11.31-8.16 35.59-2.74 49.17 6.72 16.83 24.11 54.74 17.95 72.51l51.32-27c20.92-37.33 25-84.36 8-123.65a125 125 0 0 0-49.69-56.69ZM3061.83 1052.21ZM3059.46 1052.91h-.12ZM3059.53 1052.89h-.05ZM3014.74 1017.56v.06c.08-.45 0-.22 0-.06ZM3028.92 987l.08-.08ZM3042.2 977.12ZM3016 1008.21v-.05c.16-.38 0 .32 0 .05ZM3016 1027.13c-.09-.34.09.34 0 .09ZM3019.71 1036.22l-.06-.1c.06.1.21.38.07.12ZM3015.99 1027.14l-.01-.01.01.01z" class="color000000 svgShape"/><path d="M3089.7 963.11h-4.21a105.32 105.32 0 0 0-17.35 1.85 100.82 100.82 0 0 0-17.55 4.95 79 79 0 0 0-16.12 8.41 60.47 60.47 0 0 0-13.08 12 49.59 49.59 0 0 0-8.5 15.62 40.09 40.09 0 0 0-1.6 18.29 42.74 42.74 0 0 0 6.28 16.64 40.4 40.4 0 0 0 11.89 12.15 35.52 35.52 0 0 0 16.42 5.78 30.85 30.85 0 0 0 9.09-.58 28.29 28.29 0 0 0 4.75-1.45q1.11-.46 2.19-1a14.89 14.89 0 0 0 1.35-.75l.52-.33.24-.15s.22-.14 0-.06a1.39 1.39 0 1 0-1.06-2.58c.26-.12-.21.06-.34.1l-.28.08-.51.14h-.11l-.55.16-.53.16-1.07.32h-.25H3059.49h-.13l-.52.13a41.42 41.42 0 0 1-8.71 1.26h-1.63c-.7 0-1.39 0-2.08-.1a33.19 33.19 0 0 1-4.08-.61l-1-.24-.47-.11-.18-.06h.14l-.19-.06c-.58-.18-1.17-.35-1.74-.55a33.25 33.25 0 0 1-3.74-1.58c-.61-.3-1.21-.62-1.8-.95l-.46-.26-.26-.16c.12.08.22.14 0 0s-.12-.08 0 0l-.21-.12-.41-.26a37.69 37.69 0 0 1-6.31-5.07l-.23-.22.11.11-.14-.14-.23-.24c-.22-.24-.44-.47-.65-.71-.47-.51-.91-1-1.35-1.57a40.37 40.37 0 0 1-2.44-3.35c-.38-.58-.74-1.17-1.09-1.76l-.11-.19c.14.26 0 0-.07-.12l.06.1-.23-.41c-.16-.29-.31-.58-.46-.87a42 42 0 0 1-3-7.8v.08c.06.25-.12-.43 0-.09a1.6 1.6 0 0 0-.05-.21l-.12-.48c-.08-.32-.15-.65-.22-1-.15-.69-.27-1.39-.38-2.09a37.59 37.59 0 0 1-.43-4.24v-1.52a2.26 2.26 0 0 0 0-.26q0-1.08.09-2.16a38.75 38.75 0 0 1 .57-4.29c.14-.73.31-1.46.49-2.18l.15-.57v.05c-.08.27.12-.43 0-.05l.06-.2.3-1c.45-1.4 1-2.78 1.53-4.13s1.19-2.63 1.87-3.9c.32-.6.64-1.24 1-1.81-.27.4.1-.15.16-.26l.27-.42c.17-.29.36-.57.54-.85a50.76 50.76 0 0 1 5.27-6.7c.48-.52 1-1 1.48-1.54l.36-.36.08-.08-.08.08.23-.23.74-.69q1.58-1.45 3.26-2.81a68.88 68.88 0 0 1 7.12-5l1.89-1.12.22-.13.46-.25c.32-.18.64-.36 1-.53q1.92-1 3.9-2a95.02 95.02 0 0 1 8.22-3.43 100.24 100.24 0 0 1 16.88-4.49 104.23 104.23 0 0 1 16.82-1.6c1.05.23 1.05-1.36.14-1.38ZM3048.54 1054.33Z" class="color000000 svgShape"/><path d="m3040.69 1053.2.19.06h-.14ZM3025.55 1044l.14.14-.11-.11ZM3032.73 1049.72c.23.13.13.07 0 0s-.21-.13 0 0ZM3262.38 1051.07ZM3266.26 1081.66ZM3231.45 1157.94a1.82 1.82 0 0 0 .31-.16l.16-.09-.84.34ZM3252.17 1025.81l-.09-.16Z" class="color000000 svgShape"/><path d="M3266.26 1047.92a110.65 110.65 0 0 0-7.11-18.14 94.41 94.41 0 0 0-10.19-16.29 82.16 82.16 0 0 0-13.1-13.26 69 69 0 0 0-15.6-9.4 1.45 1.45 0 0 0-1.16 2.65c1.33.63 2.63 1.29 3.91 2a63.41 63.41 0 0 1 7.19 4.68 73.12 73.12 0 0 1 6.78 5.76c1.23 1.18 1.86 1.82 3 3s2 2.22 2.94 3.37c1.95 2.35 3.75 4.82 5.46 7.35.87 1.29 1.72 2.6 2.53 3.94.4.65.79 1.32 1.17 2l.13.23-.09-.16.09.16v.07c.09.16.18.31.26.47l.56 1q2.25 4.16 4.11 8.5t3.38 9c.51 1.54 1 3.1 1.43 4.66.11.38.22.77.32 1.16l.11.42c0 .09 0 .07 0 0l.09.33c.2.78.4 1.55.58 2.33a118.13 118.13 0 0 1 2.93 19.33c.1 1.61.18 3.22.23 4.83v4.43q-.08 4.85-.57 9.68t-1.43 9.53c-.31 1.58-.66 3.15-1.05 4.72q-.28 1.14-.6 2.28l-.06.25c0-.16.18-.45 0 .14v-.1c-.05.16-.1.32-.14.48-.11.38-.22.75-.34 1.13a86.87 86.87 0 0 1-7.36 17.35l-.62 1.09-.27.46-.13.21a1.32 1.32 0 0 0 .12-.2c-.42.68-.84 1.36-1.27 2q-1.26 2-2.64 3.83a74.6 74.6 0 0 1-6.12 7.28c-.54.57-1.1 1.12-1.65 1.68l-.89.9c-.27.3-.21.2 0 0-.12.13-.26.25-.39.37q-1.76 1.68-3.62 3.24c-1.24 1-2.47 2.07-3.72 3.08-.65.53-1.32 1-2 1.56-.33.25-.63.51-.94.79l-.49.44-.32.29c-.5.44-.13.09-.11.08a1.82 1.82 0 0 0-.36 2.51 1.79 1.79 0 0 0 2.2.51l-.37.09.84-.34-.16.09a1.82 1.82 0 0 1-.31.16 18.45 18.45 0 0 0 4.6-2.28 59.07 59.07 0 0 0 15-13.17 81.29 81.29 0 0 0 10.58-16.52 93.43 93.43 0 0 0 6.62-18.65 104.72 104.72 0 0 0 2.76-19.3 117.68 117.68 0 0 0-.66-20.3 121.75 121.75 0 0 0-4.08-19.78Z" class="color000000 svgShape"/><path d="M3262.55 1108.74v.1c.18-.55.04-.26 0-.1ZM3241.2 1145.07c-.2.2-.27.3 0 0ZM3253.79 1129.32a1.32 1.32 0 0 1-.12.2l.13-.21Z" class="color000000 svgShape"/><path fill="#b9f0ff" d="M3241.6 1126.41a14.58 14.58 0 0 0-6.08-1c-11 .16-20.73 7.07-25.22 17.08l-14.76 32.85s-8.72 15.09 2.89 21.05c31.63 16.24 70.83-22.61 57.21-54.32-2.91-6.74-7.64-12.74-14.04-15.66Z" class="colorffb9b9 svgShape"/><path fill="#8ce0f6" d="M3236.93 1142.62c-20.84.11-27.73 21.12-28.46 32.21a3.11 3.11 0 0 0 2.9 3.32h.23a3.11 3.11 0 0 0 3.09-2.91c.08-1.07 2.06-26.27 22.27-26.38a3.13 3.13 0 0 0 0-6.25Z" class="colorf68c9a svgShape"/><path fill="#064252" d="M3149.63 979.66c-42-10.28-75-.94-101.11 16.74s149-6 113 17.64c-29.49 19.35-59.76 33.52 56.37 27.38 36.22-1.92-26.15-51.42-68.26-61.76Z" class="color2c2c2c svgShape"/><path fill="#1bc3f0" d="M3230 941.83a203.72 203.72 0 0 0-36.39-18.37 110.54 110.54 0 0 0-32.67-7.68c-37.52-2.69-66.48 17.17-86.44 38.65a186.86 186.86 0 0 0-16.5 20.51c-10.37 14.9-15.85 27.06-16.27 28.23l87.66 41.14 38.82 18.22 15 7 80 37.54.33.14a7.91 7.91 0 0 0 10.54-4.81q2.76-8.39 4.84-16.42a183.25 183.25 0 0 0 6.24-44.32c.35-42.77-18.36-75.94-55.16-99.83Z" class="colorf07f1b svgShape"/><path fill="#1bc3f0" d="M3156 1046.25c-19.69-21.55-52.67-55.41-74-65.45-5.72-2.69-12.8-4-20.41-4.37a106.2 106.2 0 0 0-17.08.74c-1.3.15-2.6.33-3.89.52-1.46.22-2.93.47-4.37.74-17.25 3.15-35.44-1.79-40.51 3.87-2.9 3.23 10.54 16.17 36.91 28.85a908.1 908.1 0 0 0 86.79 35.63c29.65 10.38 53.05 18 53.05 18s-.25-.28-.7-.82c-1.92-2.2-7.73-8.96-15.79-17.71Z" class="colorf07f1b svgShape"/><path fill="#21cefc" d="M3230.93 932.11a203.72 203.72 0 0 0-36.39-18.37 110.62 110.62 0 0 0-32.67-7.68c-37.53-2.69-66.48 17.17-86.45 38.65a186.71 186.71 0 0 0-16.42 20.51c-10.37 14.9-15.85 27.06-16.27 28.23l87.66 41.14 38.81 18.22 15 7 80 37.54.34.14a7.91 7.91 0 0 0 10.54-4.81q2.76-8.38 4.84-16.42a184.25 184.25 0 0 0 6.24-44.33c.3-42.76-18.41-75.93-55.23-99.82Z" class="colorfcbe21 svgShape"/><path fill="#6addfc" d="M3230.93 932.11c-3.06 17.59-1.13 56.1 55.22 99.87.31-42.81-18.4-75.98-55.22-99.87Z" class="colorfcd86a svgShape"/><path fill="#14cbfc" d="M3135.07 968.56c-1.3-21.75 14.13-46.26 26.8-62.5-37.53-2.69-66.48 17.17-86.45 38.65a186.71 186.71 0 0 0-16.42 20.51c-10.37 14.9-15.85 27.06-16.27 28.23l87.66 41.14 38.81 18.22 15 7 80 37.54.34.14a7.91 7.91 0 0 0 10.54-4.81q2.76-8.38 4.84-16.42c-66.41-14.56-142.92-74.66-144.85-107.7Z" class="colorfca214 svgShape"/><path fill="#1bc3f0" d="M3230.35 975.27c-23.71.55-77 10.12-107 54.51 12.13-7.46 51.61-32.57 104-34.49 21.31-.78 45.65 9.47 58.6 27.25 4.87-6.71 5.89-18.13-4.55-28.5-13.24-13.04-30.09-19.24-51.05-18.77ZM3188.35 900.27c-19-4.76-51.67-.27-66.37 9.57-28.23 18.94-49.3 52.47-52.94 84 13.12-26.08 31.14-50.66 57.95-65.11s73-11.68 103.83 3.1c-.16-12.57-18.21-25.46-42.47-31.56Z" class="colorf07f1b svgShape"/><path fill="#1bc3f0" d="M3054.66 951.33c-8.33 14.78-13.18 32.07-2.46 45.94-1.94-29 23-53.55 42.67-70.14-19.26-1.5-34.12 13.37-40.21 24.2Z" class="colorf07f1b svgShape"/><path fill="#6addfc" d="M3153.41 1035c-19.69-21.55-52.67-55.41-74-65.45-5.72-2.69-12.8-4-20.41-4.37a105.08 105.08 0 0 0-17.08.75c-1.3.14-2.6.32-3.88.51-1.47.22-2.94.47-4.38.74-17.25 3.15-32.81 9.42-37.88 15.08-2.9 3.23 11 10.73 32 19.73 25 10.65 60 23.39 89 33.55 29.65 10.37 53 18 53 18l-.7-.81c-1.84-2.18-7.65-8.91-15.67-17.73Z" class="colorfcd86a svgShape"/><path fill="#8ee6fd" d="M3066.27 973.63s-30.12-3.58-55.78 7.21c0 0 18.61 13.29 26.35 12.45 18.51-2 45.2-2.36 45.54-4.61s-7.78-14.27-16.11-15.05ZM3087.57 995.59c-1.36-.2-40.73-1.3-35.43 3.89s50.83 26.21 50.91 20.28-10.98-23.49-15.48-24.17Z" class="colorfde18e svgShape"/><path fill="#b9f0ff" d="M1476.29 1576.25s63.08 193.92 117.69 276.85l114.16-68.62C1684 1697.7 1650.33 1602 1650.33 1602Z" class="colorffb9b9 svgShape"/><path fill="#b9f0ff" d="M2060.12 1757.36c-13.58-3.31-71.08 18.2-85.43 23.46s-248.1-48.11-310-38L1594 1853.1a35.73 35.73 0 0 0 12.19 9.13c109.57 29.71 365.36-2.85 377.84-12.88 8 5.34 9.65 10.87 22.41 19.82 5.07 3.56 23.28 16.38 33.58-1.52 6.34-.58 19.88-1.15 24.07-15.26 5.3-.9 19.46-1.53 23.27-13.73 10.48-5 17.48-11.42 25.55-16.78 18.12-13.73 37-27.77 28.29-36.62s-67.49-24.59-81.08-27.9Z" class="colorffb9b9 svgShape"/><path fill="#0993b8" d="M1579.28 1402.89c-12.77-18.31-20.3-21.94-20.3-21.94v.08l-5.62 153.58-4.5 122.44-.51 13.76c8 0 15.92-.42 23.73-1.14 11-1 21.74-2.62 31.81-4.47 10.82-2 20.92-4.38 29.82-6.73a370.67 370.67 0 0 0 37.3-11.83q-3-12-6.07-23.31c-35.24-131.97-66.39-192.86-85.66-220.44Z" class="color0947b8 svgShape"/><path fill="#10a0c6" d="m1553.36 1534.61-5 136.2c19.16 0 38.32-2.44 55.53-5.61l-27.77-156.07Z" class="colorc62310 svgShape"/><path fill="#29d2ff" d="M1575.71 1644s-11.44 4.75-26.85 13l-.51 13.76c19.16 0 38.33-2.43 55.54-5.61a403.43 403.43 0 0 0 67.12-18.56q-3-12-6.07-23.31c-49.44 16.24-89.23 20.72-89.23 20.72Z" class="color299aff svgShape"/><path fill="#014e63" d="M1814.88 2649.38c-62.64-202.6-207.34-532.12-207.34-532.12h-340c34.25 97.34 78.93 215.85 126.42 327.31l.25.58q10.85 25.72 21.92 50.8c14.3 32.42 28.81 63.78 43.13 93.35q13.18 27.1 26.24 51.87c1.32 2.5 2.71 5.24 4.18 8.17 14.35 28.67 35.54 76.08 50.7 110.62h301c-.37-5.07-.55-7.76-.55-7.76-4.13-26.7-13.39-62.2-25.95-102.82Z" class="color190163 svgShape"/><path fill="#013948" d="M1430.21 2303.26v.19L1394 2444.61l-.43 1.65c4.16 9.85 12.16 27.75 22.54 50.51 18.78 41.23 45.3 98.41 70.6 152.61 19.36 41.44 38 81.14 51.93 110.62h9.36l-28.51-110.62Z" class="color120148 svgShape"/><path fill="#014e63" d="M1098.24 2649.38c5.17 47.19 8.83 81.15 7.78 92.24-2.41 2.89-8 9.24-16.21 18.38h302.76c3.57-32.2 7.23-69.91 10.86-110.62 4.31-48 8.58-100.26 12.64-152.61l.06-.78c5.17-66.85 10-133.88 14-192.54 7.4-106.94 12.29-186.15 12.29-186.15h-341.7c-49.2 112.86-18.53 385.91-2.48 532.08Z" class="color190163 svgShape"/><path fill="#0993b8" d="M1571.56 1702c-.21-10.34 0-21.16.52-32.28.94-20.6 2.91-42.3 5.15-64.2 9.75-95.26 24.55-194.39-18.25-224.44h-.07c-7.51-5.27-24.86-15.67-47.09-26.41-7.85-3.81-16.3-7.64-25.16-11.33-3.51-1.46-7.09-2.9-10.71-4.29-7.59-2.93-15.39-5.69-23.28-8.15-9.93-3.1-20-5.74-30.14-7.9-37.06-7.9-74.85-9.3-108.88-2.58q-4.25.84-8.4 1.84s-8.75 1.88-22.58 5.54c-27.9 7.38-76.51 22-115.81 43-22.62 12.1-42.15 26.33-52.91 42.51-47.48 71.44-39.15 188.13-27.27 300.37 8.66 81.7 19.2 161 11.49 218.86-2.8 21-5.7 39.75-8.41 56.47-15 92.54-24.48 123.77 20 141.85 52.49 21.37 427.83 48.13 499.89-6.8a28.25 28.25 0 0 0 5.28-10c4.52-14.56 1.07-36.72-5.53-71.3-11.97-62.94-34.31-166.91-37.84-340.76Z" class="color0947b8 svgShape"/><path fill="#097895" d="M1107.07 1539v3.38s14.64 163 24.78 178.54 21.2 37.83 21.2 37.83 94 1.35 94.66-5.41-34.48-152.14-46-163-94.64-51.34-94.64-51.34Z" class="color092195 svgShape"/><path fill="#00c9ff" d="M1657.06 1958.21c-.76-19.21-1.69-39.75-2.83-61.25-3-56-7.41-118.49-14-181.62-2-19-4.15-38-6.54-56.87q-1.53-12.21-3.2-24.34-1.41-10.47-3-20.85c-11.54-78.5-27.16-152.7-48.28-210.39-12.77-18.31-20.3-21.94-20.3-21.94v.08h-.07c-7.51-5.27-24.86-15.67-47.09-26.41-7.85-3.81-16.3-7.64-25.16-11.33-3.51-1.46-7.09-2.9-10.71-4.29 13.78 37.78 46.52 139.13 66.28 296.21 3.29 26.17 6.23 53.88 8.65 83.11 4.58 55.09 7.34 115.53 7.32 181.11q0 25.89-.62 52.87c-1.23 54.33-4.4 111.85-10 172.46 45.73-7.27 53.9-8.57 55-8.74h.16l12.16-1.93 45.4-7.21s.07-21-.59-56.28c-.36-24.66-1.16-56.19-2.58-92.39Z" class="colorff7a00 svgShape"/><path fill="#fff" d="M1558.2 1899.38q0 25.9-.62 52.88c28.41 8 66.94 8.11 99.48 5.94-.76-19.21-1.69-39.74-2.83-61.24-33.1 3.15-74.63 2.86-96.03 2.42Z" class="colorffffff svgShape"/><path fill="#6addfc" d="M1542.23 1635.16q4.93 39.25 8.64 83.12c21 4.21 63.65.16 89.38-2.94-2.83-27.13-6-54.35-9.74-81.21-28.24 1.51-70.73 1.24-88.28 1.03Z" class="colorfcd86a svgShape"/><path fill="#00c9ff" d="M1403.92 1628.86c-6.17-54-11.37-96.79-14.42-116.81-13.21-86.9-75.77-191.69-75.77-191.69h-.08q-4.25.84-8.4 1.84s-8.75 1.88-22.58 5.54c-27.9 7.38-76.51 22-115.81 43 18 21.88 47.73 60.09 53.57 80.85 5.74 20.39-11.3 118.56-23 180.31l-.33 1.79c-.12.64-.25 1.28-.37 1.91s-.24 1.28-.35 1.91-.25 1.23-.36 1.84c-.64 3.33-1.26 6.51-1.84 9.55-.16.81-.32 1.6-.47 2.38v.27c-.13.69-.27 1.38-.41 2 0 .15 0 .29-.08.42-.12.62-.23 1.23-.35 1.84-.16.76-.3 1.51-.44 2.24-.26 1.27-.5 2.5-.73 3.69-.58 2.93-1.11 5.61-1.59 8-.07.37-.14.72-.22 1.08-.12.59-.23 1.17-.34 1.72s-.18.93-.28 1.37l-1.58 7.82c0 .09 0 .17-.05.25-.14.64-.21 1-.21 1l-22.73 356.12s17 16.05 82.18 29.28 209.49 46.4 209.49 46.4-22.92-220.47-42.5-397.42c-3.47-31.36-6.82-61.36-9.95-88.5Z" class="colorff7a00 svgShape"/><path fill="#00c9ff" d="M1215.24 1729.52c-46.46 12.2-93.37-.37-128.56-15.9 5.15 48.59 11 96.35 13.21 139.24a527.91 527.91 0 0 1 .27 58.33q-.63 11.07-2 21.29c-2.8 21-5.7 39.75-8.41 56.47 39.76 28.39 73.47 49.88 74.94 50.15s21.53-46 41.56-103c5.84-16.61 11.66-34.12 17-51.65 25.5-83.58 39.91-167.52-8.01-154.93Z" class="colorff7a00 svgShape"/><path fill="#6addfc" d="M1271.1 1642.92c-24.6-.83-50.63-1.49-73.68-11l-.33 1.79c-.12.64-.25 1.28-.37 1.91s-.24 1.28-.35 1.91-.25 1.23-.36 1.84c-.64 3.33-1.26 6.51-1.84 9.55-.16.81-.32 1.6-.47 2.38v.27c-.13.7-.27 1.38-.41 2 0 .15 0 .29-.08.42-.12.62-.23 1.23-.35 1.84-.16.76-.3 1.51-.44 2.24-.26 1.27-.5 2.5-.73 3.69-.58 2.93-1.11 5.61-1.59 8-.07.37-.14.72-.22 1.08-.12.59-.23 1.17-.34 1.72s-.19.94-.28 1.37l-1.58 7.82c0 .09 0 .17-.05.25-.14.64-.21 1-.21 1l-1.3 20.59c11.76 2.38 23.54 4.62 35.38 6.63 35.59 6 71.56 10.09 107.67 10.79 17.84.35 35.71-.11 53.51-1.52 2.06-.17 20-1.37 31.24-2.14-3.47-31.36-6.82-61.36-9.95-88.5-28.97 4.38-105.71 15-132.87 14.07ZM1249.84 1889.59c-5.41-.77-14.84-2.6-26.58-5.1-36.13-7.71-94.06-21.9-123.37-31.63a527.91 527.91 0 0 1 .27 58.33c25 6.25 70.51 17 106.1 25 18.71 4.19 34.68 7.61 43.52 9.21 93.28 16.88 205.29-2.17 210.07-2.49 1-20.41 2-42.72 3.05-66.24-7.93.3-93.76 16.4-101.68 16.66-37.14 1.17-74.51 1.49-111.38-3.74Z" class="colorfcd86a svgShape"/><path fill="#b9f0ff" d="M1151.49 1643.39s42.62 126.7 102.64 229.62l137.9-54.14c-34.51-88.06-91.12-241.45-91.12-241.45Z" class="colorffb9b9 svgShape"/><path fill="#0993b8" d="M1262.46 1435.13c-11.69-22.61-29.27-39.41-52.6-49.39-15.22-6.46-41.27-6.8-60.09 1.21-42.81 18.23-79.54 119.77-6.9 298.37q6 14.7 13 30.11c96.64-20.84 156.63-44 194.78-73.76-1.06-3-5.53-15-12.29-32.41-16.82-43.21-47.76-119.7-75.9-174.13Z" class="color0947b8 svgShape"/><path fill="#29d2ff" d="M1142.87 1685.32q6 14.7 13 30.11c96.64-20.84 156.63-44 194.78-73.76-1.06-3-5.53-15-12.29-32.41-59.81 45.26-164.83 69.66-195.49 76.06Z" class="color299aff svgShape"/><path fill="#b3b3b3" d="M2331.68 1698.19a42.57 42.57 0 0 1-56.54-20.72l-30.47-65.71a42.57 42.57 0 0 1 20.72-56.54l126-58.42a197.92 197.92 0 0 0-214.72-31.65c-75.56 35-118.47 111.75-114.28 190.11a67.27 67.27 0 0 0-11.29 4l-718.51 337.92c-.54.27-1 .55-1.54.82a197.8 197.8 0 0 0-334 148.26l126-58.41a42.57 42.57 0 0 1 56.54 20.72l30.47 65.71a42.59 42.59 0 0 1-20.72 56.54l-126 58.42a197.86 197.86 0 0 0 329.18-155.59c.88-.37 1.82-.7 2.77-1.14l718.53-337.91a63.8 63.8 0 0 0 10.3-6c57.15 53.86 143.39 70.63 219 35.58a197.89 197.89 0 0 0 114.56-184.32Z" class="colorb3b3b3 svgShape"/><path fill="#d6d6d6" d="M1447.5 2101.06c-63.24-2.34-94.72-50.64-115.42-103.64-.34.15-.67.34-1 .53a198.4 198.4 0 0 0-129-54.21c26 9.26 49.68 24.26 67.75 46.94 34.57 43.37 48.32 102.53 47.28 157.28-.49 26.3-4.69 54.21-22.48 74.78-18.45 21.29-42.87 36.28-69.22 45.91a343 343 0 0 1-156.95 18.2l-5 2.34a197.86 197.86 0 0 0 329.18-155.59c.88-.37 1.82-.7 2.77-1.14l68.49-31.73a158 158 0 0 1-16.4.33ZM2196.47 1774.93c-20.76-18.11-36.2-41.38-46.63-66.83-11.3-27.61-21-58.14-17.21-88.37 6.19-49.49 40.88-94.58 88.3-111.47 39.32-14 78.32-6.76 108.77 17.13l61.67-28.59a197.92 197.92 0 0 0-214.72-31.65c-75.56 35-118.47 111.75-114.28 190.11a67.27 67.27 0 0 0-11.29 4l-76.76 35.61a292.71 292.71 0 0 1 29.6-3c29.11-1.41 62.14 3.4 84.74 23.47 21.93 19.43 30.87 46.44 33.58 74.47.63-.43 1.3-.81 1.9-1.24 57.15 53.86 143.39 70.63 219 35.58a197.67 197.67 0 0 0 55.18-38.23 369.74 369.74 0 0 1-65.62 17.86c-47.1 7.92-98.7 3.85-136.23-28.85Z" class="colord6d6d6 svgShape"/><path fill="#d6d6d6" d="m2038.37 1720.2-642 302.42c-9.76 4.56-13.2 17.85-7.66 29.79s17.94 17.94 27.68 13.42l642-302.45c9.75-4.54 13.19-17.87 7.65-29.82s-17.93-17.88-27.67-13.36Z" class="colord6d6d6 svgShape"/><path fill="#b9f0ff" d="M1733.32 1922.64c-9.81-5.26-34.09-10.66-34.09-10.66-17.72-6.53-49.47-12.67-66.33-15.77-79.5-33.7-222-113.21-266.31-126.53L1254.13 1873c41 39.8 241.77 78.24 345.22 98.27 16.31 33.49 20.48 37.34 29.49 49.69 9.83 13.5 21.22 16.12 32.29 10.68 10.42 3.72 25.42-.51 30.26-12.21 7.62 2.54 27.2 2 29-16.27 18.05-5.34 20.6-16 17.61-28a140.07 140.07 0 0 0-4.61-13.9c6.58 0 12.84-.3 16.62-1.35 11.06-3 24.29-18.41 20.6-25.93s-27.48-6.07-37.29-11.34ZM2106.22 1810.63c-12.78-8.39-30.54-23.61-44.54-29-13-5-22.21 1.08-22.2 7-20.86-12.67-36.3-2.73-35.94 4.55 1.3 4.31 8.28 9.53 11.49 11.64-17.82-8.23-32 6.5-27.86 13.35 1.93 3.2 13.79 14.79 17.6 17.61-.55-.19-11.42-6.08-17.93-5.79-13.74.61-12.61 9.07-6 17.33a87.73 87.73 0 0 0 28.07 23.1c15.26 4.14 70.89-33 77.69-38.26 14.71.2 25.61-17.6 19.62-21.53Z" class="colorffb9b9 svgShape"/><path fill="#7edcf5" d="M2095.62 1819.16c-25.94-9.25-54.18-29.55-54.46-29.75a1.91 1.91 0 1 0-2.24 3.09c.29.21 29 20.83 55.42 30.26a2.05 2.05 0 0 0 .64.11 1.91 1.91 0 0 0 .64-3.71ZM2071.28 1840.11c-32-11.73-56.53-36.68-56.77-36.93a1.91 1.91 0 1 0-2.74 2.66c.25.26 25.34 25.82 58.2 37.86a1.88 1.88 0 0 0 .66.12 1.91 1.91 0 0 0 .65-3.71ZM2039.14 1853.72c-15.13-4.36-33.9-19.39-34.09-19.54a1.91 1.91 0 1 0-2.4 3c.79.64 19.56 15.67 35.43 20.24a2 2 0 0 0 .53.07 1.91 1.91 0 0 0 .53-3.74Z" class="colorf5927e svgShape"/><path fill="#eef7f9" d="M1440.5 1134.46a28 28 0 0 0-16.21 16.35 35.15 35.15 0 0 0 16.16 43.11 29.12 29.12 0 0 0 13.46 3.38 27 27 0 0 0 9.5-1.72c15.23-5.71 22.49-24.07 16.17-40.92s-23.85-25.91-39.08-20.2Zm21.86 58.32a25 25 0 0 1-20.53-1.52 32.16 32.16 0 0 1-14.76-39.36 25 25 0 0 1 14.48-14.64 23.92 23.92 0 0 1 8.41-1.52c11.22 0 22.24 7.74 26.82 20 5.74 15.26-.73 31.91-14.42 37.04ZM1532.89 1110.1a27.94 27.94 0 0 0-23-1.66c-15.23 5.71-22.49 24.06-16.17 40.91 5 13.43 17.19 21.91 29.63 21.91a26.81 26.81 0 0 0 9.45-1.71 28 28 0 0 0 16.21-16.34 35.15 35.15 0 0 0-16.16-43.11Zm13.38 42a25 25 0 0 1-14.48 14.63c-13.69 5.13-29.49-3.14-35.23-18.45s.73-31.93 14.42-37.07a24.09 24.09 0 0 1 8.45-1.53 26.08 26.08 0 0 1 12.08 3 32.18 32.18 0 0 1 14.76 39.37Z" class="coloreef6f9 svgShape"/><path fill="#eef7f9" d="M1494.86 1144.2c-8.74-5.21-19.53 6.45-20 7a1.49 1.49 0 0 0 .09 2.11 1.49 1.49 0 0 0 2.11-.1c.1-.1 9.61-10.36 16.25-6.39a1.5 1.5 0 1 0 1.53-2.57ZM1423.41 1166.76l-77.33 30.24a1.49 1.49 0 0 0 .54 2.88 1.44 1.44 0 0 0 .54-.1l77.34-30.2a1.5 1.5 0 1 0-1.09-2.79Z" class="coloreef6f9 svgShape"/><path fill="#b9f0ff" d="m1472 1274.67-5.19-83.34-143.2-15.6-10 144.6c18.64 32.91 63.62 46.23 109.23 46.8 12.58.15 40.26-7.75 53.24-26.58l-.65-10.27Z" class="colorffb9b9 svgShape"/><path fill="#b9f0ff" d="M1527 1138.66c-14.12-56.68-41.35-109.1-41.35-109.1-73.41-91.88-197.3 21-177.73 125 10 52.73 58.57 99.17 104.3 116.32 43.78 16.47 94 .23 108.29-19 13.25-17.87 16.42-43 14-70.13a272.88 272.88 0 0 0-7.51-43.09Z" class="colorffb9b9 svgShape"/><path fill="#8ce0f6" d="M1388.34 1272.07s47.05 68.37 87.13 58.21l-3.46-55.61c-52.88 9.39-83.67-2.6-83.67-2.6Z" class="colorf68c9a svgShape"/><path fill="#62c4de" d="M1492.15 1167.53a111 111 0 0 0-11 1.4c-9.25-17.14-12.49-47.43-12.52-47.74a2.78 2.78 0 1 0-5.53.58c.14 1.37 3.62 33.87 14.22 51.68a2.79 2.79 0 0 0 3 1.31c12.43-2.55 23.47-2.23 24.33-.27 1.13 2.62-5.14 14.54-13.44 25.51a2.78 2.78 0 0 0 .54 3.9 2.82 2.82 0 0 0 1.67.56 2.74 2.74 0 0 0 2.22-1.11c4.12-5.43 17.29-23.75 14.1-31.08-1.8-3.96-7.37-5.47-17.59-4.74Z" class="colorde6277 svgShape"/><path fill="#0f2a31" d="M1429.73 1150.48c-4 1.6-5.63 6.65-3.76 11.29s6.6 7.09 10.56 5.49 5.63-6.65 3.76-11.29-6.6-7.09-10.56-5.49ZM1505.11 1132.22c-3.95 1.6-5.64 6.66-3.76 11.29s6.6 7.1 10.55 5.5 5.64-6.66 3.76-11.29-6.6-7.1-10.55-5.5Z" class="color0f1231 svgShape"/><path fill="#62c4de" d="M1498.83 1214.18c-18.95 17.08-37.36 5-38.14 4.52a2.78 2.78 0 1 0-3.12 4.6 38.15 38.15 0 0 0 19.53 5.48c7.56 0 16.53-2.42 25.46-10.47a2.78 2.78 0 1 0-3.73-4.13Z" class="colorde6277 svgShape"/><path fill="#0b0d0e" d="M1429.51 1098.18c-11.58 2.2-25 25.78-19.9 37.29 0 0 12.33-15.1 28.8-22.6s2.69-16.87-8.9-14.69ZM1493.53 1088.12c-13-.94-28 17.28-10.2 15.05s33.45 6.92 33.45 6.92-6.44-20.75-23.25-21.97Z" class="color0e0d0b svgShape"/><path fill="#8ce0f6" d="M1412.14 1174.58c-17.18 4.27-28.3 19.05-24.84 33s20.21 21.83 37.39 17.57 28.3-19.05 24.84-33-20.21-21.83-37.39-17.57ZM1519.07 1173.13c2.83 6.69 8.79 11.35 16.17 13.35a272.88 272.88 0 0 0-7.53-43.09c-9.06 8.09-12.91 19.76-8.64 29.74Z" class="colorf68c9a svgShape"/><path d="M1343.74 981.92c-76 33.34-63.9 88.9-63.9 88.9-65.36 61.37 45.38 177.48 45.38 177.48 15.94-7.42 19.48-19 19.49-27.65-10.44-5.25-23.25-23.5-26-43-3.27-22.78 10.8-33.53 20.5-31.84 9.58 1.85 20.89 22.88 20.89 22.88l8.42-92.28s45.5 1.44 94.79-1c29-1.41 78.06-2.28 78.06-2.28-22.23-133.81-130.82-120.53-197.63-91.21Z" class="color000000 svgShape"/><path fill="#257a91" d="M1489.84 1026c-25.6-18-58.17-27.9-100.1-18.45s-104.85 57.55-68.89 60.1c115.23 8.2 85.42-6.42 56.49-26.16-35.34-24.14 138.11 2.51 112.5-15.49Z" class="color913325 svgShape"/><path fill="#b9f0ff" d="M1359.35 1163.5a27.17 27.17 0 0 0-21.56-19.52 13.9 13.9 0 0 0-5.88.13c-6.43 1.9-11.72 6.94-15.37 12.94-17.11 28.16 14.76 70.13 46.83 59 11.78-4.09 5.55-19.51 5.55-19.51Z" class="colorffb9b9 svgShape"/><path fill="#8ce0f6" d="M1334.16 1160.06a3 3 0 1 0-.87 5.9c19.1 2.8 17.6 26.9 17.53 27.92a3 3 0 0 0 2.54 3.17h.22a3 3 0 0 0 3.18-2.75c.79-10.57-2.92-31.3-22.6-34.24Z" class="colorf68c9a svgShape"/><path fill="#1bc3f0" d="M1467 962.12c-20.36-24.75-50.63-48.33-91.74-47.87a120.9 120.9 0 0 0-36.15 6.22 222.36 222.36 0 0 0-40.9 17.64c-41.74 23.62-64.34 58.58-66.83 105.3a200.07 200.07 0 0 0 3.88 48.75q1.72 8.91 4.19 18.24a8.65 8.65 0 0 0 11.18 5.95l.38-.14 89.74-35.67 16.85-6.7 43.54-17.3 98.34-39.09c-.38-1.31-5.56-14.93-15.88-31.87a205.29 205.29 0 0 0-16.6-23.46Z" class="colorf07f1b svgShape"/><path fill="#1bc3f0" d="M1507.07 990.82c-1.56-.39-3.14-.76-4.73-1.09-1.39-.3-2.8-.58-4.21-.82a114.82 114.82 0 0 0-18.57-1.94c-8.33-.14-16.14.86-22.56 3.42-24 9.54-62.17 44.29-85.07 66.5-9.33 9-16.11 16-18.37 18.34l-.81.84s26-6.82 59-16.18a993.5 993.5 0 0 0 97-33.14c29.6-12.09 45.12-25.32 42.16-29-5.07-6.54-25.24-2.35-43.84-6.93Z" class="colorf07f1b svgShape"/><path fill="#21cefc" d="M1466.57 951.46c-20.36-24.75-50.63-48.33-91.75-47.88a121.19 121.19 0 0 0-36.14 6.23 222.05 222.05 0 0 0-40.9 17.63c-41.78 23.62-64.35 58.56-66.78 105.3a200.15 200.15 0 0 0 3.88 48.76q1.73 8.89 4.19 18.23a8.64 8.64 0 0 0 11.18 6l.38-.14 89.74-35.66 16.85-6.7 43.54-17.31 98.33-39.09c-.38-1.3-5.55-14.93-15.88-31.86a203 203 0 0 0-16.64-23.51Z" class="colorfcbe21 svgShape"/><path fill="#6addfc" d="M1231 1032.74c64.35-44 69-85.91 66.83-105.3-41.83 23.62-64.4 58.56-66.83 105.3Z" class="colorfcd86a svgShape"/><path fill="#14cbfc" d="M1466.57 951.46c-20.36-24.75-50.63-48.33-91.75-47.88 12.75 18.55 28 46.31 25.12 70-4.34 35.9-91.72 96.42-165.11 108q1.73 8.89 4.19 18.23a8.64 8.64 0 0 0 11.18 6l.38-.14 89.74-35.66 16.85-6.7 43.54-17.31 98.33-39.09c-.38-1.3-5.55-14.93-15.88-31.86a203 203 0 0 0-16.59-23.59Z" class="colorfca214 svgShape"/><path fill="#1bc3f0" d="M1295.55 974.55c-22.83-1.89-41.61 3.72-56.91 17.11-12.08 10.63-11.73 23.15-6.86 30.79 15.31-18.54 42.53-28.11 65.73-25.86 57.06 5.56 98.47 35.55 111.21 44.5-29.88-50.4-87.34-64.36-113.17-66.54ZM1418.09 910.35c-15.39-11.71-50.71-18.77-71.77-14.83-26.86 5.06-47.41 17.93-48.41 31.59 34.59-14.09 85.18-14.06 113.47 3.48s46.32 45.53 58.91 74.85c-1.89-34.6-22.66-72.57-52.2-95.09Z" class="colorf07f1b svgShape"/><path fill="#1bc3f0" d="M1446.51 931c20.4 19.39 46 47.81 41.92 79.32 12.61-14.42 8.46-33.6.35-50.27-5.92-12.22-21.15-29.42-42.27-29.05Z" class="colorf07f1b svgShape"/><path fill="#6addfc" d="M1510.67 978.77c-1.56-.39-3.14-.76-4.72-1.09-1.39-.3-2.8-.58-4.21-.83a116 116 0 0 0-18.58-1.93c-8.32-.14-16.13.86-22.55 3.41-24 9.55-62.17 44.3-85.07 66.51-9.33 9-16.11 16-18.37 18.34l-.82.84s26-6.83 59.06-16.18c32.34-9.16 71.39-20.75 99.33-30.72 23.56-8.42 39.21-15.69 36.25-19.4-5.15-6.51-21.71-14.37-40.32-18.95Z" class="colorfcd86a svgShape"/><path fill="#8ee6fd" d="M1474.64 983.61c-9.13.3-18.78 12.88-18.56 15.35s29.31 4.6 49.37 8c8.39 1.43 29.57-11.83 29.57-11.83-27.29-13.44-60.38-11.52-60.38-11.52ZM1450 1006.16c-4.94.43-18.17 18.86-18.47 25.34s50.75-13.46 56.87-18.77-36.95-6.73-38.4-6.57Z" class="colorfde18e svgShape"/><path fill="#29778c" d="M3584.21 2649.38H977.28a81 81 0 0 0-81 81V2760h2769v-29.59a81 81 0 0 0-81.07-81.03Z" class="color8c293d svgShape"/><path fill="#40a7c3" d="M3828.72 903.31h-417.34a22 22 0 0 0-21.91 21.92v153.64a22 22 0 0 0 21.91 21.91h119.87a22 22 0 0 1 21.92 21.92v38.87c0 12.06 7.11 15.08 15.8 6.73l54.39-52.32c8.69-8.36 25.66-15.2 37.72-15.2h167.64a22 22 0 0 0 21.92-21.91V925.23a22 22 0 0 0-21.92-21.92Z" class="color4060c3 svgShape"/><path fill="#fff" d="M3803 949.71h-365.89a7.91 7.91 0 1 0 0 15.82H3803a7.91 7.91 0 0 0 0-15.82ZM3803 989.16h-365.89a7.91 7.91 0 1 0 0 15.82H3803a7.91 7.91 0 0 0 0-15.82ZM3695.58 1028.61h-258.42a7.91 7.91 0 1 0 0 15.82h258.42a7.91 7.91 0 0 0 0-15.82Z" class="colorffffff svgShape"/><circle cx="1340.2" cy="639.98" r="169.38" fill="#1dc8f6" class="colorf61d6b svgShape" transform="rotate(-45 1340.199 639.981)"/><path fill="#1dc8f6" d="m1417.46 775.27 77.62 23.71-15.55-82.13-62.07 58.42z" class="colorf61d6b svgShape"/><path fill="#fff" d="M1263.93 617.66a22.33 22.33 0 1 0 22.33 22.34 22.32 22.32 0 0 0-22.33-22.34ZM1336.45 617.66a22.33 22.33 0 1 0 22.32 22.34 22.32 22.32 0 0 0-22.32-22.34ZM1412.71 617.66A22.33 22.33 0 1 0 1435 640a22.32 22.32 0 0 0-22.29-22.34Z" class="colorffffff svgShape"/><circle cx="3862.42" cy="1546.25" r="208.61" fill="#3098b4" class="colorb4303f svgShape" transform="rotate(-45 3862.42 1546.254)"/><circle cx="3872.04" cy="1540.79" r="197.74" fill="#38cdf5" class="colorf53856 svgShape" transform="rotate(-45 3872.036 1540.79)"/><circle cx="3872.04" cy="1540.79" r="165.31" fill="#fff" class="colorffffff svgShape" transform="rotate(-45 3872.036 1540.79)"/><circle cx="3872.04" cy="1540.79" r="134.9" fill="#38cdf5" class="colorf53856 svgShape" transform="rotate(-45 3872.036 1540.79)"/><circle cx="3872.04" cy="1540.79" r="92.37" fill="#fff" class="colorffffff svgShape" transform="rotate(-12.41 3871.703 1540.69)"/><circle cx="3872.04" cy="1540.79" r="60.52" fill="#38cdf5" class="colorf53856 svgShape" transform="rotate(-2.11 3863.79 1537.55)"/><circle cx="3872.04" cy="1540.79" r="29.32" fill="#fff" class="colorffffff svgShape" transform="rotate(-42.04 3871.775 1540.784)"/><path fill="#38cdf5" d="M3875.81 1525.25a16 16 0 1 0 11.76 19.31 16 16 0 0 0-11.76-19.31Z" class="colorf53856 svgShape"/><path fill="#40a7c3" d="m4004.52 1459.7 53.28 12.58 77.11-47-14.64-14.18 30 4.83 44.07-26.84-52.13-13.28c-5.74 3.54-137.69 83.89-137.69 83.89Z" class="color4060c3 svgShape"/><path fill="#40a7c3" d="M4057.55 1404.28c-.49.79-2.87-10.21-5.38-18.63l-34.38 20.94-13.27 53.11s132-80.35 137.68-83.85l12.12-52.41-87.82 53.49c-4.5 13.77-8.5 26.59-8.95 27.35Z" class="color4060c3 svgShape"/><path fill="#01161c" d="M4135.5 1370.5 3868 1533.43a8.06 8.06 0 1 0 8.38 13.77l267.54-162.93a8.06 8.06 0 0 0-8.38-13.77Z" class="color1c0301 svgShape"/></g></svg>