<svg xmlns="http://www.w3.org/2000/svg" viewBox="0 0 3112 2175"><g class="color000000 svgShape" data-name="Ñëîé 1"><ellipse cx="1277.9" cy="1026.19" fill="#b5e8f5" class="coloreaf5b5 svgShape" rx="851.22" ry="867.8"/><circle cx="2170.05" cy="1170.91" r="774.94" fill="#b5e8f5" class="coloreaf5b5 svgShape"/><path fill="#6cb3c6" d="M545.56 560.58h18.28V1963.7h-18.28z" class="colorb5c66c svgShape"/><path fill="#6cb3c6" d="M549.27 602.08c-26.41-13.41-115-75.89-6.83-275.21 5.81-10.7 21.35-10.78 26.93.05 31.79 61.58 101.89 223.26-6.87 275.35a15 15 0 0 1-13.23-.19ZM545.19 770.27c-25 15.83-123.82 59.94-239.68-134.55-6.24-10.47 1.64-23.86 13.8-23.13 69.11 4.15 243.58 26.5 232.8 146.4a15.07 15.07 0 0 1-6.92 11.28Z" class="colorb5c66c svgShape"/><path fill="#6cb3c6" d="M562 770.27c25 15.83 123.82 59.94 239.68-134.55 6.24-10.47-1.64-23.86-13.8-23.13C718.73 616.74 544.27 639.09 555 759a15.07 15.07 0 0 0 7 11.27ZM544.93 1027.24c-27.2 17.7-143.24 73-279.23-158.12a15.24 15.24 0 0 1 13.86-23c76.54 4.12 286.16 28.32 272.21 170a15.1 15.1 0 0 1-6.84 11.12Z" class="colorb5c66c svgShape"/><path fill="#6cb3c6" d="M562.22 1027.24c27.2 17.7 143.24 73 279.24-158.12a15.25 15.25 0 0 0-13.86-23c-76.55 4.12-286.16 28.32-272.22 170a15.13 15.13 0 0 0 6.84 11.12ZM544.57 1330.78c-30.3 20.45-175.73 95.88-346.11-197.74-6.06-10.45 1.58-23.52 13.65-23 87.75 4 358.32 30.91 339.1 209.72a15.29 15.29 0 0 1-6.64 11.02Z" class="colorb5c66c svgShape"/><path fill="#6cb3c6" d="M562.58 1330.78c30.3 20.45 175.73 95.88 346.11-197.74 6.06-10.45-1.58-23.52-13.64-23-87.76 4-358.33 30.91-339.11 209.72a15.29 15.29 0 0 0 6.64 11.02ZM544 1679.39c-33.93 23.68-218.3 126.61-434.25-250.22a15.1 15.1 0 0 1 13.66-22.6c101 3.91 453.4 33.91 427 262a15.34 15.34 0 0 1-6.41 10.82Z" class="colorb5c66c svgShape"/><path fill="#6cb3c6" d="M563.15 1679.39c33.93 23.68 218.3 126.57 434.25-250.22a15.1 15.1 0 0 0-13.65-22.6c-101 3.91-453.4 33.91-427 262a15.27 15.27 0 0 0 6.4 10.82ZM2564.25 612.8h17.72v1360.35h-17.72z" class="colorb5c66c svgShape"/><path fill="#6cb3c6" d="M2567.84 653c-25.61-13-111.49-73.58-6.62-266.82 5.64-10.38 20.7-10.45 26.11 0 30.82 59.71 98.78 216.46-6.66 267a14.6 14.6 0 0 1-12.83-.18ZM2563.88 816.1c-24.24 15.34-120 58.11-232.37-130.45-6-10.15 1.6-23.13 13.38-22.42 67 4 236.15 25.69 225.7 141.93a14.58 14.58 0 0 1-6.71 10.94Z" class="colorb5c66c svgShape"/><path fill="#6cb3c6" d="M2580.15 816.1c24.24 15.34 120 58.11 232.37-130.45 6-10.15-1.59-23.13-13.38-22.42-67 4-236.15 25.69-225.7 141.93a14.58 14.58 0 0 0 6.71 10.94ZM2563.63 1065.24c-26.37 17.15-138.87 70.75-270.72-153.3a14.79 14.79 0 0 1 13.44-22.31c74.21 4 277.44 27.45 263.92 164.81a14.68 14.68 0 0 1-6.64 10.8Z" class="colorb5c66c svgShape"/><path fill="#6cb3c6" d="M2580.4 1065.24c26.37 17.15 138.87 70.75 270.72-153.3a14.78 14.78 0 0 0-13.44-22.31c-74.21 4-277.43 27.45-263.92 164.81a14.68 14.68 0 0 0 6.64 10.8ZM2563.29 1359.52c-29.38 19.83-170.37 93-335.56-191.72-5.88-10.13 1.53-22.79 13.23-22.26 85.08 3.9 347.4 30 328.76 203.32a14.81 14.81 0 0 1-6.43 10.66Z" class="colorb5c66c svgShape"/><path fill="#6cb3c6" d="M2580.75 1359.52c29.37 19.83 170.37 93 335.55-191.72 5.88-10.13-1.52-22.79-13.22-22.26-85.08 3.9-347.41 30-328.77 203.32a14.83 14.83 0 0 0 6.44 10.66ZM2562.74 1697.5c-32.9 23-211.65 122.72-421-242.59A14.64 14.64 0 0 1 2155 1433c97.94 3.79 439.58 32.88 414 254.06a14.8 14.8 0 0 1-6.26 10.44Z" class="colorb5c66c svgShape"/><path fill="#6cb3c6" d="M2581.29 1697.5c32.91 23 211.66 122.72 421-242.59a14.64 14.64 0 0 0-13.24-21.91c-97.94 3.79-439.57 32.88-414 254.06a14.84 14.84 0 0 0 6.24 10.44Z" class="colorb5c66c svgShape"/><path fill="#4e8b9b" d="M2745.21 1989a5.69 5.69 0 0 1-4.4-6.54c22.73-130 186.1-267.87 193.05-273.67a5.68 5.68 0 0 1 7.29 8.71c-1.67 1.4-167.13 141-189.15 266.92a5.67 5.67 0 0 1-6.57 4.62Z" class="color899b4e svgShape"/><path fill="#4e8b9b" d="M2845 1889.62c8.18 3.56 15.81 8.56 24.46 10.76s19.09.83 24.44-6.31c7.14-9.53 1.33-23.83-8-31.26-12-9.56-28.41-12-43.61-10s-29.54 8-43.66 14a80.38 80.38 0 0 0-.62-61.07c-5.35-12.47-17.87-24.88-30.72-20.51-9 3.06-13.68 13.6-12.83 23s6 17.91 11.62 25.57 11.82 15 15.33 23.86a44.41 44.41 0 0 1-.12 32.76 78.58 78.58 0 0 1 63.71-.8Z" class="color899b4e svgShape"/><path fill="#4e8b9b" d="M2815 1759.52a100.41 100.41 0 0 1 9.56 70.62 169.8 169.8 0 0 1 71 6.77c6.91 2.19 13.84 4.86 21.09 5s15.1-2.93 18.33-9.42c3.56-7.17.23-16.28-5.81-21.54s-14.13-7.42-22-8.83c-20.78-3.74-42.95-3.2-62.08 5.74a110.07 110.07 0 0 0 6.19-49.12c-1.19-11.63-4.88-24-14.4-30.79s-25.86-4-29.07 7.19c-2.41 8.37 3 16.73 7.19 24.38Z" class="color899b4e svgShape"/><path fill="#4e8b9b" d="M2877.27 1770.66a55.18 55.18 0 0 0-2.19-37.33c-3.35-7.78-8.48-14.69-12-22.42s-5.19-17-1.45-24.56c3.4-6.91 11.1-11.28 18.8-11.29a25.54 25.54 0 0 1 19.83 10.21c6.35 8.33 7.56 19.55 6.59 30s-3.84 20.62-4.71 31.06c14.87-9.91 34.22-9.6 51.9-7 12.5 1.84 26.1 5.46 33.12 16a17.58 17.58 0 0 1 3.21 9.15c.28 10.45-11.77 17.49-22.21 16.82s-19.77-6.36-29.51-10.18a86.35 86.35 0 0 0-61.38-.46Z" class="color899b4e svgShape"/><path fill="#4e8b9b" d="M2983.23 1637.44c-8.26-4.06-18.32.27-25.2 6.39-13.45 12-19.89 29.74-25.81 46.73l-14.62 41.9c15.93-5.56 28.92-17.1 41.46-28.38 10.43-9.38 21-19 28.1-31.09 3.38-5.79 5.93-12.31 5.72-19s-3.62-13.6-9.65-16.55Z" class="color899b4e svgShape"/><rect width="2540.34" height="55.03" x="354.74" y="1961.58" fill="#4e8b9b" class="color899b4e svgShape" rx="11.61" transform="rotate(180 1624.915 1989.095)"/><path fill="#91bbc6" d="m1391.64 389 5.81 20.56 21.59-1.72a68.37 68.37 0 0 0 13.78 18.27c.14.14.3.25.45.38l-6.9 20.83 17.76 11 15.46-16.95a65.47 65.47 0 0 0 23.18 2.42l9.13 20.38 20.15-4.82-.19-24.78a69.12 69.12 0 0 0 16.68-13.89c.16-.19.3-.4.46-.59l20.58 7.13 10.42-18.53-16.52-15.93a73.2 73.2 0 0 0 2.6-24.33l18.18-8.84-4.74-20.85-21.76.27a68.25 68.25 0 0 0-13.43-17.59c-.39-.37-.82-.67-1.21-1l5.71-20.46-18.14-10.28-13.56 16.4a65.69 65.69 0 0 0-22.85-2.28l-11-19.83-19.74 6.37 2.06 22.5a68.93 68.93 0 0 0-17 14.06c-.37.41-.67.87-1 1.29l-21.26-6.74-10.2 18.63 17.2 15.75a73.41 73.41 0 0 0-2.4 22.14Zm52.18-47.8c17.53-20 47.25-21.84 66.26-4s20.21 48.65 2.67 68.7-47.26 21.84-66.26 4-20.21-48.68-2.67-68.73Z" class="colorbcc691 svgShape"/><path d="m1003.54 460.47 10.68 37.8 39.69-3.18a125.57 125.57 0 0 0 25.33 33.61c.27.25.56.45.83.7l-12.67 38.29 32.6 20.18 28.43-31.15a120.59 120.59 0 0 0 42.61 4.45l16.8 37.47 37-8.87-.36-45.56a126.69 126.69 0 0 0 30.67-25.54c.3-.35.55-.72.85-1.08l37.83 13.1 19.23-34-30.38-29.28a134.87 134.87 0 0 0 4.78-44.74l33.54-16.22-8.71-38.34-40 .5a125.74 125.74 0 0 0-24.71-32.35c-.72-.68-1.49-1.24-2.22-1.89l10.49-37.62-33.35-18.9-24.96 30.15a120.42 120.42 0 0 0-42-4.19l-20.22-36.47-36.32 11.72 3.78 41.37a126.82 126.82 0 0 0-31.25 25.85c-.67.77-1.22 1.59-1.87 2.37l-39.08-12.39-18.77 34.25 31.63 29a134.51 134.51 0 0 0-4.4 40.71Zm95.92-87.89c32.24-36.86 86.89-40.16 121.84-7.37s37.15 89.47 4.91 126.33-86.89 40.15-121.83 7.35-37.15-89.45-4.92-126.31Z" style="mix-blend-mode:multiply" fill="#b5e8f5" class="coloreaf5b5 svgShape"/><path d="m861.52 619.27 3.11 11 11.52-.92a36.57 36.57 0 0 0 7.36 9.76c.08.07.17.13.24.2l-3.68 11.13 9.49 5.86 8.25-9a34.86 34.86 0 0 0 12.38 1.29l4.88 10.89 10.76-2.58-.1-13.23a37.1 37.1 0 0 0 8.91-7.42 3.81 3.81 0 0 0 .24-.32l11 3.81 5.59-9.87-8.83-8.51a38.89 38.89 0 0 0 1.39-13l9.71-4.72-2.53-11.14-11.62.15a36.73 36.73 0 0 0-7.17-9.4c-.21-.2-.44-.36-.65-.55l3-10.93-9.69-5.49-7.2 8.72a35.27 35.27 0 0 0-12.21-1.22l-5.87-10.59-10.54 3.41 1.1 12a37 37 0 0 0-9.08 7.51c-.19.22-.35.46-.54.69l-11.36-3.6-5.45 9.95 9.19 8.41a39.5 39.5 0 0 0-1.28 11.83Zm27.87-25.53c9.36-10.71 25.24-11.67 35.39-2.14s10.79 26 1.43 36.7-25.21 11.7-35.39 2.13-10.82-25.98-1.43-36.69Z" style="mix-blend-mode:multiply" fill="#b5e8f5" class="coloreaf5b5 svgShape" opacity=".76"/><path fill="#91bbc6" d="m1114.58 1961.08 102.81-178.07-102.81-178.07H908.96l-102.81 178.07 102.81 178.07h205.62z" class="colorbcc691 svgShape"/><circle cx="1011.77" cy="1783.01" r="110.06" fill="#b5e8f5" class="coloreaf5b5 svgShape" transform="rotate(-45 1011.768 1783.012)"/><circle cx="1011.77" cy="1783.01" r="70.97" fill="#47646c" class="color47536c svgShape"/><path fill="#92e8ff" d="m2333.9 894.88-86.58 64.54L2087.55 876l-17.31 23.62s133.79 145.6 173.15 140.88 147.17-85.79 147.17-85.79ZM2655.67 877.42S2782 1010.57 2782 1034.32s-38.16 66.15-152.66 122.13l-14.34-26.29 88.21-95-78-88.21ZM2440.06 1914.39l3.39-135.8-48.35-6.32-3.79 131.5 48.75 10.62z" class="colorffa192 svgShape"/><path fill="#6be0ff" d="M2440.62 1904.11s3.66 32.76-1.87 58.89l-146.07 2.63s-9.51-27.85 23.38-35.45 74.91-33.5 74.91-33.5 29.95 24.8 49.65 7.43Z" class="colorffbe6b svgShape"/><path fill="#ebf1f3" d="m2438.79 1963-146.07 2.63a30.64 30.64 0 0 1-.72-14.63l148.84-2.63c.04 4.96-1.05 9.89-2.05 14.63Z" class="colorf3edeb svgShape"/><path fill="#303030" d="M2392.91 1928.78a10.15 10.15 0 0 1-3.76-4.08 26 26 0 0 1-2.86-11.86 46.87 46.87 0 0 1 .9-11.24c-7 1.84-14.19 3.42-21.37 4.67a30.92 30.92 0 0 1-5.26.57 11.86 11.86 0 0 1-4.81-.91 4.13 4.13 0 0 1-2.61-2.72c-.35-1.51.47-3.09 2.25-4.34 3.94-2.81 9-3.2 13.35-3.22h.3a93.34 93.34 0 0 1 10 .54c3.86.43 8.25 1.23 11.53 3.88a21.31 21.31 0 0 1 5.13 6.84 73 73 0 0 1 4.92 11.73 14.79 14.79 0 0 1 .89 5.32 6.14 6.14 0 0 1-2.82 5 5.3 5.3 0 0 1-2.61.67 6.51 6.51 0 0 1-3.17-.85Zm-4.72-16a24.23 24.23 0 0 0 2.63 11 8.43 8.43 0 0 0 3 3.35 4.06 4.06 0 0 0 3.91.19 4.37 4.37 0 0 0 1.88-3.49 13 13 0 0 0-.81-4.6 69.1 69.1 0 0 0-4.79-11.41 19.52 19.52 0 0 0-4.64-6.27l-.22-.16a45.59 45.59 0 0 0-.96 11.38Zm-9.32-14.68a89.67 89.67 0 0 0-9.83-.54h-.3c-4.08 0-8.74.38-12.26 2.89-.4.29-1.72 1.3-1.49 2.34.17.72 1 1.18 1.52 1.4a9.93 9.93 0 0 0 4 .75 30.88 30.88 0 0 0 4.92-.53c7.06-1.24 14.11-2.78 21-4.59a26.86 26.86 0 0 0-7.56-1.73ZM2292 1951.92l148.16-2.68a.93.93 0 0 0 .92-1 .94.94 0 0 0-.95-.93L2292 1950a1 1 0 0 0 0 1.91Z" class="color303030 svgShape"/><path fill="#303030" d="M2399.49 1949.73a.93.93 0 0 0 .94-.81c4.24-29.24 33.88-30.66 39.6-30.66h.82a1 1 0 0 0 1.07-.91 1 1 0 0 0-.92-1c-.35 0-37.61-1.16-42.44 32.28a.93.93 0 0 0 .8 1.07ZM2381.6 1950.22a1 1 0 0 0 .47-1.78l-.59-.34a90.2 90.2 0 0 0-43.8-11.57l-37-.15a1 1 0 0 0-.95.95.94.94 0 0 0 .95 1l37 .15a88.23 88.23 0 0 1 42.86 11.33l.59.33a.9.9 0 0 0 .47.08ZM2350.81 1931.84a.92.92 0 0 0 .43-.09l51.54-25.31a1 1 0 1 0-.85-1.72l-50.82 25-6.68-9.14a1 1 0 0 0-1.34-.21 1 1 0 0 0-.21 1.33l7.16 9.79a1 1 0 0 0 .77.35Z" class="color303030 svgShape"/><path fill="#92e8ff" d="m2608.59 1914.39-3.39-135.8 48.36-6.32 3.78 131.5-48.75 10.62z" class="colorffa192 svgShape"/><path fill="#6be0ff" d="M2608 1904.11s-3.66 32.76 1.87 58.89l146.08 2.63s9.51-27.85-23.38-35.45-74.92-33.5-74.92-33.5-29.92 24.8-49.65 7.43Z" class="colorffbe6b svgShape"/><path fill="#ebf1f3" d="m2609.86 1963 146.08 2.63a30.72 30.72 0 0 0 .67-14.66l-148.84-2.63c0 4.99 1.09 9.92 2.09 14.66Z" class="colorf3edeb svgShape"/><path fill="#303030" d="M2649.92 1929a6.14 6.14 0 0 1-2.81-5 14.39 14.39 0 0 1 .9-5.32 73.35 73.35 0 0 1 4.91-11.73 21.21 21.21 0 0 1 5.13-6.85c3.29-2.64 7.68-3.44 11.52-3.87a93.71 93.71 0 0 1 10-.54h.3c4.38 0 9.39.41 13.34 3.22 1.78 1.26 2.61 2.84 2.26 4.34a4.1 4.1 0 0 1-2.63 2.72 11.73 11.73 0 0 1-4.81.91 30.92 30.92 0 0 1-5.25-.57 261.11 261.11 0 0 1-21.36-4.67 47.08 47.08 0 0 1 .9 11.24 26 26 0 0 1-2.88 11.86 10.21 10.21 0 0 1-3.75 4.08 6.5 6.5 0 0 1-3.19.86 5.44 5.44 0 0 1-2.58-.68Zm9.33-27.43a19.44 19.44 0 0 0-4.64 6.27 71.24 71.24 0 0 0-4.79 11.41 13.1 13.1 0 0 0-.81 4.6 4.3 4.3 0 0 0 1.88 3.49 4.06 4.06 0 0 0 3.91-.19 8.43 8.43 0 0 0 3-3.35 24.35 24.35 0 0 0 2.64-11 47.35 47.35 0 0 0-1-11.39Zm10.53-3.45a26.87 26.87 0 0 0-7.59 1.72c6.89 1.81 13.94 3.35 21 4.59a31 31 0 0 0 4.92.53 9.83 9.83 0 0 0 4.05-.75c.4-.18 1.37-.67 1.53-1.4.24-1-1.09-2-1.49-2.34-3.53-2.51-8.17-2.87-12.25-2.89h-.3a89.72 89.72 0 0 0-9.87.51ZM2756.62 1951.92a1 1 0 0 0 0-1.91l-148.15-2.67a1 1 0 0 0-1 .93.94.94 0 0 0 .93 1l148.16 2.68Z" class="color303030 svgShape"/><path fill="#303030" d="M2649.15 1949.73h.14a.93.93 0 0 0 .8-1.07c-4.83-33.44-42.15-32.29-42.43-32.28a1 1 0 0 0 0 1.9h.94c5.72 0 35.34 1.42 39.58 30.66a.94.94 0 0 0 .97.79ZM2667.06 1950.22a.94.94 0 0 0 .48-.13l.58-.33a88.18 88.18 0 0 1 42.86-11.33l37-.15a.94.94 0 0 0 .95-1 1 1 0 0 0-.95-.95l-37 .15a90.18 90.18 0 0 0-43.81 11.57l-.59.34a1 1 0 0 0 .48 1.78ZM2697.85 1931.84a1 1 0 0 0 .77-.39l7.16-9.79a1 1 0 0 0-.22-1.33 1 1 0 0 0-1.33.21l-6.68 9.14-50.84-25a1 1 0 0 0-1.28.44 1 1 0 0 0 .43 1.28l51.56 25.31a.92.92 0 0 0 .43.13Z" class="color303030 svgShape"/><path fill="#6be0ff" d="M2471.64 834s-87.36 2.47-95.85 12-5.09 117.92 6.21 168l4.78 126.85 221.37 14 23.74-180.65 44.11 49.19s36.47-3.39 61.91-56c0 0-53.9-78.1-80.44-100.4s-110.4-37.15-110.4-37.15Z" class="colorffbe6b svgShape"/><path fill="#4e8b9b" d="m2609.73 1107.9-2.4-21-24.67-142.48-178.87-1.06-23.35 153.92-10.62 140.13v635.87l78.56 2.12s28.13-527.59 45.11-529.72 70.6 365.18 98.2 524.41c0 0 3.18 15.93 79.61-1.06 0 0-23.35-284.5-25.48-331.2s-36.09-429.93-36.09-429.93Z" class="color899b4e svgShape"/><path fill="#92e8ff" d="m2469.47 760.1-1.82 64.12a10.48 10.48 0 0 1-8.17 9.93l-1 .22s28.84 41.51 95.72-3.61l-5.48-1.19a13.15 13.15 0 0 1-10.34-12.47l-2.3-80.28Z" class="colorffa192 svgShape"/><path fill="#007898" d="M2507.5 1126c54.61 0 102.21-3.25 103.07-3.31a.68.68 0 0 0-.05-1.36c-1.59.11-159.93 10.93-230.67-7.14a.67.67 0 0 0-.83.49.69.69 0 0 0 .5.83c32.19 8.18 82.48 10.49 127.98 10.49ZM2488.75 1150.91c62.89 0 123.23-4.57 124.22-4.65a.7.7 0 0 0 .63-.74.68.68 0 0 0-.68-.62c-1.66.13-165.26 12.55-234.41-3.69a.65.65 0 0 0-.82.5.67.67 0 0 0 .51.82c27.36 6.47 69.5 8.38 110.55 8.38Z" class="color006898 svgShape"/><path fill="#007898" d="M2618.22 1226.24a16.39 16.39 0 0 0 1.91-.09.71.71 0 0 0 .63-.78.62.62 0 0 0-.77-.58 15.78 15.78 0 0 1-1.82.09c-8.34 0-43.45-4.38-62.72-75.23a.72.72 0 0 0-.83-.48.7.7 0 0 0-.49.84c19.5 71.68 55.34 76.23 64.09 76.23ZM2371.68 1224.55h.1c.47-.07 46.78-8 53.92-75.44a.7.7 0 0 0-.62-.75h-.08a.7.7 0 0 0-.69.62c-7 66.32-52.3 74.15-52.75 74.23a.66.66 0 0 0-.57.77.69.69 0 0 0 .69.57ZM2493.5 1346.36a.68.68 0 0 0 .67-.69l-3.17-194.79a.69.69 0 0 0-.68-.67.68.68 0 0 0-.67.69l3.18 194.79a.69.69 0 0 0 .67.67Z" class="color006898 svgShape"/><path fill="#007898" d="M2491.9 1304.44a.68.68 0 0 0 .43-1.21l-22-18.38-3.7-134a.69.69 0 0 0-1.37 0l3.71 134.29a.73.73 0 0 0 .25.5l22.29 18.58a.7.7 0 0 0 .39.22ZM2478.06 1095.5l-64.48-32.65a.65.65 0 0 1-.39-.62l3.19-101.91a.68.68 0 0 1 .68-.66h142.51a.69.69 0 0 1 .49.21.75.75 0 0 1 .19.49l-4 110.67a.67.67 0 0 1-.48.62l-77.23 23.89h-.2a.64.64 0 0 1-.28-.04Zm80.81-134.5h-141.15l-3.15 100.81 63.86 32.34 76.5-23.67Z" class="color006898 svgShape"/><path fill="#4e8b9b" d="m2582.66 944.42 5.31-106.16-18.25-3.91-6.56 111.46 19.5-1.39zM2403.79 943.36l15.04-106.65 17.81-1.28-14.01 109.39-18.84-1.46z" class="color899b4e svgShape"/><path fill="#92e8ff" d="M2593.76 1101.89 2564.9 1084l-33.86 2.55s-2.28 10.86 29.45 6.42l14.48 10.76-20.36-2.79-22.83 15.23s3.38 4.45 12.42 2.5l-6.66 7.86s9.19 2.86 16.2-1.77l14.21 1.15-16.17 7.36-8.6 10.39s5.55 3.16 14.87-.76a115.28 115.28 0 0 0 14.1-6.84l24.54-10.21Z" class="colorffa192 svgShape"/><path fill="#6be0ff" d="M2377.28 845.19c-23.75 8.48-105 93.29-105 93.29s12.93 65.06 54.49 86.26l56.61-45.55Z" class="colorffbe6b svgShape"/><path fill="#71d7f2" d="M2531.22 738.51q2.63.66 5 1.48l1.12 39c-32.62 41-68.41 31.2-68.41 31.2l-.8-1.41 1.38-48.72Z" class="colorf27971 svgShape"/><path fill="#92e8ff" d="M2645.21 1148.53s-27.17 13.77-35.79 12.59-46.92-30.35-46.92-30.35l17.11-37.56 44.6 26.84 23.32 19.15Z" class="colorffa192 svgShape"/><path fill="#80e4ff" d="M2458.16 705.46s-6.46-8.87-12.23-5.45c-6.1 3.61-9.39 20.41 6.18 26.46 0 0 5.45-7.75 6.05-21.01Z" class="colorff8a80 svgShape"/><path fill="#064252" d="M2473.88 669.69s-14.06 21.25-20 33.13c0 0 8.35-35.52 16.58-43s3.42 9.87 3.42 9.87Z" class="color1e2136 svgShape"/><path fill="#50bbd7" d="M2481.74 750.76a.63.63 0 0 0 .58-.07c1.39-.93 1.81-2 1.55-3.82-.13-1-1-1.45-1.77-1.82-.21-.11-.42-.22-.6-.33l-.63-.4a12.19 12.19 0 0 1-3-2.34 3.55 3.55 0 0 1-.77-3.72 5.49 5.49 0 0 1 1.43-1.56l.13-.11a36.65 36.65 0 0 0 11.67-18.83.62.62 0 0 0-1.21-.31 35.34 35.34 0 0 1-11.27 18.2l-.13.11a6.34 6.34 0 0 0-1.73 1.94 4.81 4.81 0 0 0 .93 5.09 13.88 13.88 0 0 0 3.3 2.59l.62.38a6 6 0 0 0 .71.39c.52.27 1.06.54 1.1.89.19 1.37 0 2-1 2.63a.62.62 0 0 0-.16.86.7.7 0 0 0 .25.23Z" class="colord75050 svgShape"/><path fill="#fff" d="M2460 750.75s27.38 12.07 46.36 14.65c0 0-17.94 12.06-31.81 7.91S2460 750.75 2460 750.75Z" class="colorffffff svgShape"/><path fill="#064252" d="M2530.07 690.82s3.93 45.54 17.91 60.56c0 0 15.37-6.46 25.51-31.49s-43.42-29.07-43.42-29.07Z" class="color1e2136 svgShape"/><path fill="#4e8b9b" d="M2463.42 671.5s20.1-57.61 82.76-33.39c63.66 24.6 24.19 91 24.19 91s-19.58-23.34-28.7-28.69-78.25-28.92-78.25-28.92Z" class="color899b4e svgShape"/><path fill="#92e8ff" d="M2540.92 746.8s6-16.68 20.56-3.95c5.78 5.06-1.31 23.83-21.2 19.2 0 0-5.96-4.11.64-15.25Z" class="colorffa192 svgShape"/><path fill="#4e8b9b" d="M2466.32 665.54s-37 21.16-30.75 20c62-12 68.16 33.28 80.44 28.93s30.56-15.91 30.56-15.91l-45.13-21.91Z" class="color899b4e svgShape"/><path fill="#92e8ff" d="m2123.74 904.66-38.09-35.72s-39-18.3-42.88-14.39S2028 898.8 2028 898.8s25.87 4.6 55 10.92c.43.1 24.17 26.88 24.17 26.88Z" class="colorffa192 svgShape"/><path fill="#92e8ff" d="M2098.7 881.81s-8-15.36-25-33.61c-6.49-7-15.75-28.58-20.14-24.09s11.17 29.23 10 30.85-17.08-1.18-17.08-1.18l19.38 17.29Z" class="colorffa192 svgShape"/><path fill="#92e8ff" d="M2055.11 857.79s-52.82-29.71-56-25.75 39.17 29.38 39.17 29.38-50.54-18.86-52.94-14.55 49.5 27.55 49.5 27.55-51.78-8.65-52.8-4.26 49.76 17.44 49.76 17.44-42.11.53-42.92 4.47 39.12 6.73 39.12 6.73l26.4 2.13Z" class="colorffa192 svgShape"/><path fill="#4e8b9b" d="M1160.16 814.61h259.72v42.5h-259.72z" class="color899b4e svgShape" transform="rotate(180 1290.02 835.855)"/><path fill="#4e8b9b" d="M1160.16 951.55h259.72v42.5h-259.72z" class="color899b4e svgShape" transform="rotate(180 1290.02 972.8)"/><path fill="#91bbc6" d="M1653.48 1865.14v-947.2l180.58-98.81V604.48h-340.72l-238.5 194.21v1059.63s398.64 10.23 398.64 6.82Z" class="colorbcc691 svgShape"/><path fill="#4e8b9b" d="M1254.84 1016.75h398.64v361.16h-398.64z" class="color899b4e svgShape" transform="rotate(180 1454.16 1197.33)"/><rect width="130.98" height="9.55" x="1895.05" y="250.64" fill="#4e8b9b" class="color899b4e svgShape" rx="2.02" transform="rotate(180 1960.545 255.42)"/><path fill="#91bbc6" d="M1952 230.18h17.05v74.17a3.6 3.6 0 0 1-3.6 3.6h-9.86a3.6 3.6 0 0 1-3.6-3.6v-74.17h.01Z" class="colorbcc691 svgShape" transform="rotate(180 1960.545 269.065)"/><circle cx="1889" cy="255.42" r="23.19" fill="#91bbc6" class="colorbcc691 svgShape" transform="rotate(-80.85 1888.985 255.43)"/><path fill="#4e8b9b" d="M1916.88 295.67h87.32v64.13h-87.32z" class="color899b4e svgShape" transform="rotate(180 1960.545 327.73)"/><path fill="#91bbc6" d="M1883.46 346.15h154.18v323.26a16.47 16.47 0 0 1-16.47 16.47h-121.24a16.47 16.47 0 0 1-16.47-16.47V346.15Z" class="colorbcc691 svgShape" transform="rotate(180 1960.545 516.015)"/><rect width="165.77" height="6.82" x="1878.77" y="479.86" fill="#4e8b9b" class="color899b4e svgShape" rx="1.44" transform="rotate(180 1961.65 483.27)"/><path fill="#4e8b9b" d="M1894.8 467.92a4.44 4.44 0 1 1 4.43 4.44 4.43 4.43 0 0 1-4.43-4.44ZM1933.34 467.92a4.44 4.44 0 1 1 4.44 4.44 4.43 4.43 0 0 1-4.44-4.44ZM1972.57 467.92a4.44 4.44 0 1 1 4.43 4.44 4.43 4.43 0 0 1-4.43-4.44ZM2011.11 467.92a4.44 4.44 0 1 1 4.44 4.44 4.43 4.43 0 0 1-4.44-4.44ZM1894.8 499.3a4.44 4.44 0 1 1 4.43 4.44 4.43 4.43 0 0 1-4.43-4.44ZM1933.34 499.3a4.44 4.44 0 1 1 4.44 4.44 4.43 4.43 0 0 1-4.44-4.44ZM1972.57 499.3a4.44 4.44 0 1 1 4.43 4.44 4.43 4.43 0 0 1-4.43-4.44ZM2011.11 499.3a4.44 4.44 0 1 1 4.44 4.44 4.43 4.43 0 0 1-4.44-4.44Z" class="color899b4e svgShape"/><rect width="311.76" height="352.64" x="1801.69" y="589.15" fill="#4e8b9b" class="color899b4e svgShape" rx="5.81" transform="rotate(180 1957.57 765.47)"/><path fill="#91bbc6" d="M1938.12 1024.09h29.23v161.95h-29.23z" class="colorbcc691 svgShape" transform="rotate(180 1952.73 1105.06)"/><path fill="#4e8b9b" d="M1922.91 986.08h64.9v50.28h-64.9z" class="color899b4e svgShape" transform="rotate(180 1955.36 1011.225)"/><path fill="#4e8b9b" d="m1970.08 1180.77-33.91-19.48v30.4l13.64 21.82h5.07l14.03-21.43 1.17-11.31z" class="color899b4e svgShape"/><rect width="44.06" height="8.19" x="1930.41" y="1155.2" fill="#4e8b9b" class="color899b4e svgShape" rx="1.73" transform="rotate(-151.75 1952.381 1159.355)"/><rect width="44.06" height="8.19" x="1930.41" y="1140.88" fill="#4e8b9b" class="color899b4e svgShape" rx="1.73" transform="rotate(-151.75 1952.381 1145.032)"/><rect width="44.06" height="8.19" x="1930.41" y="1125.97" fill="#4e8b9b" class="color899b4e svgShape" rx="1.73" transform="rotate(-151.75 1952.383 1130.123)"/><rect width="44.06" height="8.19" x="1930.41" y="1111.65" fill="#4e8b9b" class="color899b4e svgShape" rx="1.73" transform="rotate(-151.75 1952.384 1115.8)"/><rect width="44.06" height="8.19" x="1930.41" y="1095.28" fill="#4e8b9b" class="color899b4e svgShape" rx="1.73" transform="rotate(-151.75 1952.384 1099.43)"/><rect width="44.06" height="8.19" x="1930.41" y="1080.95" fill="#4e8b9b" class="color899b4e svgShape" rx="1.73" transform="rotate(-151.75 1952.385 1085.107)"/><path fill="#47646c" d="M1111.31 1299.26h47.27v77.94h-47.27z" class="color47536c svgShape" transform="rotate(180 1134.95 1338.23)"/><path fill="#47646c" d="M1087.04 1325.03h31.52v26.41h-31.52z" class="color47536c svgShape" transform="rotate(180 1102.795 1338.23)"/><rect width="5.96" height="141.4" x="1096.4" y="1252.7" fill="#47646c" class="color47536c svgShape" rx="1.26" transform="rotate(180 1099.385 1323.395)"/><path fill="#91bbc6" d="M1159.44 1273.99h1343.92v57.92H1159.44z" class="colorbcc691 svgShape" transform="rotate(180 1831.4 1302.95)"/><circle cx="1099.39" cy="1250.57" r="14.48" fill="#47646c" class="color47536c svgShape" transform="rotate(-78.69 1099.39 1250.567)"/><path fill="#47646c" d="M2503.15 1299.26h47.27v77.94h-47.27z" class="color47536c svgShape"/><path fill="#47646c" d="M2543.18 1325.03h31.52v26.41h-31.52z" class="color47536c svgShape"/><rect width="5.96" height="141.4" x="2559.37" y="1252.7" fill="#47646c" class="color47536c svgShape" rx="1.26"/><circle cx="2562.35" cy="1250.57" r="14.48" fill="#47646c" class="color47536c svgShape" transform="rotate(-45 2562.353 1250.569)"/><path fill="#91bbc6" d="M1728.01 1348.52h476.58v198.05l-162.26 118.4v211.24h-152.05v-211.24l-162.27-118.4v-198.05z" class="colorbcc691 svgShape"/><path fill="#47646c" d="M1150.92 1320.34h1367.13v35.78H1150.92z" class="color47536c svgShape" transform="rotate(180 1834.485 1338.23)"/><path fill="#6be0ff" d="M1115.14 1841.29h1236.81v126.07H1115.14z" class="colorffbe6b svgShape" transform="rotate(180 1733.55 1904.32)"/><path fill="#f5f7f8" d="M1428.1 736.38h179.57v120.23H1428.1z" class="colorf5f8f6 svgShape" transform="rotate(180 1517.89 796.5)"/><path fill="#66dfff" d="M1483.43 756.3h67a5.72 5.72 0 0 1 5.7 5.7 5.72 5.72 0 0 1-5.7 5.7h-67a5.72 5.72 0 0 1-5.7-5.7 5.71 5.71 0 0 1 5.7-5.7Z" class="colorff6a66 svgShape"/><path fill="#b5e8f5" d="M1446.33 778.92h143.76a2.94 2.94 0 0 1 2.94 2.94 2.94 2.94 0 0 1-2.94 2.94h-143.76a2.94 2.94 0 0 1-2.94-2.94 2.94 2.94 0 0 1 2.94-2.94ZM1446.33 818.47h143.76a2.94 2.94 0 0 1 2.94 2.94 2.94 2.94 0 0 1-2.94 2.94h-143.76a2.94 2.94 0 0 1-2.94-2.94 2.94 2.94 0 0 1 2.94-2.94ZM1461.56 790.14h113.3a3 3 0 0 1 2.94 2.94 3 3 0 0 1-2.94 2.94h-113.3a2.94 2.94 0 0 1-2.94-2.94 3 3 0 0 1 2.94-2.94ZM1461.56 800.83h113.3a3 3 0 0 1 2.94 2.94 3 3 0 0 1-2.94 2.94h-113.3a2.94 2.94 0 0 1-2.94-2.94 2.94 2.94 0 0 1 2.94-2.94Z" class="coloreaf5b5 svgShape"/><path fill="#91bbc6" d="M1906.36 940.94H2002a6.71 6.71 0 0 1 6.71 6.71v40.14h-109v-40.15a6.71 6.71 0 0 1 6.65-6.7Z" class="colorbcc691 svgShape" transform="rotate(180 1954.165 964.365)"/><path fill="#91bbc6" d="M1401 1026.32h124.63a8.42 8.42 0 0 1 8.42 8.42v252.46a8.43 8.43 0 0 1-8.43 8.43H1401a8.43 8.43 0 0 1-8.43-8.43v-252.46a8.43 8.43 0 0 1 8.43-8.42Z" class="colorbcc691 svgShape" transform="rotate(-90 1463.305 1160.975)"/><path fill="#064252" d="M1356.38 1138.25h98.48a3.32 3.32 0 0 1 3.32 3.32v37.64a3.33 3.33 0 0 1-3.33 3.33h-98.48a3.33 3.33 0 0 1-3.33-3.33v-37.64a3.33 3.33 0 0 1 3.34-3.32Z" class="color1e2136 svgShape"/><path fill="#f5f7f8" d="M1356.55 1141.57h97.02v37.38h-97.02z" class="colorf5f8f6 svgShape"/><path fill="#47646c" d="M1478.3 1106.6h90.93a6.72 6.72 0 0 1 6.72 6.72v96.19a6.71 6.71 0 0 1-6.71 6.71h-90.94a6.71 6.71 0 0 1-6.71-6.71v-96.19a6.71 6.71 0 0 1 6.71-6.72Z" class="color47536c svgShape"/><path fill="#73d2eb" d="M1483.64 1116.69h18.85a2 2 0 0 1 2 2v6.58a2 2 0 0 1-2 2h-18.85a2 2 0 0 1-2-2v-6.58a2 2 0 0 1 2-2ZM1512.15 1116.69H1531a2 2 0 0 1 2 2v6.58a2 2 0 0 1-2 2h-18.85a2 2 0 0 1-2-2v-6.58a2 2 0 0 1 2-2ZM1540.43 1116.69h18.85a2 2 0 0 1 2 2v6.58a2 2 0 0 1-2 2h-18.85a2 2 0 0 1-2-2v-6.58a2 2 0 0 1 2-2ZM1483.64 1132.25h18.85a2 2 0 0 1 2 2v6.57a2 2 0 0 1-2 2h-18.85a2 2 0 0 1-2-2v-6.58a2 2 0 0 1 2-1.99ZM1512.15 1132.25H1531a2 2 0 0 1 2 2v6.58a2 2 0 0 1-2 2h-18.85a2 2 0 0 1-2-2v-6.58a2 2 0 0 1 2-2ZM1540.43 1132.25h18.85a2 2 0 0 1 2 2v6.58a2 2 0 0 1-2 2h-18.85a2 2 0 0 1-2-2v-6.58a2 2 0 0 1 2-2ZM1483.64 1148.48h18.85a2 2 0 0 1 2 2v6.52a2 2 0 0 1-2 2h-18.85a2 2 0 0 1-2-2v-6.58a2 2 0 0 1 2-1.94ZM1512.15 1148.48H1531a2 2 0 0 1 2 2v6.52a2 2 0 0 1-2 2h-18.85a2 2 0 0 1-2-2v-6.57a2 2 0 0 1 2-1.95ZM1540.43 1148.48h18.85a2 2 0 0 1 2 2v6.52a2 2 0 0 1-2 2h-18.85a2 2 0 0 1-2-2v-6.58a2 2 0 0 1 2-1.94ZM1483.64 1164.48h18.85a2 2 0 0 1 2 2v6.52a2 2 0 0 1-2 2h-18.85a2 2 0 0 1-2-2v-6.58a2 2 0 0 1 2-1.94ZM1512.15 1164.48H1531a2 2 0 0 1 2 2v6.52a2 2 0 0 1-2 2h-18.85a2 2 0 0 1-2-2v-6.57a2 2 0 0 1 2-1.95ZM1540.43 1164.48h18.85a2 2 0 0 1 2 2v6.52a2 2 0 0 1-2 2h-18.85a2 2 0 0 1-2-2v-6.58a2 2 0 0 1 2-1.94Z" class="color73bbeb svgShape"/><path fill="#f1f1f1" d="M1494.82 1187.28h53.49v20.61h-53.49z" class="colorf1f1f1 svgShape"/><path d="M1539.77 1191.45h-38.15a.88.88 0 0 0-.88.87.88.88 0 0 0 .88.88h38.15a.87.87 0 0 0 .87-.88.87.87 0 0 0-.87-.87ZM1539.77 1194.74h-38.15a.88.88 0 0 0-.88.87.88.88 0 0 0 .88.88h38.15a.87.87 0 0 0 .87-.88.87.87 0 0 0-.87-.87ZM1533 1198h-31.35a.88.88 0 0 0-.88.87.89.89 0 0 0 .88.88H1533a.89.89 0 0 0 .88-.88.88.88 0 0 0-.88-.87ZM1515.65 1202.19h-14a.89.89 0 0 0-.88.88.88.88 0 0 0 .88.87h14a.88.88 0 0 0 .88-.87.89.89 0 0 0-.88-.88Z" class="color000000 svgShape" opacity=".41"/><rect width="413.97" height="10.22" x="1248.02" y="917.94" fill="#4e8b9b" class="color899b4e svgShape" rx="2.16" transform="rotate(180 1455.01 923.05)"/><circle cx="1288.91" cy="894.09" r="7.67" fill="#4e8b9b" class="color899b4e svgShape"/><circle cx="1349.39" cy="894.09" r="7.67" fill="#4e8b9b" class="color899b4e svgShape"/><circle cx="1408.59" cy="894.09" r="7.67" fill="#4e8b9b" class="color899b4e svgShape"/><circle cx="1466.94" cy="894.09" r="7.67" fill="#4e8b9b" class="color899b4e svgShape"/><circle cx="1522.3" cy="894.09" r="7.67" fill="#4e8b9b" class="color899b4e svgShape"/><circle cx="1579.8" cy="894.09" r="7.67" fill="#4e8b9b" class="color899b4e svgShape"/><circle cx="1635.17" cy="894.09" r="7.67" fill="#4e8b9b" class="color899b4e svgShape"/><rect width="494.26" height="15.33" x="1717.79" y="1531.02" fill="#4e8b9b" class="color899b4e svgShape" rx="3.24" transform="rotate(180 1964.92 1538.685)"/><path fill="#4e8b9b" d="M1739.94 1512.23a6.55 6.55 0 1 1 6.55 6.55 6.55 6.55 0 0 1-6.55-6.55ZM1792.16 1512.23a6.55 6.55 0 1 1 6.55 6.55 6.55 6.55 0 0 1-6.55-6.55Z" class="color899b4e svgShape"/><circle cx="1857.33" cy="1512.23" r="6.55" fill="#4e8b9b" class="color899b4e svgShape"/><circle cx="1909.55" cy="1512.23" r="6.55" fill="#4e8b9b" class="color899b4e svgShape"/><circle cx="1967.85" cy="1512.23" r="6.55" fill="#4e8b9b" class="color899b4e svgShape"/><circle cx="2020.07" cy="1512.23" r="6.55" fill="#4e8b9b" class="color899b4e svgShape"/><circle cx="2077.89" cy="1512.23" r="6.55" fill="#4e8b9b" class="color899b4e svgShape"/><circle cx="2130.11" cy="1512.23" r="6.55" fill="#4e8b9b" class="color899b4e svgShape"/><path fill="#4e8b9b" d="M2176 1512.23a6.55 6.55 0 1 1 6.55 6.55 6.55 6.55 0 0 1-6.55-6.55Z" class="color899b4e svgShape"/><path fill="#064252" d="M2179.42 1434.84h22.48v186.18h-22.48z" class="color1e2136 svgShape" transform="rotate(121.36 2190.672 1527.838)"/><path fill="#064252" d="M2186.03 1436.17h22.48v186.18h-22.48z" class="color1e2136 svgShape" transform="rotate(31.36 2197.073 1529.013)"/><path fill="#47646c" d="M2139.38 1624.27a108.95 108.95 0 1 1 149.73-36.35 109.07 109.07 0 0 1-149.73 36.35Zm16.8-27.57a76.66 76.66 0 1 0-25.57-105.36 76.75 76.75 0 0 0 25.57 105.36Z" class="color47536c svgShape"/><circle cx="2196.08" cy="1531.23" r="28.82" fill="#47646c" class="color47536c svgShape" transform="rotate(-63.67 2196.213 1531.243)"/><rect width="323.68" height="11.07" x="1796.58" y="750.14" fill="#91bbc6" class="colorbcc691 svgShape" rx="2.34" transform="rotate(180 1958.425 755.675)"/><circle cx="1817.03" cy="731.82" r="5.54" fill="#91bbc6" class="colorbcc691 svgShape"/><path fill="#91bbc6" d="M1851.1 731.82a5.54 5.54 0 1 1 5.53 5.54 5.53 5.53 0 0 1-5.53-5.54Z" class="colorbcc691 svgShape"/><circle cx="1897.95" cy="731.82" r="5.54" fill="#91bbc6" class="colorbcc691 svgShape"/><path fill="#91bbc6" d="M1932 731.82a5.54 5.54 0 1 1 5.53 5.54 5.53 5.53 0 0 1-5.53-5.54Z" class="colorbcc691 svgShape"/><circle cx="1979.72" cy="731.82" r="5.54" fill="#91bbc6" class="colorbcc691 svgShape"/><circle cx="2019.33" cy="731.82" r="5.54" fill="#91bbc6" class="colorbcc691 svgShape"/><circle cx="2057.23" cy="731.82" r="5.54" fill="#91bbc6" class="colorbcc691 svgShape"/><circle cx="2096.84" cy="731.82" r="5.54" fill="#91bbc6" class="colorbcc691 svgShape"/><circle cx="1817.03" cy="778.67" r="5.54" fill="#91bbc6" class="colorbcc691 svgShape"/><path fill="#91bbc6" d="M1851.1 778.67a5.54 5.54 0 1 1 5.53 5.54 5.54 5.54 0 0 1-5.53-5.54Z" class="colorbcc691 svgShape"/><circle cx="1897.95" cy="778.67" r="5.54" fill="#91bbc6" class="colorbcc691 svgShape"/><path fill="#91bbc6" d="M1932 778.67a5.54 5.54 0 1 1 5.53 5.54 5.54 5.54 0 0 1-5.53-5.54Z" class="colorbcc691 svgShape"/><circle cx="1979.72" cy="778.67" r="5.54" fill="#91bbc6" class="colorbcc691 svgShape"/><circle cx="2019.33" cy="778.67" r="5.54" fill="#91bbc6" class="colorbcc691 svgShape"/><circle cx="2057.23" cy="778.67" r="5.54" fill="#91bbc6" class="colorbcc691 svgShape"/><circle cx="2096.84" cy="778.67" r="5.54" fill="#91bbc6" class="colorbcc691 svgShape"/><path fill="#064252" d="M1779.08 655.02h22.48V841.2h-22.48z" class="color1e2136 svgShape" transform="matrix(-.52 .85 -.85 -.52 3360.77 -391.43)"/><path fill="#064252" d="M1785.69 656.35h22.48v186.18h-22.48z" class="color1e2136 svgShape" transform="rotate(31.36 1796.75 749.309)"/><path fill="#47646c" d="M1739 844.45a108.95 108.95 0 1 1 149.72-36.35A109.07 109.07 0 0 1 1739 844.45Zm16.8-27.57a76.66 76.66 0 1 0-25.58-105.36 76.75 76.75 0 0 0 25.62 105.36Z" class="color47536c svgShape"/><circle cx="1795.73" cy="751.41" r="28.82" fill="#47646c" class="color47536c svgShape" transform="rotate(-86.86 1795.643 751.444)"/><path fill="#47646c" d="M1483.79 1967.35h-58.03l-67.79-126.06H1416l67.79 126.06zM1369.64 1967.35h-58.02l-67.79-126.06h58.03l67.78 126.06zM1597.08 1967.35h-58.03l-67.79-126.06h58.03l67.79 126.06zM2270.24 1841.29h58.03l23.68 44.04v82.02h-13.92l-67.79-126.06zM1256.36 1967.35h-58.03l-67.79-126.06h58.03l67.79 126.06zM2283.63 1967.35h-58.04l-67.79-126.06h58.03l67.8 126.06zM2170.34 1967.35h-58.03l-67.79-126.06h58.03l67.79 126.06zM1712.07 1967.35h-58.03l-67.79-126.06h58.03l67.79 126.06zM2055.34 1967.35h-58.03l-67.79-126.06h58.03l67.79 126.06zM1825.36 1967.35h-58.03l-67.79-126.06h58.03l67.79 126.06zM1942.05 1967.35h-58.03l-67.79-126.06h58.03l67.79 126.06z" class="color47536c svgShape"/><rect width="261.3" height="225.09" x="928.77" y="790.99" fill="#4e8b9b" class="color899b4e svgShape" rx="4.54" transform="rotate(180 1059.42 903.54)"/><path fill="#b5e8f5" d="M1042.89 803.59h132.22v89.72h-132.22z" class="coloreaf5b5 svgShape" transform="rotate(180 1109 848.45)"/><path fill="#47646c" d="M1039.74 893.31v-89.72a3.16 3.16 0 0 1 3.15-3.15h132.22a3.15 3.15 0 0 1 3.15 3.15v89.72a3.16 3.16 0 0 1-3.15 3.15h-132.22a3.16 3.16 0 0 1-3.15-3.15ZM1172 806.74h-126v83.42h126Z" class="color47536c svgShape"/><rect width="22.3" height="10.23" x="1007.47" y="802.28" fill="#66dfff" class="colorff6a66 svgShape" rx="2.16" transform="rotate(180 1018.625 807.39)"/><rect width="22.3" height="10.23" x="1150.72" y="900.66" fill="#66dfff" class="colorff6a66 svgShape" rx="2.16" transform="rotate(180 1161.865 905.77)"/><rect width="22.3" height="10.23" x="1122.91" y="900.66" fill="#66dfff" class="colorff6a66 svgShape" rx="2.16" transform="rotate(180 1134.055 905.77)"/><rect width="22.3" height="10.23" x="976.39" y="802.28" fill="#66dfff" class="colorff6a66 svgShape" rx="2.16" transform="rotate(180 987.535 807.39)"/><rect width="22.3" height="10.23" x="944.38" y="802.28" fill="#66dfff" class="colorff6a66 svgShape" rx="2.16" transform="rotate(180 955.53 807.39)"/><path fill="#91bbc6" d="M1011.61 822.87h14.56v14.56h-14.56z" class="colorbcc691 svgShape" transform="rotate(180 1018.885 830.15)"/><path fill="#91bbc6" d="M1158.78 953.52h14.56v14.56h-14.56z" class="colorbcc691 svgShape" transform="rotate(180 1166.065 960.8)"/><path fill="#91bbc6" d="M1139.89 953.52h14.56v14.56h-14.56z" class="colorbcc691 svgShape" transform="rotate(180 1147.175 960.8)"/><path fill="#91bbc6" d="M1120.48 953.52h14.56v14.56h-14.56z" class="colorbcc691 svgShape" transform="rotate(180 1127.76 960.8)"/><path fill="#91bbc6" d="M1101.59 953.52h14.56v14.56h-14.56z" class="colorbcc691 svgShape" transform="rotate(180 1108.87 960.8)"/><path fill="#91bbc6" d="M1081.65 953.52h14.56v14.56h-14.56z" class="colorbcc691 svgShape" transform="rotate(180 1088.935 960.8)"/><path fill="#91bbc6" d="M1062.76 953.52h14.56v14.56h-14.56z" class="colorbcc691 svgShape" transform="rotate(180 1070.045 960.8)"/><path fill="#91bbc6" d="M1043.35 953.52h14.56v14.56h-14.56z" class="colorbcc691 svgShape" transform="rotate(180 1050.63 960.8)"/><path fill="#91bbc6" d="M1024.46 953.52h14.56v14.56h-14.56z" class="colorbcc691 svgShape" transform="rotate(180 1031.74 960.8)"/><path fill="#91bbc6" d="M1004.79 953.52h14.56v14.56h-14.56z" class="colorbcc691 svgShape" transform="rotate(180 1012.065 960.8)"/><path fill="#91bbc6" d="M1158.78 935.15h14.56v14.56h-14.56z" class="colorbcc691 svgShape" transform="rotate(180 1166.065 942.435)"/><path fill="#91bbc6" d="M1139.89 935.15h14.56v14.56h-14.56z" class="colorbcc691 svgShape" transform="rotate(180 1147.175 942.435)"/><path fill="#91bbc6" d="M1120.48 935.15h14.56v14.56h-14.56z" class="colorbcc691 svgShape" transform="rotate(180 1127.76 942.435)"/><path fill="#91bbc6" d="M1101.59 935.15h14.56v14.56h-14.56z" class="colorbcc691 svgShape" transform="rotate(180 1108.87 942.435)"/><path fill="#91bbc6" d="M1081.65 935.15h14.56v14.56h-14.56z" class="colorbcc691 svgShape" transform="rotate(180 1088.935 942.435)"/><path fill="#91bbc6" d="M1062.76 935.15h14.56v14.56h-14.56z" class="colorbcc691 svgShape" transform="rotate(180 1070.045 942.435)"/><path fill="#91bbc6" d="M1043.35 935.15h14.56v14.56h-14.56z" class="colorbcc691 svgShape" transform="rotate(180 1050.63 942.435)"/><path fill="#91bbc6" d="M1024.46 935.15h14.56v14.56h-14.56z" class="colorbcc691 svgShape" transform="rotate(180 1031.74 942.435)"/><path fill="#91bbc6" d="M1004.79 935.15h14.56v14.56h-14.56z" class="colorbcc691 svgShape" transform="rotate(180 1012.065 942.435)"/><path fill="#91bbc6" d="M1158.78 917.05h14.56v14.56h-14.56z" class="colorbcc691 svgShape" transform="rotate(180 1166.065 924.33)"/><path fill="#91bbc6" d="M1139.89 917.05h14.56v14.56h-14.56z" class="colorbcc691 svgShape" transform="rotate(180 1147.175 924.33)"/><path fill="#91bbc6" d="M1120.48 917.05h14.56v14.56h-14.56z" class="colorbcc691 svgShape" transform="rotate(180 1127.76 924.33)"/><path fill="#91bbc6" d="M1101.59 917.05h14.56v14.56h-14.56z" class="colorbcc691 svgShape" transform="rotate(180 1108.87 924.33)"/><path fill="#91bbc6" d="M1081.65 917.05h14.56v14.56h-14.56z" class="colorbcc691 svgShape" transform="rotate(180 1088.935 924.33)"/><path fill="#91bbc6" d="M1062.76 917.05h14.56v14.56h-14.56z" class="colorbcc691 svgShape" transform="rotate(180 1070.045 924.33)"/><path fill="#91bbc6" d="M1043.35 917.05h14.56v14.56h-14.56z" class="colorbcc691 svgShape" transform="rotate(180 1050.63 924.33)"/><path fill="#91bbc6" d="M1024.46 917.05h14.56v14.56h-14.56z" class="colorbcc691 svgShape" transform="rotate(180 1031.74 924.33)"/><path fill="#91bbc6" d="M1004.79 917.05h14.56v14.56h-14.56z" class="colorbcc691 svgShape" transform="rotate(180 1012.065 924.33)"/><path fill="#91bbc6" d="M992.52 822.87h14.56v14.56h-14.56z" class="colorbcc691 svgShape" transform="rotate(180 999.8 830.15)"/><path fill="#91bbc6" d="M974.03 822.87h14.56v14.56h-14.56z" class="colorbcc691 svgShape" transform="rotate(180 981.305 830.15)"/><path fill="#91bbc6" d="M955.14 822.87h14.56v14.56h-14.56z" class="colorbcc691 svgShape" transform="rotate(180 962.415 830.15)"/><path fill="#91bbc6" d="M1011.61 841.36h14.56v14.56h-14.56z" class="colorbcc691 svgShape" transform="rotate(180 1018.885 848.645)"/><path fill="#91bbc6" d="M992.52 841.36h14.56v14.56h-14.56z" class="colorbcc691 svgShape" transform="rotate(180 999.8 848.645)"/><path fill="#91bbc6" d="M974.03 841.36h14.56v14.56h-14.56z" class="colorbcc691 svgShape" transform="rotate(180 981.305 848.645)"/><path fill="#91bbc6" d="M955.14 841.36h14.56v14.56h-14.56z" class="colorbcc691 svgShape" transform="rotate(180 962.415 848.645)"/><path fill="#91bbc6" d="M1011.61 859.86h14.56v14.56h-14.56z" class="colorbcc691 svgShape" transform="rotate(180 1018.885 867.14)"/><path fill="#91bbc6" d="M992.52 859.86h14.56v14.56h-14.56z" class="colorbcc691 svgShape" transform="rotate(180 999.8 867.14)"/><path fill="#91bbc6" d="M974.03 859.86h14.56v14.56h-14.56z" class="colorbcc691 svgShape" transform="rotate(180 981.305 867.14)"/><path fill="#91bbc6" d="M955.14 859.86h14.56v14.56h-14.56z" class="colorbcc691 svgShape" transform="rotate(180 962.415 867.14)"/><path fill="#91bbc6" d="M1011.61 878.55h14.56v14.56h-14.56z" class="colorbcc691 svgShape" transform="rotate(180 1018.885 885.835)"/><path fill="#91bbc6" d="M992.52 878.55h14.56v14.56h-14.56z" class="colorbcc691 svgShape" transform="rotate(180 999.8 885.835)"/><path fill="#91bbc6" d="M974.03 878.55h14.56v14.56h-14.56z" class="colorbcc691 svgShape" transform="rotate(180 981.305 885.835)"/><path fill="#91bbc6" d="M955.14 878.55h14.56v14.56h-14.56z" class="colorbcc691 svgShape" transform="rotate(180 962.415 885.835)"/><path fill="#91bbc6" d="M1131.56 974.64h42.24v12.85h-42.24z" class="colorbcc691 svgShape" transform="rotate(180 1152.685 981.065)"/><path fill="#91bbc6" d="M991.47 974.64h42.24v12.85h-42.24z" class="colorbcc691 svgShape" transform="rotate(180 1012.59 981.065)"/><path fill="#91bbc6" d="M1037.64 974.64h89.46v12.85h-89.46z" class="colorbcc691 svgShape" transform="rotate(180 1082.375 981.065)"/><circle cx="970.35" cy="914.43" r="12.2" fill="#6be0ff" class="colorffbe6b svgShape"/><circle cx="970.35" cy="951.94" r="12.2" fill="#66dfff" class="colorff6a66 svgShape" transform="rotate(-80.78 970.399 951.945)"/><rect width="28.07" height="4.2" x="1135.5" y="815.39" fill="#47646c" class="color47536c svgShape" rx=".89" transform="rotate(180 1149.535 817.49)"/><rect width="56.93" height="4.2" x="1106.12" y="828.25" fill="#47646c" class="color47536c svgShape" rx=".89" transform="rotate(180 1134.58 830.345)"/><rect width="49.58" height="4.2" x="1052.86" y="828.25" fill="#47646c" class="color47536c svgShape" rx=".89" transform="rotate(180 1077.65 830.345)"/><rect width="49.58" height="4.2" x="1113.46" y="847.4" fill="#47646c" class="color47536c svgShape" rx=".89" transform="rotate(180 1138.255 849.5)"/><rect width="49.58" height="4.2" x="1113.46" y="859.99" fill="#47646c" class="color47536c svgShape" rx=".89" transform="rotate(180 1138.255 862.09)"/><path fill="#4e8b9b" d="M312.4 1906.58c-3.8-7-6.63-14.9-5.58-22.79 1.52-11.5 11.08-20.58 21.7-25.26 25.29-11.13 55.89-1.3 76.65 16.94s33.81 43.48 46.37 68.1l7.16 14c3.74 7.31 7.58 15.31 6.12 23.38s-11.05 15-18 10.59c-21.11-36.09-59.59-61.47-101.08-66.67-8-1-16.52-1.44-23.18-6-4.44-2.98-7.56-7.57-10.16-12.29Z" class="color899b4e svgShape"/><path fill="#4e8b9b" d="M361.41 1764c-4.87-12.59-7.25-28 1-38.66 7.12-9.19 20.43-11.82 31.69-8.93s20.78 10.33 29.17 18.37c29.56 28.32 49.19 66.15 58.68 106s9.16 81.58 2.46 122c-1.62 9.76-6.73 22-16.58 21.11q-17.38-43.35-34.76-86.71c-7.87-19.63-15.77-39.34-26.38-57.63-14.75-25.48-34.69-48.12-45.28-75.55Z" class="color899b4e svgShape"/><path fill="#4e8b9b" d="M474.78 1971.62c9.89-21.28 20.93-42.94 39.11-57.76 7-5.72 15.44-10.42 24.48-10.38s18.49 6.11 19.87 15c1 6.74-2.6 13.51-7.68 18s-11.47 7.3-17.68 10.11c-12 5.42-24.08 11.45-33.4 20.77-3.4 3.41-6.49 7.29-10.68 9.67s-10 2.8-13.47-.56a4 4 0 0 1-1.24-2.11 5.18 5.18 0 0 1 .69-2.74Z" class="color899b4e svgShape"/><path fill="#92e8ff" d="m762.12 1913.33-3.28-131.25 46.74-6.11 3.66 127.1-47.12 10.26z" class="colorffa192 svgShape"/><path fill="#47646c" d="M761.57 1903.39s-3.53 31.67 1.81 56.92l141.19 2.55s9.19-26.92-22.6-34.27-72.41-32.38-72.41-32.38-28.94 23.97-47.99 7.18Z" class="color47536c svgShape"/><path fill="#ebf1f3" d="m763.34 1960.31 141.19 2.55a29.79 29.79 0 0 0 .65-14.18l-143.85-2.54c0 4.86 1.05 9.59 2.01 14.17Z" class="colorf3edeb svgShape"/><path fill="#303030" d="M802.07 1927.42a6.05 6.05 0 0 1-2.73-4.85 14.14 14.14 0 0 1 .88-5.13 68.75 68.75 0 0 1 4.78-11.34 20.22 20.22 0 0 1 5-6.62c3.19-2.57 7.42-3.33 11.13-3.74a84.62 84.62 0 0 1 9.46-.52h.55c4.25 0 9.1.41 12.9 3.11 1.72 1.22 2.51 2.75 2.17 4.19a4.06 4.06 0 0 1-2.53 2.64 11.38 11.38 0 0 1-4.63.88 31.12 31.12 0 0 1-5.1-.55c-7-1.23-13.9-2.74-20.65-4.53a46.42 46.42 0 0 1 .88 10.87 25.24 25.24 0 0 1-2.78 11.47 10 10 0 0 1-3.63 3.94 6.3 6.3 0 0 1-3.08.83 5.16 5.16 0 0 1-2.62-.65Zm9-26.5a18.6 18.6 0 0 0-4.49 6 67.77 67.77 0 0 0-4.62 11 12.7 12.7 0 0 0-.79 4.44 4.18 4.18 0 0 0 1.82 3.38 4 4 0 0 0 3.78-.19 8.12 8.12 0 0 0 2.93-3.23 23.56 23.56 0 0 0 2.55-10.64 44.93 44.93 0 0 0-1-11Zm10.17-3.34a26.22 26.22 0 0 0-7.32 1.66c6.62 1.74 13.43 3.23 20.26 4.43 3 .51 6.4.79 8.66-.2.49-.21 1.34-.69 1.48-1.37s-.62-1.69-1.44-2.27c-3.39-2.4-7.88-2.75-11.84-2.77h-.54a81.08 81.08 0 0 0-9.25.52ZM905.18 1949.6a.92.92 0 0 0 0-1.84L762 1945.17a.92.92 0 0 0 0 1.84l143.19 2.59Z" class="color303030 svgShape"/><path fill="#303030" d="M801.32 1947.49h.14a.93.93 0 0 0 .77-1c-4.36-30.07-35.9-31.19-40.47-31.19h-.53a.92.92 0 0 0 0 1.84h.92c5.55 0 34.16 1.39 38.25 29.63a.91.91 0 0 0 .92.72ZM818.62 1948a.85.85 0 0 0 .44-.11l.57-.32a85.43 85.43 0 0 1 41.45-11l35.74-.14a.92.92 0 0 0 0-1.84l-35.74.14a87.13 87.13 0 0 0-42.34 11.19l-.56.32a.89.89 0 0 0-.36 1.25.91.91 0 0 0 .8.51ZM848.38 1930.19a.9.9 0 0 0 .74-.37l6.92-9.45a.91.91 0 0 0-.19-1.29.9.9 0 0 0-1.29.19l-6.46 8.82L799 1904a.91.91 0 0 0-1.23.42.9.9 0 0 0 .43 1.22l49.8 24.45a1 1 0 0 0 .38.1Z" class="color303030 svgShape"/><path fill="#92e8ff" d="m540.64 1919.97 17.24-155.64 48.9 23.57-19.05 121.81-47.09 10.26z" class="colorffa192 svgShape"/><path fill="#47646c" d="M540.09 1910s-3.54 31.66 1.81 56.89l141.1 2.58s9.19-26.9-22.59-34.25-72.37-32.37-72.37-32.37-28.92 23.96-47.95 7.15Z" class="color47536c svgShape"/><path fill="#ebf1f3" d="m541.86 1966.92 141.14 2.55a29.67 29.67 0 0 0 .66-14.17l-143.8-2.54c-.02 4.82 1.03 9.59 2 14.16Z" class="colorf3edeb svgShape"/><path fill="#303030" d="M580.57 1934a5.9 5.9 0 0 1-2.72-4.84 13.87 13.87 0 0 1 .86-5.12 70.35 70.35 0 0 1 4.75-11.34 20.67 20.67 0 0 1 5-6.62c3.16-2.55 7.22-3.3 11.13-3.74a88.7 88.7 0 0 1 9.7-.52h.29c4.24 0 9.08.4 12.9 3.12 1.71 1.19 2.5 2.72 2.18 4.17a4 4 0 0 1-2.54 2.65 11.37 11.37 0 0 1-4.64.87 30.05 30.05 0 0 1-5.08-.55c-6.89-1.19-13.82-2.71-20.65-4.52a45.89 45.89 0 0 1 .88 10.87 25.16 25.16 0 0 1-2.78 11.46 9.85 9.85 0 0 1-3.62 3.94 6.34 6.34 0 0 1-3.09.83 4.92 4.92 0 0 1-2.57-.66Zm9-26.48a18.35 18.35 0 0 0-4.49 6 67.9 67.9 0 0 0-4.62 11 11.85 11.85 0 0 0-.78 4.44 4.17 4.17 0 0 0 1.81 3.38 3.22 3.22 0 0 0 1.6.4 4.55 4.55 0 0 0 2.18-.59 8.24 8.24 0 0 0 2.93-3.24 23.52 23.52 0 0 0 2.54-10.63 44.53 44.53 0 0 0-1-11Zm10.18-3.34a26 26 0 0 0-7.35 1.66c6.7 1.76 13.51 3.25 20.26 4.43a28.89 28.89 0 0 0 4.77.51 9.5 9.5 0 0 0 3.9-.72c.49-.21 1.33-.66 1.48-1.35s-.63-1.7-1.44-2.27c-3.41-2.41-7.89-2.76-11.84-2.78h-.29a87.35 87.35 0 0 0-9.48.56ZM683.63 1956.22a.92.92 0 0 0 0-1.84l-143.12-2.58a.92.92 0 0 0 0 1.84l143.12 2.58Z" class="color303030 svgShape"/><path fill="#303030" d="M579.82 1954.11h.18a.91.91 0 0 0 .77-1c-4.68-32.25-40.6-31.19-41-31.18a.91.91 0 0 0-.88.95.94.94 0 0 0 .95.89c1.49 0 34.67-1 39.11 29.61a.91.91 0 0 0 .87.73ZM597.11 1954.58a.83.83 0 0 0 .46-.12l.57-.32a85.16 85.16 0 0 1 41.41-11l35.73-.14a.92.92 0 1 0 0-1.84l-35.73.14a87.16 87.16 0 0 0-42.32 11.18l-.57.33a.92.92 0 0 0-.35 1.25.91.91 0 0 0 .8.52ZM626.86 1936.82a.89.89 0 0 0 .74-.37l6.92-9.46a.93.93 0 0 0-.19-1.29.91.91 0 0 0-1.29.2l-6.47 8.83-49.11-24.1a.91.91 0 0 0-1.23.43.9.9 0 0 0 .42 1.22l49.8 24.45a1 1 0 0 0 .41.09Z" class="color303030 svgShape"/><path fill="#92e8ff" d="M807.18 1009.2s42.32 110 84.64 102.34S992.63 943 992.63 943L968 925.58l-73.87 100.54-40.78-64.63ZM591 990.21l-41 122.1-2 174.42-28.66 11.13s-31.88-160.93-27.77-194.79 43.09-160 43.09-160Z" class="colorffa192 svgShape"/><path fill="#fff" d="M731.59 869.14s92.77 26.17 101 35.4 51.3 103.63 51.3 103.63-17.44 24.11-65.66 34.88l-4.62 122.61H609.42l-23.6-117-10.26 40s-56.43 5.13-93.37-27.7c0 0 44.12-138.51 69.77-160.06s106.7-35.9 106.7-35.9Z" class="colorffffff svgShape"/><path fill="#47646c" d="m598.13 1133.85 20.52-4.1 5.64-153.9 172.88-1 22.58 148.77L830 1259v614.57l-75.93 2.06s-27.19-509.92-43.6-512-68.23 352.94-94.91 506.84c0 0-3.08 15.39-77-1 0 0 22.58-275 24.63-320.11s34.94-415.51 34.94-415.51Z" class="color47536c svgShape"/><path fill="#92e8ff" d="m733.7 797.71 1.85 67.14a6.92 6.92 0 0 0 4.45 6.27l4.72 1.81s-28.28 36.68-92.92-6.93a19.63 19.63 0 0 0 15.45-18.62l2.07-72.17Z" class="colorffa192 svgShape"/><path fill="#71d7f2" d="M735.07 846.06s-52.75-.65-65.89-55.14l65.2 23Z" class="colorf27971 svgShape"/><path fill="#80e4ff" d="M755.18 746.56s7.44-8.11 12.8-4c5.68 4.3 7 21.41-9.16 25.67 0-.05-4.55-8.4-3.64-21.67Z" class="colorff8a80 svgShape"/><path fill="#064252" d="M662.37 781.83s10.63-20.83 3.5-55.76c0 0 14-8.73 24.32-10.06s24.29 4.48 44.09-1.15a37.09 37.09 0 0 0 25.05-22.63 61.55 61.55 0 0 1-6.33 1.56 127.23 127.23 0 0 0 8.42-21.91s-4.72 2.15-24.63 3.87c0 0 4.62-6.06 6.21-12.63a108.8 108.8 0 0 1-35.07 8.45c-20.34 1.5-46.88 3.79-57.08 15.12s-10.35 13.16-10.35 13.16.75-15.28 5.54-19.59c0 0-12 9-9.64 22.62a106.14 106.14 0 0 0-11 5.12c-3.64 2.18 9.59-1.47 9.59-1.47s-14.62 41.7 24.84 85.68Z" class="color1e2136 svgShape"/><path fill="#064252" d="M640.5 699.85s5.18-17.72 18.92-27.05 44.43-11.72 54.77-18.64c0 0-5.8 12.8-22.67 22a205.78 205.78 0 0 0-29.3 19.56ZM743.58 709.12s11.59 22.78 16.15 35.29c0 0-4.28-36.35-11.64-44.7s-4.51 9.41-4.51 9.41Z" class="color1e2136 svgShape"/><path fill="#92e8ff" d="M668 778.34s-4.07-17.3-20-6.27c-6.34 4.38-1.4 23.89 18.94 21.54-.03 0 6.38-3.42 1.06-15.27Z" class="colorffa192 svgShape"/><path fill="#50bbd7" d="M726.53 789a.62.62 0 0 1-.57-.13c-1.28-1.09-1.58-2.17-1.11-4 .24-1 1.2-1.32 2-1.61a6.11 6.11 0 0 0 .64-.26l.66-.32a12.33 12.33 0 0 0 3.28-2 3.6 3.6 0 0 0 1.19-3.62 5.51 5.51 0 0 0-1.25-1.72l-.12-.12a36.74 36.74 0 0 1-9.49-20.1.63.63 0 1 1 1.24-.12 35.47 35.47 0 0 0 9.16 19.41l.12.12a6.65 6.65 0 0 1 1.51 2.13 4.84 4.84 0 0 1-1.51 5 13.35 13.35 0 0 1-3.59 2.2l-.65.32c-.23.11-.49.21-.75.31-.55.2-1.12.41-1.21.75-.34 1.35-.18 2 .72 2.74a.63.63 0 0 1 .07.88.73.73 0 0 1-.34.14Z" class="colord75050 svgShape"/><path fill="#fff" d="M748.15 791.48s-28.65 8.91-47.86 9.32c0 0 16.51 14.06 30.8 11.5s17.06-20.82 17.06-20.82ZM696.9 1151.3c44 0 92.61-2.17 123.77-10.14a.66.66 0 0 0 .48-.8.61.61 0 0 0-.8-.47c-68.35 17.45-221.4 7-223 6.9a.66.66 0 0 0 0 1.31c.8.06 46.8 3.2 99.55 3.2ZM715 1175.43c39.7 0 80.42-1.89 106.91-8.1a.68.68 0 0 0 .5-.8.65.65 0 0 0-.8-.49c-66.85 15.71-225 3.71-226.54 3.58a.59.59 0 0 0-.71.6.66.66 0 0 0 .6.71c1.04.07 59.32 4.5 120.04 4.5Z" class="colorffffff svgShape"/><path fill="#fff" d="M589.94 1248.22c8.46 0 43.09-4.41 61.92-73.68a.65.65 0 0 0-.46-.8.66.66 0 0 0-.81.47c-21.11 77.69-61.91 72.73-62.36 72.62a.75.75 0 0 0-.75.56.66.66 0 0 0 .56.75 18.8 18.8 0 0 0 1.9.08ZM828.21 1246.59a.65.65 0 0 0 .1-1.3c-.44-.07-44.21-7.65-51-71.75a.67.67 0 0 0-.66-.58.66.66 0 0 0-.61.73c6.91 65.15 51.66 72.83 52.1 72.89ZM710.48 1364.33a.64.64 0 0 0 .65-.64l3.08-188.28a.65.65 0 0 0-.65-.66.64.64 0 0 0-.65.64l-3.08 188.28a.65.65 0 0 0 .65.66Z" class="colorffffff svgShape"/><path fill="#fff" d="M712 1323.8a.6.6 0 0 0 .42-.15l21.58-17.94a.65.65 0 0 0 .24-.49l3.59-129.8a.65.65 0 0 0-.63-.67.71.71 0 0 0-.68.63l-3.58 129.5-21.32 17.76a.66.66 0 0 0-.09.93.64.64 0 0 0 .47.23ZM724.9 1121.91l-74.63-23.08a.64.64 0 0 1-.47-.6l-3.85-107a.66.66 0 0 1 .18-.48.67.67 0 0 1 .48-.2h137.73a.66.66 0 0 1 .66.64l3.09 98.5a.66.66 0 0 1-.36.61l-62.34 31.55a.73.73 0 0 1-.3.06Zm58.81-130H647.3l3.8 105.83 73.9 22.84 61.73-31.24Z" class="colorffffff svgShape"/><path fill="#47646c" d="m624.29 975.85-5.13-102.6 17.64-3.78 6.35 107.73-18.86-1.35zM797.17 974.82l-12.82-90.16-17.32-5.77 11.93 97.35 18.21-1.42z" class="color47536c svgShape"/><path fill="#92e8ff" d="m968.43 986.87 24.72-45.53s7.76-42 3-44.77-46.15-3.11-46.15-3.11 2.09 26 3.35 55.58c0 .44-19.73 30-19.73 30Z" class="colorffa192 svgShape"/><path fill="#92e8ff" d="M984.08 957.1s12.72-11.53 26-32.45c5.05-8 23.49-22.29 18.07-25.38s-25.25 18.07-27.11 17.32-3.15-16.68-3.15-16.68l-11.73 22.93Z" class="colorffa192 svgShape"/><path fill="#92e8ff" d="M996.17 909.24s15.25-58.16 10.66-60.24-18.37 45-18.37 45 3.95-24.11-.79-25.33-12.55 25.29-12.55 25.29 3.44-25.22-1-25.09-12.38 25.47-12.38 25.47 5.35-19.39 1.36-19.18-13.1 18.3-13.1 18.3l4.59 25.88ZM546.61 1269.08l3.89 51.66s-10.15 41.51-15.59 42.08-43.41-16.1-43.41-16.1 12.56-22.85 25.84-49.32c.2-.4-5.71-35.41-5.71-35.41Z" class="colorffa192 svgShape"/><path fill="#92e8ff" d="M548.68 1302.65s6.88 15.74 10.38 40.25c1.33 9.34 12.28 29.95 6.08 30.55s-15.63-26.83-17.63-26.91-9.71 13.92-9.71 13.92l-1.3-25.73Z" class="colorffa192 svgShape"/><path fill="#92e8ff" d="M540.09 1351.27s-9.93 59.29-15 59.3 1.71-48.57 1.71-48.57-16.89 50.78-21.72 50 9.54-55.39 9.54-55.39S489.06 1402 485 1400s17.51-49.28 17.51-49.28-26.63 32.19-30.18 30.36 19.13-34.38 19.13-34.38l14.84-21.7ZM1786.02 1935.42l-2.12-157.79 44.25 5.51 6.49 142.88-48.62 9.4z" class="colorffa192 svgShape"/><path fill="#2ad2ff" d="M1785.7 1925.2s-4.4 32.43.48 58.48l144.89 6s10.09-27.41-22.37-35.72-73.56-35-73.56-35-30.3 23.94-49.44 6.24Z" class="colorff2a2a svgShape"/><path fill="#fff" d="m1786.14 1983.68 144.89 6a30.48 30.48 0 0 0 1-14.54l-147.64-6.07c-.1 4.93.87 9.93 1.75 14.61Z" class="colorffffff svgShape"/><path fill="#303030" d="M1829.18 1951.57a5.25 5.25 0 0 1-2.49-.73 6.08 6.08 0 0 1-2.67-5 13.88 13.88 0 0 1 1-5.23 71.75 71.75 0 0 1 5.15-11.53 21.18 21.18 0 0 1 5.25-6.68c3.33-2.56 7.7-3.24 11.52-3.57a91.18 91.18 0 0 1 10.29-.31h.73c3.82.15 8.68.7 12.44 3.48 1.73 1.3 2.51 2.88 2.13 4.36a4.17 4.17 0 0 1-2.67 2.65 11.87 11.87 0 0 1-5.1.77 32.35 32.35 0 0 1-4.9-.68c-7-1.39-14.13-3.12-21.09-5.13a48.6 48.6 0 0 1 .65 11.17 25.83 25.83 0 0 1-3.15 11.7 10.22 10.22 0 0 1-3.81 4 6.48 6.48 0 0 1-3.28.73Zm7.62-27.88-.21.18a19.12 19.12 0 0 0-4.76 6.09 70.88 70.88 0 0 0-5 11.21 12.54 12.54 0 0 0-.91 4.54 4.27 4.27 0 0 0 1.77 3.51 4.13 4.13 0 0 0 3.89-.09 8.24 8.24 0 0 0 3.08-3.27 23.94 23.94 0 0 0 2.89-10.85 45.27 45.27 0 0 0-.75-11.32Zm2.75-1.48c6.82 2 13.78 3.65 20.7 5a27.1 27.1 0 0 0 4.6.66 10.05 10.05 0 0 0 4.3-.64c.51-.21 1.37-.66 1.55-1.36s-.6-1.75-1.43-2.37c-3.33-2.47-7.83-3-11.38-3.11h-.7a89.54 89.54 0 0 0-10.07.29 26.36 26.36 0 0 0-7.57 1.53ZM1785.06 1970a1 1 0 0 1 .08-1.9l146.94 6.11a1 1 0 0 1-.08 1.9Z" class="color303030 svgShape"/><path fill="#303030" d="M1825.43 1971.45a1 1 0 0 1-.91-.84c-3.8-31.57-39.1-31.4-39.44-31.34a1 1 0 0 1 0-1.91c.56.06 37.37-.21 41.38 33a1 1 0 0 1-.83 1.06ZM1843.18 1972.34a1 1 0 0 1-.8-.5 1 1 0 0 1 .38-1.29l.59-.32a89.73 89.73 0 0 1 43.73-10.47l36.72.71a1 1 0 0 1 0 1.91l-36.72-.72a87.85 87.85 0 0 0-42.81 10.24l-.57.32a1.07 1.07 0 0 1-.52.12ZM1874.16 1954.82a1 1 0 0 1-.4-.12l-50.57-26.3a1 1 0 0 1-.4-1.27 1 1 0 0 1 1.28-.4l49.86 25.93 6.86-8.91a.93.93 0 0 1 1.32-.17.94.94 0 0 1 .17 1.33l-7.34 9.54a.92.92 0 0 1-.78.37Z" class="color303030 svgShape"/><path fill="#92e8ff" d="m1331.71 1843.73 126.38 37.86-1.27 42.69-114.43-22.92-10.68-57.63z" class="colorffa192 svgShape"/><path fill="#2ad2ff" d="M1352.78 1849.93s-30.46-14.35-57.53-17.62l-50.74 140.3s23.78 18.38 42-10.9 57.1-61.34 57.1-61.34-14.12-37.13 9.17-50.44Z" class="colorff2a2a svgShape"/><path fill="#fff" d="m1295.27 1832.27-50.75 140.3a31.51 31.51 0 0 0 14 5.5l51.65-143c-4.87-1.63-10-2.21-14.9-2.8Z" class="colorffffff svgShape"/><path fill="#303030" d="M1326.33 1935.25a3.06 3.06 0 0 1-1.54-.47 4.25 4.25 0 0 1-1.78-3.43c-.28-3.48 1.26-6.64 3-9.83 3.59-6.53 7.47-13 11.58-19.13a48.3 48.3 0 0 1-11.17-2.82 26.55 26.55 0 0 1-10.51-6.69 10.66 10.66 0 0 1-2.71-5 6.08 6.08 0 0 1 1.74-5.69 6.44 6.44 0 0 1 5.79-1.07 14.86 14.86 0 0 1 4.83 2.62 73.53 73.53 0 0 1 9.71 8.62 21.46 21.46 0 0 1 4.93 7.22c1.48 4.07.8 8.56-.06 12.41a88.76 88.76 0 0 1-2.9 10.17c-1.46 4.23-3.49 9-7.51 11.85a5.8 5.8 0 0 1-3.4 1.24Zm12.73-31.55c-4 6-7.83 12.36-11.34 18.74-1.6 2.93-3 5.8-2.77 8.75a2.61 2.61 0 0 0 .86 1.93c.69.44 1.71.1 2.78-.67 3.56-2.56 5.44-6.94 6.79-10.89a84.86 84.86 0 0 0 2.84-10 27.33 27.33 0 0 0 .84-7.86Zm-20.06-20.85a4 4 0 0 0-2.77.84 4.13 4.13 0 0 0-1.1 3.85 8.66 8.66 0 0 0 2.24 4 24.46 24.46 0 0 0 9.76 6.17 46.26 46.26 0 0 0 11.34 2.8c0-.09-.07-.18-.1-.28a19.8 19.8 0 0 0-4.51-6.54 71.59 71.59 0 0 0-9.45-8.38 13.23 13.23 0 0 0-4.19-2.3 5.08 5.08 0 0 0-1.22-.16ZM1258.44 1979a.72.72 0 0 1-.29-.06 1 1 0 0 1-.59-1.24l51.46-142.3a.93.93 0 0 1 1.24-.58 1 1 0 0 1 .59 1.24l-51.46 142.3a1 1 0 0 1-.95.64Z" class="color303030 svgShape"/><path fill="#303030" d="M1302 1876.6a45.19 45.19 0 0 1-6.1-.71 1 1 0 0 1-.79-1.13 1 1 0 0 1 1-.81h.14a40.39 40.39 0 0 0 5.78.67c27.67 1.16 37.09-29.34 37.18-29.68a.94.94 0 0 1 1.22-.65 1 1 0 0 1 .64 1.22c-.13.35-9.98 32.3-39.07 31.09ZM1274.47 1975.18a1.6 1.6 0 0 1-.27 0 1 1 0 0 1-.62-1.23l12.06-35.79a90.11 90.11 0 0 0 3.2-45.17l-.13-.69a1 1 0 0 1 .78-1.14 1 1 0 0 1 1.14.78l.13.69a92.19 92.19 0 0 1-3.26 46.14l-12.06 35.79a1 1 0 0 1-.97.62ZM1304.32 1939a1 1 0 0 1-.76-.42l-7.09-10.16a1 1 0 0 1 .11-1.24l41.46-41.47a1 1 0 0 1 1.38 0 1 1 0 0 1 0 1.38l-40.88 40.91 6.63 9.48a1 1 0 0 1-.26 1.36.89.89 0 0 1-.59.16Z" class="color303030 svgShape"/><path fill="#92e8ff" d="M1688.6 1459.08s49.47 117.26 76.09 117.19c48-.12 144.12-134.09 144.12-134.09l-19.39-20.52-106.48 74.75-37.47-72.25Z" class="colorffa192 svgShape"/><path fill="#77e2ff" d="m1592.41 1287.77 64.17 19.73s52.86 40.6 77.72 57.63 50.75 113.92 50.75 113.92l-78.74 50.66s-21.62-54.07-25.88-54.25-44.4 68.8-44.4 68.8l-188.38 41.37s17.07-276.56 38.74-285.25 106.02-12.61 106.02-12.61Z" class="colorff7a77 svgShape"/><path fill="#4e8b9b" d="M1647.45 1602.27s-1.94-55.49 22.4-128l-151.72-68.37-87.22 176.66s-20.05 97.19-7.38 125.42 115.61 165.73 115.61 165.73l-162.91-28.91-12.07 89.2s288.1 54.2 311.33 33.86 11.19-80.47-3.74-105.6-71.38-127.66-69-134 160-29.54 160-29.54l11.25 214.66 77.65 3.24s14.27-290.29-9.35-311.53-194.85-2.82-194.85-2.82Z" class="color899b4e svgShape"/><path fill="#007898" d="M1541.74 1580.36a.55.55 0 0 1-.43-.21l-42.39-52.62a.59.59 0 0 1-.1-.57l34.45-94.39a.61.61 0 0 1 .32-.33.51.51 0 0 1 .45 0l115.38 47.06a.59.59 0 0 1 .34.75l-30 82a.59.59 0 0 1-.42.36l-77.4 17.89Zm-41.7-53.3 42 52.07 76.74-17.73 29.73-81.22-114.29-46.63Z" class="color006898 svgShape"/><path fill="#92e8ff" d="M1608.3 1513.81s17.35-8.12 25.29-8.27 25.2 9.21 25.2 9.21l12.88 16.72s-5.8 8.36-18.32-7.67l-14.6-2.85s-24.63 16.51-34 17.91 3.55-25.05 3.55-25.05ZM1429.16 1391.63s-82.26 165.4-46.36 173.29 194.3-2.36 194.3-2.36l.75-30.12-130.39-16.11 51.85-99.86Z" class="colorffa192 svgShape"/><path fill="#77e2ff" d="M1486.39 1300.38c-21.65 8.09-36.39 29.44-48.11 54.91s-36.21 66.71-36.21 66.71 22.87 33.21 85.34 35.82l36.19-79Z" class="colorff7a77 svgShape"/><path fill="#007898" d="M1518.93 1624.14c-26.28-1.1-57.14-4.79-92.54-12.78a.58.58 0 0 1-.43-.7.61.61 0 0 1 .7-.44c148.66 33.57 219.79-8 220.48-8.44a.61.61 0 0 1 .81.19.59.59 0 0 1-.19.81c-.19.1-18.11 10.76-54.2 17.08-18.15 3.14-43.08 5.59-74.63 4.28Z" class="color006898 svgShape"/><path fill="#007898" d="M1522.68 1605.05a550.81 550.81 0 0 1-93.39-12 .58.58 0 0 1-.43-.7.6.6 0 0 1 .7-.43c1.3.32 130.2 30.54 215.08-4.47a.58.58 0 0 1 .76.32.59.59 0 0 1-.32.77c-37.17 15.3-82.75 18.17-122.4 16.51ZM1579.83 1920.14c-53.84-2.25-198.28-30.67-205.49-32.09a.55.55 0 0 1-.46-.68.58.58 0 0 1 .59-.48h.09c2.09.41 208.81 41 223.69 30.55a1.34 1.34 0 0 0 .61-.86c1.4-10.14-54.81-88.41-95.85-145.57-17.75-24.71-33.07-46-40.08-56.78-23.23-35.58-12.45-97.64-12.34-98.26a.59.59 0 1 1 1.17.19c-.11.62-10.81 62.25 12.15 97.43 7 10.72 22.31 32 40 56.74 43.45 60.51 97.53 135.81 96.07 146.42a2.41 2.41 0 0 1-1.09 1.64c-2.33 1.7-9.17 2.17-19.06 1.75Z" class="color006898 svgShape"/><path fill="#007898" d="M1455.65 1695.72a.59.59 0 0 1-.21-1.12c48.18-20.94 38.32-71.11 38.2-71.62a.61.61 0 0 1 .46-.7c.38 0 .64.14.7.46.1.51 10.18 51.6-38.89 72.93a1.29 1.29 0 0 1-.26.05ZM1602.73 1728.85a.58.58 0 0 1-.55-.47c-.17-.88-17-88.14-31-105.46a.57.57 0 0 1 .08-.82.6.6 0 0 1 .83.08c14.11 17.55 30.52 102.37 31.22 106a.59.59 0 0 1-.47.69Z" class="color006898 svgShape"/><path fill="#007898" d="M1601.09 1717.42a.45.45 0 0 1-.29-.1.56.56 0 0 1-.18-.8l15.09-23.36c-.77-18.38-20.81-73.13-21-73.69a.56.56 0 0 1 .35-.74.54.54 0 0 1 .74.35c.83 2.27 20.45 55.84 21.1 74.22a.59.59 0 0 1 0 .24l-15.25 23.61a.57.57 0 0 1-.56.27ZM1635.5 1617.38c-8.56-.36-13-3.33-13.36-3.6a.57.57 0 0 1-.13-.81.56.56 0 0 1 .81-.14c.17.09 19.5 13 57.42-13.2a.56.56 0 0 1 .81.14.6.6 0 0 1-.14.82c-20.57 14.22-35.66 17.2-45.41 16.79Z" class="color006898 svgShape"/><path fill="#92e8ff" d="m1673.26 1244.57-9.17 56.74a15.78 15.78 0 0 0 3.47 12.66l2.86 3.43s-32.61 22.22-84.56-29.24l7.06-1.24a14.24 14.24 0 0 0 11.45-11.05l13.49-63.27Z" class="colorffa192 svgShape"/><path fill="#71d7f2" d="M1666.08 1289.36s-48.49-9.8-51.09-62.31l56.07 32.53Z" class="colorf27971 svgShape"/><path fill="#4e8b9b" d="m1517.64 1408.24 26.17-117.71 20.83-1.26-30.09 126.32-16.91-7.35zM1669.85 1474.28l38.96-128.9-15.51-11.31-40.4 137.9 16.95 2.31z" class="color899b4e svgShape"/><path fill="#92e8ff" d="M1884 1423s8.51-23.23 17.94-40.59c2.68-4.94 7.68 9.24 12.82 8.47s31.49-13.51 31.49-13.51l19.47 41s-36 27.1-58.54 25.31l-29.29 33-25.06-28.19Z" class="colorffa192 svgShape"/><path fill="#92e8ff" d="M1895.75 1397.77s5.68-17 10.71-22.46 22.48-11.14 22.48-11.14l19.63 2.06s1.92 9.32-17 7.46l-11.35 8s-4.7 27.33-9.79 34.58-14.68-18.5-14.68-18.5Z" class="colorffa192 svgShape"/><path fill="#91bbc6" d="M1622.34 1490.58h19.42v97.66h-19.42z" class="colorbcc691 svgShape" transform="rotate(22.58 1631.944 1539.254)"/><path fill="#91bbc6" d="m1664.17 1467 1 10.59a3.16 3.16 0 0 1-2.86 3.44l-13.43 1.23a3.16 3.16 0 0 1-3.44-2.86l-1.05-11.47a19.43 19.43 0 1 0 19.81-.93ZM1606.58 1612.06l-4-9.86a3.16 3.16 0 0 1 1.74-4.11l12.51-5.06a3.17 3.17 0 0 1 4.12 1.75l4.31 10.68a19.43 19.43 0 1 0-18.69 6.6Z" class="colorbcc691 svgShape"/><path fill="#92e8ff" d="M1573.77 1529.57a329 329 0 0 1 36.91-16.73c1.69-.64.84 11.86 10.65 16.88 5 2.54 33.68 14.42 33.68 14.42l-17.36 45.27s-47.53-7.89-62.77-26.67l-47.15 1.65-7.47-39.14Z" class="colorffa192 svgShape"/><rect width="12.18" height="41.27" x="1639.11" y="1526.17" fill="#92e8ff" class="colorffa192 svgShape" rx="2.57" transform="rotate(109.62 1645.199 1546.803)"/><rect width="12.18" height="41.27" x="1632.59" y="1537.4" fill="#92e8ff" class="colorffa192 svgShape" rx="2.57" transform="rotate(109.62 1638.677 1558.037)"/><rect width="12.18" height="40.87" x="1627.13" y="1548.32" fill="#92e8ff" class="colorffa192 svgShape" rx="2.57" transform="rotate(109.9 1634.729 1562.504)"/><rect width="12.18" height="35.6" x="1622.69" y="1562.03" fill="#92e8ff" class="colorffa192 svgShape" rx="2.57" transform="rotate(109.62 1628.771 1579.845)"/><path fill="#80e4ff" d="M1710.57 1204s9.33-5.53 13.22-.17c4.12 5.66.54 22.17-15.94 21.57 0-.05-1.91-9.21 2.72-21.4Z" class="colorff8a80 svgShape"/><path fill="#6be0ff" d="M1613.07 1210.76s15.93-16.59 19.17-51.55c0 0 15.65-4.25 25.78-2.56s21.62 11.14 41.88 11.47a36.54 36.54 0 0 0 30.06-14.19 59.29 59.29 0 0 1-6.42-.34 125 125 0 0 0 14.18-18.24s-5.07.68-24.32-3.37c0 0 6.08-4.39 9.46-10.14a107.21 107.21 0 0 1-35.47-2c-19.58-4.39-45.25-9.78-58.08-2s-13.51 9.46-13.51 9.46 5.06-14.19 10.8-16.89c0 0-13.84 5.07-15.53 18.58a103.91 103.91 0 0 0-11.82 1.69c-4 1 9.46 1.35 9.46 1.35s-25.66 35.13-1 87.81Z" class="colorffbe6b svgShape"/><path fill="#6be0ff" d="M1615.8 1127.28s9.92-15.23 25.53-20.11 45.21 1.61 56.92-2c0 0-9.1 10.41-27.64 14.32a202.2 202.2 0 0 0-33.17 10.09ZM1710.3 1165.37s4.44 24.76 5.18 37.85c0 0 6.31-35.47 1.76-45.45s-6.94 7.6-6.94 7.6Z" class="colorffbe6b svgShape"/><path fill="#92e8ff" d="M1619.37 1209.07s1.09-17.46-17.09-11.61c-7.22 2.32-8.13 22.12 11.71 25.69.01 0 7.01-1.39 5.38-14.08Z" class="colorffa192 svgShape"/><path fill="#50bbd7" d="M1671.48 1235.79a.58.58 0 0 1-.49-.28 3.35 3.35 0 0 1 .08-4.07 2.63 2.63 0 0 1 2.32-1 6.78 6.78 0 0 0 .68-.07l.72-.11a12.17 12.17 0 0 0 3.65-.94 3.53 3.53 0 0 0 2.15-3.08 5.29 5.29 0 0 0-.69-2l-.07-.15a36.08 36.08 0 0 1-3.22-21.64.61.61 0 1 1 1.21.2 34.9 34.9 0 0 0 3.11 20.9l.07.15a6.3 6.3 0 0 1 .82 2.44 4.77 4.77 0 0 1-2.83 4.25 13.35 13.35 0 0 1-4 1l-.7.11c-.25 0-.52.06-.8.08-.57 0-1.17.07-1.34.37-.71 1.17-.74 1.8-.11 2.78a.61.61 0 0 1-.19.85.53.53 0 0 1-.37.21Z" class="colord75050 svgShape"/><path fill="#fff" d="M1691.16 1244.27s-29.53.24-47.75-4.83c0 0 11.55 17.94 25.74 19.6s22.01-14.77 22.01-14.77Z" class="colorffffff svgShape"/><path fill="#47646c" d="M1933.32 1321.52h13.73v163.36h-13.73z" class="color47536c svgShape" transform="rotate(-21.35 1940.365 1403.296)"/><circle cx="1907.87" cy="1319.55" r="22.59" fill="#6be0ff" class="colorffbe6b svgShape" transform="rotate(-9.15 1908.414 1319.86)"/><rect width="11.39" height="38.6" x="1935.99" y="1366.43" fill="#80e4ff" class="colorff8a80 svgShape" rx="2.4" transform="rotate(63.21 1941.683 1385.712)"/><rect width="11.39" height="38.6" x="1939.39" y="1378.08" fill="#80e4ff" class="colorff8a80 svgShape" rx="2.4" transform="rotate(63.21 1945.096 1397.413)"/><rect width="11.39" height="38.22" x="1943.13" y="1388.88" fill="#80e4ff" class="colorff8a80 svgShape" rx="2.4" transform="rotate(63.21 1948.816 1407.973)"/><rect width="11.39" height="33.29" x="1947.77" y="1401.49" fill="#80e4ff" class="colorff8a80 svgShape" rx="2.4" transform="rotate(63.21 1953.461 1418.143)"/><rect width="160.56" height="13.64" x="1920.96" y="1474.14" fill="#47646c" class="color47536c svgShape" rx="2.88" transform="rotate(180 2001.24 1480.965)"/></g></svg>