<?xml version="1.0" encoding="UTF-8"?>
<svg id="Layer_1" data-name="Layer 1" xmlns="http://www.w3.org/2000/svg" xmlns:xlink="http://www.w3.org/1999/xlink" viewBox="0 0 139.85 131.81">
  <defs>
    <style>
      .cls-1 {
        stroke: #70c0e4;
        stroke-miterlimit: 10;
        stroke-width: 3.19px;
      }

      .cls-1, .cls-2 {
        fill: none;
      }

      .cls-3 {
        opacity: .7;
      }

      .cls-4 {
        fill: #70c0e4;
      }

      .cls-5 {
        clip-path: url(#clippath);
      }
    </style>
    <clipPath id="clippath">
      <rect class="cls-2" y="0" width="139.85" height="131.81"/>
    </clipPath>
  </defs>
  <g class="cls-3">
    <g class="cls-5">
      <path class="cls-1" d="M87.52,118.7s0,0,0,.01h0s.01-.01,.01-.01Z"/>
      <path class="cls-4" d="M138.81,53.65c-.78-2.35-2.02-4.6-3.7-6.58h-.01s0-.02,0-.02c-.07-.09-.68-.81-1.69-1.97-1.01-1.17-2.44-2.79-4.18-4.73-3.55-3.93-8.41-9.16-13.87-14.52h0s0-.01,0-.01c-3.7-3.62-7.68-7.31-11.81-10.74h-.01s-.06-.06-.06-.06c-2.07-1.71-4.18-3.37-6.37-4.93l-.02-.02-.04-.03c-2.18-1.56-4.46-3.05-6.88-4.4h0s0,0,0,0h-.02s-.4-.23-.4-.23l-.11-.06h-.02s-1.98-1.03-1.98-1.03c-5.63-2.89-11.78-4.33-17.93-4.33s-12.67,1.53-18.43,4.59l-1.44,.77-.24,.11-.26,.12-.06,.03-.66,.39h0s0,0,0,0c-2.41,1.41-4.67,2.95-6.83,4.57h0s-.01,0-.01,0c0,0,0,0,0,0l-.02,.02c-3.24,2.42-6.34,5.06-9.32,7.77-2.99,2.73-5.88,5.55-8.61,8.34h0s0,0,0,0h0c-5.35,5.47-10.11,10.8-13.57,14.81-1.73,2.01-3.14,3.68-4.13,4.87-.5,.59-.89,1.07-1.16,1.4-.13,.17-.24,.3-.32,.39h0s-.09,.11-.09,.11h0s-.02,.03-.02,.03h0s0,.01,0,.01h0s0,0,0,0h-.01s0,.02,0,.02h0c-1.63,2.02-2.82,4.29-3.55,6.65C.3,56.99,0,59.01,0,61.02c0,1.63,.2,3.24,.58,4.82,.87,3.53,2.71,6.88,5.46,9.58,.48,.47,.99,.92,1.53,1.35,2.04,1.64,4.35,2.82,6.73,3.53,1.9,.57,3.84,.84,5.77,.84,1.71,0,3.42-.22,5.07-.64,3.52-.9,6.83-2.75,9.51-5.49,.34-.35,.67-.71,.98-1.08h0s0-.02,0-.02l.08-.09h0s.05-.05,.05-.05h0s.05-.07,.05-.07h0s.14-.17,.37-.46c.69-.84,2.34-2.84,4.62-5.48l.04-.04c2.01-2.32,4.52-5.15,7.26-8.1,.22-.23,.42-.29,.66-.3,.24,0,.5,.1,.67,.26,.17,.17,.27,.34,.28,.66l.44,51.61h0c.03,2.76,.62,5.43,1.67,7.84,1.05,2.41,2.54,4.56,4.38,6.36,1.84,1.8,4.02,3.25,6.45,4.25,2.37,.97,4.96,1.51,7.65,1.51h.22c2.77-.03,5.43-.62,7.84-1.68,2.41-1.05,4.56-2.55,6.36-4.38,1.8-1.84,3.24-4.02,4.24-6.43,.99-2.38,1.53-4.99,1.53-7.7v-.21s-.44-51.56-.44-51.56h0c0-.33,.11-.5,.28-.68,.17-.16,.44-.27,.67-.27,.24,0,.43,.07,.65,.29,2.88,2.97,5.51,5.82,7.6,8.14,1.58,1.75,2.85,3.21,3.72,4.21,.43,.5,.76,.89,.98,1.15,.11,.13,.19,.23,.21,.25h0s.06,.08,.06,.08l.03,.03h0s0,0,0,0h0c.41,.49,.85,.96,1.3,1.4,3.67,3.6,8.46,5.54,13.28,5.73,.27,.01,.54,.02,.82,.02,2.15,0,4.31-.34,6.39-1.04,2.35-.79,4.6-2.02,6.58-3.7,.5-.42,.98-.87,1.43-1.33,3.6-3.67,5.54-8.45,5.73-13.28,.01-.27,.02-.54,.02-.82,0-2.15-.34-4.31-1.04-6.39M6.97,50.35h0s0,0,0,0Zm129.68,10.37c-.16,4.06-1.8,8.09-4.82,11.18-.38,.39-.78,.76-1.21,1.12-1.67,1.41-3.57,2.45-5.54,3.11-1.75,.59-3.57,.87-5.38,.88-.23,0-.46,0-.69-.02-4.07-.16-8.09-1.8-11.18-4.82-.39-.38-.76-.78-1.12-1.21h-.01s0,0,0,0l-.07-.08h0s-.12-.14-.24-.27c-.23-.27-.56-.66-1-1.16-.88-1.01-2.17-2.48-3.76-4.25-2.11-2.34-4.76-5.22-7.68-8.23-.81-.85-1.91-1.26-2.94-1.26-1.06,0-2.07,.4-2.84,1.12-.78,.71-1.3,1.8-1.29,3v.05s0-.01,0-.01l.44,51.56v.18c0,2.28-.46,4.49-1.29,6.48h0c-.84,2.04-2.05,3.87-3.57,5.42-1.52,1.55-3.33,2.81-5.35,3.69-2.02,.88-4.27,1.39-6.6,1.41h-.18c-2.26,0-4.45-.45-6.44-1.27-2.04-.84-3.88-2.06-5.43-3.58-1.55-1.52-2.81-3.33-3.69-5.36-.88-2.02-1.38-4.27-1.4-6.59h0s-.44-51.61-.44-51.61c0-1.2-.53-2.27-1.31-2.98-.78-.71-1.78-1.1-2.83-1.1-1.05,0-2.18,.43-2.99,1.32-2.76,2.97-5.27,5.8-7.3,8.14h0s-.04,.05-.04,.05c-2.32,2.68-4.01,4.72-4.72,5.59-.24,.29-.36,.45-.37,.46h0s-.04,.04-.04,.04l-.04,.05h0s-.08,.09-.08,.09c-.27,.32-.55,.62-.83,.91-2.26,2.31-5.06,3.87-8.03,4.63-1.39,.36-2.83,.54-4.27,.54-1.63,0-3.26-.23-4.86-.71-2-.6-3.94-1.59-5.65-2.97-.45-.36-.88-.74-1.29-1.14-2.31-2.26-3.87-5.09-4.59-8.06-.33-1.33-.49-2.7-.49-4.07,0-1.69,.25-3.39,.77-5.04,.62-1.98,1.62-3.9,2.99-5.6h0s.02-.03,.02-.03h0s0,0,0,0h0s.03-.04,.03-.04h0s.09-.1,.09-.1h0c.07-.09,.18-.22,.31-.39,.27-.33,.65-.79,1.14-1.38,.98-1.18,2.38-2.84,4.09-4.83,3.44-3.97,8.15-9.26,13.44-14.66h0c2.7-2.76,5.55-5.55,8.49-8.23,2.94-2.67,5.97-5.25,9.1-7.59h.01s0-.01,0-.01c2.09-1.56,4.25-3.04,6.54-4.37h0s.57-.33,.57-.33l.2-.1,.26-.13h.03s1.5-.81,1.5-.81c5.29-2.81,11.11-4.22,16.93-4.22s11.3,1.32,16.48,3.98l1.93,.99,.09,.05,.35,.19h0s.02,.01,.02,.01c2.31,1.28,4.49,2.71,6.62,4.23h0c2.12,1.52,4.2,3.14,6.23,4.82h.01c4.07,3.38,8.01,7.03,11.68,10.63h0c5.4,5.3,10.23,10.49,13.74,14.39,1.73,1.92,3.14,3.53,4.14,4.68,1,1.15,1.59,1.86,1.66,1.94h0s.01,.01,.01,.01h0c1.41,1.67,2.45,3.57,3.11,5.54,.59,1.75,.88,3.57,.88,5.38,0,.23,0,.46-.01,.69"/>
      <polygon class="cls-4" points="88.98 119.32 88.98 119.32 88.98 119.32 88.98 119.32"/>
      <polygon class="cls-4" points="135.11 47.06 135.11 47.06 135.11 47.07 135.11 47.06"/>
      <polygon class="cls-1" points="114.07 26.81 114.22 26.96 114.23 26.96 114.07 26.81"/>
    </g>
  </g>
</svg>