<svg xmlns="http://www.w3.org/2000/svg" id="Layer_1" data-name="Layer 1" viewBox="0 0 139.85 131.81"><defs><clipPath id="clippath"><path d="M0 0h139.85v131.81H0z" style="fill:none"/></clipPath><style>.cls-1{stroke:#70c0e4;stroke-miterlimit:10;stroke-width:3.19px;fill:none}.cls-4{fill:#70c0e4}</style></defs><g style="opacity:.7"><g style="clip-path:url(#clippath)"><path d="M87.52 118.7v.01l.01-.01Z" class="cls-1"/><path d="M138.81 53.65c-.78-2.35-2.02-4.6-3.7-6.58h-.01v-.02c-.07-.09-.68-.81-1.69-1.97-1.01-1.17-2.44-2.79-4.18-4.73-3.55-3.93-8.41-9.16-13.87-14.52s0-.01 0-.01c-3.7-3.62-7.68-7.31-11.81-10.74h-.01l-.06-.06c-2.07-1.71-4.18-3.37-6.37-4.93l-.02-.02-.04-.03c-2.18-1.56-4.46-3.05-6.88-4.4h-.02l-.4-.23-.11-.06h-.02l-1.98-1.03C82.01 1.43 75.86-.01 69.71-.01S57.04 1.52 51.28 4.58l-1.44.77-.24.11-.26.12-.06.03-.66.39c-2.41 1.41-4.67 2.95-6.83 4.57s-.01 0-.01 0l-.02.02c-3.24 2.42-6.34 5.06-9.32 7.77-2.99 2.73-5.88 5.55-8.61 8.34-5.35 5.47-10.11 10.8-13.57 14.81-1.73 2.01-3.14 3.68-4.13 4.87-.5.59-.89 1.07-1.16 1.4-.13.17-.24.3-.32.39s-.09.11-.09.11l-.02.03v.01h-.01v.02a20.03 20.03 0 0 0-3.55 6.65c-.68 2-.98 4.02-.98 6.03 0 1.63.2 3.24.58 4.82.87 3.53 2.71 6.88 5.46 9.58.48.47.99.92 1.53 1.35 2.04 1.64 4.35 2.82 6.73 3.53 1.9.57 3.84.84 5.77.84 1.71 0 3.42-.22 5.07-.64a20.336 20.336 0 0 0 10.49-6.57s0-.02 0-.02l.08-.09.05-.05.05-.07s.14-.17.37-.46c.69-.84 2.34-2.84 4.62-5.48l.04-.04c2.01-2.32 4.52-5.15 7.26-8.1.22-.23.42-.29.66-.3.24 0 .5.1.67.26.17.17.27.34.28.66l.44 51.61a20.132 20.132 0 0 0 6.05 14.2c1.84 1.8 4.02 3.25 6.45 4.25 2.37.97 4.96 1.51 7.65 1.51h.22c2.77-.03 5.43-.62 7.84-1.68 2.41-1.05 4.56-2.55 6.36-4.38 1.8-1.84 3.24-4.02 4.24-6.43.99-2.38 1.53-4.99 1.53-7.7v-.21l-.44-51.56c0-.33.11-.5.28-.68.17-.16.44-.27.67-.27.24 0 .43.07.65.29 2.88 2.97 5.51 5.82 7.6 8.14 1.58 1.75 2.85 3.21 3.72 4.21.43.5.76.89.98 1.15.11.13.19.23.21.25s.06.08.06.08l.03.03a20.11 20.11 0 0 0 14.58 7.13c.27.01.54.02.82.02 2.15 0 4.31-.34 6.39-1.04 2.35-.79 4.6-2.02 6.58-3.7.5-.42.98-.87 1.43-1.33a20.09 20.09 0 0 0 5.73-13.28c.01-.27.02-.54.02-.82 0-2.15-.34-4.31-1.04-6.39M6.97 50.35Zm129.68 10.37c-.16 4.06-1.8 8.09-4.82 11.18-.38.39-.78.76-1.21 1.12a16.948 16.948 0 0 1-5.54 3.11c-1.75.59-3.57.87-5.38.88-.23 0-.46 0-.69-.02a16.953 16.953 0 0 1-12.3-6.03h-.01l-.07-.08s-.12-.14-.24-.27c-.23-.27-.56-.66-1-1.16-.88-1.01-2.17-2.48-3.76-4.25-2.11-2.34-4.76-5.22-7.68-8.23a4.089 4.089 0 0 0-2.94-1.26c-1.06 0-2.07.4-2.84 1.12-.78.71-1.3 1.8-1.29 3v.05-.01l.44 51.56v.18c0 2.28-.46 4.49-1.29 6.48a17.01 17.01 0 0 1-8.92 9.11c-2.02.88-4.27 1.39-6.6 1.41h-.18a16.922 16.922 0 0 1-11.87-4.85 16.94 16.94 0 0 1-5.09-11.95s-.44-51.61-.44-51.61c0-1.2-.53-2.27-1.31-2.98s-1.78-1.1-2.83-1.1-2.18.43-2.99 1.32c-2.76 2.97-5.27 5.8-7.3 8.14s-.04.05-.04.05c-2.32 2.68-4.01 4.72-4.72 5.59-.24.29-.36.45-.37.46l-.04.04-.04.05-.08.09a17.188 17.188 0 0 1-8.86 5.54 17.059 17.059 0 0 1-9.13-.17c-2-.6-3.94-1.59-5.65-2.97a16.87 16.87 0 0 1-5.88-9.2c-.33-1.33-.49-2.7-.49-4.07 0-1.69.25-3.39.77-5.04.62-1.98 1.62-3.9 2.99-5.6s.02-.03.02-.03l.03-.04.09-.1c.07-.09.18-.22.31-.39.27-.33.65-.79 1.14-1.38.98-1.18 2.38-2.84 4.09-4.83 3.44-3.97 8.15-9.26 13.44-14.66 2.7-2.76 5.55-5.55 8.49-8.23 2.94-2.67 5.97-5.25 9.1-7.59h.01v-.01c2.09-1.56 4.25-3.04 6.54-4.37s.57-.33.57-.33l.2-.1.26-.13h.03l1.5-.81c5.29-2.81 11.11-4.22 16.93-4.22s11.3 1.32 16.48 3.98l1.93.99.09.05.35.19.02.01c2.31 1.28 4.49 2.71 6.62 4.23 2.12 1.52 4.2 3.14 6.23 4.82h.01c4.07 3.38 8.01 7.03 11.68 10.63 5.4 5.3 10.23 10.49 13.74 14.39 1.73 1.92 3.14 3.53 4.14 4.68 1 1.15 1.59 1.86 1.66 1.94s.01.01.01.01c1.41 1.67 2.45 3.57 3.11 5.54.59 1.75.88 3.57.88 5.38 0 .23 0 .46-.01.69M88.98 119.32zM135.11 47.06v.01-.01z" class="cls-4"/><path d="m114.07 26.81.15.15h.01l-.16-.15z" class="cls-1"/></g></g></svg>