<svg xmlns="http://www.w3.org/2000/svg" xml:space="preserve" width="512" height="512" style="enable-background:new 0 0 512 512" viewBox="0 0 64 64"><g fill="#064252"><path d="M54 7H10c-1.654 0-3 1.346-3 3v2c0 1.654 1.346 3 3 3h1v27a1 1 0 0 0 1 1h14v4h-1a1 1 0 0 0-.895.553l-4 8a1 1 0 1 0 1.79.894L25.618 49H31v7a1 1 0 0 0 2 0v-7h5.382l3.723 7.447a1 1 0 1 0 1.79-.894l-4-8A1 1 0 0 0 39 47h-1v-4h14a1 1 0 0 0 1-1V15h1c1.654 0 3-1.346 3-3v-2c0-1.654-1.346-3-3-3zM28 47v-4h3v4zm8 0h-3v-4h3zm15-6H13V15h38zm4-29c0 .551-.448 1-1 1H10c-.551 0-1-.449-1-1v-2c0-.551.449-1 1-1h44c.552 0 1 .449 1 1z" data-original="#000000"/><path d="M52 10h-6a1 1 0 1 0 0 2h6a1 1 0 1 0 0-2zm-11 0h-6a1 1 0 1 0 0 2h6a1 1 0 1 0 0-2zm7 19h-4a1 1 0 0 0-1 1v8a1 1 0 0 0 1 1h4a1 1 0 0 0 1-1v-8a1 1 0 0 0-1-1zm-1 8h-2v-6h2zm-7-6h-4a1 1 0 0 0-1 1v6a1 1 0 0 0 1 1h4a1 1 0 0 0 1-1v-6a1 1 0 0 0-1-1zm-1 6h-2v-4h2zm-7-4h-4a1 1 0 0 0-1 1v4a1 1 0 0 0 1 1h4a1 1 0 0 0 1-1v-4a1 1 0 0 0-1-1zm-1 4h-2v-2h2zm-15-4a.997.997 0 0 0 .707-.293L22 27.414l3.293 3.293a1 1 0 0 0 1.414 0L35 22.414l4.293 4.293a1 1 0 0 0 1.414 0L47 20.414V21a1 1 0 1 0 2 0v-3a.987.987 0 0 0-.07-.35c-.013-.033-.03-.062-.045-.094a.985.985 0 0 0-.14-.208c-.024-.027-.044-.053-.07-.077a.986.986 0 0 0-.264-.178c-.01-.004-.016-.011-.025-.015l-.003-.002a.98.98 0 0 0-.346-.069c-.013 0-.024-.007-.037-.007h-3a1 1 0 1 0 0 2h.586L40 24.586l-4.293-4.293a1 1 0 0 0-1.414 0L26 28.586l-3.293-3.293a1 1 0 0 0-1.414 0l-6 6A1 1 0 0 0 16 33z" data-original="#000000"/><circle cx="20" cy="37" r="1" data-original="#000000"/><circle cx="24" cy="37" r="1" data-original="#000000"/><circle cx="16" cy="37" r="1" data-original="#000000"/></g></svg>