<svg width="337" height="371" viewBox="0 0 337 371" fill="none" xmlns="http://www.w3.org/2000/svg">
<path d="M164.28 345.562L165 346.072L165.59 346.682L165.91 347.082L167.27 348.912L167.87 349.982L169.07 351.692L170.17 352.972L170.84 353.662L173.82 356.502L175.55 357.922L179.12 360.692L180.88 361.842L182.61 362.942L183.42 363.392L185.01 364.232L185.71 364.522L189.16 365.692L191.75 366.372L192.77 366.532L196.29 367.282L198.38 367.892L199.23 368.222L200.77 368.892L201.25 369.212L202 369.852V370.122L201.97 370.572L201.93 370.722L201.82 370.942L201.75 370.922L201.18 370.792L200.38 370.612L199.81 370.482L198.58 370.212L197.85 370.052L196.33 369.712L195.5 369.532L189.19 367.712L185.09 366.092L183.14 365.102L179.31 363.022L177.55 361.822L174.15 359.332L172.65 357.962L168.76 353.862L166.38 350.892L165.49 349.572L164.66 348.302L164.36 347.762L163.84 346.752L163.71 346.382L163.56 345.742L163.65 345.592L163.94 345.432M237.4 341.252L237.5 341.642L237.54 341.942L237.71 343.422L237.78 344.492L237.9 346.852L237.94 348.272L238 351.242V364.762L232.25 366.862L226.87 368.642L225.03 369.182L224.2 369.412L222.62 369.822L222 369.962L220.45 370.252L219.51 370.372L217.54 370.582L216.48 370.662L212.07 370.912H210.05L208.1 370.902L207.28 370.862L205.76 370.772L205.22 370.692L204.33 370.522L204.19 370.412L204.14 370.152L204.5 370.002L206.94 369.372L209.04 369.092L210 369.072L212.35 368.922L214.13 368.732L215.1 368.592L219.14 367.932L221.2 367.492L225.26 366.562L227.01 366.052L228.7 365.542L229.42 365.282L230.78 364.782L231.29 364.532L234.28 362.752L235.64 361.412L236.05 360.562L236.72 358.732L236.84 357.522L236.94 356.262V355.532L236.92 354.022L236.88 353.152L236.72 350.952L236.59 349.702L236.5 349.162L236.08 347.282L235.76 346.662L235.03 345.632L234.52 345.372L233.38 345.002L232.63 344.992L231.6 344.932L231.3 344.792L231.37 344.652L231.63 344.322L231.98 344.052L232.84 343.442L233.5 343.002L235.84 341.592L236.48 341.272L236.72 341.172L237.15 341.012H237.25M76.5001 298.502L64.2601 298.782L52.0302 299.062L51.7601 333.782L51.5001 368.502L38.7501 368.782L26.0001 369.062V299.062L13.7501 298.782L1.50012 298.502L1.22009 287.252L0.930176 276.002H77.0701M145 298.002L127.25 297.982L123.11 297.972L120.66 297.942L119.58 297.922L117.52 297.872L116.65 297.842L114.99 297.772L114.31 297.732L113.06 297.642L112.58 297.592L111.73 297.492L111.45 297.422L111 297.302L110.93 297.232L110.88 297.082L111 297.002L111.59 296.802L112.25 296.682L112.7 296.622L113.68 296.512L114.27 296.462L115.52 296.362L116.23 296.312L119.3 296.152L121.08 296.102L124.76 296.022H126.71L131.07 296.002L133.47 295.982L134.46 295.952L136.28 295.902L137.01 295.862L138.35 295.772L138.87 295.702L139.81 295.552L140.16 295.462L140.78 295.252L141.01 295.122L141.73 294.512L141.96 294.072L142.47 292.682L142.72 291.522L142.81 290.852L143.02 287.992L142.97 286.482L142.76 283.482L142.5 282.202L142.22 280.982L142.04 280.472L141.67 279.542L141.44 279.222L140.11 277.952L139.4 277.662L138.86 277.552L137.66 277.362L136.81 277.292L134.93 277.162L133.66 277.122L132.34 277.092L131.58 277.072L130 277.052L129.11 277.042L127.25 277.022H126.21L124.05 277.012H122.84L120.35 277.002H118.97H116.13H89.2401L88.0901 279.792L87.9302 280.402L87.8401 281.022L87.7902 281.432L87.6201 283.332L87.5502 284.632L87.4102 287.462L87.3601 289.162L87.2501 292.772L87.2201 294.812L87.1501 299.032L87.1201 301.332L87.0901 306.032L87.0801 308.502V318.682L87.1201 323.902L87.2401 334.312L87.3301 339.182L87.4302 343.972L87.4901 346.212L87.6201 350.572L87.6901 352.532L87.8401 356.312L87.9202 357.922L88.0901 360.962L88.1802 362.152L88.3701 364.292L88.4801 364.982L88.5801 365.602L88.6301 365.812L88.7401 366.152L88.8002 366.202L89.4302 366.542L90.1401 366.742L90.6501 366.832L91.7902 367.002L92.5402 367.082L94.1602 367.222L95.1602 367.292L97.3102 367.412L98.6101 367.462L101.34 367.562L102.94 367.612L106.31 367.692L108.25 367.732L112.3 367.802L114.6 367.832L119.77 367.902L122.88 367.932L124.29 367.942L127 367.962L128.21 367.952L130.54 367.942L131.57 367.922L133.55 367.872L134.42 367.822L136.08 367.732L136.8 367.662L138.16 367.512L138.74 367.412L139.84 367.202L140.3 367.072L141.91 366.482L142.43 366.062L143.3 365.132L143.53 364.522L143.88 363.192L143.94 362.362L144 360.572V359.482L144.08 357.352L144.2 356.112L144.29 355.612L144.49 354.712L144.61 354.432L144.86 354.002H145L145.4 354.562L145.63 355.462L145.72 356.122L145.88 357.592L145.92 358.502L146 360.422V369.002H86.0001V276.002H145M278.5 310.502L295 311.002L298.43 311.122L300.47 311.202L301.38 311.252L303.1 311.342L303.84 311.382L305.25 311.482L305.83 311.532L306.92 311.622L307.35 311.672L308.12 311.772L308.39 311.822L308.85 311.922L308.96 311.972L309.11 312.062L309.07 312.112L308.9 312.202L308.7 312.242L308.23 312.332L307.88 312.372L307.1 312.452L306.59 312.482L305.51 312.552L304.85 312.582L303.46 312.642L302.65 312.672L300.95 312.712L299.99 312.732L298 312.762L296.89 312.772L294.59 312.792H293.33L288.81 312.782L286.33 312.772L285.33 312.752L283.47 312.692L282.73 312.652L281.37 312.552L280.83 312.472L279.86 312.302L279.48 312.182L278.78 311.932L278.49 311.772L277.48 311.012L276.94 310.442L275.8 309.092L275.36 308.342L275.3 307.972L275.26 307.212L275.38 306.742L275.69 305.742L275.97 305.062L276.5 302.852L276.75 300.782L276.82 299.532L276.93 296.932L276.95 295.512L276.94 292.632L276.89 291.182L276.77 288.292L276.67 286.932L276.44 284.292L276.29 283.162L275.96 281.042L275.77 280.262L275.35 278.932L275.12 278.642L273.82 277.882L272.45 277.482L271.58 277.332L269.73 277.072L268.69 277.002L266.58 276.882H265.49L263.3 276.902L262.26 276.972L260.22 277.152L259.33 277.292L257.64 277.612L256.99 277.822L255.86 278.282L255.57 278.572L255.11 279.332L254.85 280.142L254.74 280.772L254.55 282.202L254.47 283.232L254.32 285.492L254.27 287.012L254.22 288.602L254.19 289.512L254.15 291.392L254.13 292.452L254.1 294.662L254.09 295.892L254.06 298.452L254.05 299.862L254.03 302.792V304.412L254.01 307.742V309.562L254 313.332V315.382V319.592V321.882V327.962L254.01 331.722V333.462L254.02 336.852L254.03 338.412L254.05 341.452L254.06 342.842L254.08 345.542L254.09 346.772L254.12 349.162L254.14 350.242L254.18 352.322L254.2 353.262L254.24 355.072L254.27 355.882L254.38 358.862L254.45 360.002L254.6 362.082L254.69 362.832L254.89 364.162L255 364.592L255.25 365.322L255.39 365.522L256.4 366.502L257.31 366.922L258 367.042L259.57 367.212L260.73 367.232H261.96L262.69 367.222L264.23 367.192L265.14 367.162L269.37 367.052L271.6 366.972L272.47 366.882L274.04 366.662L274.61 366.452L275.62 365.962L275.95 365.572L276.51 364.692L276.66 364.052L276.89 362.642L276.92 361.692V359.622L276.87 358.292L276.76 355.432L276.7 353.662L276.49 348.732L276.3 345.632L276.2 344.292L275.98 341.762L275.87 340.822L275.76 339.952L275.7 339.612L275.6 339.012L275.55 338.822L275.38 336.232L275.92 334.652L276.55 333.822L277.85 332.502L278.42 332.212L278.8 332.102L279.65 331.902L280.23 331.832L281.49 331.702L282.32 331.672L284.12 331.612L285.26 331.602L287.74 331.582L289.27 331.592L292.55 331.612L294.54 331.622L300.93 331.722L304.76 331.842L306.33 331.912L307.84 331.992L308.48 332.032L309.7 332.112L310.18 332.152L311.04 332.242L311.33 332.292L311.81 332.382L311.89 332.432L312.15 332.852L312.31 333.372L312.38 333.752L312.51 334.602L312.57 335.152L312.68 336.322L312.72 337.042L312.81 338.542L312.84 339.412L312.91 341.242L312.93 342.282L312.97 344.442L312.98 345.642L313 348.132V349.502L313.07 355.912L313.19 359.702L313.27 361.242L313.35 362.702L313.4 363.322L313.5 364.482L313.56 364.932L313.67 365.742L313.73 366.002L313.85 366.412L313.91 366.452L314.86 366.722L316.01 366.922L316.77 367.032L318.42 367.252L319.37 367.362L321.33 367.562L322.37 367.652L326.24 367.902L328.19 367.912L328.93 367.842L330.31 367.622L330.87 367.422L331.94 366.962L332.46 366.622L335 364.952V323.202V316.772L334.99 312.822V311.002L334.98 307.482L334.97 305.872L334.96 302.762L334.95 301.342L334.92 298.602L334.91 297.362L334.88 294.972L334.86 293.902L334.82 291.832L334.8 290.912L334.75 289.152L334.73 288.372L334.61 285.522L334.53 284.452L334.36 282.512L334.26 281.822L334.03 280.602L333.9 280.182L333.61 279.462L333.44 279.222L332.36 278.032L331.46 277.522L330.77 277.362L330.04 277.232L329.59 277.182L328.63 277.092L328.04 277.072L326.79 277.022L326.04 277.012L324.45 277.002H323.51L320.16 277.012L318.37 277.082L317.66 277.192L316.38 277.482L315.9 277.742L315.04 278.372L314.74 278.872L314.23 279.992L314.07 280.782L313.82 282.522L313.76 283.672L313.69 286.172V287.752L313.71 291.152L313.73 293.232L313.71 298.012L313.63 301.022L313.56 302.332L313.41 304.812L313.32 305.732L313.22 306.602L313.17 306.942L313.06 307.542L313 307.732L312.82 308.062L312.7 307.952L312.65 307.732L312.54 307.202L312.5 306.782L312.41 305.842L312.37 305.222L312.29 303.882L312.26 303.072L312.2 301.342L312.18 300.342L312.13 298.252L312.12 297.062L312.09 294.612V293.252L312 276.002H337V369.002H312V334.102L296.25 333.802L290.04 333.712L286.3 333.692H284.76L283.28 333.702L282.65 333.712L281.45 333.732L280.98 333.742L280.11 333.772L279.82 333.792L279.34 333.832L279.25 333.862L278.93 334.162L278.74 334.582L278.66 334.912L278.51 335.652L278.44 336.152L278.32 337.242L278.27 337.942L278.18 339.422L278.15 340.322L278.09 342.242L278.06 343.362L278.03 345.742L278.02 347.112L278 349.972V369.002H253V276.002H277.95M38.3401 277.242L3.64014 277.502L2.81018 280.502L2.51013 282.152L2.41016 283.452L2.40015 284.172L2.46008 287.192L2.64014 288.712L3.06018 291.682L3.38013 292.852L3.71008 293.962L3.89014 294.382L4.28015 295.132L4.4801 295.342L5.68018 295.882L7.05017 296.192L8.00012 296.322L10.0801 296.552L11.3601 296.642L14.0502 296.792L15.6101 296.832L18.4001 296.912L20.0001 296.982L20.6802 297.032L21.9801 297.122L22.5201 297.182L23.5502 297.312L23.9901 297.392L25.5101 297.752L26.0502 298.012L27.0201 298.592L27.4202 298.982L28.3102 299.992L28.6501 300.542L28.7101 300.802L28.7401 301.292L28.6401 301.542L28.3801 302.042L28.1401 302.332L27.8401 303.082L27.6602 303.952L27.5901 304.592L27.4501 306.002L27.3901 306.932L27.2802 308.932L27.2301 310.162L27.1501 312.802L27.1201 314.362L27.0701 317.672L27.0502 319.602L27.0302 323.632L27.0201 325.942V330.752L27.0302 333.452L27.1101 345.102L27.1501 348.642L27.1802 350.282L27.2301 353.452L27.2601 354.862L27.3201 357.572L27.3601 358.722L27.4302 360.882L27.4601 361.722L27.5402 363.242L27.5801 363.742L27.6602 364.552L27.7001 364.652L28.7301 365.992L29.8102 366.822L30.3901 367.072L31.1501 367.312L31.7401 367.402L33.0602 367.572L33.8601 367.632L37.3901 367.782L39.2501 367.712L42.8002 367.582L44.6802 367.422L45.4202 367.192L46.7601 366.622L47.2501 366.062L47.7201 365.462L47.9202 365.062L48.2902 364.222L48.4401 363.692L48.7301 362.572L48.8401 361.892L49.0602 360.452L49.1401 359.592L49.2902 357.792L49.3401 356.742L49.4401 354.532L49.4801 353.272L49.5402 350.622L49.5602 349.122L49.5901 345.992L49.6001 344.232L49.6201 340.582L49.6301 338.542L49.6401 334.322L49.6501 331.992L49.6802 326.972L49.7001 323.902L49.7101 322.492L49.7301 319.762L49.7501 318.522L49.7701 316.112L49.7902 315.022L49.8201 312.922L49.8401 311.972L49.8801 310.142L49.9001 309.332L50.0001 306.312L50.0602 305.142L50.2001 303.012L50.2802 302.222L50.4701 300.792L50.5801 300.292L50.8301 299.402L50.9701 299.102L51.2802 298.582L51.4601 298.392L52.7001 297.582L53.8501 297.202L54.6901 297.082L56.5502 296.882L57.8401 296.842L59.2001 296.802H59.9801L61.6201 296.792H62.5602L65.4302 296.802L67.0201 296.782L67.6802 296.762L68.9102 296.712L69.4202 296.672L70.3501 296.572L70.7201 296.502L71.9901 296.152L72.4102 295.862L73.1501 295.192L73.5001 294.702L74.0701 293.512L74.3901 292.472L74.5101 291.862L74.9102 289.182L74.9601 287.682V284.652L74.8102 283.232L74.6301 281.852L74.5001 281.232L74.2101 280.042L74.0201 279.552L73.0402 276.972M146 349.002L145.94 350.552L145.81 351.022L145.47 351.782L145.19 351.862L144.56 351.822L144.11 351.512L143.13 350.702L142.5 350.002L141.13 348.922L140.53 348.672L140.14 348.572L139.32 348.382L138.79 348.312L137.65 348.182L136.93 348.142L135.4 348.052L134.45 348.032L132.43 347.982L131.21 347.962L128.63 347.942L127.1 347.932L121.66 347.832L118.32 347.712L116.91 347.632L114.28 347.452L113.35 347.342L112.49 347.232L112.18 347.172L111.64 347.062L111.5 347.002L111.39 346.812L111.66 346.692L111.96 346.642L112.66 346.532L113.17 346.492L114.29 346.402L115 346.352L116.5 346.282L117.4 346.252L119.28 346.182L120.35 346.162L122.57 346.122L123.81 346.102L126.36 346.082L127.75 346.072L146 346.002M229.63 345.482L229.73 345.822L229.43 346.142L228.58 346.882L227.8 347.402L226.88 347.882L226.19 348.092L224.66 348.502L223.69 348.682L221.62 349.012L220.41 349.142L217.88 349.382L216.46 349.462L207.5 349.962L215 348.552L221.31 347.242L223.22 346.802L224.01 346.612L225.46 346.232L225.93 346.092L228.46 345.452L229.47 345.372M211.37 274.102L218.24 274.462L221.46 274.932L224.62 275.442L226.1 275.772L228.96 276.472L230.25 276.882L237 279.082V291.152L236.99 294.322L236.96 296.152L236.94 296.922L236.89 298.382L236.86 298.982L236.78 300.102L236.74 300.542L236.63 301.352L236.57 301.652L236.43 302.182L236.35 302.352L235.99 302.772L235.75 302.662L231.44 300.792L229.04 299.772L228.01 299.362L226.04 298.622L225.17 298.342L223.47 297.842L222.66 297.662L219.47 297.142L217.59 297.082L215.63 297.052L214.48 297.072L212.07 297.122L210.64 297.172L207.08 297.282L205.11 297.372L204.3 297.422L202.77 297.542L202.13 297.622L200.93 297.792L200.42 297.912L198.55 298.462L197.7 298.912L195.97 299.952L194.86 300.722L192.84 302.352L191.43 303.672L190.76 304.402L189.44 305.882L188.86 306.612L187.79 308.062L187.4 308.722L185.94 311.462L185.29 313.112L185.08 313.992L184.75 315.822L184.67 316.952L184.56 319.402V321.002L184.85 326.962L185.37 330.362L185.83 331.842L186.86 334.672L187.6 335.962L189.21 338.452L190.25 339.642L192.84 342.192L194.72 343.652L195.78 344.292L197.99 345.512L199.27 346.052L201.94 347.112L203.5 347.602L207.5 348.872L203.5 348.892L199.84 348.542L197.51 347.972L196.48 347.542L194.53 346.602L193.78 346.032L192.44 344.822L192.08 344.152L190.73 342.542L189.55 341.672L189 341.502L187.59 340.622L187 339.802V339.392L186.83 338.592L186.57 337.902L186.37 337.502L185.45 335.832L184.87 335.032L183.81 333.042L183.24 331.362L183.02 330.382L182.63 328.342L182.5 327.222L182.29 324.942L182.25 323.742L182.29 318.862L182.6 316.492L182.96 314.162L183.21 313.072L183.76 310.942L184.11 310.002L185.74 306.142L186.84 304.082L187.38 303.322L188.45 301.982L188.97 301.592L190.01 301.002H190.5L191.84 300.452L192.92 299.642L193.39 299.132L194.61 298.262L195.89 297.622L196.69 297.292L198.39 296.642L199.33 296.332L201.26 295.752L202.24 295.512L208.05 294.472L211.7 294.232L213.54 294.352L217.27 294.752L219.3 295.192L223.48 296.252L225.87 297.042L228.65 297.892L230.19 298.272L230.81 298.362L231.96 298.452L232.42 298.382L233.25 298.142L233.56 297.882L234.11 297.262L234.31 296.802L234.64 295.762L234.74 295.072L234.91 293.572L234.95 292.622L235 290.612V289.402L234.99 287.182L234.96 285.932L234.93 285.422L234.78 283.602L234.62 282.992L234.23 281.932L233.91 281.552L233.18 280.852L232.65 280.512L229.4 278.902L226.73 277.972L225.19 277.592L221.99 276.892L220.26 276.622L216.7 276.142L214.85 275.992L211.11 275.752L209.22 275.732L205.45 275.752L203.62 275.862L199.99 276.142L198.28 276.392L194.95 276.962L193.46 277.352L189.74 278.462L187.49 279.292L186.26 279.872L185 280.472L184.3 280.842L182.86 281.602L182.03 282.062L180.31 283.022L179.32 283.592L177.25 284.802L176.05 285.502L172.92 287.632L171.09 289.162L170.36 289.922L169.04 291.422L168.63 292.102L168 293.402V293.912L167.41 295.412L166.55 296.422L166 296.772L164.59 298.242L164 299.462V300.012L163.75 301.412L163.38 302.002H163.14L162.73 302.262L162.41 302.662L162.23 302.952L161.53 304.362L161.25 305.252L160.83 306.372L160.58 306.892L160.48 307.022L160.29 307.202L160.22 307.152L160.12 306.962L160.1 306.722L160.27 305.612L160.57 304.562L160.8 303.922L161.91 301.152L162.63 299.722L165.11 295.332L166.93 292.622L167.93 291.372L169.97 288.942L171.09 287.822L173.37 285.662L174.6 284.682L177.12 282.782L178.48 281.932L181.26 280.292L182.74 279.562L185.77 278.182L187.39 277.582L190.69 276.432L192.44 275.952L196.61 275.042L199.65 274.582L201.27 274.432L207.93 274.012M142.39 325.282L142.62 325.712L142.71 326.032L143 327.542V332.002H111V338.502L110.97 340.282L110.92 341.062L110.8 342.542L110.71 343.122L110.51 344.182L110.39 344.502L110.14 345.002H110L109.61 344.502L109.38 343.702L109.29 343.122L109.13 341.832L109.08 341.052L109 339.402V338.482L109.01 336.442L109.04 335.322L109.06 334.862L109.21 333.292L109.39 332.782L109.8 331.952L110.16 331.682L110.97 331.202L111.57 330.982L112.32 330.782L113.04 330.652L113.5 330.602L115.55 330.372L116.86 330.292L119.63 330.132L121.18 330.082L124.35 330.002H125.98L130.42 329.982L132.89 329.942L133.9 329.902L135.79 329.812L136.54 329.742L137.92 329.582L138.45 329.472L139.39 329.232L139.73 329.082L140.32 328.742L140.51 328.532L141 327.582V326.892L141.29 325.562L141.72 325.002H142M159.53 310.382L159.55 310.522L159.57 310.852V311.122L159.56 311.732L159.53 312.152L159.48 313.072L159.44 313.642L159.35 314.862L159.3 315.592L159.15 319.442L159.23 322.022L159.36 323.392L159.68 326.202L159.94 327.772L160.53 331.052L160.94 332.942L161.5 335.632L161.72 336.772L162.11 338.932L162.25 339.792L162.49 341.392L162.54 341.972L162.61 342.982L162.59 343.262L162.5 343.672L162.4 343.642L162.16 343.412L161.98 343.052L161.58 342.162L161.33 341.472L160.78 339.902L160.45 338.852L159.72 336.002L159.3 333.782L159.12 332.552L158.5 327.392L158.34 324.742L158.2 322.112L158.18 320.852L158.16 318.392L158.2 317.272L158.31 315.142L158.41 314.252L158.65 312.592L158.82 312.002L159.32 310.522L159.43 310.322H159.47M143 316.002L142.89 318.102L142.71 318.822L142.51 319.482L142.39 319.682L142.14 320.002H142L141.29 319.422L141 318.582V318.042L140.84 316.962L140.57 316.342L140.33 316.082L139.78 315.582L139.39 315.372L138.54 314.992L137.98 314.832L136.78 314.542L136.03 314.432L134.43 314.222L133.48 314.152L131.45 314.022L130.26 313.982L127.76 313.912L126.32 313.902L121.92 313.802L119.15 313.682L117.94 313.592L115.67 313.422L114.82 313.322L113.34 313.112L113 313.002L112.76 312.832L112.92 312.722L113.16 312.672L113.72 312.572L114.14 312.522L115.08 312.432L115.68 312.392L116.97 312.322L117.74 312.282L119.37 312.222L120.3 312.202L122.24 312.152L123.31 312.142L125.54 312.112L126.75 312.102L143 312.002M254.93 59.0022H256.98H274V78.1322L271.25 77.8222L269.7 77.5022L269.03 77.0622L268.82 76.6022L268.46 75.5022L268.34 74.5722L268.22 73.5722L268.17 72.9522L268.06 71.6222L268 70.8222L267.86 68.8122L267.79 67.7122L267.78 67.2722L267.76 66.4622L267.77 66.1622L267.8 65.6222L267.83 65.4422L268.04 64.9522L268.24 64.9922L268.72 65.2522L269.08 65.5722L270.54 66.5822L271.51 67.0022H271.83L272.84 66.3822L273.04 65.4722L272.93 64.8922L272.57 63.6822L272.21 63.1022L271.36 61.9622L270.78 61.5622L268.8 60.5422L267.44 60.1122L266.86 60.0422L265.82 60.0122L265.55 60.1522L265.34 60.3222L265.32 60.4522L265.34 60.7422L265.45 60.9222L265.34 61.7122L264.75 62.1822L264.26 62.3122L263.33 62.5722L263.01 62.6822V62.7222L263.11 62.7822L263.32 62.8122L263.84 62.8622L264.25 62.8822L265.27 63.0422L265.73 63.2022L265.87 63.3122L266.14 63.7722L265.93 64.0222L265.3 64.5222L264.71 64.7022L263.37 65.0022H262.5L260.03 64.7122L259.45 64.5122L259.28 64.3922L259 64.1422V64.0022L259.41 63.2922L260.01 63.0022H260.39L261.55 62.5622L262.2 61.9122L262.36 61.5022L262.41 60.7522L262.09 60.4022L261.7 60.2922L260.75 60.1122L259.99 60.0622L258.28 60.0022H257.08L254.32 60.0822L252.92 60.2222L252.41 60.3422L251.51 60.6122L251.22 60.8022L250.74 61.2322L250.64 61.5022L250.53 62.2222L250.69 62.5722L250.92 62.6822L251.46 62.8822L251.89 62.9322L252.86 63.0022H253.53L255.98 63.2922L256.55 63.4922L256.73 63.6122L257 63.8622V64.0022L256.6 64.3922L255.96 64.6222L255.5 64.7122L254.48 64.8722L253.87 64.9222L252.58 65.0022H251.88L249.23 64.9522L248.13 64.8422L247.86 64.7422L247.49 64.4822L247.53 64.2822L247.74 63.8122L248.02 63.4822L248.78 62.1922L248.81 61.5722L248.59 61.3822L248 61.1122H247.49L246.33 61.2022L245.55 61.4022L244.34 61.8322L243.76 62.2122L243.56 62.4722L243.22 63.0222L243.13 63.3722L243 64.1422V64.6322L243.08 65.9722L243.25 66.5222L243.43 66.6622L243.85 66.8522L244.19 66.8322L244.95 66.7322L245.5 66.5922L246.93 66.3422L247.51 66.4922L247.67 66.8322L247.91 67.7222L247.96 68.5422L247.99 69.4422V70.0122L248 71.2222V71.9622L247.99 73.8222L247.96 74.8522L247.93 75.2822L247.76 76.7722L247.57 77.2622L247.11 78.1322L246.72 78.4622L245.82 79.0822L245.16 79.4222L243.63 80.1522L242.37 80.7122L241.66 81.0222L238.64 82.2622L237.12 82.8522L234.13 83.9822L232.99 84.3722L231.92 84.7222L231.53 84.8322L230.87 85.0022H230.73L230.07 84.6722L229.33 84.1522L228.85 83.7722L227.83 82.9522L227.25 82.4522L226.05 81.4022L225.43 80.8322L220.9 76.6522L213.45 84.0522L210.56 86.8322L208.86 88.3722L208.19 88.9322L206.97 89.9222L206.59 90.1522L206.25 90.3422L206.15 90.3722L206 90.3622V90.2822L206.28 89.2922L206.69 88.6922L206.96 88.5322L207.51 87.6322L207.48 86.8522L207.31 86.4622L206.88 85.7022L206.56 85.4422L205.85 85.0022H205.43L204.22 85.5222L203.44 86.3222L203.11 86.8722L202.51 88.0622L202.31 88.7322L202 90.0922V90.7622L202.19 91.6722L202.48 92.3722L202.69 92.7422L203.7 94.2522L204.35 94.8622L205.58 95.9222L206.21 96.3222L206.47 96.3922L206.95 96.4222L207.16 96.3122L207.59 95.9922L207.83 95.7122L208.44 94.3922L208.21 93.6122L207.78 93.1822L207.22 92.3422L207.32 92.0022H207.6L208.45 92.2922L209.14 92.7322L209.53 93.0622L211.18 94.5922L211.99 95.5522L213.55 97.5222L214.1 98.4422L214.6 99.3322L214.76 99.7122L215 100.442V100.702L214.75 102.122L214.36 103.452L214.09 104.252L212.76 107.722L211.95 109.562L211.13 111.382L210.71 112.232L209.89 113.872L209.51 114.572L208.78 115.862L208.47 116.322L207.89 117.082L207.69 117.212L206.77 117.572L205.93 117.752L205.43 117.822L203.28 117.992L202.18 117.962L200.04 117.842L199.27 117.682L198.56 117.502L198.34 117.392L198 117.142V117.002L198.54 116.292L199.34 116.002H199.85L203.07 115.592L204.98 114.892L205.84 114.312L207.48 113.012L208.23 112.132L209.66 110.192L210.32 108.972L212.1 105.252L212.78 103.262L212.87 102.502L212.88 101.122L212.64 100.652L211.99 99.8322L211.42 99.6122L210.05 99.1422L209.48 99.0922L209.33 99.2322L209.09 99.6522L209.05 100.072L209 101.082V101.852L208.35 104.912L207.36 107.062L206.68 108.052L205.22 109.952L204.41 110.662L202.78 111.892L201.99 112.112L199.19 112.632L196.93 112.872L195.95 112.902L193.45 113.222L192.09 113.672L191.58 114.012L190.67 114.742L190.41 115.212L190 116.202V116.782L190.15 117.382L190.42 117.642L190.64 117.702L191.14 117.782L191.49 117.752L192.26 117.662L192.75 117.552L195.5 116.952V127.482L195.45 131.562L195.37 133.952L195.31 134.912L195.18 136.642L195.11 137.172L195.03 137.642L194.99 137.792L194.9 138.002H194.86L194.08 137.432L193.64 136.492L193.48 135.742L193.17 134.082L193.07 132.982L192.9 130.612L192.86 129.172L192.78 127.162L192.69 126.172L192.63 125.872L192.52 125.422H192.46L192.34 125.582L192.27 125.912L192.01 127.012L191.83 127.452L191.73 127.522L191.51 127.582L191.38 127.482L191.1 127.192L190.92 126.912L190.53 126.622L190.33 126.842L190.25 127.162L190.12 127.932L190.08 128.512L190.02 129.832V130.682L190.13 133.782L190.32 135.582L190.47 136.352L190.8 137.802L191.02 138.382L191.49 139.452L191.77 139.842L192.36 140.522L192.7 140.712L193.4 140.982L193.78 140.962L194.58 140.802L195.01 140.562L195.89 139.972L196.36 139.502L198.3 138.312L199.76 137.972L200.47 138.022L201.84 138.262L202.37 138.592L203.31 139.402L203.5 140.002L204.38 141.412L205.2 142.002H205.6L206.28 141.912L206.53 141.742L206.56 141.592L206.54 141.222L206.44 140.952L206.18 140.342L205.96 139.922L205.44 138.832L205.33 138.372L205.41 138.242L205.66 138.072L205.94 138.062L206.6 138.102L207.1 138.172L208.32 138.662L209.08 139.332L209.47 139.882L210.27 141.152L210.71 142.062L211.63 144.072L212.18 145.402L214.17 150.882L214.63 152.422L214.78 153.022L215 154.082V154.362L214.68 155.492L214.19 156.462L213.83 157.012L212.1 159.382L211.01 160.492L207.01 164.562L220.98 178.432L225.28 174.222L228.77 171.242L229.78 170.552L230.18 170.332L230.9 170.002H231.12L232.25 170.212L233.39 170.532L234.09 170.772L237.24 171.882L238.97 172.572L242.42 173.992L243.83 174.642L245.15 175.272L245.65 175.542L246.53 176.042L246.75 176.222L247.27 177.102L247.55 178.062L247.66 178.712L247.85 180.102L247.91 180.932L248 182.682V190.072L257.75 189.792L267.5 189.502L267.8 183.252L267.9 181.202L267.97 180.102L268.02 179.662L268.23 178.202L268.44 177.802L268.93 177.212L269.35 177.112L270.32 177.002H274V186.392L273.98 189.002L273.96 190.482L273.93 191.112L273.88 192.292L273.84 192.792L273.75 193.702L273.69 194.072L273.42 195.332L273.21 195.702L272.74 196.272L272.42 196.392L272.11 196.482L271.83 196.512L271.18 196.592L270.75 196.632L268.73 196.772L267.38 196.822L264.47 196.922L262.8 196.952L259.32 197.002H257.49L252.14 196.972L249.25 196.912L248.09 196.822L245.98 196.622L245.17 196.442L243.71 196.042L243.18 195.732L242.26 195.052L241.96 194.582L241.44 193.552L241.3 192.882L241.09 191.432L241.05 190.522L241 188.592V187.412L240.99 185.302L240.97 184.162L240.94 183.692L240.77 182.102L240.55 181.592L240.01 180.712L239.52 180.372L238.39 179.722L237.54 179.322L235.73 178.392L235.03 177.932L234.91 177.732L234.82 177.342L234.97 177.132L235.4 176.692L235.79 176.402L236.73 175.302L236.8 174.582L236.55 174.252L235.89 173.602L235.3 173.312L233.93 172.752L232.99 172.522L231.62 172.372L230.74 172.502L230.28 172.682L229.35 173.142L228.82 173.512L227.72 174.362L227.07 174.932L225.45 176.322L224.48 177.072L224.04 177.362L222.38 178.312L221.66 178.482L220.25 178.602L219.57 178.372L218.19 177.722L217.43 177.122L215.19 175.872L214.48 175.652L214.17 175.622L213.6 175.602L213.4 175.682L212.67 176.052L212.43 176.332L212.42 176.522L212.49 176.942L212.64 177.242L213.02 177.912L213.32 178.372L214.12 179.352L214.84 180.062L215.26 180.432L217.05 181.872L217.94 182.382L221.14 184.272L224.86 180.632L226.72 178.942L227.78 178.092L228.21 177.792L229.01 177.302L229.29 177.182L229.79 177.042L229.92 177.092L230.09 177.282L230.05 177.492L229.87 178.002L229.64 178.372L229.07 179.192L228.63 179.712L227.65 180.832L227 181.502L223.31 184.682L222.21 185.422L221.75 185.642L220.92 186.002H220.65L220.01 185.792L219.4 185.452L219.02 185.192L217.32 183.932L216.25 183.042L213.98 181.092L212.73 179.952L210.19 177.582L208.92 176.342L206.38 173.832L205.21 172.612L202.96 170.242L202.04 169.192L200.36 167.222L199.83 166.482L199.36 165.792L199.22 165.532L199 165.052V164.902L199.37 163.872L199.96 162.912L200.39 162.352L201.33 161.162L201.9 160.532L203.09 159.262L203.74 158.632L205.28 157.142L206.1 156.322L206.43 155.982L207.47 154.752L207.69 154.262L207.93 153.302L207.83 152.762L207.48 151.612L207.15 150.802L206.08 147.882L205.77 146.942L205.65 146.542L205.43 145.772L205.36 145.502L205.16 144.482V144.162L205.24 144.172L205.46 144.332L205.68 144.592L206.19 145.242L206.57 145.752L208.06 147.252L209.06 147.842L209.49 147.922L210.3 147.942L210.57 147.712L211 147.112V146.562L210.51 145.052L210.12 144.682L209.83 144.532L209.2 144.262L208.78 144.162L207.88 143.972L207.32 143.912L206.12 143.812L205.39 143.792L203.85 143.762L202.95 143.772L201.04 143.812L199.93 143.842L195.77 143.922L193.68 143.862L192.93 143.772L191.6 143.552L191.15 143.372L190.39 142.972L190.16 142.692L189.62 141.182L189.49 140.362L189.43 139.842L189.33 138.742L189.29 138.082L189.23 136.692L189.21 135.882L189.17 134.182V133.212L189.16 131.182L189.17 130.042L189.2 127.682L189.22 126.362L189.5 111.502L204.15 110.502L206.23 105.692L208.31 100.882L203.65 96.1622L201.85 94.2022L200.79 92.9422L200.37 92.3722L199.6 91.2922L199.37 90.8722L199 90.1222V89.9122L199.23 89.4122L199.59 88.8822L199.86 88.5322L200.47 87.7722L200.86 87.3222L201.67 86.3722L202.15 85.8422L204.21 83.5722L205.41 82.3022L207.89 79.7022L209.19 78.3822L211.8 75.7522L213.04 74.5322L215.47 72.1722L216.51 71.2122L217.52 70.2822L217.97 69.8922L218.81 69.1622L219.15 68.8822L219.79 68.3822L220.02 68.2322L220.41 68.0022H220.51L221.24 68.4022L222.09 69.0322L222.65 69.4922L223.84 70.5022L224.52 71.1022L225.93 72.3822L226.67 73.0722L228.6 74.9922L229.59 76.0722L229.9 76.4822L230.4 77.1922L230.45 77.3822L230.4 77.6322L230.14 77.5422H228.61L227.88 78.0122L227.7 78.3822L227.48 79.2122L227.6 79.6722L228.01 80.5922L228.5 81.0022L230.15 81.5022L231.43 81.3222L232.01 81.0422L233.09 80.3722L233.4 79.9322L233.66 79.4822L233.71 79.2422L233.73 78.7522L233.64 78.5122L233.68 77.8322L233.99 77.3522L234.29 77.1122L234.96 76.6022L235.42 76.3522L236.43 75.8422L237.06 75.5922L241 74.0222V68.0922L240.99 64.9422L241.03 63.2622L241.13 62.6122L241.38 61.4322L241.64 60.9922L242.26 60.2122L242.76 59.9422L243.91 59.4822L244.74 59.3422L246.57 59.1222L247.8 59.0722L250.47 59.0022H252.17L253.94 58.9922M244.76 188.002L244.22 188.702L244.03 189.712L244.02 190.322L244.05 191.572L244.16 192.112L244.44 193.102L244.67 193.332L245.67 194.012L246.17 193.962L246.66 193.852L246.88 193.692L247.3 193.322L247.47 193.042L247.5 191.812L247.12 190.692L246.82 190.132L246.15 189.032L245.79 188.642L245.06 188.002M271.07 186.002L270.54 186.262L270.13 186.672L269.91 186.962L269 188.322L268.6 189.142L267.86 190.822L267.66 191.542L267.49 192.222L267.48 192.502L267.49 192.982L267.58 193.122L267.97 193.632L268.19 193.772L268.64 193.982H268.89L269.88 193.732L270.34 193.282L271.21 192.192L271.52 191.422L272 189.752V188.802L271.73 186.822L271.54 186.362L271.43 186.222L271.2 186.002M271 182.002L270.29 182.292L270 182.722V183.002L270.11 183.522L270.29 183.712L270.72 184.002H271L271.71 183.712L272 183.272V183.002L271.71 182.292L271.27 182.002M241.96 176.002L240.59 176.312L240.11 176.802L240.08 177.172L240.17 177.982L240.43 178.492L241.1 179.562L241.65 180.172L242.57 181.122L242.95 181.412L243.67 181.872L243.96 181.912L244.51 181.892L244.73 181.692L245.13 181.182L245.28 180.752L245.37 179.162L245.02 178.092L244.69 177.622L243.95 176.752L243.48 176.462L242.5 176.002M203.5 163.342L202.45 164.252L202.17 165.222L202.22 165.812L202.46 167.052L202.78 167.702L203.53 169.002L204.08 169.592L205.23 170.772L205.69 171.142L206.53 171.752L206.87 171.862L207.5 171.932L207.77 171.782L208.29 171.342L208.53 170.952L208.6 170.232L208.44 169.552L208.28 169.142L207.43 167.382L206.83 166.492L205.58 164.752L204.98 164.162L204.4 163.632L204.14 163.492L203.67 163.282M211.28 152.002L210.61 152.302L210.04 152.772L209.71 153.112L208.32 154.682L207.64 155.622L206.35 157.532L205.95 158.332L205.6 159.082L205.52 159.372L205.43 159.882L205.51 160.012L205.99 160.672L206.26 160.812L206.84 160.952L207.21 160.802L208.01 160.362L208.54 159.912L209.69 158.852L210.44 158.062L211.96 155.992L212.56 154.622L212.64 154.032L212.66 152.932L212.43 152.572L211.83 152.002M212.05 77.5922L211.6 77.8822L210.76 78.5922L210.47 79.0622L210 80.0722V80.6222L210.15 81.4322L210.41 81.6522L211.02 81.9722L211.42 81.9522L212.28 81.8022L212.73 81.5522L213.64 80.9422L214.04 80.4622L214.78 79.0122L214.61 78.2122L214.2 77.8022L212.98 77.3722M240 76.5022L239.34 76.6822L238.87 76.8522L237.15 77.8122L236.3 78.5922L236.19 78.9322L236.16 79.6122L236.49 79.7722L237.36 79.9422L238.13 79.8322L239.89 79.0922L240.72 78.2422L240.81 77.7622L240.89 76.9122L240.79 76.5822L240.64 76.5122L240.29 76.4422M219.93 71.3422L219.15 71.6522L218.66 71.9222L217.02 73.2122L216.33 74.1922V74.5822L216.42 74.9522L216.56 75.1122L216.92 75.4122L217.19 75.5322L218.44 75.9222L219.23 75.9822L220.89 76.0122L221.69 75.8822L223.23 75.5122L223.77 75.1622L224.28 74.6822L224.4 74.3422L224.34 74.1322L224.14 73.7022L223.92 73.4322L223.4 72.8622L223.01 72.5122L221.88 71.6122L221.24 71.2822L220.93 71.2322H220.29M243.36 69.5422L243.08 69.8522L242.91 70.1222L242.28 71.7822L242.02 73.1822V73.8222V74.7522L242.05 75.0322L242.15 75.4722L242.25 75.5222H242.51L242.72 75.3522L243.21 74.9322L243.57 74.5722L244.55 72.8622L244.68 71.5522L244.46 70.8722L244.09 69.8922L243.86 69.5222L243.74 69.4622L243.5 69.4322L243.36 69.5422Z" fill="#AD2B3A"/>
<path d="M219.38 370.397L217.37 370.607L216.27 370.687L215.19 370.727L216.48 370.657L217.54 370.577L219.51 370.367L220.45 370.247L222 369.957L220.35 370.267M211.11 275.747L214.85 275.987L216.7 276.137L220.26 276.617L221.99 276.887L225.19 277.587L226.73 277.967L229.4 278.897L232.65 280.507L233.18 280.847L233.91 281.547L234.23 281.927L234.62 282.987L234.78 283.597L234.93 285.417L234.96 285.927L234.99 287.177L235 289.397V290.607L234.95 292.617L234.91 293.567L234.74 295.067L234.64 295.757L234.31 296.797L234.11 297.257L233.56 297.877L233.25 298.137L232.42 298.377L231.96 298.447L230.81 298.357L230.19 298.267L228.65 297.887L225.87 297.037L223.48 296.247L219.3 295.187L217.27 294.747L213.54 294.347L211.7 294.227L208.05 294.467L202.24 295.507L201.26 295.747L199.33 296.327L198.39 296.637L196.69 297.287L195.89 297.617L194.61 298.257L193.39 299.127L192.92 299.637L191.84 300.447L190.5 300.997H190.01L188.97 301.587L188.45 301.977L187.38 303.317L186.84 304.077L185.74 306.137L184.11 309.997L183.76 310.937L183.21 313.067L182.96 314.157L182.6 316.487L182.29 318.857L182.25 323.737L182.29 324.937L182.5 327.217L182.63 328.337L183.02 330.377L183.24 331.357L183.81 333.037L184.87 335.027L185.45 335.827L186.37 337.497L186.57 337.897L186.83 338.587L187 339.387V339.797L187.59 340.617L189 341.497L189.55 341.667L190.73 342.537L192.08 344.147L192.44 344.817L193.78 346.027L194.53 346.597L196.48 347.537L197.51 347.967L199.84 348.537L203.5 348.887L207.5 348.867L203.5 347.597L201.94 347.107L200.82 346.667L203.34 347.527L205.31 347.877L209.35 348.387L211.5 348.377L217.42 347.917L220.51 347.407L215 348.547L207.5 349.957L216.46 349.457L217.88 349.377L220.41 349.137L221.62 349.007L223.69 348.677L224.66 348.497L226.19 348.087L226.88 347.877L227.8 347.397L228.58 346.877L229.43 346.137L229.73 345.817L229.63 345.477L229.47 345.367L228.46 345.447L225.93 346.087L225.46 346.227L224.11 346.577L227.37 345.677L229.09 345.017L232.36 343.647L233.62 342.887L234.6 342.337L233.5 342.997L232.84 343.437L231.98 344.047L231.63 344.317L231.37 344.647L231.3 344.787L231.6 344.927L232.63 344.987L233.38 344.997L234.52 345.367L235.03 345.627L235.76 346.657L236.08 347.277L236.5 349.157L236.59 349.697L236.72 350.947L236.88 353.147L236.92 354.017L236.94 355.527V356.257L236.84 357.517L236.72 358.727L236.05 360.557L235.64 361.407L234.28 362.747L231.29 364.527L230.78 364.777L229.42 365.277L228.7 365.537L227.01 366.047L225.26 366.557L221.2 367.487L219.14 367.927L215.1 368.587L214.13 368.727L212.35 368.917L210 369.067L209.04 369.087L206.94 369.367L204.5 369.997L204.14 370.147L204.19 370.407L204.33 370.517L205.22 370.687L205.42 370.717L204.17 370.677L201.98 370.467L202 370.117V369.847L201.25 369.207L200.77 368.887L199.23 368.217L198.38 367.887L196.29 367.277L192.77 366.527L191.75 366.367L189.16 365.687L185.71 364.517L185.01 364.227L183.42 363.387L182.61 362.937L180.88 361.837L179.12 360.687L175.55 357.917L173.82 356.497L170.84 353.657L170.17 352.967L169.07 351.687L167.87 349.977L167.27 348.907L165.91 347.077L165.59 346.677L165 346.067L164.28 345.557L163.94 345.427L163.65 345.587L163.56 345.737L163.6 345.907L162.51 343.627L162.59 343.257L162.61 342.977L162.54 341.967L162.49 341.387L162.25 339.787L162.11 338.927L161.72 336.767L161.5 335.627L160.94 332.937L160.53 331.047L159.94 327.767L159.68 326.197L159.36 323.387L159.23 322.017L159.15 319.437L159.3 315.587L159.35 314.857L159.44 313.637L159.48 313.067L159.53 312.147L159.56 311.727L159.57 311.117V310.847L159.55 310.517L159.53 310.377L159.47 310.317H159.43L159.32 310.517L159 311.467L159.62 308.117L160.16 306.357L160.1 306.717L160.12 306.957L160.22 307.147L160.29 307.197L160.48 307.017L160.58 306.887L160.83 306.367L161.25 305.247L161.53 304.357L162.23 302.947L162.41 302.657L162.73 302.257L163.14 301.997H163.38L163.75 301.407L164 300.007V299.457L164.59 298.237L166 296.767L166.55 296.417L167.41 295.407L168 293.907V293.397L168.63 292.097L169.04 291.417L170.36 289.917L171.09 289.157L172.92 287.627L176.05 285.497L177.25 284.797L179.32 283.587L180.31 283.017L182.03 282.057L182.86 281.597L184.3 280.837L185 280.467L186.26 279.867L187.49 279.287L189.74 278.457L193.46 277.347L194.95 276.957L198.28 276.387L199.99 276.137L203.62 275.857L205.45 275.747L209.22 275.727M311.77 293.247L312.01 278.267L312.09 293.247V294.607L312.12 297.057L312.13 298.247L312.18 300.337L312.2 301.337L312.26 303.067L312.29 303.877L312.37 305.217L312.41 305.837L312.5 306.777L312.54 307.197L312.65 307.727L312.7 307.947L312.82 308.057L313 307.727L313.06 307.537L313.17 306.937L313.22 306.597L313.32 305.727L313.41 304.807L313.56 302.327L313.63 301.017L313.71 298.007L313.73 293.227L313.71 291.147L313.69 287.747V286.167L313.76 283.667L313.82 282.517L314.07 280.777L314.23 279.987L314.74 278.867L315.04 278.367L315.9 277.737L316.38 277.477L317.66 277.187L318.37 277.077L320.16 277.007L323.51 276.997H324.45L326.04 277.007L326.79 277.017L328.04 277.067L328.63 277.087L329.59 277.177L330.04 277.227L330.77 277.357L331.46 277.517L332.36 278.027L333.44 279.217L333.61 279.457L333.9 280.177L334.03 280.597L334.26 281.817L334.36 282.507L334.53 284.447L334.61 285.517L334.73 288.367L334.75 289.147L334.8 290.907L334.82 291.827L334.86 293.897L334.88 294.967L334.91 297.357L334.92 298.597L334.95 301.337L334.96 302.757L334.97 305.867L334.98 307.477L334.99 310.997V312.817L335 316.767V323.197V364.947L332.46 366.617L331.94 366.957L330.87 367.417L330.31 367.617L328.93 367.837L328.19 367.907L326.24 367.897L322.37 367.647L321.33 367.557L319.37 367.357L318.42 367.247L316.77 367.027L316.01 366.917L314.86 366.717L313.91 366.447L313.85 366.407L313.73 365.997L313.67 365.737L313.56 364.927L313.5 364.477L313.4 363.317L313.35 362.697L313.27 361.237L313.19 359.697L313.07 355.907L313 349.497V348.127L312.98 345.637L312.97 344.437L312.93 342.277L312.91 341.237L312.84 339.407L312.81 338.537L312.72 337.037L312.68 336.317L312.57 335.147L312.51 334.597L312.38 333.747L312.31 333.367L312.15 332.847L311.89 332.427L311.81 332.377L311.33 332.287L311.04 332.237L310.18 332.147L309.7 332.107L308.48 332.027L307.84 331.987L306.33 331.907L304.76 331.837L300.93 331.717L294.54 331.617L292.55 331.607L289.27 331.587L287.74 331.577L285.26 331.597L284.12 331.607L282.32 331.667L281.49 331.697L280.23 331.827L279.65 331.897L278.8 332.097L278.42 332.207L277.85 332.497L276.55 333.817L275.92 334.647L275.38 336.227L275.55 338.817L275.6 339.007L275.7 339.607L275.76 339.947L275.87 340.817L275.98 341.757L276.2 344.287L276.3 345.627L276.49 348.727L276.7 353.657L276.76 355.427L276.87 358.287L276.92 359.617V361.687L276.89 362.637L276.66 364.047L276.51 364.687L275.95 365.567L275.62 365.957L274.61 366.447L274.04 366.657L272.47 366.877L271.6 366.967L269.37 367.047L265.14 367.157L264.23 367.187L262.69 367.217L261.96 367.227H260.73L259.57 367.207L258 367.037L257.31 366.917L256.4 366.497L255.39 365.517L255.25 365.317L255 364.587L254.89 364.157L254.69 362.827L254.6 362.077L254.45 359.997L254.38 358.857L254.27 355.877L254.24 355.067L254.2 353.257L254.18 352.317L254.14 350.237L254.12 349.157L254.09 346.767L254.08 345.537L254.06 342.837L254.05 341.447L254.03 338.407L254.02 336.847L254.01 333.457V331.717L254 327.957V321.877V319.587V315.377V313.327L254.01 309.557V307.737L254.03 304.407V302.787L254.05 299.857L254.06 298.447L254.09 295.887L254.1 294.657L254.13 292.447L254.15 291.387L254.19 289.507L254.22 288.597L254.27 287.007L254.32 285.487L254.47 283.227L254.55 282.197L254.74 280.767L254.85 280.137L255.11 279.327L255.57 278.567L255.86 278.277L256.99 277.817L257.64 277.607L259.33 277.287L260.22 277.147L262.26 276.967L263.3 276.897L265.49 276.877H266.58L268.69 276.997L269.73 277.067L271.58 277.327L272.45 277.477L273.82 277.877L275.12 278.637L275.35 278.927L275.77 280.257L275.96 281.037L276.29 283.157L276.44 284.287L276.67 286.927L276.77 288.287L276.89 291.177L276.94 292.627L276.95 295.507L276.93 296.927L276.82 299.527L276.75 300.777L276.5 302.847L275.97 305.057L275.69 305.737L275.38 306.737L275.26 307.207L275.3 307.967L275.36 308.337L275.8 309.087L276.94 310.437L277.48 311.007L278.49 311.767L278.78 311.927L279.48 312.177L279.86 312.297L280.83 312.467L281.37 312.547L282.73 312.647L283.47 312.687L285.33 312.747L286.33 312.767L288.81 312.777L293.33 312.787H294.59L296.89 312.767L298 312.757L299.99 312.727L300.95 312.707L302.65 312.667L303.46 312.637L304.85 312.577L305.51 312.547L306.59 312.477L307.1 312.447L307.88 312.367L308.23 312.327L308.7 312.237L308.9 312.197L309.07 312.107L309.11 312.057L308.96 311.967L308.85 311.917L308.39 311.817L308.12 311.767L307.35 311.667L306.92 311.617L305.83 311.527L305.25 311.477L303.84 311.377L303.1 311.337L301.38 311.247L300.47 311.197L298.43 311.117L295 310.997L278.5 310.497H311.5M74.0199 279.547L74.2098 280.037L74.4999 281.227L74.6299 281.847L74.8099 283.227L74.9598 284.647V287.677L74.9099 289.177L74.5099 291.857L74.3899 292.467L74.0698 293.507L73.4999 294.697L73.1499 295.187L72.4099 295.857L71.9899 296.147L70.7198 296.497L70.3499 296.567L69.4199 296.667L68.9099 296.707L67.6799 296.757L67.0199 296.777L65.4299 296.797L62.5599 296.787H61.6199L59.9799 296.797H59.1998L57.8398 296.837L56.5499 296.877L54.6898 297.077L53.8499 297.197L52.6998 297.577L51.4598 298.387L51.2799 298.577L50.9698 299.097L50.8298 299.397L50.5798 300.287L50.4698 300.787L50.2799 302.217L50.1998 303.007L50.0599 305.137L49.9999 306.307L49.8999 309.327L49.8799 310.137L49.8398 311.967L49.8198 312.917L49.7899 315.017L49.7699 316.107L49.7499 318.517L49.7299 319.757L49.7098 322.487L49.6998 323.897L49.6799 326.967L49.6499 331.987L49.6399 334.317L49.6299 338.537L49.6199 340.577L49.5999 344.227L49.5898 345.987L49.5599 349.117L49.5399 350.617L49.4799 353.267L49.4398 354.527L49.3398 356.737L49.2899 357.787L49.1399 359.587L49.0599 360.447L48.8398 361.887L48.7299 362.567L48.4398 363.687L48.2899 364.217L47.9199 365.057L47.7198 365.457L47.2499 366.057L46.7599 366.617L45.4199 367.187L44.6799 367.417L42.7999 367.577L39.2499 367.707L37.3899 367.777L33.8599 367.627L33.0599 367.567L31.7399 367.397L31.1499 367.307L30.3899 367.067L29.8099 366.817L28.7299 365.987L27.6998 364.647L27.6599 364.547L27.5798 363.737L27.5399 363.237L27.4598 361.717L27.4299 360.877L27.3599 358.717L27.3198 357.567L27.2599 354.857L27.2299 353.447L27.1799 350.277L27.1499 348.637L27.1099 345.097L27.0299 333.447L27.0199 330.747V325.937L27.0299 323.627L27.0499 319.597L27.0698 317.667L27.1199 314.357L27.1499 312.797L27.2299 310.157L27.2799 308.927L27.3899 306.927L27.4498 305.997L27.5898 304.587L27.6599 303.947L27.8398 303.077L28.1399 302.327L28.3799 302.037L28.6399 301.537L28.7399 301.287L28.7098 300.797L28.6499 300.537L28.3099 299.987L27.4199 298.977L27.0199 298.587L26.0499 298.007L25.5099 297.747L23.9899 297.387L23.5499 297.307L22.5199 297.177L21.9799 297.117L20.6799 297.027L19.9999 296.977L18.3999 296.907L15.6099 296.827L14.0499 296.787L11.3599 296.637L10.0798 296.547L7.99988 296.317L7.04993 296.187L5.67993 295.877L4.47986 295.337L4.27991 295.127L3.88989 294.377L3.70984 293.957L3.37988 292.847L3.05994 291.677L2.63989 288.707L2.45984 287.187L2.3999 284.167L2.40991 283.447L2.50989 282.147L2.80994 280.497L3.63989 277.497L38.3398 277.237L73.0399 276.967M188.1 367.277L187.26 367.027L185.82 366.377M183.14 365.097L184.44 365.767L182.2 364.757L179.9 363.347L179.75 363.257M176.74 361.217L175.45 360.357L174.99 359.947M170.7 355.897L169.7 354.927L169.32 354.457M194.78 343.647L196.29 344.567L195.78 344.287L194.72 343.647L192.84 342.187L190.67 340.037M186.99 334.887L187.77 336.207L189.5 338.757L190.59 339.967L190.25 339.637L189.21 338.447L187.6 335.957L186.86 334.667L185.95 332.187M158.18 320.847L158.2 322.107L158.34 324.737L158.5 327.387L159.12 332.547L159.3 333.777L159.54 335.047L159.1 333.457L158.67 330.637L158.02 324.877L158.04 321.857L158.17 319.957M185.87 331.957L185.83 331.837L185.7 331.427M185.4 330.437L185.37 330.357L185.05 328.247M184.85 326.957L184.56 320.997L184.86 327.017M142.71 326.027L142.62 325.707L142.39 325.277L142 324.997H141.72L141.29 325.557L141 326.887V327.577L140.51 328.527L140.32 328.737L139.73 329.077L139.39 329.227L138.45 329.467L137.92 329.577L136.54 329.737L135.79 329.807L133.9 329.897L132.89 329.937L130.42 329.977L125.98 329.997H124.35L121.18 330.077L119.63 330.127L116.86 330.287L115.55 330.367L113.5 330.597L113.04 330.647L112.32 330.777L111.57 330.977L110.97 331.197L110.16 331.677L109.8 331.947L109.39 332.777L109.21 333.287L109.06 334.857L109.04 335.317L109.01 336.437L109 338.477V339.397L109.08 341.047L109.13 341.827L109.29 343.117L109.38 343.697L109.61 344.497L110 344.997H110.14L110.39 344.497L110.51 344.177L110.71 343.117L110.8 342.537L110.92 341.057L110.97 340.277L111 338.497V345.997H146L127.75 346.067L126.36 346.077L123.81 346.097L122.57 346.117L120.35 346.157L119.28 346.177L117.4 346.247L116.5 346.277L115 346.347L114.29 346.397L113.17 346.487L112.66 346.527L111.96 346.637L111.66 346.687L111.39 346.807L111.5 346.997L111.64 347.057L112.18 347.167L112.49 347.227L113.35 347.337L114.28 347.447L116.91 347.627L118.32 347.707L121.66 347.827L127.1 347.927L128.63 347.937L131.21 347.957L132.43 347.977L134.45 348.027L135.4 348.047L136.93 348.137L137.65 348.177L138.79 348.307L139.32 348.377L140.14 348.567L140.53 348.667L141.13 348.917L142.5 349.997L143.13 350.697L144.11 351.507L144.56 351.817L145.19 351.857L145.47 351.777L145.81 351.017L145.94 350.547L146 348.997V360.417L145.92 358.497L145.88 357.587L145.72 356.117L145.63 355.457L145.4 354.557L145 353.997H144.86L144.61 354.427L144.49 354.707L144.29 355.607L144.2 356.107L144.08 357.347L144 359.477V360.567L143.94 362.357L143.88 363.187L143.53 364.517L143.3 365.127L142.43 366.057L141.91 366.477L140.3 367.067L139.84 367.197L138.74 367.407L138.16 367.507L136.8 367.657L136.08 367.727L134.42 367.817L133.55 367.867L131.57 367.917L130.54 367.937L128.21 367.947L127 367.957L124.29 367.937L122.88 367.927L119.77 367.897L114.6 367.827L112.3 367.797L108.25 367.727L106.31 367.687L102.94 367.607L101.34 367.557L98.6099 367.457L97.3099 367.407L95.1599 367.287L94.1599 367.217L92.5399 367.077L91.7899 366.997L90.6499 366.827L90.1399 366.737L89.4299 366.537L88.7999 366.197L88.7399 366.147L88.6299 365.807L88.5798 365.597L88.4799 364.977L88.3699 364.287L88.1799 362.147L88.0898 360.957L87.9199 357.917L87.8398 356.307L87.6898 352.527L87.6199 350.567L87.4899 346.207L87.4299 343.967L87.3298 339.177L87.2399 334.307L87.1199 323.897L87.0798 318.677V308.497L87.0898 306.027L87.1199 301.327L87.1499 299.027L87.2198 294.807L87.2499 292.767L87.3599 289.157L87.4099 287.457L87.5499 284.627L87.6199 283.327L87.7899 281.427L87.8398 281.017L87.9299 280.397L88.0898 279.787L89.2399 276.997H116.13H118.97H120.35L122.84 277.007H124.05L126.21 277.017H127.25L129.11 277.037L130 277.047L131.58 277.067L132.34 277.087L133.66 277.117L134.93 277.157L136.81 277.287L137.66 277.357L138.86 277.547L139.4 277.657L140.11 277.947L141.44 279.217L141.67 279.537L142.04 280.467L142.22 280.977L142.5 282.197L142.76 283.477L142.97 286.477L143.02 287.987L142.81 290.847L142.72 291.517L142.47 292.677L141.96 294.067L141.73 294.507L141.01 295.117L140.78 295.247L140.16 295.457L139.81 295.547L138.87 295.697L138.35 295.767L137.01 295.857L136.28 295.897L134.46 295.947L133.47 295.977L131.07 295.997L126.71 296.017H124.76L121.08 296.097L119.3 296.147L116.23 296.307L115.52 296.357L114.27 296.457L113.68 296.507L112.7 296.617L112.25 296.677L111.59 296.797L111 296.997L110.88 297.077L110.93 297.227L111 297.297L111.45 297.417L111.73 297.487L112.58 297.587L113.06 297.637L114.31 297.727L114.99 297.767L116.65 297.837L117.52 297.867L119.58 297.917L120.66 297.937L123.11 297.967L127.25 297.977L142.18 297.997L110.5 298.497L110.18 302.917L109.97 306.017L109.91 307.667L109.98 308.317L110.18 309.497L110.43 309.937L111.03 310.717L111.54 310.997L112.7 311.467L113.53 311.607L115.39 311.847L116.63 311.907L119.34 311.987L121.05 311.997H122.84H123.83H125.88H143L126.75 312.097L125.54 312.107L123.31 312.137L122.24 312.147L120.3 312.197L119.37 312.217L117.74 312.277L116.97 312.317L115.68 312.387L115.08 312.427L114.14 312.517L113.72 312.567L113.16 312.667L112.92 312.717L112.76 312.827L113 312.997L113.34 313.107L114.82 313.317L115.67 313.417L117.94 313.587L119.15 313.677L121.92 313.797L126.32 313.897L127.76 313.907L130.26 313.977L131.45 314.017L133.48 314.147L134.43 314.217L136.03 314.427L136.78 314.537L137.98 314.827L138.54 314.987L139.39 315.367L139.78 315.577L140.33 316.077L140.57 316.337L140.84 316.957L141 318.037V318.577L141.29 319.417L142 319.997H142.14L142.39 319.677L142.51 319.477L142.71 318.817L142.89 318.097L143 315.997V327.537M171.09 287.817L169.97 288.937L167.93 291.367L166.93 292.617L165.11 295.327L162.7 299.587L163.19 298.627L165.59 294.327L167.05 292.377L170.14 288.617L171.94 286.947L172.59 286.397M174.69 284.607L175.7 283.747L176.68 283.117M182.74 279.557L181.76 280.037L182.23 279.767L184.05 278.957M188.25 277.277L189.7 276.707L190.69 276.427M244.34 196.207L243.71 196.037ZM243.38 195.847L243.19 195.727H243.18M241.09 191.427L241.3 192.877L241.44 193.547L241.96 194.577L241.45 193.557L241.3 192.887L241.09 191.447L241.05 190.547L241 188.617V188.587L241.05 190.517M245.79 188.637L246.15 189.027L246.82 190.127L247.12 190.687L247.5 191.807L247.47 193.037L247.3 193.317L246.88 193.687L246.66 193.847L246.17 193.957L245.67 194.007L244.67 193.327L244.44 193.097L244.16 192.107L244.05 191.567L244.02 190.317L244.03 189.707L244.22 188.697L244.76 187.997H245.06M271.43 186.217L271.54 186.357L271.73 186.817L272 188.797V189.747L271.52 191.417L271.21 192.187L270.34 193.277L269.88 193.727L268.89 193.977H268.64L268.19 193.767L267.97 193.627L267.58 193.117L267.49 192.977L267.48 192.497L267.49 192.217L267.66 191.537L267.86 190.817L268.6 189.137L269 188.317L269.91 186.957L270.13 186.667L270.54 186.257L271.07 185.997H271.2M221.75 185.637L222.21 185.417L223.31 184.677L226.93 181.557L226.5 181.997L223.17 184.817L222.15 185.477L221.72 185.677L220.92 185.997M208.92 176.337L210.19 177.577L212.73 179.947L213.98 181.087L216.25 183.037L217.32 183.927L219.02 185.187L217.31 183.927L216.24 183.027L213.97 181.077L212.73 179.937L210.19 177.577L208.91 176.327L208.49 175.907M232.99 172.517L233.93 172.747L235.3 173.307L235.89 173.597L236.55 174.247L236.8 174.577L236.73 175.297L235.79 176.397L235.4 176.687L234.97 177.127L234.82 177.337L234.91 177.727L235.03 177.927L235.73 178.387L237.54 179.317L237.63 179.357L234.85 178.267L232.99 178.017L232.1 178.207L230.35 178.797L229.44 179.427L227.63 180.857L227.65 180.827L228.63 179.707L229.07 179.187L229.64 178.367L229.87 177.997L230.05 177.487L230.09 177.277L229.92 177.087L229.79 177.037L229.29 177.177L229.01 177.297L228.21 177.787L227.78 178.087L226.72 178.937L224.86 180.627L221.14 184.267L217.94 182.377L217.05 181.867L215.26 180.427L214.84 180.057L214.12 179.347L213.32 178.367L213.02 177.907L212.64 177.237L212.49 176.937L212.42 176.517L212.43 176.327L212.67 176.047L213.4 175.677L213.6 175.597L214.17 175.617L214.48 175.647L215.19 175.867L217.43 177.117L218.19 177.717L219.57 178.367L220.25 178.597L221.66 178.477L222.38 178.307L224.04 177.357L224.48 177.067L225.45 176.317L227.07 174.927L227.72 174.357L228.82 173.507L229.35 173.137L230.28 172.677L230.74 172.497L231.62 172.367M271.71 182.287L272 182.997V183.267L271.71 183.707L271 183.997H270.72L270.29 183.707L270.11 183.517L270 182.997V182.717L270.29 182.287L271 181.997H271.27M243.48 176.457L243.95 176.747L244.69 177.617L245.02 178.087L245.37 179.157L245.28 180.747L245.13 181.177L244.73 181.687L244.51 181.887L243.96 181.907L243.67 181.867L242.95 181.407L242.57 181.117L241.65 180.167L241.1 179.557L240.43 178.487L240.17 177.977L240.08 177.167L240.11 176.797L240.59 176.307L241.96 175.997H242.5M239.52 180.367L240.01 180.707L240.09 180.847L239.69 180.517L239.19 180.177M204.14 163.487L204.4 163.627L204.98 164.157L205.58 164.747L206.83 166.487L207.43 167.377L208.28 169.137L208.44 169.547L208.6 170.227L208.53 170.947L208.29 171.337L207.77 171.777L207.5 171.927L206.87 171.857L206.53 171.747L205.69 171.137L205.23 170.767L204.08 169.587L203.53 168.997L202.78 167.697L202.46 167.047L202.22 165.807L202.17 165.217L202.45 164.247L203.5 163.337L203.67 163.277M200.39 162.347L199.96 162.907L199.37 163.867L199 164.897V164.867L199.36 163.847L199.91 162.927L200.32 162.387L201.16 161.377M201.9 160.527L201.44 161.037L202.26 160.047L202.92 159.437M212.43 152.567L212.66 152.927L212.64 154.027L212.56 154.617L211.96 155.987L210.44 158.057L209.69 158.847L208.54 159.907L208.01 160.357L207.21 160.797L206.84 160.947L206.26 160.807L205.99 160.667L205.51 160.007L205.43 159.877L205.52 159.367L205.6 159.077L205.95 158.327L206.35 157.527L207.64 155.617L208.32 154.677L209.71 153.107L210.04 152.767L210.61 152.297L211.28 151.997H211.83M207.47 154.747L206.43 155.977L206.1 156.317L205.28 157.137L204.98 157.427L205.25 157.167L206.27 156.077L206.68 155.597L207.42 154.687L207.64 154.347H207.65M209.35 138.497L212.18 145.397L211.63 144.067L210.71 142.057L210.27 141.147L209.47 139.877L209.08 139.327L208.32 138.657L207.61 138.367M205.39 143.787L206.12 143.807L207.32 143.907L207.88 143.967L208.78 144.157L209.2 144.257L209.83 144.527L210.12 144.677L210.51 145.047L211 146.557V147.107L210.57 147.707L210.3 147.937L209.49 147.917L209.06 147.837L208.06 147.247L206.57 145.747L206.19 145.237L205.68 144.587L205.46 144.327L205.24 144.167L205.16 144.157V144.477L205.36 145.497L205.43 145.767L205.65 146.537L205.77 146.937L206.03 147.737L204.5 144.007L197.87 143.997L194.9 143.917L194.54 143.877L195.77 143.917L199.93 143.837L201.04 143.807L202.95 143.767L203.85 143.757M189.62 141.177L190.16 142.687L190.29 142.847L190.1 142.607L189.83 142.057L189.67 141.487L189.6 141.097L189.55 140.757M192.63 125.867L192.69 126.167L192.78 127.157L192.86 129.167L192.9 130.607L193.07 132.977L193.17 134.077L193.48 135.737L193.64 136.487L194.08 137.427L194.86 137.997H194.9L194.99 137.787L195.03 137.637L195.11 137.167L195.18 136.637L195.31 134.907L195.37 133.947L195.38 133.527L195.5 137.497L202.43 137.997L205.44 138.217L205.41 138.237L205.33 138.367L205.44 138.827L205.96 139.917L206.18 140.337L206.44 140.947L206.54 141.217L206.56 141.587L206.53 141.737L206.28 141.907L205.6 141.997H205.2L204.38 141.407L203.5 139.997L203.31 139.397L202.37 138.587L201.84 138.257L200.47 138.017L199.76 137.967L198.3 138.307L196.36 139.497L195.89 139.967L195.01 140.557L194.58 140.797L193.78 140.957L193.4 140.977L192.7 140.707L192.36 140.517L191.77 139.837L191.49 139.447L191.02 138.377L190.8 137.797L190.47 136.347L190.32 135.577L190.13 133.777L190.02 130.677V129.827L190.08 128.507L190.12 127.927L190.25 127.157L190.33 126.837L190.53 126.617L190.92 126.907L191.1 127.187L191.38 127.477L191.51 127.577L191.73 127.517L191.83 127.447L192.01 127.007L192.27 125.907L192.34 125.577L192.46 125.417H192.52M210.05 99.1366L211.42 99.6066L211.99 99.8266L212.64 100.647L212.88 101.117L212.87 102.497L212.78 103.257L212.1 105.247L210.32 108.967L209.66 110.187L208.23 112.127L207.48 113.007L205.84 114.307L204.98 114.887L203.07 115.587L199.85 115.997H199.34L198.54 116.287L198 116.997V117.137L198.34 117.387L198.56 117.497L199.27 117.677L200.04 117.837L202.18 117.957L202.46 117.967L202.3 117.977H200.71L195.5 117.997V116.947L192.75 117.547L192.26 117.657L191.49 117.747L191.14 117.777L190.64 117.697L190.42 117.637L190.15 117.377L190 116.777V116.197L190.41 115.207L190.67 114.737L191.58 114.007L192.09 113.667L193.45 113.217L195.95 112.897L196.93 112.867L199.19 112.627L201.99 112.107L202.78 111.887L204.41 110.657L205.22 109.947L206.68 108.047L207.36 107.057L208.35 104.907L209 101.847V101.077L209.05 100.067L209.09 99.6466L209.33 99.2266L209.48 99.0866M211.13 111.377L210.71 112.227L209.9 113.867L209.52 114.567L208.78 115.857L209.51 114.567L209.89 113.867L210.71 112.227L211.13 111.377L211.76 109.977ZM215 100.397V100.437L214.88 100.067M214.48 99.0866L214.53 99.2066L214.27 98.7366M207.01 90.4366L210.18 93.6566L209.53 93.0566L209.14 92.7266L208.45 92.2866L207.6 91.9966H207.32L207.22 92.3366L207.78 93.1766L208.21 93.6066L208.44 94.3866L207.83 95.7066L207.59 95.9866L207.16 96.3066L206.95 96.4166L206.47 96.3866L206.21 96.3166L205.58 95.9166L204.35 94.8566L203.7 94.2466L202.69 92.7366L202.48 92.3666L202.19 91.6666L202 90.7566V90.0866L202.31 88.7266L202.51 88.0566L203.11 86.8666L203.44 86.3166L204.22 85.5166L205.43 84.9966H205.85L206.56 85.4366L206.88 85.6966L207.31 86.4566L207.48 86.8466L207.51 87.6266L206.96 88.5266L206.69 88.6866L206.28 89.2866L206 90.2766V90.3566L206.15 90.3666L206.25 90.3366L206.59 90.1466L206.97 89.9166L208.19 88.9266L208.86 88.3666L210.56 86.8266L213.32 84.1666M229.33 84.1466L230.07 84.6666ZM214.2 77.7966L214.61 78.2066L214.78 79.0066L214.04 80.4566L213.64 80.9366L212.73 81.5466L212.28 81.7966L211.42 81.9466L211.02 81.9666L210.41 81.6466L210.15 81.4266L210 80.6166V80.0666L210.47 79.0566L210.76 78.5866L211.6 77.8766L212.05 77.5866L212.98 77.3666M240.64 76.5066L240.79 76.5766L240.89 76.9066L240.81 77.7566L240.72 78.2366L239.89 79.0866L238.13 79.8266L237.36 79.9366L236.49 79.7666L236.16 79.6066L236.19 78.9266L236.3 78.5866L237.15 77.8066L238.87 76.8466L239.34 76.6766L240 76.4966L240.29 76.4366M247.12 78.1166L246.73 78.4466L245.83 79.0666L245.82 79.0766L246.72 78.4566L247.11 78.1266L247.32 77.7266M269.03 77.0566L269.7 77.4966L269.04 77.0866L269 76.9966M247.77 76.6866V76.6966L247.79 76.4566M220.93 71.2266L221.24 71.2766L221.88 71.6066L223.01 72.5066L223.4 72.8566L223.92 73.4266L224.14 73.6966L224.34 74.1266L224.4 74.3366L224.28 74.6766L223.77 75.1566L223.23 75.5066L221.69 75.8766L220.89 76.0066L219.23 75.9766L218.44 75.9166L217.19 75.5266L216.92 75.4066L216.56 75.1066L216.42 74.9466L216.33 74.5766V74.1866L217.02 73.2066L218.66 71.9166L219.15 71.6466L219.93 71.3366L220.29 71.2266M243.74 69.4566L243.86 69.5166L244.09 69.8866L244.46 70.8666L244.68 71.5466L244.55 72.8566L243.57 74.5666L243.21 74.9266L242.72 75.3466L242.51 75.5166H242.25L242.15 75.4666L242.05 75.0266L242.02 74.7466V73.8166V73.1766L242.28 71.7766L242.91 70.1166L243.08 69.8466L243.36 69.5366L243.5 69.4266M240.99 64.9366L241 68.0866V74.0166L237.26 75.5066L238.65 74.8366L239.67 74.1166L239.96 73.6566L240.42 72.6366L240.53 71.8566L240.63 71.0366L240.66 70.5266L240.73 69.4466L240.76 68.7966L240.9 65.3266L241 63.4866L241.03 63.3266M248 71.2166L247.99 70.0066V69.4366L247.96 68.5366L247.91 67.7166L247.67 66.8266L247.51 66.4866L246.93 66.3366L245.5 66.5866L244.95 66.7266L244.19 66.8266L243.85 66.8466L243.43 66.6566L243.25 66.5166L243.08 65.9666L243 64.6266V64.1366L243.13 63.3666L243.22 63.0166L243.56 62.4666L243.76 62.2066L244.34 61.8266L245.55 61.3966L246.33 61.1966L247.49 61.1066H248L248.59 61.3766L248.81 61.5666L248.78 62.1866L248.02 63.4766L247.74 63.8066L247.53 64.2766L247.49 64.4766L247.86 64.7366L248.13 64.8366L249.23 64.9466L251.88 64.9966H252.58L253.87 64.9166L254.48 64.8666L255.5 64.7066L255.96 64.6166L256.6 64.3866L257 63.9966V63.8566L256.73 63.6066L256.55 63.4866L255.98 63.2866L253.53 62.9966H252.86L251.89 62.9266L251.46 62.8766L250.92 62.6766L250.69 62.5666L250.53 62.2166L250.64 61.4966L250.74 61.2266L251.22 60.7966L251.51 60.6066L252.41 60.3366L252.92 60.2166L254.32 60.0766L257.08 59.9966H258.28L259.99 60.0566L260.75 60.1066L261.7 60.2866L262.09 60.3966L262.41 60.7466L262.36 61.4966L262.2 61.9066L261.55 62.5566L260.39 62.9966H260.01L259.41 63.2866L259 63.9966V64.1366L259.28 64.3866L259.45 64.5066L260.03 64.7066L262.5 64.9966H248M252.07 58.9766L253.84 58.9866H254.83L256.77 58.9966H254.93L253.94 58.9866L252.17 58.9966H250.47L247.8 59.0666L246.57 59.1166L244.74 59.3366L243.91 59.4766L242.76 59.9366L242.26 60.2066L242.17 60.3166L242.26 60.1866L242.76 59.9066L243.88 59.4366L244.69 59.2966L246.5 59.0766L247.71 59.0366L250.37 58.9766M237.9 346.847L237.78 344.487L237.71 343.417L237.54 341.937L237.5 341.637L237.4 341.247L237.25 341.007L237.28 340.997H237.37L237.49 341.237L237.58 341.637L237.61 341.937L237.76 343.407L237.81 344.487L237.92 346.847L237.95 348.267L238 351.237L237.94 348.267M240.99 185.427L240.96 184.307L240.93 183.847L240.77 182.267L240.58 181.747L240.12 180.887L240.55 181.587L240.77 182.097L240.94 183.687L240.97 184.157L240.99 185.297L241 187.407V187.447M222.07 69.0066L222.62 69.4566L223.8 70.4466L224.47 71.0466L225.85 72.2966L226.58 72.9866L231.85 77.9666L235.18 76.4766L234.96 76.5966L234.29 77.1066L233.99 77.3466L233.68 77.8266L233.64 78.5066L233.73 78.7466L233.71 79.2366L233.66 79.4766L233.4 79.9266L233.09 80.3666L232.01 81.0366L231.43 81.3166L230.15 81.4966L228.5 80.9966L228.01 80.5866L227.6 79.6666L227.48 79.2066L227.7 78.3766L227.88 78.0066L228.61 77.5366H230.14L230.4 77.6266L230.45 77.3766L230.4 77.1866L229.9 76.4766L229.59 76.0666L228.6 74.9866L226.67 73.0666L225.93 72.3766L224.52 71.0966L223.84 70.4966L222.65 69.4866L222.09 69.0266L221.24 68.3966L220.51 67.9966L221.23 68.3866M265.3 64.5166L265.93 64.0166L266.14 63.7666L265.87 63.3066L265.73 63.1966L265.27 63.0366L264.25 62.8766L263.84 62.8566L263.32 62.8066L263.11 62.7766L263.01 62.7166V62.6766L263.33 62.5666L264.26 62.3066L264.75 62.1766L265.34 61.7066L265.45 60.9166L265.34 60.7366L265.32 60.4466L265.34 60.3166L265.55 60.1466L265.82 60.0066L266.86 60.0366L267.44 60.1066L268.8 60.5366L270.78 61.5566L271.36 61.9566L272.21 63.0966L272.57 63.6766L272.93 64.8866L273.04 65.4666L272.84 66.3766L271.83 66.9966H271.51L270.54 66.5766L269.08 65.5666L268.72 65.2466L268.24 64.9866L268.04 64.9466L267.92 65.2466L267.9 64.9966H263.37L264.71 64.6966L265.3 64.5166Z" fill="#BD1E2E"/>
<path d="M121.18 0.570312H124.97H126.72L130.11 0.580315L131.67 0.590313L134.7 0.610313L136.09 0.620312L138.79 0.650314L140.03 0.670311L142.43 0.700314L143.54 0.730312L147.72 0.830315L149.52 0.910313L152.93 1.07031L154.45 1.18031L157.39 1.42031L158.77 1.57031L161.52 1.88031L162.92 2.08031L165.77 2.49031L167.33 2.74031L175.22 4.14031L180.2 5.17031L182.57 5.75031L187.23 6.95031L189.45 7.61031L193.81 8.97031L195.9 9.72031L200.01 11.2703L201.99 12.1103L205.89 13.8603L207.77 14.8103L211.49 16.7603L213.29 17.8203L216.87 20.0003L218.62 21.1703L223.06 24.5603L226.16 27.2603L227.71 28.7703L230.8 31.8503L232.28 33.4503L235.17 36.6703L236.48 38.2503L238.98 41.3703L240.02 42.8203L241.93 45.6103L242.6 46.8103L243.22 47.9603L243.44 48.4703L243.83 49.4503L243.94 49.8603L244.08 50.6203L244.05 50.9203L243.92 51.4503L243.74 51.6203L242.22 52.6403L240.9 53.2603L240.3 53.4503L239.09 53.6203L238.42 53.4603L238.1 53.1903L237.47 52.5403L237.12 51.9803L236.38 50.7103L235.92 49.8003L234.28 47.2603L232.67 45.1903L231.66 44.0203L229.52 41.6103L228.31 40.3403L225.82 37.7603L224.5 36.4703L221.82 33.8903L220.48 32.6603L217.79 30.2503L216.51 29.1703L213.99 27.1003L212.85 26.2403L210.66 24.6803L209.76 24.1503L205.05 21.5903L201.73 19.9903L199.96 19.2503L196.37 17.7803L194.47 17.1003L190.62 15.7703L188.59 15.1503L184.46 13.9503L182.3 13.4003L177.91 12.3403L175.61 11.8503L170.94 10.9203L168.51 10.5003L163.57 9.70031L161 9.35031L155.75 8.77031L151.66 8.45031L149.35 8.32031L144.57 8.08031L141.96 7.99031L136.62 7.82031L133.78 7.76031L127.99 7.66031L124.97 7.64031L118.86 7.61031L115.72 7.62031L103 7.73031L96.6199 7.87031L83.9199 8.22031L77.9099 8.48031L71.9799 8.76031L69.1499 8.91031L63.6099 9.24031L61.0299 9.42031L56.0099 9.80032L53.7299 10.0003L49.3398 10.4303L47.4199 10.6503L43.7899 11.1203L42.2899 11.3703L39.5299 11.8803L38.5199 12.1503L34.4498 13.4803L31.8198 14.5903L30.5599 15.2603L28.0798 16.6603L26.8899 17.4603L24.5599 19.1303L23.4598 20.0703L21.3099 21.9903L20.2999 23.0503L18.3398 25.2103L17.4398 26.3803L15.6898 28.7603L14.8999 30.0403L13.3799 32.6303L12.7098 34.0003L11.0099 37.7703L10.2699 39.8903L10.0599 40.9803L9.70984 43.2503L9.63989 44.7003L9.56982 46.2103L9.55994 47.0803L9.53992 48.9203V50.0003L9.54993 52.9403L9.57983 54.6203L9.61987 55.3403L9.80994 57.9603L10.0299 59.0503L10.5599 61.1503L11.0099 62.2603L11.4799 63.4003L11.7699 64.0403L12.3999 65.3503L12.7699 66.1103L16.1699 71.6803L19.0199 75.3103L20.6399 76.9903L23.9698 80.2303L25.7098 81.5803L29.2198 84.0903L30.9299 84.9603L36.9698 87.4603L41.1399 88.5403L43.4799 88.8103L45.8699 89.0403L47.1699 89.0903L49.8198 89.1403L51.2699 89.1103L54.2499 89.0103L55.8899 88.9003L59.2699 88.6403L61.1399 88.4603L67.3799 87.9203L72.0698 87.5803L74.4999 87.4403L79.3398 87.1603L81.6099 87.0603L86.0199 86.8803L87.8499 86.8403L101.2 86.5303L103.6 89.3203L105.43 92.4203L105.77 93.5603L105.86 94.1903L106 95.4803V96.2003L105.96 97.6703L105.76 98.6403L105.43 99.2703L105.06 99.9403L104.79 100.34L104.18 101.19L103.78 101.7L102.89 102.79L102.33 103.44L101.11 104.83L100.36 105.65L98.7599 107.39L97.7999 108.41L95.7599 110.56L94.5599 111.81L92.0299 114.44L90.5698 115.94L87.4999 119.09L85.7399 120.89L82.0698 124.62L79.9999 126.73L75.6799 131.11L73.2699 133.56L68.2499 138.64L65.4598 141.47L62.6199 144.34L61.1299 145.85L58.0999 148.92L56.5099 150.53L48.5999 158.54L43.8198 163.39L41.6599 165.59L37.4999 169.83L35.6299 171.75L32.0399 175.45L30.4398 177.12L27.3599 180.33L26.0099 181.77L23.4199 184.55L22.2899 185.79L20.1299 188.19L19.1998 189.27L17.4299 191.34L16.6799 192.28L15.2599 194.09L14.6599 194.91L13.5399 196.51L13.0798 197.25L11.4698 200.06L10.9398 201.37L10.0399 203.96L9.72986 205.32L9.16992 208.12L8.8999 209.76L8.3999 214.51L8.36987 217.61L8.49988 219.12L8.85986 222.13L9.17993 223.6L9.93982 226.51L10.4598 227.93L11.6099 230.75L12.3298 232.12L13.8699 234.84L14.7799 236.17L16.7198 238.79L17.8298 240.07L20.1599 242.59L21.4698 243.82L24.5499 246.53L26.5499 248.1L27.5399 248.78L29.5099 250.06L30.5099 250.6L32.5099 251.6L33.5499 252.01L35.6399 252.77L36.7299 253.06L38.9598 253.59L40.1499 253.77L42.5698 254.1L43.8799 254.19L46.5499 254.32L47.9999 254.33L52.3499 254.23L54.8398 254.04L55.9598 253.87L58.1499 253.47L59.2198 253.18L61.3599 252.53L62.4999 252.1L64.5798 251.19L66.0399 250.37L66.9199 249.75L67.8398 249.08L68.3499 248.68L69.4299 247.81L70.0399 247.28L71.3198 246.17L72.0599 245.51L73.5898 244.12L74.4698 243.3L76.2899 241.58L77.3298 240.59L79.4999 238.51L80.7198 237.31L83.2699 234.83L84.6998 233.42L87.6699 230.48L89.3298 228.83L92.7699 225.41L94.6799 223.5L98.6399 219.55L100.82 217.36L105.33 212.84L107.81 210.36L112.92 205.23L115.72 202.42L123.98 194.13L128.97 189.12L131.22 186.86L135.57 182.51L137.52 180.56L141.27 176.81L142.94 175.15L146.16 171.96L147.58 170.56L150.29 167.89L151.48 166.73L153.76 164.52L154.75 163.58L156.62 161.8L157.43 161.05L158.96 159.65L159.61 159.08L160.85 158.01L161.37 157.59L162.35 156.81L162.77 156.52L163.55 155.98L163.89 155.79L165.08 155.21L165.57 155.11L166.51 155H167.01L169.04 155.13L170.21 155.36L170.73 155.55L171.72 156L172.19 156.31L173.09 157L173.55 157.45L174.93 159.12L175.24 159.75L175.36 160.14L175.58 160.97L175.66 161.5L175.8 162.65L175.85 163.38L175.93 164.96L175.95 165.96L175.98 168.09L175.99 169.41L176 172.21V173.9L175.92 180.32L175.78 185.05L175.69 187.44L175.48 192.22L175.35 194.42L175.22 196.58L175.15 197.57L175.01 199.51L174.93 200.36L174.52 206.81L174.43 210.7L174.48 212.46L174.65 215.89L174.83 217.46L175.29 220.51L175.62 221.92L176.38 224.67L176.87 225.97L177.95 228.52L178.62 229.74L180.04 232.17L180.88 233.37L182.67 235.75L183.7 236.96L186.93 240.31L189.23 242.31L190.44 243.19L192.91 244.88L194.2 245.61L196.82 246.99L198.17 247.56L200.89 248.64L202.28 249.06L205.09 249.82L206.51 250.09L209.37 250.54L210.81 250.66L213.69 250.81L215.12 250.77L217.99 250.61L219.42 250.42L222.25 249.97L223.64 249.62L226.4 248.86L227.75 248.37L230.42 247.3L231.7 246.66L234.24 245.29L235.45 244.49L237.83 242.82L238.95 241.88L241.15 239.91L242.16 238.81L244.14 236.55L245.03 235.3L248.04 230.2L249.85 226.26L250.58 224.21L251.92 220.11L252.34 218.21L252.72 216.35L252.83 215.49L253 213.83V213.1L253.18 208.76L253.31 207.34L253.38 206.72L253.54 205.55L253.62 205.12L254.07 203.46L254.44 202.73L254.73 202.52L255.38 202.17L255.87 202.1L256.98 202H261.27L260.57 211.65L259.97 217.29L259.4 220.81L259.02 222.46L258.21 225.69L257.71 227.21L256.63 230.19L255.99 231.6L254.64 234.36L253.86 235.67L252.22 238.26L251.28 239.5L249.33 241.94L248.24 243.11L245.96 245.44L244.7 246.58L239.33 250.7L235.47 253.01L233.44 253.95L229.29 255.67L227.14 256.3L222.8 257.42L220.58 257.75L216.13 258.24L213.88 258.26L209.4 258.13L207.17 257.82L202.74 257.04L200.57 256.41L196.28 254.98L194.22 254.02L191.2 252.4L189.15 251.12L188.12 250.38L184.04 247.23L182.11 245.41L178.36 241.64L176.74 239.64L175.18 237.63L174.48 236.62L173.16 234.6L172.6 233.6L170.8 230.13L169.81 227.9L169.41 226.77L168.67 224.48L168.39 223.26L167.89 220.75L167.72 219.35L167.43 216.45L167.36 214.79L167.26 211.33L167.28 209.33L167.36 205.14L167.46 202.71L167.7 197.62L167.86 194.68L168.15 189.65L168.32 186.57L168.39 185.17L168.53 182.45L168.59 181.22L168.71 178.83L168.75 177.75L168.84 175.68L168.87 174.75L168.93 172.97L168.95 172.18L169 169.29L168.98 168.19L168.9 166.23L168.82 165.53L168.63 164.32L168.49 163.95L168.17 163.33L167.96 163.18L167.52 162.97H167.25L166.84 163.18L166.36 163.55L166.02 163.84L165.26 164.48L164.78 164.91L163.77 165.82L163.17 166.37L161.9 167.54L161.18 168.22L159.68 169.64L158.85 170.43L157.13 172.08L156.19 172.98L154.26 174.85L153.22 175.86L151.09 177.93L149.96 179.05L147.64 181.32L146.42 182.52L141.36 187.52L138.6 190.27L132.94 195.92L129.91 198.95L123.74 205.16L120.5 208.43L112.74 216.28L108.04 221.02L105.92 223.17L101.8 227.32L99.9498 229.18L96.3699 232.77L94.7699 234.38L91.6799 237.46L90.2999 238.83L87.6499 241.44L86.4698 242.59L84.2198 244.79L83.2198 245.75L81.2999 247.57L80.4598 248.36L78.8398 249.85L78.1299 250.49L76.7599 251.69L76.1499 252.21L73.8999 254.02L72.9598 254.67L71.1699 255.84L70.3198 256.3L68.6099 257.18L67.6499 257.63L65.9799 258.41L65.2399 258.74L63.8198 259.35L63.1699 259.61L60.7198 260.49L59.5099 260.77L57.0399 261.23L55.5499 261.37L53.9899 261.49L53.0999 261.54L51.2299 261.63L50.1499 261.67L45.2499 261.75L42.5399 261.67L41.3699 261.56L39.1299 261.27L38.0798 261.05L36.0099 260.53L34.9498 260.18L29.3298 257.97L25.8099 256.23L24.1699 255.24L20.9598 253.18L19.4799 252.04L16.5898 249.69L15.2699 248.41L12.7198 245.8L11.5698 244.41L9.35986 241.57L8.38989 240.08L6.53992 237.05L5.74988 235.47L4.25989 232.28L3.65991 230.63L2.55994 227.3L2.1499 225.6L1.43982 222.18L1.22986 220.44L0.919922 216.95V215.19L1.02991 211.67L1.23987 209.91L1.7699 206.38L2.19983 204.63L3.16992 201.13L3.81982 199.4L5.23987 195.97L6.11987 194.29L8.00989 190.95L9.11987 189.32L9.62988 188.67L10.1199 188.07L10.4398 187.69L11.1399 186.89L11.5599 186.42L12.4498 185.43L12.9598 184.87L15.1799 182.45L16.5299 181.01L19.3699 177.97L20.9999 176.26L24.3699 172.71L26.2198 170.78L30.0199 166.83L32.0499 164.73L36.1898 160.47L38.3398 158.27L42.7098 153.8L44.9498 151.53L53.5199 142.84L58.7599 137.52L61.1499 135.09L65.7799 130.38L67.8799 128.24L71.9498 124.1L73.7799 122.23L77.3198 118.62L78.8999 117L81.9398 113.89L83.2899 112.5L85.8699 109.85L86.9999 108.67L89.1599 106.43L90.0999 105.46L91.8699 103.6L92.6199 102.8L94.0499 101.28L94.6399 100.64L95.7499 99.4303L96.1998 98.9203L97.0299 97.9803L97.3499 97.6003L97.9398 96.8803L98.1499 96.6003L98.5299 96.0803L98.6599 95.8803L98.9999 95.2203V95.0403L98.3899 94.3903L97.8799 94.2503L97.5099 94.1903L96.6898 94.1003L96.1399 94.0803L94.9598 94.0403H94.2098L92.6099 94.0503L91.6399 94.0703L89.5698 94.1303L88.3398 94.1803L85.7599 94.2803L84.2499 94.3503L77.6799 94.6903L73.0099 94.9803L70.7098 95.1403L66.1799 95.4703L64.1499 95.6303L62.1898 95.8003L61.2999 95.8803L59.5898 96.0403L58.8599 96.1103L51.0199 96.5603L46.0798 96.4603L43.7499 96.2003L39.1599 95.5603L36.9999 95.0403L32.7599 93.8503L30.7599 93.0503L26.8398 91.3103L24.9999 90.2403L21.3899 87.9403L19.6998 86.5803L16.3799 83.7103L14.8198 82.0703L11.7799 78.6303L10.3599 76.7003L6.91992 71.1203L5.06982 67.1103L4.36987 65.0003L3.11987 60.7303L2.71985 58.5303L2.05994 54.1103L1.95984 51.8803L1.90991 47.4103L2.10986 45.1903L2.66992 40.8003L3.17993 38.6603L4.34985 34.4503L5.16992 32.4403L6.95984 28.5203L8.08984 26.7103L12.9698 19.9303L16.4799 16.0703L18.4199 14.4303L22.4299 11.3203L24.6998 9.99031L29.4099 7.48031L32.0798 6.39031L34.0898 5.68031L35.6399 5.23031L36.5099 5.01031L38.3298 4.59031L39.3398 4.40031L41.4299 4.01031L42.5798 3.83031L44.9498 3.47031L46.2399 3.30031L48.8899 2.98031L50.3198 2.83031L53.2499 2.53031L54.8198 2.40031L58.0299 2.13031L59.7499 2.01031L63.2499 1.78031L65.1099 1.67031L68.8999 1.47031L70.8999 1.38031L74.9799 1.21031L77.1399 1.13031L81.5099 0.990314L83.8099 0.930313L88.4799 0.820312L90.9299 0.770313L95.8999 0.690311L98.4999 0.660313L103.77 0.610313L106.52 0.590313L112.1 0.570312H115M255.72 88.4603L256.43 88.5203L256.7 88.6003L257.56 89.0703L257.75 89.5403L258 90.6403V91.4503L257.68 93.0403L257.14 93.8603L256.7 94.1503L255.7 94.6503L255.02 94.7903L253.53 95.0003H252.6L248.77 95.5803L245.9 96.5103L244.42 97.2003L241.45 98.7003L240.03 99.6203L237.26 101.56L236.06 102.64L232.14 106.85L229.88 110.02L228.95 111.76L227.2 115.34L226.54 117.26L225.34 121.18L224.96 123.25L224.58 129.14L225.01 133.1L225.57 135.1L226.91 139.09L227.91 141.08L230.15 145.06L231.6 147.04L234.56 150.59L236.65 152.67L237.78 153.56L240.1 155.26L241.37 155.98L243.98 157.33L245.42 157.88L248.38 158.9L250.01 159.3L253.39 160.01L255.25 160.27L259.09 160.7L261.2 160.82L265.58 161H279.54L287.96 169.46L296.37 177.91L303.08 177.71H305.69L307.22 177.8L307.88 177.89L309.16 178.12L309.72 178.29L310.8 178.68L311.27 178.95L313 180.19L313.7 181.14L315.02 183.26L315.64 184.72L316.45 187.2L316.75 188.86L316.79 189.67V191.3L316.69 192.09L316.4 193.65L316.16 194.39L315.6 195.85L315.22 196.53L314.39 197.86L313.88 198.45L312.8 199.61L312.17 200.11L310.84 201.06L310.09 201.45L308.42 202.21L307.57 202.45L305.87 202.84L305.02 202.9L303.34 202.93L302.51 202.81L300.88 202.5L300.1 202.22L298.57 201.58L297.86 201.15L296.47 200.2L295.85 199.61L294.65 198.37L294.14 197.64L293.17 196.12L292.79 195.26L291.94 193.06L291.57 191.76L291.48 191.16L291.36 188.87L291.65 187.7L292.22 185.24L292.35 184.57L292.39 184.33L292.46 183.9L292.47 183.8L292.32 183.5L292.06 183.15L291.87 182.91L290.91 181.77L290.21 180.99L288.68 179.3L287.75 178.32L285.81 176.27L284.74 175.18L276.99 167.26L263.74 166.73L258 166.41L254.39 166.1L252.78 165.91L249.71 165.52L248.47 165.31L246.2 164.86L245.45 164.62L239.74 162.27L236.18 160.23L234.55 159.01L231.38 156.42L229.96 154.95L227.24 151.88L226.06 150.2L223.83 146.73L222.91 144.86L221.22 141.06L220.6 139.06L219.5 135L219.19 132.9L218.73 128.65L218.76 126.47L219.46 119.78L220.51 115.47L221.31 113.41L223.07 109.38L224.19 107.49L226.58 103.82L227.99 102.15L230.94 98.9303L232.61 97.5103L236.06 94.8203L237.94 93.7103L241.8 91.6303L243.87 90.8603L248.08 89.4903L250.29 89.1103L252.58 88.7303L253.84 88.5503L254.36 88.5103L255.33 88.4503M303.22 183.64L301.76 183.87L301.09 184.17L299.8 184.9L299.27 185.46L298.3 186.71L297.99 187.54L297.7 189.95L297.98 191.74L298.29 192.61L299.04 194.28L299.54 194.93L300.62 196.08L301.23 196.33L302.22 196.64L302.75 196.68L303.82 196.69L304.37 196.6L306.57 196.01L307.55 195.42L309.39 194.07L310.01 193.23L310.57 192.35L310.74 191.89L311 190.96V190.48L310.54 188.01L309.83 186.6L309.32 186.04L308.21 184.99L307.55 184.62L306.18 183.97L305.44 183.8L303.95 183.58M283.71 141.21L284.46 141.43L284.93 141.68L285.93 142.28L286.53 142.72L287.79 143.71L288.54 144.35L290.12 145.75L291.04 146.6L292.96 148.42L294.06 149.5L296.64 152L298.11 153.4L298.74 153.97L299.94 155.04L300.45 155.46L301.44 156.25L301.87 156.54L303.45 157.51L304.15 157.72L305.53 158H306.31L308.24 157.85L309.27 157.56L309.73 157.28L310.64 156.6L311.11 156.08L312.09 154.89L312.69 154.06L315.13 151.12L316.76 149.72L317.66 149.26L319.53 148.48L320.65 148.28L323.02 148H324.47L328.42 148.59L330.72 149.53L331.69 150.22L333.49 151.74L334.19 152.68L335.46 154.64L335.86 155.73L336.52 157.99L336.61 159.18L336.62 161.59L336.36 162.8L335.65 165.21L335.02 166.37L333.56 168.64L332.52 169.68L331.2 170.96L330.63 171.4L329.51 172.17L328.92 172.41L327.71 172.79L326.97 172.88L325.37 173H324.33L321.74 172.87L320.32 172.63L319.68 172.4L318.43 171.87L317.79 171.46L316.49 170.55L315.73 169.93L313.1 167.34L312.48 166.55L312.29 166.22L312 165.62V165.43L311.71 164.75L311.21 164.43L310.77 164.31L309.77 164.12L309.05 164.07L307.46 164H300.84L291.67 155.26L288.1 151.85L286.19 150.02L285.45 149.29L284.09 147.95L283.59 147.43L282.7 146.46L282.4 146.09L281.89 145.4L281.74 145.12L281.53 144.61L281.5 144.38L281.58 143.49L281.74 142.89L282.16 141.84L282.55 141.38L282.8 141.27L283.36 141.14M323.35 154.07L322.06 154.37L321.45 154.63L320.25 155.21L319.72 155.58L318.71 156.4L318.31 156.88L317.58 157.89L317.36 158.46L317.01 159.62L317.02 160.25L317.2 162.06L317.51 163.06L317.78 163.49L318.4 164.31L318.85 164.69L319.84 165.43L320.5 165.81L321.95 166.5L322.68 166.68L324.14 166.94L324.84 166.91L326.21 166.73L326.82 166.49L327.97 165.89L328.43 165.43L329.55 163.31L329.94 161.42L329.95 160.41L329.86 158.39L329.63 157.52L329.05 155.91L328.57 155.43L327.05 154.41L325.89 154.03L325.26 153.98L323.99 153.96M273.02 141.19L273.61 141.7L273.77 142.17L274 143.24V144L273.97 145.12L273.91 145.51L273.73 146.21L273.56 146.43L273.15 146.79L272.84 146.88L272.15 147H271.67L269.82 146.8L268.85 146.52L268.67 146.33L268.06 145.16L267.97 144.21L268.06 143.74L268.34 142.8L268.59 142.43L269.18 141.76L269.58 141.61L271.66 141.02L272.67 141.01M325.52 85.1003L328.41 85.6503L329.71 86.2803L330.98 86.9603L331.56 87.4003L332.68 88.3203L333.17 88.8603L335.34 91.7803L336.29 93.6803L336.52 94.6503L336.83 96.6303L336.75 97.6903L336.46 99.8703L336.09 101.09L335.02 103.71L334.09 105.29L333.53 105.98L332.36 107.31L331.7 107.86L330.33 108.91L329.59 109.31L328.08 110.05L327.29 110.29L325.69 110.69L324.86 110.75L323.22 110.79L322.39 110.66L320.75 110.31L319.94 109.98L318.51 109.19L317.41 108.42L316.84 107.96L314.52 105.92L313.61 104.86L311.64 102.72L310.55 101.82L309.95 101.56L308.69 101.17L307.83 101.09L306.92 101.03L306.38 101.02L305.24 101H304.56L302.65 101.01L301.59 101.05L301.13 101.11L299.47 101.42L298.68 101.83L297.89 102.28L297.46 102.6L296.56 103.3L296.04 103.76L294.95 104.74L294.3 105.36L292.91 106.69L292.07 107.5L285.34 114H254.3L250.23 116.94L247.66 119.02L246.47 120.3L246.08 120.99L245.43 122.43L245.24 123.32L244.93 125.24L244.85 126.5L244.94 129.49L245.29 131.34L245.6 132.19L246.33 133.85L246.84 134.6L247.95 136.06L248.64 136.7L250.85 138.22L252.79 139.19L253.85 139.6L256 140.36L257.02 140.6L258.98 140.99H259.75L260.25 141.22L260.53 141.58L260.65 141.85L261 143.13V144L260.98 145.17L260.91 145.57L260.72 146.27L260.52 146.47L260.06 146.81L259.69 146.88L258.85 146.97L258.25 146.96L253.8 146.32L250.96 145.37L249.64 144.67L247.07 143.14L245.92 142.19L243.71 140.18L242.78 139.04L241.03 136.67L240.35 135.4L239.15 132.79L238.79 131.44L238.23 128.7V127.33L238.41 124.58L238.81 123.25L240.45 119.06L241.84 116.57L242.66 115.48L244.4 113.43L245.38 112.6L247.4 111.06L248.51 110.5L251.12 109.47L253.17 108.98L254.54 108.81L255.99 108.65L256.85 108.59L258.64 108.47L259.7 108.42L261.92 108.32L263.21 108.28L265.93 108.21L267.5 108.17L282.5 107.85L289.15 101.42L295.81 95.0003H303.35L305.75 94.9903L307.06 94.9703L307.6 94.9403L308.59 94.8803L308.99 94.8303L309.72 94.7103L310.01 94.6203L310.98 94.1803L311.3 93.8103L311.88 92.9403L312.2 92.2903L312.98 91.0503L313.71 90.1303L314.14 89.6703L316.04 87.8503L317 87.2003L318.99 86.1003L320.39 85.5603L321.12 85.3903L324.06 84.9503M327.65 115.49L328.99 115.83L329.57 116.03L330.67 116.46L331.08 116.71L333.3 118.58L334.65 120.24L335.2 121.19L336.19 123.13L336.51 124.11L337 126.06V126.93L336.54 129.88L335.81 131.94L335.28 132.93L334.13 134.88L333.44 135.72L331.99 137.29L331.21 137.85L329.04 139.13L327.77 139.48L325.06 140H323.42L320.71 139.88L319.34 139.6L318.73 139.3L317.53 138.56L316.85 137.94L316.15 137.28L315.76 136.88L314.93 136.02L314.45 135.5L310.26 131H296.83L292.19 130.97L289.58 130.9L288.51 130.85L286.5 130.72L285.71 130.63L284.24 130.42L283.69 130.27L282.71 129.97L282.38 129.77L281.82 129.35L281.68 129.09L281.48 128.55L281.5 128.22L281.61 127.53L281.76 127.13L282.78 125.45L283.31 125.06L283.68 124.91L284.48 124.63L285.01 124.52L286.17 124.33L286.91 124.26L288.52 124.15L289.52 124.11L291.66 124.05L292.96 124.04L295.73 124.02H297.38L310.26 124L314.45 119.5L315.76 118.12L316.51 117.37L316.85 117.06L318.12 116.01L318.73 115.7L319.96 115.22L320.71 115.12L322.32 115H323.42M324.63 121L322.67 121.18L321.73 121.52L319.91 122.37L319.19 123.04L317.62 125.07L317.1 126.49V127.23L317.27 128.71L317.62 129.45L318.48 130.95L319.17 131.69L320.65 133.01L321.42 133.38L322.96 133.95L323.71 133.98L325.2 133.88L325.88 133.63L327.2 132.97L327.76 132.47L328.8 131.37L329.18 130.68L329.83 129.21L329.97 128.38L330.11 126.67L329.95 125.75L329.48 123.89L328.96 122.93L328.26 122.07L327.63 121.63L327.25 121.46L325.58 120.99M259.7 125.08L260.39 125.26L260.58 125.45L260.86 125.9L260.89 126.27V127.13L260.82 127.74L260.62 128.76L260.42 129.16L259.98 129.89L259.7 130.14L259.09 130.59L258.76 130.71L258.07 130.87L257.72 130.85L257.03 130.75L256.71 130.59L256.09 130.22L255.84 129.93L255.38 129.29L255.23 128.87L255 127.96V127.42L255.12 126.18L255.34 125.62L255.57 125.45L256.09 125.16L256.5 125.09L257.42 125H258.07M272.7 125.08L273.39 125.26L273.58 125.45L273.86 125.9L273.89 126.27V127.13L273.82 127.74L273.61 128.79L273.42 129.19L272.97 129.9L272.69 130.14L272.08 130.55L271.75 130.64L271.06 130.74L270.71 130.69L270.02 130.5L269.7 130.31L269.09 129.85L268.84 129.52L268.37 128.8L268.23 128.35L268 127.37V126.8L268.16 125.95L268.44 125.54L268.68 125.4L269.23 125.16L269.62 125.09L270.49 125H271.07M324.4 91.0803L322.83 91.3203L322.03 91.6503L320.42 92.4603L319.63 93.0703L317.81 95.1303L317.14 96.6403L317.08 97.4203L317.16 99.0003L317.48 99.7803L318.3 101.3L319 102L320.27 103.02L321.04 103.33L322.66 103.84L323.51 103.89L325.23 103.87L326.04 103.66L327.6 103.1L328.25 102.61L328.98 101.78L329.37 101.06L329.52 100.63L329.96 98.7803L329.98 97.7603L329.88 95.7203L329.62 94.8103L328.97 93.1103L328.43 92.5703L326.58 91.3903L325.16 91.0403M305.88 55.1303L307.09 55.4303L309.52 56.2403L310.7 56.9603L313.37 59.1203L314.77 60.8303L315.28 61.7903L316.18 63.7503L316.44 64.7903L316.83 66.8903V67.9503L316.72 70.0903L316.47 71.1303L315.85 73.1803L315.35 74.1403L314.21 76.0103L313.46 76.8303L311.82 78.4003L310.81 79.0303L308.92 80.0503L307.73 80.4803L307.08 80.6003L305.72 80.7503L304.89 80.7403L303.12 80.6503L301.99 80.5303L296.49 79.9603L289.52 86.9803L287.7 88.7803L286.87 89.5403L285.27 90.9603L284.55 91.5403L283.17 92.5903L282.57 92.9703L281.43 93.6403L280.94 93.8403L280.03 94.1303L279.66 94.1403L278.99 94.0503L278.74 93.8603L278.31 93.3903L278.19 93.0203L278 92.1603V91.5903L278.41 90.1103L279.12 88.8803L279.69 88.1303L281 86.5303L281.89 85.5703L283.84 83.5503L285.06 82.3703L292.13 75.5503L291.48 70.8903L291.47 66.7603L292 64.2003L292.49 63.0603L293.62 60.8503L294.38 59.9103L296 58.1503L296.95 57.4503L298.95 56.2003L300.05 55.8003L302.3 55.1603L303.48 55.0903M269.7 88.0803L270.39 88.2603L270.58 88.4503L270.86 88.9003L270.89 89.2803V90.1303L270.82 90.7503L270.67 91.7403L270.54 92.1103L270.23 92.7703L270 93.0003L269.47 93.4103L269.11 93.5403L268.29 93.7503L267.75 93.8203L266.28 93.8903L265.64 93.7703L265.45 93.5803L265.15 93.1103L265.08 92.7003L265 91.7603V91.0703L265.09 89.4203L265.29 88.7103L265.5 88.5003L266.01 88.1603L266.42 88.0903L267.38 88.0003H268.07M304.69 62.0203L302.31 62.1803L301.08 62.4703L300.6 62.7503L299.69 63.3903L299.3 63.8703L298.54 64.9503L298.15 65.6903L297.6 67.9103L297.75 69.4703L298.04 70.2203L298.78 71.6903L299.34 72.3103L300.58 73.4503L301.36 73.8303L302.88 74.5103L303.5 74.6803L304.67 74.8803L305.19 74.7803L306.22 74.4603L306.77 74.0903L307.88 73.2103L308.55 72.5503L310.19 70.4903L310.81 69.1603L310.88 68.4903L310.87 67.1503L310.63 66.4503L309.99 65.0103L309.44 64.2203L307.49 62.5503L305.78 62.0103L304.69 62.0203Z" fill="#CEA85B"/>
</svg>
